<?xml version="1.0" encoding="UTF-8"?>
<svg width="36px" height="36px" viewBox="0 0 36 36" version="1.1" xmlns="http://www.w3.org/2000/svg" xmlns:xlink="http://www.w3.org/1999/xlink">
    <!-- Generator: Sketch 48.2 (47327) - http://www.bohemiancoding.com/sketch -->
    <title>social/twitter/active</title>
    <desc>Created with Sketch.</desc>
    <defs></defs>
    <g id="Symbols" stroke="none" stroke-width="1" fill="none" fill-rule="evenodd">
        <g id="social/twitter/active">
            <g id="Group-4-Copy-2">
                <g id="Group-11-Copy-3" fill="#008EDA">
                    <g id="Group-13-Copy">
                        <rect id="Rectangle-10-Copy-10" x="0" y="0" width="36" height="36" rx="2"></rect>
                    </g>
                </g>
                <path d="M28,12.7757313 C27.2651288,13.0769231 26.4739097,13.2806067 25.6439514,13.3716143 C26.4915185,12.9035753 27.1418677,12.1614301 27.4482597,11.2773564 C26.6546927,11.7107259 25.7777778,12.0260022 24.8409931,12.1950163 C24.0943828,11.4593716 23.0272935,11 21.8463344,11 C19.5818513,11 17.7446734,12.695558 17.7446734,14.7865655 C17.7446734,15.0834236 17.7798908,15.3716143 17.8503258,15.6489707 C14.440101,15.4907909 11.4172683,13.9848321 9.3922639,11.6912243 C9.0389153,12.2524377 8.83700182,12.9035753 8.83700182,13.5969664 C8.83700182,14.9100758 9.56130774,16.0693391 10.6624406,16.7486457 C9.99096085,16.7302275 9.35704643,16.5579632 8.80295827,16.276273 L8.80295827,16.3228602 C8.80295827,18.1581798 10.2175266,19.6890574 12.0957915,20.035753 C11.7518342,20.1245937 11.3890943,20.1690141 11.0146152,20.1690141 C10.7504842,20.1690141 10.4922228,20.1462622 10.2421788,20.1018418 C10.7645712,21.6056338 12.2789223,22.7009751 14.0750132,22.7302275 C12.6710102,23.7464789 10.9007454,24.3521127 8.97904561,24.3521127 C8.64800141,24.3521127 8.32047896,24.3347779 8,24.3001083 C9.81604743,25.3726977 11.9737043,26 14.2898398,26 C21.838117,26 25.9644304,20.2307692 25.9644304,15.2264355 C25.9644304,15.0617551 25.9609086,14.8970748 25.9538651,14.7356446 C26.7556495,14.2015168 27.4517814,13.5352113 28,12.7757313" id="Twitter-Copy-2" fill="#FFFFFF"></path>
            </g>
        </g>
    </g>
</svg>