<?xml version="1.0" encoding="UTF-8"?>
<svg width="36px" height="36px" viewBox="0 0 36 36" version="1.1" xmlns="http://www.w3.org/2000/svg" xmlns:xlink="http://www.w3.org/1999/xlink">
    <!-- Generator: Sketch 48.2 (47327) - http://www.bohemiancoding.com/sketch -->
    <title>social/linkedin/active</title>
    <desc>Created with Sketch.</desc>
    <defs></defs>
    <g id="Symbols" stroke="none" stroke-width="1" fill="none" fill-rule="evenodd">
        <g id="social/linkedin/active">
            <g id="Group-3-Copy-2">
                <g id="Group-16-Copy">
                    <g id="Group-12-Copy-2" fill="#008EDA">
                        <rect id="Rectangle-10-Copy-11" x="0" y="0" width="37" height="37" rx="2"></rect>
                    </g>
                    <path d="M27,27 L23.0217545,27 L23.0217545,21.0238202 C23.0217545,19.4595633 22.3994591,18.3916885 21.0310442,18.3916885 C19.9843603,18.3916885 19.4022813,19.1123135 19.13135,19.8068131 C19.0297507,20.0560927 19.0456256,20.4033425 19.0456256,20.7505923 L19.0456256,27 L15.1044214,27 C15.1044214,27 15.1552211,16.4137799 15.1044214,15.4514952 L19.0456256,15.4514952 L19.0456256,17.2639431 C19.2784572,16.4714734 20.5378645,15.3404623 22.5476246,15.3404623 C25.0410395,15.3404623 27,17.0016008 27,20.5786002 L27,27 L27,27 Z M11.1187676,14.0069796 L11.0933678,14.0069796 C9.82337723,14.0069796 9,13.1241596 9,12.0051226 C9,10.8643145 9.84771872,10 11.1431091,10 C12.4374412,10 13.233302,10.8621374 13.2587018,12.001857 C13.2587018,13.1208939 12.4374412,14.0069796 11.1187676,14.0069796 L11.1187676,14.0069796 L11.1187676,14.0069796 Z M9.45402164,15.4514952 L12.9623706,15.4514952 L12.9623706,27 L9.45402164,27 L9.45402164,15.4514952 L9.45402164,15.4514952 Z" id="LinkedIn" fill="#FFFFFF"></path>
                </g>
            </g>
        </g>
    </g>
</svg>