<svg xmlns="http://www.w3.org/2000/svg" xmlns:xlink="http://www.w3.org/1999/xlink" width="427.9" height="516.7" viewBox="0 0 427.9 516.7"><defs><style>.cls-1{isolation:isolate;}.cls-2{fill:url(#linear-gradient);}.cls-3{opacity:0.51;}.cls-3,.cls-5,.cls-7{mix-blend-mode:screen;}.cls-4{fill:url(#linear-gradient-31);}.cls-5{opacity:0.7;}.cls-6{fill:url(#linear-gradient-61);}.cls-7{opacity:0.49;}.cls-8{fill:#fff;}.cls-9{fill:none;stroke:#717171;stroke-miterlimit:1;stroke-width:0.59px;}.cls-10{opacity:0.58;}.cls-11{fill:#404040;}.cls-12{fill:#141414;}.cls-13{fill:#131313;}.cls-14{fill:#292929;}.cls-15{fill:#363636;}.cls-16{fill:#3c3c3c;}.cls-17{fill:#2c2c2c;}.cls-18{fill:#252525;}.cls-19{fill:#030303;}.cls-20{fill:#232323;}.cls-21{fill:#010101;}.cls-22{fill:#272727;}.cls-23{fill:#222;}.cls-24{fill:#262626;}.cls-25{fill:#5f5f5f;}.cls-26{fill:#464646;}.cls-27{fill:#333;}.cls-28{fill:#5b5b5b;}.cls-29{fill:#0e0e0e;}.cls-30{fill:#1d1d1d;}.cls-31{fill:#080808;}.cls-32{fill:#73482b;}.cls-33{fill:#95c21b;}.cls-34{fill:#74bde7;}.cls-35{fill:#5a91ad;}.cls-36{fill:#497687;}.cls-37{fill:#3c616d;}.cls-38{fill:#825639;}</style><linearGradient id="linear-gradient" x1="213.95" y1="516.4" x2="213.95" y2="306.92" gradientUnits="userSpaceOnUse"><stop offset="0" stop-color="#656565"/><stop offset="0.62" stop-color="#1b1b1b"/><stop offset="0.63" stop-color="#545454"/><stop offset="0.98" stop-color="#3e3e3e"/></linearGradient><linearGradient id="linear-gradient-31" x1="213.95" y1="516.4" x2="213.95" y2="306.92" gradientUnits="userSpaceOnUse"><stop offset="0" stop-color="#0e0e0e"/><stop offset="0.5"/><stop offset="0.52" stop-color="#010101"/><stop offset="0.73" stop-color="#0b0b0b"/><stop offset="1" stop-color="#0e0e0e"/></linearGradient><linearGradient id="linear-gradient-61" x1="213.95" y1="306.92" x2="213.95" y2="516.4" gradientUnits="userSpaceOnUse"><stop offset="0" stop-color="#fff" stop-opacity="0.77"/><stop offset="0.2" stop-color="#fff" stop-opacity="0.65"/><stop offset="0.34" stop-color="#fff" stop-opacity="0.65"/><stop offset="0.35" stop-color="#fff" stop-opacity="0.65"/><stop offset="0.37" stop-color="#fff" stop-opacity="0.62"/><stop offset="0.4" stop-color="#fff" stop-opacity="0.53"/><stop offset="0.43" stop-color="#fff" stop-opacity="0.39"/><stop offset="0.47" stop-color="#fff" stop-opacity="0.2"/><stop offset="0.51" stop-color="#fff" stop-opacity="0"/><stop offset="0.59" stop-color="#7e7e7e" stop-opacity="0.09"/><stop offset="1" stop-color="#1b1b1b" stop-opacity="0.16"/></linearGradient></defs><title>charity_blue</title><g class="cls-1"><g id="Layer_2" data-name="Layer 2"><g id="Layer_1-2" data-name="Layer 1"><path class="cls-2" d="M127.8,502.1c-1.4-.4-1.8-1.6-2.1-2.8-4.2-14.1-3.3-28.9-5.2-43.3-.4-3.2-.6-6.6.8-9.8,13.1-12.4,28.4-22.1,42.6-33.1,1.8-1.4,3.7-2.9,6.3-2.4s5.6,1,8.4,1c21.8.3,43.5,2.7,65.3,3.3,5.9.2,12,.3,17.9,1.5,4,3.3,1.1,5.7-1.4,7.5-5.4,3.8-10.8,7.7-15.9,11.8s-8.2,5.8-11.1,10c-12,9.9-24.2,19.7-36.2,29.6-5.3,4.4-10.9,8.3-16.5,12.2a30.2,30.2,0,0,1-2.8,2.6c-14.7,4.3-29.1,9.6-44.3,11.8C131.6,502.3,129.7,501.1,127.8,502.1Z"/><path class="cls-2" d="M400.8,329.2c5.2,2.9,11.1,4.3,16,7.9.8,3.6-1.9,4.1-4.3,4.7-9.1,2.6-18.3,4.7-27.4,7.1-5.6,1.4-8.7,4.4-9,10.2a55.5,55.5,0,0,1-1.1,5.9c-.3,2-1.4,3.3-3.5,3.6s-4.5-2.7-4.8-5.3a8.7,8.7,0,0,0-6.5-7.7c-.9-1.1-1.9-2.5-1.4-3.6,1.6-3.3-.5-4.9-2.5-6.8-.4-.3.1-1-1.2-.6a53.7,53.7,0,0,1-21.8,1.4,37.1,37.1,0,0,0-9-.4c-4.1.4-5.8,2.3-5.3,6.3s-1.7,4.9-4.3,6-6,1.4-8.3,1.9c1.2,0,3.1-.2,2.6,2.8-3,3.1-6.8,1.7-10.3,1.8s-8.4-.7-11.9-2c-5.6-2-9.8.2-14.4,2.1-8.9.3-17.8.1-26.7.1a48.3,48.3,0,0,1-11.3-1.4,23.8,23.8,0,0,0-12.3,0,39.6,39.6,0,0,1-13.3,1c-5.5-.8-11-.5-16.5-.5-16.6,0-33.3.2-49.9-.1-8.3-.1-16.6,1-24.9,1.1a117.2,117.2,0,0,1-12.9-.5c-5.5,1.4-10.9-.7-16.3-.9-3-.1-6-.6-8.9-.6-6.6-.1-12.6-2.7-18.9-4-9.1-2-18.1-4.6-27.1-7-2.7-.7-5.7-1-7.1-4s3.2-5.7,6.3-5.3c6.5.8,12.5-1.5,18.7-2.3,2.1-.3,4-.4,5.5,1.1,3.5,3.6,8,4.1,12.5,4l16.4-.2a280.7,280.7,0,0,0,31.8-2.3c6.9-.8,13.8-2,20.7-3.4,2.6-.5,5.8-1,7.1-3.3,4.1-7.4,10.7-5.9,17.1-5.3,1.8.2,3.6.8,5.4.2s4,3.2,6.7,3.3c6.3.8,12.5.1,18.8-.4,8.1-.7,16.2.3,24.3-.5a23.7,23.7,0,0,1,11.3,1c1.4.4,3.1.5,3.4,2.4s-.9,2.7-2.2,3.5-3.2,1.2-2.7,3.1,2.7,1.9,4.3,1.7c5.7-.7,10,3.2,15.2,4.2a1.7,1.7,0,0,1,1.2.9c2.4,5.7,6.7,3.8,10.9,3,8.8-1.8,17.3-4.3,24.4-10.1a3.2,3.2,0,0,1,1.3-.7c6.1-1.3,12.2-2.3,17.9-4.9,1.1-.5,2.4,0,3.5.1-.5,0-1.2-.3-1.8-.2-2.2.2-4.6.5-5.1-2.4s1.7-4.6,4.2-5.4c4.5-1.4,9.3-.4,13.9-.7,11.6-.9,23.1.9,34.6,1.4a5.6,5.6,0,0,0,2.9-.4c8.2-4.5,16.5-2.4,24.6-.2,5.9,1.6,11.5,0,17.3-.2C397.9,329.5,399.3,328.7,400.8,329.2Z"/><path class="cls-2" d="M240.7,333.3c-5,.3-75,6-87.9,0-1.2-.6-3.3.1-3.4,1.5-.6,8.1-7.5,6.5-11.9,7.3-13.4,2.4-27,5.2-40.5,5.4s-26.2,2.5-39.1-1.2a13.2,13.2,0,0,1-2-.3c-5.8-2.8-7.3-2.8-14.3-1.2a19.4,19.4,0,0,1-6.9.2,9.1,9.1,0,0,0-7.9,2.2c-1.2,2-3.1,1.6-4.8,1.3a114.8,114.8,0,0,1-15.7-4.2c-1.9-.6-3.8-1.5-3.4-4.1,6.5-6.1,14.5-9.8,22.7-13,19.5-7.7,40.3-10.1,60.9-12.4,29.7-3.4,59.4-7.4,89.4-7.9,1.9,1.1,86.6.8,86,2.3C258.8,316.6,243.8,326,240.7,333.3Z"/><path class="cls-2" d="M400.8,329.2c-5,5.7-12,4.4-17.8,3.6s-12.7-1.4-18.9-3.2a4,4,0,0,0-2.9.4c-8.1,5-16.8,2.8-25.2,1.8s-19.4.6-29.1-.5a5.9,5.9,0,0,0-2.5.4c-1.6.5-3.8,1-3.5,2.9s2.6,1.6,4.1,1.2a11.7,11.7,0,0,1,7.3.5c.9.4,2.1.6,2.1,1.8s-1.1,1.6-2.1,1.8-3.7,1-5.4,0c-3.2-1.9-5.6-1.1-7.8,1.6a3.1,3.1,0,0,1-2.1,1.3c-11.7-.4-19.7,8.5-30,11.5-6.8,2-13.9,2.6-21,3.1a2.2,2.2,0,0,1-2.4-1.4c-.8-2.3,2-2.3,2.8-4.2-5.7-.8-10.3-5.2-16.6-3.9-1.4.3-2.9-.5-4.4-.7s-3-2.8-3.3-4.9,1.5-2.8,3.4-3.2,3.3-.4,4.5-2.9H218.6c-.4-2.7,1.6-2.9,3.4-3.2a56.9,56.9,0,0,1,7.4-.2c7.1-.1,7.8-1.2,5.2-8-.7-1.8-1.7-3.6-1.8-5.6s-1.7-3.4-2.2-5.3-1-4.2,1.5-5.4c8.9-.2,17.8-.5,26.7.3,1.9.2,4,.4,5.9-.3,23.2.9,46.4,2.9,69.6,4.3a286.6,286.6,0,0,1,42.9,5.9C386,320.5,394.1,323.1,400.8,329.2Z"/><path class="cls-2" d="M123.7,446.2c-2.4,7.8.3,15.4.6,23.1.4,9.4,1.4,18.8,2,28.1,0,.6-.4,1.2-.7,1.8-6.7-12.8-13.4-25.7-20-38.5a55.4,55.4,0,0,0-5.3-8.4L52.8,390.2a1.2,1.2,0,0,1,.3-1.6c2-1.3,4.2-.9,6.3-.6,18.7,2.9,37.4,5.6,56,8.7,2.8.5,5.5,1.2,7.5,3.5,2.2,4.9,1.5,10.1,1.8,15.2C125.4,425.7,126.4,436,123.7,446.2Z"/><path class="cls-2" d="M177.7,488.2l2-2c20.8-7.1,42.6-10.1,63.7-15.7,3.7-1,7.5-1.6,11.2-2.3s5-.8,6.9,1.5,0,5-1.6,7.2a294.3,294.3,0,0,1-25.9,30.4c-1.3,1.3-2.8,2.4-3.3,4.3-3.4,5.2-8,5.6-13.4,3.7a1.3,1.3,0,0,0-.8-1.6c-12.3-5.6-23.2-13.4-34.9-20C179.7,492.7,177,491.6,177.7,488.2Z"/><path class="cls-2" d="M52.7,389.4q0,.4,0,.8L1.7,346.4c-3.1-2.7-.3-4.3,1-6.1,7.7,3.4,15.9,4.8,24,6.9,17.3,4.7,34.5,9.7,52.1,13,0,.3-.1.8-.3.9-9.9,3.6-13.1,13.3-18.8,20.8C57.6,384.6,55.8,387.5,52.7,389.4Z"/><path class="cls-2" d="M177.7,488.2l44,26.7-4.3.5c-20.9-1.2-41.5-5.1-62.1-8.5l-27.5-4.8C144.4,497.5,160.9,492.2,177.7,488.2Z"/><path class="cls-2" d="M370.7,367.2c3.3-2.7,2.5-6.7,2.8-10.1.6-5.8,2.8-9.1,9-10.2,9.6-1.8,18.9-4.7,28.4-7.2,2.1-.5,4.2-.9,5.8-2.6,3.2,1.1,10.8,10.1,10.8,13.1s-2.3,2.9-3.9,4-4.1,2-6.1,3c-15.1,7.3-30.4,14.1-46,20.2a4.4,4.4,0,0,1-2.4.3c-2-1.2-4.9-.1-6.6-2.3s-.4-1.9.4-2.2C366.2,372.1,368.1,369.3,370.7,367.2Z"/><path class="cls-2" d="M407.8,365.3c-12,8.7-23.9,17.5-36,25.9s-25.7,20-38.4,30.3c-1.5,1.3-3.2,2.4-4.8,3.5s-4,1.6-5.6,2.9c-11.1,9-22.4,17.7-34.1,25.8-2.7,1.9-5.5,3.6-8.2-.1-1.1-3.3,1.4-5,3.3-6.7,8.5-7.5,17.1-14.8,25.5-22.3s14.1-12.2,21-18.4c2.7-2.4,7.1-2.9,8.1-7.1,2-2,3.8-4.1,6.5-5.1s5.4-.1,8-2c14.5-10.5,30.5-18.6,46.4-26.7,1.2-.6,2.4-1.5,3.6-2S407.3,362.5,407.8,365.3Z"/><path class="cls-2" d="M172.7,336.3c-2-.4-3.3-2-4.9-3"/><path class="cls-2" d="M176.8,332.9"/><path class="cls-2" d="M181.7,310.3"/><path class="cls-2" d="M281.7,453.2c2.1,1,3.8.2,5.5-1l36-25.8c1.6-1.2,3.3-2.4,5.4-1.3-11.8,10-23.9,19.7-35.5,30-19.5,17.4-38.6,35.1-57.9,52.7l-4.5,3.9c3.1-6.9,8.7-11.9,13-17.9,5.4-7.7,12-14.5,17-22.5.5-1.1,0-2.4.9-3.4,3.8-4.7,8.8-8.3,13.1-12.5C276.7,453.6,278.6,451.5,281.7,453.2Z"/><path class="cls-2" d="M407.8,365.3c-1.9-.9-3.5-.4-5.2.6-16.4,10-33.8,18.2-50,28.6-2.1,1.3-4.2,2.8-6.9,1.7-.6-2.1.6-3.5,1.9-4.7a133.5,133.5,0,0,1,20.3-15.3,11.1,11.1,0,0,0,1.9-.9l49.3-20.2c1.5-.6,2.8-2,4.6-.9Z"/><path class="cls-2" d="M231.8,309.2c5.1-1.9,10.4-.5,15.6-.8,3.1-.2,6.2-.2,9.4-.3l7.8.2c-6,1.9-12.2.6-18.4.8S236.7,309.2,231.8,309.2Z"/><path class="cls-2" d="M262.6,418.3c-23.7-.6-47.4-2.3-71.1-3.8-7.6-.5-15.3-.4-22.9-1.3-1.1-4.1,2.6-4.6,4.7-5.9,9.8-5.8,19.8-11.3,29.7-17,6.1-3.5,12-7.6,18.8-9.9,3.2-1.1,4.8-4.3,7.6-6,4.7-.8,9.7,0,14.3-1.5q23.3-1.7,46.6-3.9a22.9,22.9,0,0,1,8.9.7l1.5.5c2.6,2.5.8,4.4-.7,6.5-8.1,10.8-16.9,21-25.4,31.4-3.2,3.9-5.7,8.7-10.8,10.7A2,2,0,0,1,262.6,418.3Z"/><path class="cls-2" d="M229.7,377.3c-5.3,4.8-12,7.4-18.1,11-14.2,8.5-28.6,16.7-42.9,25-10.8,6.6-20.4,14.9-30.6,22.3-4.9,3.5-9.6,7.1-14.4,10.7a14.4,14.4,0,0,1-.9-3.8c.6-14.1-1.2-28-1-42.1a4.6,4.6,0,0,1,3.6-3.3q48.3-10.6,96.6-20.8C224.5,375.6,227.6,374,229.7,377.3Z"/><path class="cls-2" d="M262.6,418.3h1.1a26.4,26.4,0,0,0,9.4-3.6c20.1-5.6,40.2-11.2,60.6-15.7,2.6-.6,6-2.4,7,2.3l-49.6,43.2c-3.2,2.8-7,5.1-9.4,8.8-6.9,4.7-12.4,11-19,16-3.8-1.9-4.4-5-3.3-8.7,2.3-8.2.6-16.5.6-24.7,0-3.6-3-3.7-5.5-2.1a73.9,73.9,0,0,0-12.4,9.1,15.1,15.1,0,0,1-6.3,3.9c-2.1.6-4,.6-4.1-2.4l27.6-22.4A37.8,37.8,0,0,0,262.6,418.3Z"/><path class="cls-2" d="M231.7,444.3c3.9,1.6,6.3-1.1,8.7-3.3a100.3,100.3,0,0,1,15.3-11.2c4.5-2.7,6.8-1.7,6.7,3.4-.2,9.6,2.5,19.2-.7,28.7-.8,2.5,1,4.8,1,7.3l-1.9,2c-5.8-2.4-11.1.6-16.5,1.8-19.8,4.2-39.6,9-59.3,13.6-1.8.4-3.6.7-5.3-.4l36.8-29.8Z"/><path class="cls-2" d="M229.7,377.3l-81.5,17.4-22.5,4.7c-4.4,1.6-7-1-8.8-4.3-4.9-9-10-17.9-14.2-27.2-.9-2-2-4.1,1-5.4,34.9-1.6,69.8-1.3,104.8-1.1,4.4.9,8.8.2,13.2.4s6.9.4,10.3.5c1.7,0,3.8,0,4.1,1.9.5,3.7,3,4.6,5.8,5.7s3.9,2.7,1.9,5.4C239.2,376.8,234.2,375.4,229.7,377.3Z"/><path class="cls-2" d="M103.7,362.4c1.1,6.6,5.3,11.9,8.1,17.8s5.3,9.9,7.8,14.9c1.3,2.6,3,4.3,6.1,4.1l-4,1.1-51.3-8.1-17.7-2.9c1.9-6.1,6.4-10.7,9.7-16,1.5-2.4,3.5-4.4,4.8-6.9,2.5-4.8,6.3-6.9,11.7-6.3Z"/><path class="cls-2" d="M370.7,367.2c.7,6.9.6,7-8,7-1.9,3-4.9,2.5-7.6,2.3-16.3-1.2-32.7-2-49.1-3-2.1-.1-3.9-.6-5.3-2.3v-.2c-5.5-3.7-11.4-6.1-18.3-5.5a12.6,12.6,0,0,1-5.9-.6c-1.5-.6-3.2-1.5-1-3.3,7.4-1.3,14.8.1,22.1.4,3.7-.2,7.5.7,11.1-.9.7-2.1,2.7-2.2,4.5-2.5,13.6-2.4,27.3-3.8,40.9-5.8,2.2-.3,4.7-.6,6.6,1.3,5-1,7.6.9,7.8,6.1A14.3,14.3,0,0,0,370.7,367.2Z"/><path class="cls-2" d="M360.7,354.2c-17.3,2.8-34.5,5.4-52,7.1-3.4-.3-7.5,1.2-9.4-3.7,7.1,2.6,12.2-1.3,17.7-4.1-1-2.2-1.9-1-2.7-.9s-2.1.4-2.6-.7.9-1.5,1.5-2.2c5.9-7.6,13.6-7.8,22-5.8.8.2,1.8.7,2.4.4,4.4-2.1,9-.8,13.5-1,1.8-.1,5.2.4,3.1-3.5-.4-.8,0-1.3.8-1.4s3-.3,4.3.8a1.7,1.7,0,0,1,.3,2.3c-.5,1-1.9,1.4-1.7,2.9s1.8.6,2.7.4,4.2-.4,5,2-1.7,2.8-3.2,3.4S360.3,352.4,360.7,354.2Z"/><path class="cls-2" d="M274.6,362.4c4.5,1.6,9.3.7,13.9.8s9.6,3,12.2,8l-49,3.8c-2.6.2-5.3.2-7.9.3-1.3-3.8-4.4-4.2-7.7-3.7s-4.5-.7-2.9-3.8.3-4.4-3-4.4-5,.4-7.3-.9a108.7,108.7,0,0,1,23-.1h28.1C274.1,361.8,274.4,361.9,274.6,362.4Z"/><path class="cls-2" d="M274.6,362.4l-.9-.2,5.7-3.1c1.2-.7,2.4-1.4,3.6,0,2.8,3.2,6.3,2.4,9.7,1.5s3.9-.6,5,1.7Z"/><path class="cls-2" d="M245.7,362.2h-23c-4.7-.6-9.5.5-14.2-1h32.3A9.4,9.4,0,0,1,245.7,362.2Z"/><path class="cls-2" d="M369.7,341.7c-.3,1.5-1.2,2.2-2.4,2.1a2,2,0,0,1-1.9-2.4,1.7,1.7,0,0,1,2-1.6A2.4,2.4,0,0,1,369.7,341.7Z"/><path class="cls-2" d="M300.7,371.3c17.6-.2,35,1.6,52.5,2.7,3.1.2,6.3.2,9.4.3s4.7.9,7.1,1l-1.1,1c-10.3,7.4-22.4,11.3-34,16-19.4,8-38.7,16.5-59,22.3a5,5,0,0,0-3,1.7c-2.4,3.7-5.4,4.2-9,2l34.7-43.1A37.3,37.3,0,0,0,300.7,371.3Z"/><path class="cls-2" d="M272.7,416.3c-1.2-1-.1-1.4.6-1.7l94.9-38.3h.5l-23,20c-2.1,1.2-3.4,3.3-5,5-1.9-1.3-3.8-.5-5.7-.1Z"/><g class="cls-3"><path class="cls-4" d="M127.8,502.1c-1.4-.4-1.8-1.6-2.1-2.8-4.2-14.1-3.3-28.9-5.2-43.3-.4-3.2-.6-6.6.8-9.8,13.1-12.4,28.4-22.1,42.6-33.1,1.8-1.4,3.7-2.9,6.3-2.4s5.6,1,8.4,1c21.8.3,43.5,2.7,65.3,3.3,5.9.2,12,.3,17.9,1.5,4,3.3,1.1,5.7-1.4,7.5-5.4,3.8-10.8,7.7-15.9,11.8s-8.2,5.8-11.1,10c-12,9.9-24.2,19.7-36.2,29.6-5.3,4.4-10.9,8.3-16.5,12.2a30.2,30.2,0,0,1-2.8,2.6c-14.7,4.3-29.1,9.6-44.3,11.8C131.6,502.3,129.7,501.1,127.8,502.1Z"/><path class="cls-4" d="M400.8,329.2c5.2,2.9,11.1,4.3,16,7.9.8,3.6-1.9,4.1-4.3,4.7-9.1,2.6-18.3,4.7-27.4,7.1-5.6,1.4-8.7,4.4-9,10.2a55.5,55.5,0,0,1-1.1,5.9c-.3,2-1.4,3.3-3.5,3.6s-4.5-2.7-4.8-5.3a8.7,8.7,0,0,0-6.5-7.7c-.9-1.1-1.9-2.5-1.4-3.6,1.6-3.3-.5-4.9-2.5-6.8-.4-.3.1-1-1.2-.6a53.7,53.7,0,0,1-21.8,1.4,37.1,37.1,0,0,0-9-.4c-4.1.4-5.8,2.3-5.3,6.3s-1.7,4.9-4.3,6-6,1.4-8.3,1.9c1.2,0,3.1-.2,2.6,2.8-3,3.1-6.8,1.7-10.3,1.8s-8.4-.7-11.9-2c-5.6-2-9.8.2-14.4,2.1-8.9.3-17.8.1-26.7.1a48.3,48.3,0,0,1-11.3-1.4,23.8,23.8,0,0,0-12.3,0,39.6,39.6,0,0,1-13.3,1c-5.5-.8-11-.5-16.5-.5-16.6,0-33.3.2-49.9-.1-8.3-.1-16.6,1-24.9,1.1a117.2,117.2,0,0,1-12.9-.5c-5.5,1.4-10.9-.7-16.3-.9-3-.1-6-.6-8.9-.6-6.6-.1-12.6-2.7-18.9-4-9.1-2-18.1-4.6-27.1-7-2.7-.7-5.7-1-7.1-4s3.2-5.7,6.3-5.3c6.5.8,12.5-1.5,18.7-2.3,2.1-.3,4-.4,5.5,1.1,3.5,3.6,8,4.1,12.5,4l16.4-.2a280.7,280.7,0,0,0,31.8-2.3c6.9-.8,13.8-2,20.7-3.4,2.6-.5,5.8-1,7.1-3.3,4.1-7.4,10.7-5.9,17.1-5.3,1.8.2,3.6.8,5.4.2s4,3.2,6.7,3.3c6.3.8,12.5.1,18.8-.4,8.1-.7,16.2.3,24.3-.5a23.7,23.7,0,0,1,11.3,1c1.4.4,3.1.5,3.4,2.4s-.9,2.7-2.2,3.5-3.2,1.2-2.7,3.1,2.7,1.9,4.3,1.7c5.7-.7,10,3.2,15.2,4.2a1.7,1.7,0,0,1,1.2.9c2.4,5.7,6.7,3.8,10.9,3,8.8-1.8,17.3-4.3,24.4-10.1a3.2,3.2,0,0,1,1.3-.7c6.1-1.3,12.2-2.3,17.9-4.9,1.1-.5,2.4,0,3.5.1-.5,0-1.2-.3-1.8-.2-2.2.2-4.6.5-5.1-2.4s1.7-4.6,4.2-5.4c4.5-1.4,9.3-.4,13.9-.7,11.6-.9,23.1.9,34.6,1.4a5.6,5.6,0,0,0,2.9-.4c8.2-4.5,16.5-2.4,24.6-.2,5.9,1.6,11.5,0,17.3-.2C397.9,329.5,399.3,328.7,400.8,329.2Z"/><path class="cls-4" d="M240.7,333.3c-5,.3-75,6-87.9,0-1.2-.6-3.3.1-3.4,1.5-.6,8.1-7.5,6.5-11.9,7.3-13.4,2.4-27,5.2-40.5,5.4s-26.2,2.5-39.1-1.2a13.2,13.2,0,0,1-2-.3c-5.8-2.8-7.3-2.8-14.3-1.2a19.4,19.4,0,0,1-6.9.2,9.1,9.1,0,0,0-7.9,2.2c-1.2,2-3.1,1.6-4.8,1.3a114.8,114.8,0,0,1-15.7-4.2c-1.9-.6-3.8-1.5-3.4-4.1,6.5-6.1,14.5-9.8,22.7-13,19.5-7.7,40.3-10.1,60.9-12.4,29.7-3.4,59.4-7.4,89.4-7.9,1.9,1.1,86.6.8,86,2.3C258.8,316.6,243.8,326,240.7,333.3Z"/><path class="cls-4" d="M400.8,329.2c-5,5.7-12,4.4-17.8,3.6s-12.7-1.4-18.9-3.2a4,4,0,0,0-2.9.4c-8.1,5-16.8,2.8-25.2,1.8s-19.4.6-29.1-.5a5.9,5.9,0,0,0-2.5.4c-1.6.5-3.8,1-3.5,2.9s2.6,1.6,4.1,1.2a11.7,11.7,0,0,1,7.3.5c.9.4,2.1.6,2.1,1.8s-1.1,1.6-2.1,1.8-3.7,1-5.4,0c-3.2-1.9-5.6-1.1-7.8,1.6a3.1,3.1,0,0,1-2.1,1.3c-11.7-.4-19.7,8.5-30,11.5-6.8,2-13.9,2.6-21,3.1a2.2,2.2,0,0,1-2.4-1.4c-.8-2.3,2-2.3,2.8-4.2-5.7-.8-10.3-5.2-16.6-3.9-1.4.3-2.9-.5-4.4-.7s-3-2.8-3.3-4.9,1.5-2.8,3.4-3.2,3.3-.4,4.5-2.9H218.6c-.4-2.7,1.6-2.9,3.4-3.2a56.9,56.9,0,0,1,7.4-.2c7.1-.1,7.8-1.2,5.2-8-.7-1.8-1.7-3.6-1.8-5.6s-1.7-3.4-2.2-5.3-1-4.2,1.5-5.4c8.9-.2,17.8-.5,26.7.3,1.9.2,4,.4,5.9-.3,23.2.9,46.4,2.9,69.6,4.3a286.6,286.6,0,0,1,42.9,5.9C386,320.5,394.1,323.1,400.8,329.2Z"/><path class="cls-4" d="M123.7,446.2c-2.4,7.8.3,15.4.6,23.1.4,9.4,1.4,18.8,2,28.1,0,.6-.4,1.2-.7,1.8-6.7-12.8-13.4-25.7-20-38.5a55.4,55.4,0,0,0-5.3-8.4L52.8,390.2a1.2,1.2,0,0,1,.3-1.6c2-1.3,4.2-.9,6.3-.6,18.7,2.9,37.4,5.6,56,8.7,2.8.5,5.5,1.2,7.5,3.5,2.2,4.9,1.5,10.1,1.8,15.2C125.4,425.7,126.4,436,123.7,446.2Z"/><path class="cls-4" d="M177.7,488.2l2-2c20.8-7.1,42.6-10.1,63.7-15.7,3.7-1,7.5-1.6,11.2-2.3s5-.8,6.9,1.5,0,5-1.6,7.2a294.3,294.3,0,0,1-25.9,30.4c-1.3,1.3-2.8,2.4-3.3,4.3-3.4,5.2-8,5.6-13.4,3.7a1.3,1.3,0,0,0-.8-1.6c-12.3-5.6-23.2-13.4-34.9-20C179.7,492.7,177,491.6,177.7,488.2Z"/><path class="cls-4" d="M52.7,389.4q0,.4,0,.8L1.7,346.4c-3.1-2.7-.3-4.3,1-6.1,7.7,3.4,15.9,4.8,24,6.9,17.3,4.7,34.5,9.7,52.1,13,0,.3-.1.8-.3.9-9.9,3.6-13.1,13.3-18.8,20.8C57.6,384.6,55.8,387.5,52.7,389.4Z"/><path class="cls-4" d="M177.7,488.2l44,26.7-4.3.5c-20.9-1.2-41.5-5.1-62.1-8.5l-27.5-4.8C144.4,497.5,160.9,492.2,177.7,488.2Z"/><path class="cls-4" d="M370.7,367.2c3.3-2.7,2.5-6.7,2.8-10.1.6-5.8,2.8-9.1,9-10.2,9.6-1.8,18.9-4.7,28.4-7.2,2.1-.5,4.2-.9,5.8-2.6,3.2,1.1,10.8,10.1,10.8,13.1s-2.3,2.9-3.9,4-4.1,2-6.1,3c-15.1,7.3-30.4,14.1-46,20.2a4.4,4.4,0,0,1-2.4.3c-2-1.2-4.9-.1-6.6-2.3s-.4-1.9.4-2.2C366.2,372.1,368.1,369.3,370.7,367.2Z"/><path class="cls-4" d="M407.8,365.3c-12,8.7-23.9,17.5-36,25.9s-25.7,20-38.4,30.3c-1.5,1.3-3.2,2.4-4.8,3.5s-4,1.6-5.6,2.9c-11.1,9-22.4,17.7-34.1,25.8-2.7,1.9-5.5,3.6-8.2-.1-1.1-3.3,1.4-5,3.3-6.7,8.5-7.5,17.1-14.8,25.5-22.3s14.1-12.2,21-18.4c2.7-2.4,7.1-2.9,8.1-7.1,2-2,3.8-4.1,6.5-5.1s5.4-.1,8-2c14.5-10.5,30.5-18.6,46.4-26.7,1.2-.6,2.4-1.5,3.6-2S407.3,362.5,407.8,365.3Z"/><path class="cls-4" d="M172.7,336.3c-2-.4-3.3-2-4.9-3"/><path class="cls-4" d="M176.8,332.9"/><path class="cls-4" d="M181.7,310.3"/><path class="cls-4" d="M281.7,453.2c2.1,1,3.8.2,5.5-1l36-25.8c1.6-1.2,3.3-2.4,5.4-1.3-11.8,10-23.9,19.7-35.5,30-19.5,17.4-38.6,35.1-57.9,52.7l-4.5,3.9c3.1-6.9,8.7-11.9,13-17.9,5.4-7.7,12-14.5,17-22.5.5-1.1,0-2.4.9-3.4,3.8-4.7,8.8-8.3,13.1-12.5C276.7,453.6,278.6,451.5,281.7,453.2Z"/><path class="cls-4" d="M407.8,365.3c-1.9-.9-3.5-.4-5.2.6-16.4,10-33.8,18.2-50,28.6-2.1,1.3-4.2,2.8-6.9,1.7-.6-2.1.6-3.5,1.9-4.7a133.5,133.5,0,0,1,20.3-15.3,11.1,11.1,0,0,0,1.9-.9l49.3-20.2c1.5-.6,2.8-2,4.6-.9Z"/><path class="cls-4" d="M231.8,309.2c5.1-1.9,10.4-.5,15.6-.8,3.1-.2,6.2-.2,9.4-.3l7.8.2c-6,1.9-12.2.6-18.4.8S236.7,309.2,231.8,309.2Z"/><path class="cls-4" d="M262.6,418.3c-23.7-.6-47.4-2.3-71.1-3.8-7.6-.5-15.3-.4-22.9-1.3-1.1-4.1,2.6-4.6,4.7-5.9,9.8-5.8,19.8-11.3,29.7-17,6.1-3.5,12-7.6,18.8-9.9,3.2-1.1,4.8-4.3,7.6-6,4.7-.8,9.7,0,14.3-1.5q23.3-1.7,46.6-3.9a22.9,22.9,0,0,1,8.9.7l1.5.5c2.6,2.5.8,4.4-.7,6.5-8.1,10.8-16.9,21-25.4,31.4-3.2,3.9-5.7,8.7-10.8,10.7A2,2,0,0,1,262.6,418.3Z"/><path class="cls-4" d="M229.7,377.3c-5.3,4.8-12,7.4-18.1,11-14.2,8.5-28.6,16.7-42.9,25-10.8,6.6-20.4,14.9-30.6,22.3-4.9,3.5-9.6,7.1-14.4,10.7a14.4,14.4,0,0,1-.9-3.8c.6-14.1-1.2-28-1-42.1a4.6,4.6,0,0,1,3.6-3.3q48.3-10.6,96.6-20.8C224.5,375.6,227.6,374,229.7,377.3Z"/><path class="cls-4" d="M262.6,418.3h1.1a26.4,26.4,0,0,0,9.4-3.6c20.1-5.6,40.2-11.2,60.6-15.7,2.6-.6,6-2.4,7,2.3l-49.6,43.2c-3.2,2.8-7,5.1-9.4,8.8-6.9,4.7-12.4,11-19,16-3.8-1.9-4.4-5-3.3-8.7,2.3-8.2.6-16.5.6-24.7,0-3.6-3-3.7-5.5-2.1a73.9,73.9,0,0,0-12.4,9.1,15.1,15.1,0,0,1-6.3,3.9c-2.1.6-4,.6-4.1-2.4l27.6-22.4A37.8,37.8,0,0,0,262.6,418.3Z"/><path class="cls-4" d="M231.7,444.3c3.9,1.6,6.3-1.1,8.7-3.3a100.3,100.3,0,0,1,15.3-11.2c4.5-2.7,6.8-1.7,6.7,3.4-.2,9.6,2.5,19.2-.7,28.7-.8,2.5,1,4.8,1,7.3l-1.9,2c-5.8-2.4-11.1.6-16.5,1.8-19.8,4.2-39.6,9-59.3,13.6-1.8.4-3.6.7-5.3-.4l36.8-29.8Z"/><path class="cls-4" d="M229.7,377.3l-81.5,17.4-22.5,4.7c-4.4,1.6-7-1-8.8-4.3-4.9-9-10-17.9-14.2-27.2-.9-2-2-4.1,1-5.4,34.9-1.6,69.8-1.3,104.8-1.1,4.4.9,8.8.2,13.2.4s6.9.4,10.3.5c1.7,0,3.8,0,4.1,1.9.5,3.7,3,4.6,5.8,5.7s3.9,2.7,1.9,5.4C239.2,376.8,234.2,375.4,229.7,377.3Z"/><path class="cls-4" d="M103.7,362.4c1.1,6.6,5.3,11.9,8.1,17.8s5.3,9.9,7.8,14.9c1.3,2.6,3,4.3,6.1,4.1l-4,1.1-51.3-8.1-17.7-2.9c1.9-6.1,6.4-10.7,9.7-16,1.5-2.4,3.5-4.4,4.8-6.9,2.5-4.8,6.3-6.9,11.7-6.3Z"/><path class="cls-4" d="M370.7,367.2c.7,6.9.6,7-8,7-1.9,3-4.9,2.5-7.6,2.3-16.3-1.2-32.7-2-49.1-3-2.1-.1-3.9-.6-5.3-2.3v-.2c-5.5-3.7-11.4-6.1-18.3-5.5a12.6,12.6,0,0,1-5.9-.6c-1.5-.6-3.2-1.5-1-3.3,7.4-1.3,14.8.1,22.1.4,3.7-.2,7.5.7,11.1-.9.7-2.1,2.7-2.2,4.5-2.5,13.6-2.4,27.3-3.8,40.9-5.8,2.2-.3,4.7-.6,6.6,1.3,5-1,7.6.9,7.8,6.1A14.3,14.3,0,0,0,370.7,367.2Z"/><path class="cls-4" d="M360.7,354.2c-17.3,2.8-34.5,5.4-52,7.1-3.4-.3-7.5,1.2-9.4-3.7,7.1,2.6,12.2-1.3,17.7-4.1-1-2.2-1.9-1-2.7-.9s-2.1.4-2.6-.7.9-1.5,1.5-2.2c5.9-7.6,13.6-7.8,22-5.8.8.2,1.8.7,2.4.4,4.4-2.1,9-.8,13.5-1,1.8-.1,5.2.4,3.1-3.5-.4-.8,0-1.3.8-1.4s3-.3,4.3.8a1.7,1.7,0,0,1,.3,2.3c-.5,1-1.9,1.4-1.7,2.9s1.8.6,2.7.4,4.2-.4,5,2-1.7,2.8-3.2,3.4S360.3,352.4,360.7,354.2Z"/><path class="cls-4" d="M274.6,362.4c4.5,1.6,9.3.7,13.9.8s9.6,3,12.2,8l-49,3.8c-2.6.2-5.3.2-7.9.3-1.3-3.8-4.4-4.2-7.7-3.7s-4.5-.7-2.9-3.8.3-4.4-3-4.4-5,.4-7.3-.9a108.7,108.7,0,0,1,23-.1h28.1C274.1,361.8,274.4,361.9,274.6,362.4Z"/><path class="cls-4" d="M274.6,362.4l-.9-.2,5.7-3.1c1.2-.7,2.4-1.4,3.6,0,2.8,3.2,6.3,2.4,9.7,1.5s3.9-.6,5,1.7Z"/><path class="cls-4" d="M245.7,362.2h-23c-4.7-.6-9.5.5-14.2-1h32.3A9.4,9.4,0,0,1,245.7,362.2Z"/><path class="cls-4" d="M369.7,341.7c-.3,1.5-1.2,2.2-2.4,2.1a2,2,0,0,1-1.9-2.4,1.7,1.7,0,0,1,2-1.6A2.4,2.4,0,0,1,369.7,341.7Z"/><path class="cls-4" d="M300.7,371.3c17.6-.2,35,1.6,52.5,2.7,3.1.2,6.3.2,9.4.3s4.7.9,7.1,1l-1.1,1c-10.3,7.4-22.4,11.3-34,16-19.4,8-38.7,16.5-59,22.3a5,5,0,0,0-3,1.7c-2.4,3.7-5.4,4.2-9,2l34.7-43.1A37.3,37.3,0,0,0,300.7,371.3Z"/><path class="cls-4" d="M272.7,416.3c-1.2-1-.1-1.4.6-1.7l94.9-38.3h.5l-23,20c-2.1,1.2-3.4,3.3-5,5-1.9-1.3-3.8-.5-5.7-.1Z"/></g><g class="cls-5"><path class="cls-6" d="M127.8,502.1c-1.4-.4-1.8-1.6-2.1-2.8-4.2-14.1-3.3-28.9-5.2-43.3-.4-3.2-.6-6.6.8-9.8,13.1-12.4,28.4-22.1,42.6-33.1,1.8-1.4,3.7-2.9,6.3-2.4s5.6,1,8.4,1c21.8.3,43.5,2.7,65.3,3.3,5.9.2,12,.3,17.9,1.5,4,3.3,1.1,5.7-1.4,7.5-5.4,3.8-10.8,7.7-15.9,11.8s-8.2,5.8-11.1,10c-12,9.9-24.2,19.7-36.2,29.6-5.3,4.4-10.9,8.3-16.5,12.2a30.2,30.2,0,0,1-2.8,2.6c-14.7,4.3-29.1,9.6-44.3,11.8C131.6,502.3,129.7,501.1,127.8,502.1Z"/><path class="cls-6" d="M400.8,329.2c5.2,2.9,11.1,4.3,16,7.9.8,3.6-1.9,4.1-4.3,4.7-9.1,2.6-18.3,4.7-27.4,7.1-5.6,1.4-8.7,4.4-9,10.2a55.5,55.5,0,0,1-1.1,5.9c-.3,2-1.4,3.3-3.5,3.6s-4.5-2.7-4.8-5.3a8.7,8.7,0,0,0-6.5-7.7c-.9-1.1-1.9-2.5-1.4-3.6,1.6-3.3-.5-4.9-2.5-6.8-.4-.3.1-1-1.2-.6a53.7,53.7,0,0,1-21.8,1.4,37.1,37.1,0,0,0-9-.4c-4.1.4-5.8,2.3-5.3,6.3s-1.7,4.9-4.3,6-6,1.4-8.3,1.9c1.2,0,3.1-.2,2.6,2.8-3,3.1-6.8,1.7-10.3,1.8s-8.4-.7-11.9-2c-5.6-2-9.8.2-14.4,2.1-8.9.3-17.8.1-26.7.1a48.3,48.3,0,0,1-11.3-1.4,23.8,23.8,0,0,0-12.3,0,39.6,39.6,0,0,1-13.3,1c-5.5-.8-11-.5-16.5-.5-16.6,0-33.3.2-49.9-.1-8.3-.1-16.6,1-24.9,1.1a117.2,117.2,0,0,1-12.9-.5c-5.5,1.4-10.9-.7-16.3-.9-3-.1-6-.6-8.9-.6-6.6-.1-12.6-2.7-18.9-4-9.1-2-18.1-4.6-27.1-7-2.7-.7-5.7-1-7.1-4s3.2-5.7,6.3-5.3c6.5.8,12.5-1.5,18.7-2.3,2.1-.3,4-.4,5.5,1.1,3.5,3.6,8,4.1,12.5,4l16.4-.2a280.7,280.7,0,0,0,31.8-2.3c6.9-.8,13.8-2,20.7-3.4,2.6-.5,5.8-1,7.1-3.3,4.1-7.4,10.7-5.9,17.1-5.3,1.8.2,3.6.8,5.4.2s4,3.2,6.7,3.3c6.3.8,12.5.1,18.8-.4,8.1-.7,16.2.3,24.3-.5a23.7,23.7,0,0,1,11.3,1c1.4.4,3.1.5,3.4,2.4s-.9,2.7-2.2,3.5-3.2,1.2-2.7,3.1,2.7,1.9,4.3,1.7c5.7-.7,10,3.2,15.2,4.2a1.7,1.7,0,0,1,1.2.9c2.4,5.7,6.7,3.8,10.9,3,8.8-1.8,17.3-4.3,24.4-10.1a3.2,3.2,0,0,1,1.3-.7c6.1-1.3,12.2-2.3,17.9-4.9,1.1-.5,2.4,0,3.5.1-.5,0-1.2-.3-1.8-.2-2.2.2-4.6.5-5.1-2.4s1.7-4.6,4.2-5.4c4.5-1.4,9.3-.4,13.9-.7,11.6-.9,23.1.9,34.6,1.4a5.6,5.6,0,0,0,2.9-.4c8.2-4.5,16.5-2.4,24.6-.2,5.9,1.6,11.5,0,17.3-.2C397.9,329.5,399.3,328.7,400.8,329.2Z"/><path class="cls-6" d="M240.7,333.3c-5,.3-75,6-87.9,0-1.2-.6-3.3.1-3.4,1.5-.6,8.1-7.5,6.5-11.9,7.3-13.4,2.4-27,5.2-40.5,5.4s-26.2,2.5-39.1-1.2a13.2,13.2,0,0,1-2-.3c-5.8-2.8-7.3-2.8-14.3-1.2a19.4,19.4,0,0,1-6.9.2,9.1,9.1,0,0,0-7.9,2.2c-1.2,2-3.1,1.6-4.8,1.3a114.8,114.8,0,0,1-15.7-4.2c-1.9-.6-3.8-1.5-3.4-4.1,6.5-6.1,14.5-9.8,22.7-13,19.5-7.7,40.3-10.1,60.9-12.4,29.7-3.4,59.4-7.4,89.4-7.9,1.9,1.1,86.6.8,86,2.3C258.8,316.6,243.8,326,240.7,333.3Z"/><path class="cls-6" d="M400.8,329.2c-5,5.7-12,4.4-17.8,3.6s-12.7-1.4-18.9-3.2a4,4,0,0,0-2.9.4c-8.1,5-16.8,2.8-25.2,1.8s-19.4.6-29.1-.5a5.9,5.9,0,0,0-2.5.4c-1.6.5-3.8,1-3.5,2.9s2.6,1.6,4.1,1.2a11.7,11.7,0,0,1,7.3.5c.9.4,2.1.6,2.1,1.8s-1.1,1.6-2.1,1.8-3.7,1-5.4,0c-3.2-1.9-5.6-1.1-7.8,1.6a3.1,3.1,0,0,1-2.1,1.3c-11.7-.4-19.7,8.5-30,11.5-6.8,2-13.9,2.6-21,3.1a2.2,2.2,0,0,1-2.4-1.4c-.8-2.3,2-2.3,2.8-4.2-5.7-.8-10.3-5.2-16.6-3.9-1.4.3-2.9-.5-4.4-.7s-3-2.8-3.3-4.9,1.5-2.8,3.4-3.2,3.3-.4,4.5-2.9H218.6c-.4-2.7,1.6-2.9,3.4-3.2a56.9,56.9,0,0,1,7.4-.2c7.1-.1,7.8-1.2,5.2-8-.7-1.8-1.7-3.6-1.8-5.6s-1.7-3.4-2.2-5.3-1-4.2,1.5-5.4c8.9-.2,17.8-.5,26.7.3,1.9.2,4,.4,5.9-.3,23.2.9,46.4,2.9,69.6,4.3a286.6,286.6,0,0,1,42.9,5.9C386,320.5,394.1,323.1,400.8,329.2Z"/><path class="cls-6" d="M123.7,446.2c-2.4,7.8.3,15.4.6,23.1.4,9.4,1.4,18.8,2,28.1,0,.6-.4,1.2-.7,1.8-6.7-12.8-13.4-25.7-20-38.5a55.4,55.4,0,0,0-5.3-8.4L52.8,390.2a1.2,1.2,0,0,1,.3-1.6c2-1.3,4.2-.9,6.3-.6,18.7,2.9,37.4,5.6,56,8.7,2.8.5,5.5,1.2,7.5,3.5,2.2,4.9,1.5,10.1,1.8,15.2C125.4,425.7,126.4,436,123.7,446.2Z"/><path class="cls-6" d="M177.7,488.2l2-2c20.8-7.1,42.6-10.1,63.7-15.7,3.7-1,7.5-1.6,11.2-2.3s5-.8,6.9,1.5,0,5-1.6,7.2a294.3,294.3,0,0,1-25.9,30.4c-1.3,1.3-2.8,2.4-3.3,4.3-3.4,5.2-8,5.6-13.4,3.7a1.3,1.3,0,0,0-.8-1.6c-12.3-5.6-23.2-13.4-34.9-20C179.7,492.7,177,491.6,177.7,488.2Z"/><path class="cls-6" d="M52.7,389.4q0,.4,0,.8L1.7,346.4c-3.1-2.7-.3-4.3,1-6.1,7.7,3.4,15.9,4.8,24,6.9,17.3,4.7,34.5,9.7,52.1,13,0,.3-.1.8-.3.9-9.9,3.6-13.1,13.3-18.8,20.8C57.6,384.6,55.8,387.5,52.7,389.4Z"/><path class="cls-6" d="M177.7,488.2l44,26.7-4.3.5c-20.9-1.2-41.5-5.1-62.1-8.5l-27.5-4.8C144.4,497.5,160.9,492.2,177.7,488.2Z"/><path class="cls-6" d="M370.7,367.2c3.3-2.7,2.5-6.7,2.8-10.1.6-5.8,2.8-9.1,9-10.2,9.6-1.8,18.9-4.7,28.4-7.2,2.1-.5,4.2-.9,5.8-2.6,3.2,1.1,10.8,10.1,10.8,13.1s-2.3,2.9-3.9,4-4.1,2-6.1,3c-15.1,7.3-30.4,14.1-46,20.2a4.4,4.4,0,0,1-2.4.3c-2-1.2-4.9-.1-6.6-2.3s-.4-1.9.4-2.2C366.2,372.1,368.1,369.3,370.7,367.2Z"/><path class="cls-6" d="M407.8,365.3c-12,8.7-23.9,17.5-36,25.9s-25.7,20-38.4,30.3c-1.5,1.3-3.2,2.4-4.8,3.5s-4,1.6-5.6,2.9c-11.1,9-22.4,17.7-34.1,25.8-2.7,1.9-5.5,3.6-8.2-.1-1.1-3.3,1.4-5,3.3-6.7,8.5-7.5,17.1-14.8,25.5-22.3s14.1-12.2,21-18.4c2.7-2.4,7.1-2.9,8.1-7.1,2-2,3.8-4.1,6.5-5.1s5.4-.1,8-2c14.5-10.5,30.5-18.6,46.4-26.7,1.2-.6,2.4-1.5,3.6-2S407.3,362.5,407.8,365.3Z"/><path class="cls-6" d="M172.7,336.3c-2-.4-3.3-2-4.9-3"/><path class="cls-6" d="M176.8,332.9"/><path class="cls-6" d="M181.7,310.3"/><path class="cls-6" d="M281.7,453.2c2.1,1,3.8.2,5.5-1l36-25.8c1.6-1.2,3.3-2.4,5.4-1.3-11.8,10-23.9,19.7-35.5,30-19.5,17.4-38.6,35.1-57.9,52.7l-4.5,3.9c3.1-6.9,8.7-11.9,13-17.9,5.4-7.7,12-14.5,17-22.5.5-1.1,0-2.4.9-3.4,3.8-4.7,8.8-8.3,13.1-12.5C276.7,453.6,278.6,451.5,281.7,453.2Z"/><path class="cls-6" d="M407.8,365.3c-1.9-.9-3.5-.4-5.2.6-16.4,10-33.8,18.2-50,28.6-2.1,1.3-4.2,2.8-6.9,1.7-.6-2.1.6-3.5,1.9-4.7a133.5,133.5,0,0,1,20.3-15.3,11.1,11.1,0,0,0,1.9-.9l49.3-20.2c1.5-.6,2.8-2,4.6-.9Z"/><path class="cls-6" d="M231.8,309.2c5.1-1.9,10.4-.5,15.6-.8,3.1-.2,6.2-.2,9.4-.3l7.8.2c-6,1.9-12.2.6-18.4.8S236.7,309.2,231.8,309.2Z"/><path class="cls-6" d="M262.6,418.3c-23.7-.6-47.4-2.3-71.1-3.8-7.6-.5-15.3-.4-22.9-1.3-1.1-4.1,2.6-4.6,4.7-5.9,9.8-5.8,19.8-11.3,29.7-17,6.1-3.5,12-7.6,18.8-9.9,3.2-1.1,4.8-4.3,7.6-6,4.7-.8,9.7,0,14.3-1.5q23.3-1.7,46.6-3.9a22.9,22.9,0,0,1,8.9.7l1.5.5c2.6,2.5.8,4.4-.7,6.5-8.1,10.8-16.9,21-25.4,31.4-3.2,3.9-5.7,8.7-10.8,10.7A2,2,0,0,1,262.6,418.3Z"/><path class="cls-6" d="M229.7,377.3c-5.3,4.8-12,7.4-18.1,11-14.2,8.5-28.6,16.7-42.9,25-10.8,6.6-20.4,14.9-30.6,22.3-4.9,3.5-9.6,7.1-14.4,10.7a14.4,14.4,0,0,1-.9-3.8c.6-14.1-1.2-28-1-42.1a4.6,4.6,0,0,1,3.6-3.3q48.3-10.6,96.6-20.8C224.5,375.6,227.6,374,229.7,377.3Z"/><path class="cls-6" d="M262.6,418.3h1.1a26.4,26.4,0,0,0,9.4-3.6c20.1-5.6,40.2-11.2,60.6-15.7,2.6-.6,6-2.4,7,2.3l-49.6,43.2c-3.2,2.8-7,5.1-9.4,8.8-6.9,4.7-12.4,11-19,16-3.8-1.9-4.4-5-3.3-8.7,2.3-8.2.6-16.5.6-24.7,0-3.6-3-3.7-5.5-2.1a73.9,73.9,0,0,0-12.4,9.1,15.1,15.1,0,0,1-6.3,3.9c-2.1.6-4,.6-4.1-2.4l27.6-22.4A37.8,37.8,0,0,0,262.6,418.3Z"/><path class="cls-6" d="M231.7,444.3c3.9,1.6,6.3-1.1,8.7-3.3a100.3,100.3,0,0,1,15.3-11.2c4.5-2.7,6.8-1.7,6.7,3.4-.2,9.6,2.5,19.2-.7,28.7-.8,2.5,1,4.8,1,7.3l-1.9,2c-5.8-2.4-11.1.6-16.5,1.8-19.8,4.2-39.6,9-59.3,13.6-1.8.4-3.6.7-5.3-.4l36.8-29.8Z"/><path class="cls-6" d="M229.7,377.3l-81.5,17.4-22.5,4.7c-4.4,1.6-7-1-8.8-4.3-4.9-9-10-17.9-14.2-27.2-.9-2-2-4.1,1-5.4,34.9-1.6,69.8-1.3,104.8-1.1,4.4.9,8.8.2,13.2.4s6.9.4,10.3.5c1.7,0,3.8,0,4.1,1.9.5,3.7,3,4.6,5.8,5.7s3.9,2.7,1.9,5.4C239.2,376.8,234.2,375.4,229.7,377.3Z"/><path class="cls-6" d="M103.7,362.4c1.1,6.6,5.3,11.9,8.1,17.8s5.3,9.9,7.8,14.9c1.3,2.6,3,4.3,6.1,4.1l-4,1.1-51.3-8.1-17.7-2.9c1.9-6.1,6.4-10.7,9.7-16,1.5-2.4,3.5-4.4,4.8-6.9,2.5-4.8,6.3-6.9,11.7-6.3Z"/><path class="cls-6" d="M370.7,367.2c.7,6.9.6,7-8,7-1.9,3-4.9,2.5-7.6,2.3-16.3-1.2-32.7-2-49.1-3-2.1-.1-3.9-.6-5.3-2.3v-.2c-5.5-3.7-11.4-6.1-18.3-5.5a12.6,12.6,0,0,1-5.9-.6c-1.5-.6-3.2-1.5-1-3.3,7.4-1.3,14.8.1,22.1.4,3.7-.2,7.5.7,11.1-.9.7-2.1,2.7-2.2,4.5-2.5,13.6-2.4,27.3-3.8,40.9-5.8,2.2-.3,4.7-.6,6.6,1.3,5-1,7.6.9,7.8,6.1A14.3,14.3,0,0,0,370.7,367.2Z"/><path class="cls-6" d="M360.7,354.2c-17.3,2.8-34.5,5.4-52,7.1-3.4-.3-7.5,1.2-9.4-3.7,7.1,2.6,12.2-1.3,17.7-4.1-1-2.2-1.9-1-2.7-.9s-2.1.4-2.6-.7.9-1.5,1.5-2.2c5.9-7.6,13.6-7.8,22-5.8.8.2,1.8.7,2.4.4,4.4-2.1,9-.8,13.5-1,1.8-.1,5.2.4,3.1-3.5-.4-.8,0-1.3.8-1.4s3-.3,4.3.8a1.7,1.7,0,0,1,.3,2.3c-.5,1-1.9,1.4-1.7,2.9s1.8.6,2.7.4,4.2-.4,5,2-1.7,2.8-3.2,3.4S360.3,352.4,360.7,354.2Z"/><path class="cls-6" d="M274.6,362.4c4.5,1.6,9.3.7,13.9.8s9.6,3,12.2,8l-49,3.8c-2.6.2-5.3.2-7.9.3-1.3-3.8-4.4-4.2-7.7-3.7s-4.5-.7-2.9-3.8.3-4.4-3-4.4-5,.4-7.3-.9a108.7,108.7,0,0,1,23-.1h28.1C274.1,361.8,274.4,361.9,274.6,362.4Z"/><path class="cls-6" d="M274.6,362.4l-.9-.2,5.7-3.1c1.2-.7,2.4-1.4,3.6,0,2.8,3.2,6.3,2.4,9.7,1.5s3.9-.6,5,1.7Z"/><path class="cls-6" d="M245.7,362.2h-23c-4.7-.6-9.5.5-14.2-1h32.3A9.4,9.4,0,0,1,245.7,362.2Z"/><path class="cls-6" d="M369.7,341.7c-.3,1.5-1.2,2.2-2.4,2.1a2,2,0,0,1-1.9-2.4,1.7,1.7,0,0,1,2-1.6A2.4,2.4,0,0,1,369.7,341.7Z"/><path class="cls-6" d="M300.7,371.3c17.6-.2,35,1.6,52.5,2.7,3.1.2,6.3.2,9.4.3s4.7.9,7.1,1l-1.1,1c-10.3,7.4-22.4,11.3-34,16-19.4,8-38.7,16.5-59,22.3a5,5,0,0,0-3,1.7c-2.4,3.7-5.4,4.2-9,2l34.7-43.1A37.3,37.3,0,0,0,300.7,371.3Z"/><path class="cls-6" d="M272.7,416.3c-1.2-1-.1-1.4.6-1.7l94.9-38.3h.5l-23,20c-2.1,1.2-3.4,3.3-5,5-1.9-1.3-3.8-.5-5.7-.1Z"/></g><g class="cls-7"><path class="cls-8" d="M127.8,501.4c-3.7-2.4-3.8-11.4-4.4-15.5-.9-6.8-1.1-13.8-1.6-20.6s-3.5-15.5,1.8-20.3,9.6-8.2,14.7-12.1,9.6-7.1,14.4-10.6l7.2-5.3c2.4-1.8,5.1-4.7,8-5.5s3.9.5,5.9.7a46.1,46.1,0,0,0,4.8.2c7,.1,14,.4,21,.8,13.1.7,26.3,1.8,39.4,2.4,5.1.2,10.2.2,15.3.7,2.3.2,6.8-.1,8.3,2s-2.2,4.9-4,6.2c-9,6.4-17.8,12.9-25.5,20.8-4.5,4.6-10.3,8.4-15.3,12.5l-16.4,13.4c-5.4,4.4-10.7,8.7-16.4,12.7-2.4,1.7-4.8,4.3-7.3,5.8s-7.6,2.3-10.9,3.3c-6.7,2.1-13.4,4.1-20.1,5.8-3.7.9-7.5,1.8-11.3,2.4s-5.3-.4-7.7.4c-.1,0,.1.7,0,.7,2.4-.8,5.1,0,7.7-.4s7.6-1.4,11.3-2.4c7.4-1.8,14.7-4.1,21.9-6.4,2.8-.9,6.6-1.3,9.1-2.8s4.8-4,7.3-5.8c6.2-4.4,12.1-9.1,17.9-13.9l16.5-13.4,7.6-6.2c3.4-2.8,6.2-5.8,9.4-8.8s9.2-7.4,13.8-10.9l8.4-6.1c1.8-1.3,4.5-2.6,4.8-5,.8-6.3-14.2-5-18.2-5.1-14-.5-27.9-1.5-41.8-2.4-7-.4-14-.8-21-.9-2.6-.1-5.3.1-7.9-.2s-5.5-1.7-8.6.1c-5.6,3.4-10.8,8.1-16.1,12s-11.6,8.4-17.2,12.9-11.6,7.7-12,14.2a34,34,0,0,0,.3,5.5c.8,7.9,1.2,15.8,1.9,23.8a118.7,118.7,0,0,0,1.5,12.1c.5,2.9.8,8.1,3.5,9.9C127.7,502,127.9,501.4,127.8,501.4Z"/><path class="cls-8" d="M371.4,367.9c-5.2-.7-3.7-6.1-6.2-9.5s-4.5-2.4-5.6-4.3.1-3.2-.1-4.4a6.1,6.1,0,0,0-1-2.8,17.6,17.6,0,0,0-2.4-2.7c-1.9-.8-5.7.9-7.7,1.2-6.6,1-12.6,0-19.2-.4-4.6-.3-10.1-.3-10.8,5.2-.1.7,0,1.5-.1,2.3-.7,5.7-7.6,5.8-12.1,6.7a5.1,5.1,0,0,0,0,.7c.2,1.7.7-.4,1.4.8s-1.9,3.3-4,3.4c-4.5.2-9.7-.9-14.1-1.6s-8.3-2-13.3-.2a23.7,23.7,0,0,1-5.3,1.7,77.3,77.3,0,0,1-8.9.1H245.8c-5-.1-9.6-1.3-14.5-2s-10.2,1.2-15.5,1.6-11.1-.6-16.7-.6c-20.5-.1-41.1-.6-61.5,0-6.1.2-12.2.9-18.3,1s-10-.7-14.9-.4a62.6,62.6,0,0,1-12.5-.5c-6.1-.8-12.3-.5-18.3-1.7-11.8-2.2-23.6-5.9-35.2-9-2.8-.8-13.8-1.9-11.5-7,.9-2.1,3.4-2.3,5.4-2.2a44.9,44.9,0,0,0,8.8-.4c3.8-.6,9.5-3.1,13.3-2,2.2.6,3.6,2.8,5.7,3.8a20,20,0,0,0,8.3,1.4c7.9.1,15.9,0,23.8-.3a290.5,290.5,0,0,0,36-3.7c4.3-.7,9-1.2,13.1-2.5s5.7-7,10.9-8.1,8.8.7,13.2.7,3.4.4,5.9,1.8,4.8,1.6,7.6,1.7c9.8.3,19.7-1,29.6-1,5.6,0,11.5-1.3,17-.2,1.9.4,5.9.7,5.9,2.9s-3,2.2-4.1,4c-3.3,5.5,7.9,4.7,10.5,5.6s2.5,1,3.8,1.6,4,.9,5.2,1.7,1.8,2.8,3.2,3.8c4.1,2.9,12.8-.7,17-1.9a56.4,56.4,0,0,0,8.6-3.2c2.9-1.4,5.2-3.5,8-5s6.1-1.6,9-2.3a59.6,59.6,0,0,0,10.1-3.3,3.2,3.2,0,0,0,0-.7c-.2-1.9-5.6-.9-2.6-5.2s7.4-2.7,10.5-2.7c9,.1,17.8-.3,26.8.4,4.7.4,9.6,1.3,14.3,1.1s5.7-1.9,8.9-2.6c8.5-1.8,16.1,2.6,24.4,2.7,4.4,0,8.8-.9,13.2-1.1s8.6,2.6,12.3,4.3,8.6,4.2,3.6,6.4c-3.2,1.4-7.1,2-10.5,2.8l-14.7,3.7c-3.6.9-7.6,1.6-10.3,4.3s-1.2,14.9-7.1,16.3c-.1,0,0,.7,0,.7,3.3-.8,3.5-4.3,4-7.3s.8-7.2,3.9-9.8,7.6-3.1,11.4-4.1l15.4-3.9c2.5-.7,10.3-1.4,10.4-5,.1-2-.6-2-2.3-3a53.3,53.3,0,0,0-6.3-3c-2.2-.9-5.1-2.9-7.3-3.4-3.8-.7-8.8.8-12.7,1.1s-8.3-.5-12.6-1.5-8.9-1.9-13.4-1.3-7.2,3-11.3,2.8c-10.1-.4-20.2-2-30.4-1.6-5,.2-20-2.1-21.1,4.7,0,.2,0,.4,0,.5a4.5,4.5,0,0,0,.1,1.3c.6,2.3,1.8,1.1,2.9,2.3s-1.9,1-2.9,1.3-4.5,1.4-6.8,1.9-4.4.8-6.5,1.4-4,2.2-6.1,3.5a60.4,60.4,0,0,1-25.3,8.5,6.7,6.7,0,0,1-4.8-.9c-1.3-.9-1.5-2.7-2.6-3.6s-3.5-1.1-5-1.7-5-2.3-7.7-2.7-10.3.6-6.5-3.9c1.3-1.6,4-1.5,3.8-4.3s-6.1-3.6-8.7-3.9-7.8.4-11.7.5H198.9c-8,.1-16.7,2.4-24.7.7-2-.4-2.8-1.5-4.5-2.5s-3.1-.6-5-.7c-4-.2-8-1.4-12-.7s-5.2,3.2-7.7,5.9-6.4,2.9-9.7,3.5c-19.3,3.7-38.8,5-58.4,5.2-5.2.1-11.2.9-16.1-1.1s-5-4.4-9.2-4.1-8.6,1.9-13,2.3-13.7-1.6-12.2,5.2c1,4.5,11.8,5.4,15.4,6.4q14.5,3.9,29.1,7.5c4.6,1.1,9.2,1.2,13.9,1.6s9.3,1.3,13.9,1.6,6.3-.3,9.6-.1,8.6.2,12.9.1c9.3-.3,18.5-1,27.9-.9,17.1.1,34.3-.3,51.4,0,4,.1,8,.7,12,.7s9.2-1.6,14-1.9,8.4,1.2,12.7,1.7a94.6,94.6,0,0,0,11.3.4c7.5,0,17.1,1.6,24.2-1.2s16-.3,24.1.9c2.3.3,11.1,1.1,9.9-3.2-.4-1.3-1.7-.8-2.1-1.4s1.1-.3,2.2-.4a19.4,19.4,0,0,0,6.2-1.7c3-1.5,3.4-3.2,3.6-6.1.4-9.7,13.9-5.3,20.1-5.1a56.9,56.9,0,0,0,14.4-1.4c2.7-.6,3.9-.2,5.5,2.4s-.6,5.4,1.4,7.7,2.9,1.5,4.1,2.6a8.8,8.8,0,0,1,2.4,3.9c1.1,3.2.8,6.3,4.9,6.9C371.3,368.6,371.4,367.9,371.4,367.9Z"/><path class="cls-8" d="M304.5,338.1h.4a2.1,2.1,0,0,0,.1-.6,5.3,5.3,0,0,0,0-.7c-.4-.1-.4-.1-.4.2v.4c0,.2,0,.5,0,.7v-.4c0-.3.1-.3.4-.2v-.7a2.2,2.2,0,0,1-.1.6h-.4S304.5,338.1,304.5,338.1Z"/><path class="cls-8" d="M24,348.1a78,78,0,0,1-12.4-2.8,37.3,37.3,0,0,1-6.3-2c-3.3-1.7-.3-4.2,1.7-5.6,8-6,17.8-9.7,27.2-12.7,19.6-6.2,40.2-7.9,60.4-10.3,22.5-2.6,45-5.4,67.6-6.5,12.3-.6,24.5.2,36.7.3,18.5.3,36.9.2,55.4.9.8,0,5.8-.3,6.4.4s-6.6,8.2-7.8,9.3c-3.5,3.3-7.3,6.4-10.2,10.2-1.1,1.4-1.6,2.9-3.1,3.4s-3.2.2-4.5.3c-17.9,1.3-35.9,2.3-53.9,2.3-8.2,0-16.9.2-24.9-1.7-2-.5-5-2.3-6.7-.3s-.7,3.6-1.7,5.1a6.2,6.2,0,0,1-3.9,2.3c-4.6,1.1-9.5,1.2-14.2,2.1-6.2,1.1-12.4,2.2-18.6,3a313.8,313.8,0,0,1-35.3,1.9A65.9,65.9,0,0,1,60,346.1c-4-1-8-3.2-12.2-3.1-2.4,0-4.6.8-7,1.2a33.8,33.8,0,0,1-7.1,0,9.7,9.7,0,0,0-6.7,1.9c-1.1.8-1.5,1.7-3.1,1.9,0,0,0,.7,0,.7,2.5-.4,4-3,6.7-3.6s4.6.1,6.9.1a33.5,33.5,0,0,0,6.4-1,17.3,17.3,0,0,1,10.5,1,49,49,0,0,0,12,2.7c9.6,1.1,19.2-.2,28.7-.4a216.7,216.7,0,0,0,32.6-3.7c4.5-.8,9-1.7,13.6-2.1,3-.3,5.9-.9,7.1-4s1.2-5.3,5.5-4a47.4,47.4,0,0,0,8.3,1.5c18.7,1.9,38,.5,56.8-.6l12.4-.8c2-.1,7.3.4,9-.6a18.5,18.5,0,0,0,1.3-2.2,31,31,0,0,1,2.9-3.5c2-2.1,4.1-4.1,6.2-6,3.8-3.5,8-7.1,10.4-11.8a4.8,4.8,0,0,0,0-.7c-6.2-1.2-13-.7-19.2-.8l-33.1-.5c-13.6-.2-27.4-1.2-41-.7-25.5.9-50.8,4.1-76.1,7-22.4,2.6-45.2,4.8-66.3,13.1A87.4,87.4,0,0,0,9.6,335c-1.7,1.1-6,3.4-6.5,5.4-1.5,5.5,17.2,7.9,20.9,8.3C24,348.8,24,348.1,24,348.1Z"/><path class="cls-8" d="M246,356.8c-4-1.1.3-2.9,1.1-4.9a5.6,5.6,0,0,0,0-.7c-4-.6-7.4-2.8-11.4-3.8s-8,.8-11.2-1.3-2.4-5.2.3-6.1,4.6-.8,6-3.8c0-.1,0-.7,0-.7h-4.5c-1.7,0-5,.7-6.5,0s4.4-2,5.6-2,5.2.3,7.6-.2,3.3-1.4,3.3-3.7c.1-5.5-4.2-11.2-5.5-16.4-.8-3.1.6-3.8,3.2-4.1s7.8-.2,11.6-.2c7.1,0,14,.4,21,.2,9.7-.3,19.8,1,29.5,1.6l29.6,2c18.5,1.2,37,2.8,55,7.4a56.8,56.8,0,0,1,11.2,3.9A39,39,0,0,1,397,327c2.5,1.7,3.1,2.8.3,4.3-6,3.2-14.2.8-20.6-.1-4.2-.5-8.3-1.9-12.4-2.3s-6.6,2.4-10.1,3.1c-8.5,1.6-17.3-1.3-25.9-1.3-4.3,0-8.6.3-12.9.3s-7.1-.8-10.4-.1-4.7,1.5-4.3,4,9.1.6,11.9,2.3-2.5,3-4.4,2.5-2.9-1.7-5-1.4-2.9,2-4.6,3.1-3.6.7-5.5,1a28.3,28.3,0,0,0-6.2,1.7c-4.3,1.7-8.3,4.3-12.4,6.4-8.7,4.5-18.8,5.8-28.4,6.2,0,0,0,.7,0,.7,7.8-.3,16.3-1.2,23.6-4s13.4-8,21-9.9c3.5-.9,6.1-.2,8.9-2.5s4.6-1.6,8.6-.7c1.6.4,6.2.1,6-2.3s-7.2-2.6-9.2-2.3-6-.1-3.3-3c1.1-1.1,3.9-1.5,5.4-1.5,7.6-.1,15.4-.1,23,.1s16.7,3,24.9,1.2c3.8-.8,6.4-3.3,10.2-2.7s9.3,1.8,14.1,2.4c7.3.9,15.2,3.1,21.1-2.7a2.5,2.5,0,0,0,0-.7c-12.7-10.6-31.5-12.4-47.3-14.4-18.5-2.4-37.2-3.1-55.8-4.3-16.3-1.1-32.5-1.7-48.7-1.9H236c-1.9,0-4.4-.5-5.3,1.6s0,3.1.2,3.9c.9,3.2,2.3,6.7,3.5,9.8s3.5,6.7.2,8.4-15.5-1.6-15.7,3.4c0,.1,0,.7,0,.7h7.9c.7,0,3.2-.4,3.7,0s.1-.9,0-.2-1.7,2.2-2.5,2.5c-2.9,1.4-5.6.5-5.4,4.2s3.5,5.2,7.3,5.2,5.3,0,8.1,1l3.8,1.5c.8.3,4.2.9,4.7,1.4s.3-.8.3-.4-1.3,1.4-1.8,2-1,.7-1.1,1.4.7,2.3,1.9,2.6S246.1,356.8,246,356.8Z"/><path class="cls-8" d="M120.6,488.4c-5.6-10.7-10.6-22.2-17-32.4s-15.4-20.4-23-30.4L62.6,402l-5-6.5c-.6-.8-4.6-4.8-4.5-5.9.4-3.3,26.6,2.2,29.3,2.6l17.8,2.7c5.8.9,12.1,1.2,17.7,3s6.1,9,6.3,15.1c.1,3,.3,6.1.5,9.1a100.9,100.9,0,0,1-1.9,25.4,30.9,30.9,0,0,0-.5,5.8,89.2,89.2,0,0,0,1.1,10.8c.8,6.7.9,13.6,1.5,20.3.1,1.3.4,13.4.7,13.6s-.8-1.5-1.1-2l-4-7.7c.1.2-.1.5,0,.7l3.6,7c.7,1.4,1.2,3.8,1.8,1.5s-.4-5.9-.6-8.2c-.6-7.4-.9-14.8-1.5-22.2-.2-3-.8-6-1.1-9-.6-5.6.5-10,1.4-15.4a66,66,0,0,0,.9-11.5c0-7.8-.5-15.6-1-23.4-.3-5.8-1.4-9.5-7.5-11s-14.8-2.4-22.1-3.5l-20.5-3.1c-5.6-.9-12-2.8-17.7-2.6s-3.2,2.7-1.5,5l12.6,16.5,29.6,38.7c9.7,12.6,16.2,27.1,23.5,41.2C120.5,488.9,120.7,488.5,120.6,488.4Z"/><path class="cls-8" d="M222.6,515.7a13.6,13.6,0,0,1-3.1-.4q-2,.2-1.9-1.5a59.8,59.8,0,0,0-5.8-3.1c-4.4-2.2-8.6-4.7-12.8-7.3l-10.8-6.6c-2.5-1.5-7-3-9-5.3-4.9-5.8,15.9-9,19.1-9.8,9.1-2.3,18.3-4.1,27.4-6.1s17.5-4.4,26.3-6c2.7-.5,7.4-2.1,9.3.9s-2.7,7.5-4.3,9.5c-5.3,6.9-10.8,13.6-16.6,20-3,3.3-6.6,6.2-9.2,9.8s-3.9,5.7-8.5,6c0,0,0,.7,0,.7a9.7,9.7,0,0,0,7.8-4.5,86.5,86.5,0,0,1,8-9.2c5.8-6.3,11.3-12.8,16.6-19.6,2.1-2.7,6.5-6.7,6.8-10.3s-4.1-5.1-7.8-4.5c-17.1,3-34.2,7.4-51.2,11.4-4.3,1-8.7,2.1-13,3.3s-8.7,1.5-11,4a3.2,3.2,0,0,0-1,3.1c.7,2.7,4.9,4.2,7.1,5.5,4.2,2.4,8.3,5,12.4,7.5s8.9,5.4,13.5,7.8a69.2,69.2,0,0,1,6.2,3.2c.6.4.3,1.1.6,1.3s3.6.8,4.8.9S222.6,515.7,222.6,515.7Z"/><path class="cls-8" d="M40.1,378.5C27.9,368,15.4,357.8,3.4,347c-1.3-1.2-2.7-1.8-2.4-3.8s2.1-1.7,3.5-1.5c3.6.4,7.8,2.6,11.4,3.5,7.2,1.8,14.5,3.6,21.6,5.6s14.7,4,22.1,5.8l12.2,2.8c1.5.3,4.3.3,5.6.9s1.2,0-.5.5l-2.6,1.4c-9.9,6.3-12,20.5-22,26.4a2.6,2.6,0,0,0,0,.7c-.1-1.9-4.8-4.7-6.1-5.8l-6.1-5.3c.1.1-.1.6,0,.7l12.3,10.5c-.1-.1,0-.6,0-.7s5.4-4.7,6.1-5.7c2.3-3,4.3-6.2,6.3-9.4a44.4,44.4,0,0,1,5.8-7.7,22.4,22.4,0,0,1,3.8-3.1c.8-.5,3.9-1.5,4.1-2.3a5.1,5.1,0,0,0,0-.7c-13.2-2.5-26.1-5.9-39-9.4-6.3-1.7-12.7-3.5-19.1-5-3-.7-5.9-1.4-8.8-2.2S4,340,2.4,340.8C-4,344,7.2,351,8.5,352.2l31.5,27C40,379.1,40.2,378.6,40.1,378.5Z"/><path class="cls-8" d="M217.4,514.7c-19.2-1.2-38.1-4.5-57-7.7-9-1.5-18.8-2.1-27.5-4.7-2.6-.8-1.8-.4.8-1.1l6-1.7,13.2-3.8,13.7-3.8,6.5-1.7c1.2-.3,3.6-1.3,4.7-1.1s3.7,2.3,5.1,3.1l23,13.9,11.5,7,2.8,1.7c.7.4.2.1.4,0a16.8,16.8,0,0,0-3,0s0,.7,0,.7l3.2-.3a5.9,5.9,0,0,0,0-.7l-32.5-19.7c-3.4-2-8.4-6.8-12.4-5.9-15.7,3.4-31,8.6-46.4,13a6.4,6.4,0,0,0,0,.7c29.1,5.1,58.5,11.2,88,13C217.4,515.4,217.4,514.7,217.4,514.7Z"/><path class="cls-8" d="M369.8,377a18.8,18.8,0,0,1-4.8-1l-1.2-.4q-2-2,.5-2.3c2.2-2.5,5.8-3.9,7.8-6.6,3.3-4.6.4-11.1,4-15.7,1.6-2.1,4.1-2.9,6.6-3.4,4.2-1,8.5-1.9,12.7-3l12.3-3.3c2.4-.6,5.2-1,7.4-2.2s1.4-1.1,3.1-.4a10.1,10.1,0,0,1,2.3,2,34.3,34.3,0,0,1,5.2,6.4c1.3,2.1,2.2,3.6-.1,5.3s-5.3,2.5-7.8,3.9c-7.6,4.2-15.7,7.5-23.7,11s-16.1,8.1-24.4,9.8c-.1,0,0,.7,0,.7,7.7-1.6,15.5-5.9,22.6-9s16.2-7.1,24.1-11.1l8.2-4c1.4-.7,2.4-1.4,2.6-3.1a6,6,0,0,0-1-3.4c-1.4-2.5-6-9.8-9.3-10-.8,0-3.3,1.8-4.4,2.1l-2.2.6-12.1,3.3c-3.9,1-7.8,2.1-11.8,2.9s-6,.9-8.4,2.5c-5.2,3.5-3,9.7-4.5,14.8-1,3.3-4.6,6.1-7.3,8.1-.9.6-2.9,1.2-3.3,2.1-1.4,3.2,5.3,4,7.1,4.1C369.8,377.7,369.8,377,369.8,377Z"/><path class="cls-8" d="M284.4,455.2c-6.5-1.3-1.3-6.3,1.3-8.6l12.6-11,25.2-22.1c3.8-3.3,7.2-6.5,11.5-9.1s4.8-6.2,8.5-8.6c2-1.3,3.7-.8,5.9-1.3a15.5,15.5,0,0,0,5.5-2.8c5-3.4,10-6.7,15.1-9.7,9.3-5.4,18.9-10.2,28.4-15.2,1.5-.8,6.2-4.4,7.8-3s-3.1,4-4.3,4.9l-7.7,5.6c-18.4,13.4-36.8,26.5-54.4,41.1-4.4,3.6-8.4,7.4-13.6,9.6s-9.6,7.3-13.9,10.7-9,6.9-13.5,10.3-9.4,8.3-14.6,9.4c-.1,0,0,.7,0,.7,5.2-1,10.4-6.2,14.6-9.4s10-7.5,15-11.4,8.7-7.8,13.9-9.9,9.9-7.2,14.2-10.8c21-17.4,43.3-32.9,65.4-48.9a2.3,2.3,0,0,0,0-.7c-1.5-3.7-5.2-.7-7.5.6l-7.7,3.9c-7.4,3.8-14.9,7.7-22.1,12-3.6,2.1-7.2,4.3-10.7,6.7s-6.9,5.5-11.3,6.1-6,1.4-8.3,4.3-2.9,4.2-5.9,6c-6.9,4-12.8,10.5-18.8,15.7l-20.2,17.7c-1.8,1.6-22.1,16-10.6,18.2C284.3,455.9,284.4,455.2,284.4,455.2Z"/><path class="cls-8" d="M172.6,336.2c-2-.5-3.4-2-5.1-3.1v.7c.1-.1.2-.6.4-.6s1.3.9,1.5,1.1a8.6,8.6,0,0,0,3.4,1.9v0c0,.2,0,.5,0,.7v-.7a4.7,4.7,0,0,0,0-.7,8.6,8.6,0,0,1-3.4-1.9c-.2-.2-1.2-1.1-1.5-1.1s-.3.5-.4.6a2.5,2.5,0,0,0,0,.7c1.7,1.1,3,2.6,5.1,3.1C172.6,337,172.7,336.3,172.6,336.2Z"/><path class="cls-8" d="M176.8,333.2s0-.7,0-.7,0,.7,0,.7Z"/><path class="cls-8" d="M181.7,310.6s0-.7,0-.7,0,.7,0,.7Z"/><path class="cls-8" d="M231.8,510.6c4.4-7.8,10.8-14.8,16.4-21.8,2.9-3.7,5.9-7.3,8.8-11a36.3,36.3,0,0,0,3.6-5.2c1-2,.9-3.6,2.4-5.4,2.8-3.4,6.4-6,9.6-9s4.2-5,6.8-5,2.6,1.1,4.1,1.1,3.2-1.1,4.6-2.1l13-9.3c1.1-.8,24.4-18.9,25.8-17.6s-20.6,17.5-22.6,19.1c-7.8,6.6-15.5,13.5-23.1,20.3-16.5,14.9-32.7,30.3-49.5,45-.1.1.1.6,0,.7,15.8-13.8,31-28.3,46.6-42.4s32.9-28.6,49.6-42.7a4.8,4.8,0,0,0,0-.7c-2.9-.5-5.7,2.3-8,3.9l-7.9,5.6-15.6,11.2c-3,2.2-6,4.6-9.2,6.6a7.4,7.4,0,0,1-3.9,1.6c-1.3,0-2.3-1-3.6-1-3.9-.2-9,6.4-11.6,8.7s-5.3,4.2-6.6,6.8-.6,2.5-1.2,3.7a32,32,0,0,1-3.1,4.4c-4.2,5.6-8.8,10.9-13,16.6s-9.2,10.8-12.7,17C231.7,510.1,231.9,510.4,231.8,510.6Z"/><path class="cls-8" d="M347.6,395.9c-4.1-.7,1.6-4.9,3-6.2,3.1-2.6,6.2-5.2,9.5-7.5a57.9,57.9,0,0,1,11.5-6.9l31.1-12.8,11-4.5c2.7-1.1,6.1-3.3,8.9-3.8.6-.1,0-.1-.5.3l-1.5,1.1-4.8,3.4c-2.1,1.5-5.3,4.8-7.8,5.5s-3.1-.3-4.9.6c-3.5,1.6-6.9,4-10.2,6-7.5,4.3-15.1,8.3-22.7,12.5-4.1,2.3-8.2,4.6-12.2,7s-6.6,4.8-10.4,5.5c0,0,0,.7,0,.7,4.4-.8,8.3-4.2,12-6.4s9.2-5.3,13.8-7.9c9.2-5.1,18.4-10.1,27.4-15.4,1.6-.9,3.1-2.1,5-2.1s1.4.4,2.1.2,3.4-2.4,4.6-3.2l10.4-7.3a5.1,5.1,0,0,0,0-.7c-1.8-.3-4,1.2-5.6,1.9l-8.2,3.4-17.4,7.1-20.1,8.2c-7.5,3.2-14.2,8.6-20.3,13.9-1.3,1.1-8.9,7.3-3.7,8.2C347.6,396.6,347.7,395.9,347.6,395.9Z"/><path class="cls-8" d="M256.6,308.7H242.3c-.8,0-6.8-.4-6.7.5s7.7.1,8.3.1c4.4.1,8.8-.3,13.2-.3a30.6,30.6,0,0,0,4.1.1c1-.1.2-.4-.4-.5a34.9,34.9,0,0,0-4.2.2s0,.7,0,.7a42.1,42.1,0,0,0,5.5-.4s0-.7,0-.7c-3.2-.1-6.4-.1-9.7-.1-5.9.1-12.1-.6-18,.3,0,0,0,.7,0,.7l22.2.2S256.6,308.7,256.6,308.7Z"/><path class="cls-8" d="M263.9,418.1c-3.6-1.6-9.1-.8-13-.9l-17.7-.8-33.1-2c-5.7-.4-11.4-.7-17.2-.9l-7.9-.3c-1.9-.1-6.7.6-6-2s2.1-1.8,3.1-2.3c2.7-1.4,5.2-3,7.9-4.5,9.1-5.3,18.4-10.3,27.5-15.7a95.2,95.2,0,0,1,12.8-6.7,16.2,16.2,0,0,0,5.9-3.6c2.1-2.1,3.1-3.1,6.2-3.4,10.9-.8,21.7-2,32.7-2.9l16.5-1.4c5.2-.5,10.8-1.6,16-.4s2.4,5.8-.2,9.1c-3.8,5-7.8,9.9-11.8,14.7l-10.8,13c-3.4,4.2-6.1,8.8-11.1,11.2-.1,0,.1.7,0,.7,4.8-2.3,7.3-6.5,10.5-10.6s8-9.6,11.9-14.4,7.6-9.2,11.2-14c1.3-1.6,4.2-4.6,4.2-6.8.2-6.4-13.5-3.9-17.2-3.5-12.9,1.1-26,1.6-38.8,3.2-2.9.4-5.8,1-8.8,1.2s-6.1-.3-8.5,1.2-3.1,3.4-5.2,4.6-6,2.4-8.9,3.9c-10.6,5.6-20.9,12-31.3,17.9l-7.3,4.2c-1.8,1-4.6,1.9-6,3.4a3.2,3.2,0,0,0-1.1,2.6c.1.5-.4.9.1,1.4s7.5.6,8.8.7l14.4.6,31.3,2,21.6,1.1,11.8.4c2.4.1,4.9-.3,7.1.7C263.8,418.8,264,418.2,263.9,418.1Z"/><path class="cls-8" d="M123.9,445.3c-1.2-3.7-.6-8-.7-11.9s-.3-8.4-.5-12.6c-.1-2.5-.3-5-.4-7.5v-2.8q-.1-1.4-.1-2.8l.4-8c1.8-3,8.3-3.1,11.4-3.8l15.2-3.3,29.4-6.3,28.5-6.1,13.2-2.8c2.3-.5,11.5-2.7,6.1,1.8-3.3,2.7-7.6,4.5-11.3,6.5s-8.7,5-13,7.6l-25.9,15c-18.6,10.7-35.3,24.4-52.4,37.2-.1.1.1.6,0,.7,16.6-12.5,32.8-25.9,50.8-36.3l27.4-15.9c8.9-5.2,19.1-9.6,27.1-16.2a2.5,2.5,0,0,0,0-.7c-2.5-2.7-5.8-1-8.9-.3l-10.6,2.3-23.7,5.1-49.2,10.6c-3.9.8-13.6.9-14.7,5.7-.7,2.9,0,7.2.1,10.1s.3,7.5.5,11.3c.3,6.7-.5,14.1.4,20.6a21,21,0,0,0,.8,3.9C123.8,445.8,124,445.5,123.9,445.3Z"/><path class="cls-8" d="M262.7,468.5c-5.5-3.4-2.1-9.4-1.8-14.6.1-1.4.1-2.8.1-4.2,0-4.1-.4-8.3-.6-12.4-.4-6.6-4.2-5.4-9-2.3s-7.8,6.6-12,9.4c-1.1.7-8.1,3.8-6.9.2.5-1.6,4.7-3.8,6-4.9l15-12.2c3.1-2.5,6.8-6.9,10.2-8.4s5.4-1.7,8-2.8a76.4,76.4,0,0,1,10.5-3.4c12.2-3.4,24.4-6.7,36.6-9.7,5.8-1.4,11.7-3.3,17.6-4.2,1-.1,4-.1,3.8,1.8s-1.9,1.6-2.2,1.9l-11.9,10.3-33.8,29.4c-9.9,8.6-19.4,17.7-29.7,26-.1.1.1.6,0,.7,4.1-3.3,7.8-6.9,11.8-10.4,2-1.7,4.3-3.2,6.2-5s3.2-3.5,5-5.1l26.6-22.9,28.1-24.4a2.1,2.1,0,0,0,0-.7c-1.8-4.9-8.3-1.4-12.1-.6l-17.7,4.3c-11.8,3-23.8,5.8-35.4,9.6-2.5.8-4.7,2.2-7.3,3.1s-4.1.7-5.5,1.6-4.4,4.2-6.6,6l-6.8,5.5-16.9,13.8a2.2,2.2,0,0,0,0,.7c1.2,6.5,11-3,13-4.6s6-4.9,9.3-6.4c5-2.3,5.8.4,6.1,5,.3,6.2,1.1,12.6,0,18.8a33.3,33.3,0,0,0-1,5.5,6.5,6.5,0,0,0,3.4,6.1C262.6,469.1,262.8,468.5,262.7,468.5Z"/><path class="cls-8" d="M182.5,486.3c-1.4-.2-2,.6-1.5-.3a10.5,10.5,0,0,1,2.2-1.8l5.6-4.6,18.6-15.1,20.9-16.8a15.1,15.1,0,0,1,2.8-2.3c1-.4,1.6,0,2.8,0,3.9,0,7.1-4.3,9.9-6.6a95.4,95.4,0,0,1,10.5-7.5c3.7-2.2,7.1-3.9,7.6,1.6s1.4,14.5.8,21.5c-.3,3-1.7,6.1-1.6,9.1s2.5,5.9-.4,6.8c-1.3.4-4.5-.9-6.1-.7a38.9,38.9,0,0,0-7,1.7c-10.5,3.1-21.5,4.9-32.1,7.3L199,482.7c-5.4,1.3-11,3.2-16.6,3.7,0,0,0,.7,0,.7,4.9-.4,9.9-2.1,14.7-3.2l17.5-4.1c10.3-2.4,20.8-4.3,31-7,4.2-1.1,8.5-2.9,12.9-2.1,1.7.3,3.2.7,3.8-1.4.1-.2,0-.4,0-.5.3-2.2-1.3-4.3-1-6.6s1.2-4.5,1.4-6.9a78.6,78.6,0,0,0-.3-12.8c-.1-1.8,1-13.6-2.8-14.1s-9.8,5.2-12.5,7.2-6.7,6.7-10.6,8.5c-1.8.9-3.3-.1-4.9.3s-1.4,1.1-1.9,1.5l-8.7,6.9c-13.7,11-27.3,22.1-40.9,33.1a3.7,3.7,0,0,0,0,.7,4.5,4.5,0,0,0,2.1.5S182.5,486.3,182.5,486.3Z"/><path class="cls-8" d="M123.2,399.1c-5.6-.6-8-8.3-10.3-12.5-3.2-5.8-6.3-11.6-9.1-17.6-.8-1.8-2.4-4.5,0-5.8s5.6-.2,7.2-.3l16.4-.5c25.7-.6,51.4-.4,77.1-.3,8.2.1,16.5,1,24.7,1,1.4,0,4.5-.5,5.7.5s1.2,3.9,3.2,5.4a25.5,25.5,0,0,0,3.6,1.7c.4.2,1.6.7,1.9,1.2,2.2,3.7-3.3,3.5-5,3.6-12.7.8-25.5,4.7-38,7.4l-45.8,9.8c-10.3,2.2-21.1,5.5-31.6,6.6,0,0,0,.7,0,.7,10.8-1.1,21.9-4.5,32.6-6.8l45.8-9.8,21.6-4.6,6.4-1.4a39.3,39.3,0,0,1,7.5-1.2c2.3-.1,6.3.4,7.2-2.3a3.3,3.3,0,0,0-.5-2.9c-.8-1-2.3-1.3-3.4-1.8a9.6,9.6,0,0,1-3-1.8c-1.2-1.3-.9-3.2-1.9-4.4s-4.6-.7-6.1-.7-5.7-.4-8.6-.5c-4.7-.3-9.4-.2-14.1-.4-27.3-1.1-54.9-.4-82.2.3l-10.4.3c-2.7.1-7.6-.7-10.1.4s-1.8,1.9-1.5,3.6c1.1,5.6,5.4,11.6,8.1,16.6s4,7.4,6,11.1,3.1,5.8,6.8,6.2C123.2,399.8,123.2,399.1,123.2,399.1Z"/><path class="cls-8" d="M108.4,397.5c-16.9-2.7-33.7-5.3-50.6-8A21.5,21.5,0,0,1,55,389c-1.6-.5-1.1.2-1.2-1.2-.1-2.9,5.2-8.4,6.8-10.7s4.5-6.2,6.5-9.4,3.7-5.7,7.3-6.6,6.7,0,9.8.3l13.4,1.2c1.3.1,3.4-.1,4.7.4s1.5,1.8,2.3,4.1c2.8,7.6,7.5,15.1,11.4,22.3,1.1,2.1,2.2,4.3,3.4,6.4s2.4,2.4,3.3,3.7,1.4-.4.1-.1l-1,.3-1.3-.2c-4-.3-8.1-1.3-12.1-1.9,0,0,0,.7,0,.7,4.8.7,10.6,2.8,15.3,1.6a5.2,5.2,0,0,0,0-.7c-5-1.8-7.7-10.3-10.1-14.7s-6.1-10.9-8.5-16.5c-.4-.9-1.3-5.1-1.9-5.5a8.5,8.5,0,0,0-2.6-.2l-9.5-.9c-5-.4-11.7-2.1-16.7-.9s-7.8,7.2-10.7,11.3-8.1,10.8-10.5,17a5.3,5.3,0,0,0,0,.7c18.4,3,36.8,5.9,55.2,8.8C108.4,398.2,108.5,397.5,108.4,397.5Z"/><path class="cls-8" d="M357.7,376c-16.3-.5-32.6-2-48.8-2.9-3.7-.2-5.1-.5-8-2.5a30.9,30.9,0,0,0-10.5-4.9,32.8,32.8,0,0,0-9-.6c-1.4,0-7.9-.4-5.6-2.6s4.7-.5,5.8-.5,4.2.1,6.4.2c3.9.3,7.7.6,11.5.7s6.3.7,8.7-.6,2.4-2.2,4.9-2.7c8.3-1.7,16.8-2.6,25.2-3.7l12.4-1.6a44.7,44.7,0,0,1,5.4-.7c1.9,0,3,1.2,4.5,1.4s4.6-1,6.5,1.7.9,3.2,1.2,4.9,1.2,3.7,1.8,5.6c1.8,5.6-.3,6.4-4.9,6.5a6.1,6.1,0,0,0-3.1.7c-1.6.7-2.3,1.7-4.3,1.8,0,0,0,.7,0,.7a7.5,7.5,0,0,0,3.9-1.3c1.9-1.1.6-1.1,3.6-1.2s4.8.2,5.5-2.4-1.3-6.3-2-9.1,0-7.4-3.8-8.6c-1.5-.5-2.7.3-4.1.1s-2.4-1.4-4.1-1.5c-4.5-.2-9.4,1.2-13.9,1.8l-16,2.1c-4.6.7-9.3,1.2-13.9,2.2-3,.6-3.8,2.8-6.9,3.3-8.3,1.4-17-1.2-25.3-.9-1.7.1-7.2.2-5.5,3s6.6,1.5,8.8,1.4a26.8,26.8,0,0,1,13,3.3,30.2,30.2,0,0,1,4,2.6c2.3,1.7,4,2,6.9,2.2l17.8,1c10.6.6,21.3,1.6,32,2C357.7,376.7,357.7,376,357.7,376Z"/><path class="cls-8" d="M308.8,360.6c-1.8-.1-4,.3-5.8-.3-4.3-1.4.1-1.1,1.9-1.2,4.7-.3,8.7-3,12.7-5a2.8,2.8,0,0,0,0-.7c-1.1-2.5-2-1.1-3.8-1.3s-1.2-.1-.6-1.4,2.7-3,4-3.9c5.5-4.1,12-3.2,18.3-1.9,2.9.6,5.4-.9,8.5-.9s6.3.8,9.1.2,2.1-.9,2.2-2.4-.5-1.4-.4-1.7,1.5-1.6,3.2-.8-.7,2.8-.5,4.8-.2.9.8,1.5,4-1.1,5.9.3c3.6,2.7-2.1,3.2-3.3,4.7s-.3,2.3-.7,2.9-7.3,1.4-9.2,1.7L338.2,357c-9.8,1.4-19.6,2.6-29.4,3.6,0,0,0,.7,0,.7,17.3-1.7,34.4-4.2,51.5-7a6,6,0,0,0,0-.7c-.4-4.2,4.7-2.6,5.2-5.8s-2.7-3.1-4.8-3.1c-5.7.2-.8-1.5-1.2-4.5s-3.3-2.5-5-1.5a2.7,2.7,0,0,0,0,.7c.2,2,1.3,2.7-.9,3.7s-3.6.2-5,.2a40.1,40.1,0,0,0-7.2,0c-2.1.3-3.5,1.2-5.5.8-8-1.3-18.2-2.5-23.1,6.1-1,1.7-1,2.4,1.8,2.3.8,0,3.1-.6,3,1.3.1-1.1-2.9,1-3.5,1.3-4.6,2.4-8.8,4-14,2.6.1,0,0,.7,0,.7,2.2,3.3,5.2,2.6,8.7,2.8C308.8,361.3,308.8,360.6,308.8,360.6Z"/><path class="cls-8" d="M244,374.5c-1.6-3.3-4-3.8-7.5-3.8-5.7.1-2.1-1.5-2.3-5.3-.1-1.7-.9-2.4-2.6-2.8a16.7,16.7,0,0,0-4.2,0c-3.5.1-.2,0,1.4-.1a111.3,111.3,0,0,1,12,.1c3.6.2,7.1.3,10.7.3,7.3,0,15.3-.8,22.5,0,1.2.1,4,1,5.8,1.2,3.8.2,7.7-.6,11.4.2a12.1,12.1,0,0,1,7.8,5.2c.8,1.3,1.2.6.3,1.1s-2.5.2-3.3.3c-17.3,1.3-34.7,3.2-52,3.7,0,0,0,.7,0,.7,18.7-.6,37.5-2.6,56.1-4a6.7,6.7,0,0,0,0-.7c-2.3-3.9-5.5-6.6-10.2-7.2a61,61,0,0,0-7.8,0c-2.7,0-5-.7-7.6-1s-6.5-.1-9.4-.1H247.6c-7.9,0-15.7-.8-23.6,0,0,0,0,.7,0,.7,1.9.4,8.7-.6,9.8,1.6s-1.5,3.6-1.2,5.4.2,1.2,1.4,1.6,3.6-.4,5.3,0a6,6,0,0,1,4.5,3.8C243.9,375,244.1,374.7,244,374.5Z"/><path class="cls-8" d="M275.6,362c2.7-1.4,4.9-3.8,7.5-1.9s5.6,1.9,9.6,1.1a6.9,6.9,0,0,1,2.9-.2c.9.2,1.2.3,1,.4s-2.9,0-3.4,0h-18c-.7,0-.2.6.4.3s-.1-.7,0-.7l-.8.4c-.1,0,0,.7,0,.7l22.2-.2s0-.7,0-.7c-2.7-3.2-7.8.8-11.5-.5-1.4-.5-2.4-2.3-3.8-2.6s-4.8,2.1-6.2,2.8S275.7,361.9,275.6,362Z"/><path class="cls-8" d="M222.7,361.6a48,48,0,0,0-7.5-.1c-.5,0-4.5,0-2.5.6s4.9,0,7,0h18.4c1.5,0,3.6.3,4.9-.2s-.7-.2-1.2-.3H222.7s0,.7,0,.7h21s0-.7,0-.7c-10.3-1.4-21.5-.2-31.9-.2,0,0,0,.7,0,.7,3.6.3,7.2-.1,10.9.3C222.7,362.3,222.8,361.6,222.7,361.6Z"/><path class="cls-8" d="M367.6,343a1.8,1.8,0,0,1-1.6-.9,1.1,1.1,0,0,1,.5-1.5,2.1,2.1,0,0,1,2.9,1.4v-.7c-.2.9-.8,1.7-1.8,1.7s0,.7,0,.7a1.9,1.9,0,0,0,1.8-2.1,2,2,0,0,0-2.1-2c-1.2,0-1.6.9-1.6,1.9s.5,2,1.8,2.1S367.6,343,367.6,343Z"/><path class="cls-8" d="M267.7,418.9c-2.9-.3-3.8.1-2-2.2l4.3-5.4,13.7-17,8.7-10.9,4.4-5.4c1.2-1.5,2.4-4.3,3.8-5.4s8.8-.5,11.6-.4l14,.7,26.2,1.8c3.6.2,7.5-.1,11,.6,1.5.3,3.3.3,4.7.7s.6-1.1.3-.3-2.3,1.6-2.9,2c-13.9,8.9-30.8,14-46,20.3-9.2,3.8-18.5,7.6-27.9,10.9-5,1.8-10.1,3.4-15.2,4.9-3.6,1.1-5.1,4.8-8.8,5.2,0,0,0,.7,0,.7,3.5-.4,4.7-3.8,7.9-5,5-1.8,10.2-3.1,15.2-4.9,9.7-3.4,19.3-7.3,28.8-11.2l25.7-10.5c7.9-3.1,17.3-6.4,23.7-12.1.1,0,0-.7,0-.7-2.2,0-4.1-.7-6.3-1s-5.2-.1-7.7-.2c-6.2-.3-12.3-.8-18.5-1.3s-12.4-.9-18.6-1.2l-10.3-.3h-3.7c-2.2,0-2.1-.2-3.5,1.1s-3.7,5.1-5.4,7.2l-6.2,7.8-12.5,15.5-12,14.9a3,3,0,0,0,0,.7,9.4,9.4,0,0,0,3.5,1.1S267.7,418.9,267.7,418.9Z"/><path class="cls-8" d="M272.8,415.5c.4.6,21.5-8.7,23.5-9.5L323,395.3l26.6-10.7,12.9-5.2c1.2-.5,6.3-4.1,3.4-1.6-6.1,5.4-12.3,10.7-18.5,16.1l-1.9,1.7c-.9.7-1.7,1.3-2.5,2.1s-.8,1.1-1.3,1.5c-2.5,2.1-.5.3-2.7.7-8.3,1.5-16.7,3.7-25,5.7l-41.2,10c-.1,0,.1.7,0,.7l24-5.8,22.8-5.5,11.4-2.8,4.6-1.1c1.3-.3,3.4.2,4.4-.1s4.7-4,6.7-5.7l7.2-6.3,13-11.3c.1-.1-.1-.7,0-.7l-48.7,19.6-23.9,9.6-12,4.8c-2.9,1.2-7.7,2.2-10,4.2a2.2,2.2,0,0,0,0,.7l.3.4C272.7,416.1,272.9,415.7,272.8,415.5Z"/></g><path class="cls-9" d="M127.8,502.1c-1.4-.4-1.8-1.6-2.1-2.8-4.2-14.1-3.3-28.9-5.2-43.3-.4-3.2-.6-6.6.8-9.8,13.1-12.4,28.4-22.1,42.6-33.1,1.8-1.4,3.7-2.9,6.3-2.4s5.6,1,8.4,1c21.8.3,43.5,2.7,65.3,3.3,5.9.2,12,.3,17.9,1.5,4,3.3,1.1,5.7-1.4,7.5-5.4,3.8-10.8,7.7-15.9,11.8s-8.2,5.8-11.1,10c-12,9.9-24.2,19.7-36.2,29.6-5.3,4.4-10.9,8.3-16.5,12.2a30.2,30.2,0,0,1-2.8,2.6c-14.7,4.3-29.1,9.6-44.3,11.8C131.6,502.3,129.7,501.1,127.8,502.1Z"/><path class="cls-9" d="M400.8,329.2c5.2,2.9,11.1,4.3,16,7.9.8,3.6-1.9,4.1-4.3,4.7-9.1,2.6-18.3,4.7-27.4,7.1-5.6,1.4-8.7,4.4-9,10.2a55.5,55.5,0,0,1-1.1,5.9c-.3,2-1.4,3.3-3.5,3.6s-4.5-2.7-4.8-5.3a8.7,8.7,0,0,0-6.5-7.7c-.9-1.1-1.9-2.5-1.4-3.6,1.6-3.3-.5-4.9-2.5-6.8-.4-.3.1-1-1.2-.6a53.7,53.7,0,0,1-21.8,1.4,37.1,37.1,0,0,0-9-.4c-4.1.4-5.8,2.3-5.3,6.3s-1.7,4.9-4.3,6-6,1.4-8.3,1.9c1.2,0,3.1-.2,2.6,2.8-3,3.1-6.8,1.7-10.3,1.8s-8.4-.7-11.9-2c-5.6-2-9.8.2-14.4,2.1-8.9.3-17.8.1-26.7.1a48.3,48.3,0,0,1-11.3-1.4,23.8,23.8,0,0,0-12.3,0,39.6,39.6,0,0,1-13.3,1c-5.5-.8-11-.5-16.5-.5-16.6,0-33.3.2-49.9-.1-8.3-.1-16.6,1-24.9,1.1a117.2,117.2,0,0,1-12.9-.5c-5.5,1.4-10.9-.7-16.3-.9-3-.1-6-.6-8.9-.6-6.6-.1-12.6-2.7-18.9-4-9.1-2-18.1-4.6-27.1-7-2.7-.7-5.7-1-7.1-4s3.2-5.7,6.3-5.3c6.5.8,12.5-1.5,18.7-2.3,2.1-.3,4-.4,5.5,1.1,3.5,3.6,8,4.1,12.5,4l16.4-.2a280.7,280.7,0,0,0,31.8-2.3c6.9-.8,13.8-2,20.7-3.4,2.6-.5,5.8-1,7.1-3.3,4.1-7.4,10.7-5.9,17.1-5.3,1.8.2,3.6.8,5.4.2s4,3.2,6.7,3.3c6.3.8,12.5.1,18.8-.4,8.1-.7,16.2.3,24.3-.5a23.7,23.7,0,0,1,11.3,1c1.4.4,3.1.5,3.4,2.4s-.9,2.7-2.2,3.5-3.2,1.2-2.7,3.1,2.7,1.9,4.3,1.7c5.7-.7,10,3.2,15.2,4.2a1.7,1.7,0,0,1,1.2.9c2.4,5.7,6.7,3.8,10.9,3,8.8-1.8,17.3-4.3,24.4-10.1a3.2,3.2,0,0,1,1.3-.7c6.1-1.3,12.2-2.3,17.9-4.9,1.1-.5,2.4,0,3.5.1-.5,0-1.2-.3-1.8-.2-2.2.2-4.6.5-5.1-2.4s1.7-4.6,4.2-5.4c4.5-1.4,9.3-.4,13.9-.7,11.6-.9,23.1.9,34.6,1.4a5.6,5.6,0,0,0,2.9-.4c8.2-4.5,16.5-2.4,24.6-.2,5.9,1.6,11.5,0,17.3-.2C397.9,329.5,399.3,328.7,400.8,329.2Z"/><path class="cls-9" d="M240.7,333.3c-5,.3-75,6-87.9,0-1.2-.6-3.3.1-3.4,1.5-.6,8.1-7.5,6.5-11.9,7.3-13.4,2.4-27,5.2-40.5,5.4s-26.2,2.5-39.1-1.2a13.2,13.2,0,0,1-2-.3c-5.8-2.8-7.3-2.8-14.3-1.2a19.4,19.4,0,0,1-6.9.2,9.1,9.1,0,0,0-7.9,2.2c-1.2,2-3.1,1.6-4.8,1.3a114.8,114.8,0,0,1-15.7-4.2c-1.9-.6-3.8-1.5-3.4-4.1,6.5-6.1,14.5-9.8,22.7-13,19.5-7.7,40.3-10.1,60.9-12.4,29.7-3.4,59.4-7.4,89.4-7.9,1.9,1.1,86.6.8,86,2.3C258.8,316.6,243.8,326,240.7,333.3Z"/><path class="cls-9" d="M400.8,329.2c-5,5.7-12,4.4-17.8,3.6s-12.7-1.4-18.9-3.2a4,4,0,0,0-2.9.4c-8.1,5-16.8,2.8-25.2,1.8s-19.4.6-29.1-.5a5.9,5.9,0,0,0-2.5.4c-1.6.5-3.8,1-3.5,2.9s2.6,1.6,4.1,1.2a11.7,11.7,0,0,1,7.3.5c.9.4,2.1.6,2.1,1.8s-1.1,1.6-2.1,1.8-3.7,1-5.4,0c-3.2-1.9-5.6-1.1-7.8,1.6a3.1,3.1,0,0,1-2.1,1.3c-11.7-.4-19.7,8.5-30,11.5-6.8,2-13.9,2.6-21,3.1a2.2,2.2,0,0,1-2.4-1.4c-.8-2.3,2-2.3,2.8-4.2-5.7-.8-10.3-5.2-16.6-3.9-1.4.3-2.9-.5-4.4-.7s-3-2.8-3.3-4.9,1.5-2.8,3.4-3.2,3.3-.4,4.5-2.9H218.6c-.4-2.7,1.6-2.9,3.4-3.2a56.9,56.9,0,0,1,7.4-.2c7.1-.1,7.8-1.2,5.2-8-.7-1.8-1.7-3.6-1.8-5.6s-1.7-3.4-2.2-5.3-1-4.2,1.5-5.4c8.9-.2,17.8-.5,26.7.3,1.9.2,4,.4,5.9-.3,23.2.9,46.4,2.9,69.6,4.3a286.6,286.6,0,0,1,42.9,5.9C386,320.5,394.1,323.1,400.8,329.2Z"/><path class="cls-9" d="M123.7,446.2c-2.4,7.8.3,15.4.6,23.1.4,9.4,1.4,18.8,2,28.1,0,.6-.4,1.2-.7,1.8-6.7-12.8-13.4-25.7-20-38.5a55.4,55.4,0,0,0-5.3-8.4L52.8,390.2a1.2,1.2,0,0,1,.3-1.6c2-1.3,4.2-.9,6.3-.6,18.7,2.9,37.4,5.6,56,8.7,2.8.5,5.5,1.2,7.5,3.5,2.2,4.9,1.5,10.1,1.8,15.2C125.4,425.7,126.4,436,123.7,446.2Z"/><path class="cls-9" d="M177.7,488.2l2-2c20.8-7.1,42.6-10.1,63.7-15.7,3.7-1,7.5-1.6,11.2-2.3s5-.8,6.9,1.5,0,5-1.6,7.2a294.3,294.3,0,0,1-25.9,30.4c-1.3,1.3-2.8,2.4-3.3,4.3-3.4,5.2-8,5.6-13.4,3.7a1.3,1.3,0,0,0-.8-1.6c-12.3-5.6-23.2-13.4-34.9-20C179.7,492.7,177,491.6,177.7,488.2Z"/><path class="cls-9" d="M52.7,389.4q0,.4,0,.8L1.7,346.4c-3.1-2.7-.3-4.3,1-6.1,7.7,3.4,15.9,4.8,24,6.9,17.3,4.7,34.5,9.7,52.1,13,0,.3-.1.8-.3.9-9.9,3.6-13.1,13.3-18.8,20.8C57.6,384.6,55.8,387.5,52.7,389.4Z"/><path class="cls-9" d="M177.7,488.2l44,26.7-4.3.5c-20.9-1.2-41.5-5.1-62.1-8.5l-27.5-4.8C144.4,497.5,160.9,492.2,177.7,488.2Z"/><path class="cls-9" d="M370.7,367.2c3.3-2.7,2.5-6.7,2.8-10.1.6-5.8,2.8-9.1,9-10.2,9.6-1.8,18.9-4.7,28.4-7.2,2.1-.5,4.2-.9,5.8-2.6,3.2,1.1,10.8,10.1,10.8,13.1s-2.3,2.9-3.9,4-4.1,2-6.1,3c-15.1,7.3-30.4,14.1-46,20.2a4.4,4.4,0,0,1-2.4.3c-2-1.2-4.9-.1-6.6-2.3s-.4-1.9.4-2.2C366.2,372.1,368.1,369.3,370.7,367.2Z"/><path class="cls-9" d="M407.8,365.3c-12,8.7-23.9,17.5-36,25.9s-25.7,20-38.4,30.3c-1.5,1.3-3.2,2.4-4.8,3.5s-4,1.6-5.6,2.9c-11.1,9-22.4,17.7-34.1,25.8-2.7,1.9-5.5,3.6-8.2-.1-1.1-3.3,1.4-5,3.3-6.7,8.5-7.5,17.1-14.8,25.5-22.3s14.1-12.2,21-18.4c2.7-2.4,7.1-2.9,8.1-7.1,2-2,3.8-4.1,6.5-5.1s5.4-.1,8-2c14.5-10.5,30.5-18.6,46.4-26.7,1.2-.6,2.4-1.5,3.6-2S407.3,362.5,407.8,365.3Z"/><path class="cls-9" d="M172.7,336.3c-2-.4-3.3-2-4.9-3"/><path class="cls-9" d="M176.8,332.9"/><path class="cls-9" d="M181.7,310.3"/><path class="cls-9" d="M281.7,453.2c2.1,1,3.8.2,5.5-1l36-25.8c1.6-1.2,3.3-2.4,5.4-1.3-11.8,10-23.9,19.7-35.5,30-19.5,17.4-38.6,35.1-57.9,52.7l-4.5,3.9c3.1-6.9,8.7-11.9,13-17.9,5.4-7.7,12-14.5,17-22.5.5-1.1,0-2.4.9-3.4,3.8-4.7,8.8-8.3,13.1-12.5C276.7,453.6,278.6,451.5,281.7,453.2Z"/><path class="cls-9" d="M407.8,365.3c-1.9-.9-3.5-.4-5.2.6-16.4,10-33.8,18.2-50,28.6-2.1,1.3-4.2,2.8-6.9,1.7-.6-2.1.6-3.5,1.9-4.7a133.5,133.5,0,0,1,20.3-15.3,11.1,11.1,0,0,0,1.9-.9l49.3-20.2c1.5-.6,2.8-2,4.6-.9Z"/><path class="cls-9" d="M231.8,309.2c5.1-1.9,10.4-.5,15.6-.8,3.1-.2,6.2-.2,9.4-.3l7.8.2c-6,1.9-12.2.6-18.4.8S236.7,309.2,231.8,309.2Z"/><path class="cls-9" d="M262.6,418.3c-23.7-.6-47.4-2.3-71.1-3.8-7.6-.5-15.3-.4-22.9-1.3-1.1-4.1,2.6-4.6,4.7-5.9,9.8-5.8,19.8-11.3,29.7-17,6.1-3.5,12-7.6,18.8-9.9,3.2-1.1,4.8-4.3,7.6-6,4.7-.8,9.7,0,14.3-1.5q23.3-1.7,46.6-3.9a22.9,22.9,0,0,1,8.9.7l1.5.5c2.6,2.5.8,4.4-.7,6.5-8.1,10.8-16.9,21-25.4,31.4-3.2,3.9-5.7,8.7-10.8,10.7A2,2,0,0,1,262.6,418.3Z"/><path class="cls-9" d="M229.7,377.3c-5.3,4.8-12,7.4-18.1,11-14.2,8.5-28.6,16.7-42.9,25-10.8,6.6-20.4,14.9-30.6,22.3-4.9,3.5-9.6,7.1-14.4,10.7a14.4,14.4,0,0,1-.9-3.8c.6-14.1-1.2-28-1-42.1a4.6,4.6,0,0,1,3.6-3.3q48.3-10.6,96.6-20.8C224.5,375.6,227.6,374,229.7,377.3Z"/><path class="cls-9" d="M262.6,418.3h1.1a26.4,26.4,0,0,0,9.4-3.6c20.1-5.6,40.2-11.2,60.6-15.7,2.6-.6,6-2.4,7,2.3l-49.6,43.2c-3.2,2.8-7,5.1-9.4,8.8-6.9,4.7-12.4,11-19,16-3.8-1.9-4.4-5-3.3-8.7,2.3-8.2.6-16.5.6-24.7,0-3.6-3-3.7-5.5-2.1a73.9,73.9,0,0,0-12.4,9.1,15.1,15.1,0,0,1-6.3,3.9c-2.1.6-4,.6-4.1-2.4l27.6-22.4A37.8,37.8,0,0,0,262.6,418.3Z"/><path class="cls-9" d="M231.7,444.3c3.9,1.6,6.3-1.1,8.7-3.3a100.3,100.3,0,0,1,15.3-11.2c4.5-2.7,6.8-1.7,6.7,3.4-.2,9.6,2.5,19.2-.7,28.7-.8,2.5,1,4.8,1,7.3l-1.9,2c-5.8-2.4-11.1.6-16.5,1.8-19.8,4.2-39.6,9-59.3,13.6-1.8.4-3.6.7-5.3-.4l36.8-29.8Z"/><path class="cls-9" d="M229.7,377.3l-81.5,17.4-22.5,4.7c-4.4,1.6-7-1-8.8-4.3-4.9-9-10-17.9-14.2-27.2-.9-2-2-4.1,1-5.4,34.9-1.6,69.8-1.3,104.8-1.1,4.4.9,8.8.2,13.2.4s6.9.4,10.3.5c1.7,0,3.8,0,4.1,1.9.5,3.7,3,4.6,5.8,5.7s3.9,2.7,1.9,5.4C239.2,376.8,234.2,375.4,229.7,377.3Z"/><path class="cls-9" d="M103.7,362.4c1.1,6.6,5.3,11.9,8.1,17.8s5.3,9.9,7.8,14.9c1.3,2.6,3,4.3,6.1,4.1l-4,1.1-51.3-8.1-17.7-2.9c1.9-6.1,6.4-10.7,9.7-16,1.5-2.4,3.5-4.4,4.8-6.9,2.5-4.8,6.3-6.9,11.7-6.3Z"/><path class="cls-9" d="M370.7,367.2c.7,6.9.6,7-8,7-1.9,3-4.9,2.5-7.6,2.3-16.3-1.2-32.7-2-49.1-3-2.1-.1-3.9-.6-5.3-2.3v-.2c-5.5-3.7-11.4-6.1-18.3-5.5a12.6,12.6,0,0,1-5.9-.6c-1.5-.6-3.2-1.5-1-3.3,7.4-1.3,14.8.1,22.1.4,3.7-.2,7.5.7,11.1-.9.7-2.1,2.7-2.2,4.5-2.5,13.6-2.4,27.3-3.8,40.9-5.8,2.2-.3,4.7-.6,6.6,1.3,5-1,7.6.9,7.8,6.1A14.3,14.3,0,0,0,370.7,367.2Z"/><path class="cls-9" d="M360.7,354.2c-17.3,2.8-34.5,5.4-52,7.1-3.4-.3-7.5,1.2-9.4-3.7,7.1,2.6,12.2-1.3,17.7-4.1-1-2.2-1.9-1-2.7-.9s-2.1.4-2.6-.7.9-1.5,1.5-2.2c5.9-7.6,13.6-7.8,22-5.8.8.2,1.8.7,2.4.4,4.4-2.1,9-.8,13.5-1,1.8-.1,5.2.4,3.1-3.5-.4-.8,0-1.3.8-1.4s3-.3,4.3.8a1.7,1.7,0,0,1,.3,2.3c-.5,1-1.9,1.4-1.7,2.9s1.8.6,2.7.4,4.2-.4,5,2-1.7,2.8-3.2,3.4S360.3,352.4,360.7,354.2Z"/><path class="cls-9" d="M274.6,362.4c4.5,1.6,9.3.7,13.9.8s9.6,3,12.2,8l-49,3.8c-2.6.2-5.3.2-7.9.3-1.3-3.8-4.4-4.2-7.7-3.7s-4.5-.7-2.9-3.8.3-4.4-3-4.4-5,.4-7.3-.9a108.7,108.7,0,0,1,23-.1h28.1C274.1,361.8,274.4,361.9,274.6,362.4Z"/><path class="cls-9" d="M274.6,362.4l-.9-.2,5.7-3.1c1.2-.7,2.4-1.4,3.6,0,2.8,3.2,6.3,2.4,9.7,1.5s3.9-.6,5,1.7Z"/><path class="cls-9" d="M245.7,362.2h-23c-4.7-.6-9.5.5-14.2-1h32.3A9.4,9.4,0,0,1,245.7,362.2Z"/><path class="cls-9" d="M369.7,341.7c-.3,1.5-1.2,2.2-2.4,2.1a2,2,0,0,1-1.9-2.4,1.7,1.7,0,0,1,2-1.6A2.4,2.4,0,0,1,369.7,341.7Z"/><path class="cls-9" d="M300.7,371.3c17.6-.2,35,1.6,52.5,2.7,3.1.2,6.3.2,9.4.3s4.7.9,7.1,1l-1.1,1c-10.3,7.4-22.4,11.3-34,16-19.4,8-38.7,16.5-59,22.3a5,5,0,0,0-3,1.7c-2.4,3.7-5.4,4.2-9,2l34.7-43.1A37.3,37.3,0,0,0,300.7,371.3Z"/><path class="cls-9" d="M272.7,416.3c-1.2-1-.1-1.4.6-1.7l94.9-38.3h.5l-23,20c-2.1,1.2-3.4,3.3-5,5-1.9-1.3-3.8-.5-5.7-.1Z"/><g class="cls-10"><path d="M127.8,502c-3.9-2.3-4.1-11.2-4.7-15.3-.9-6.9-1.2-13.9-1.7-20.8s-3.1-14.7-.1-19.6c1.4-2.2,4.7-4.3,6.7-6s5.6-4.6,8.4-6.8c9.3-7.1,18.7-14.8,28.6-21.2,2.7-1.7,3.8-1.6,6.8-1a55.8,55.8,0,0,0,8.7.5c6.6.1,13.2.4,19.8.8,13.5.8,27,1.9,40.6,2.4,5.8.2,11.6.2,17.3,1,2.5.3,6.4,1.2,5.3,4.8s-4.4,4-6.1,5.2c-4.6,3.3-9.1,6.7-13.5,10.2s-8,7.2-12,10.8c-9.6,8.7-20.2,16.4-30.2,24.6-5.6,4.6-11.2,9.1-17.2,13.2-2.2,1.6-4.3,3.9-6.6,5.3s-7.4,2.2-10.5,3.2c-6.4,2-12.9,4-19.4,5.7-3.6.9-7.1,1.7-10.8,2.4s-6.5-.1-9.4.7c0,0,0,.1,0,.1,3-.8,6.3-.2,9.4-.7s6-1.2,9-1.9c7.1-1.7,14.1-3.9,21.2-6.1,3.2-1,7.7-1.5,10.5-3.2s3.8-3.3,5.8-4.7c6.2-4.3,12.1-8.9,18-13.8l16.6-13.6c5.8-4.7,12-9.2,17-14.7s9-7.5,13.5-11l8.7-6.4c1.8-1.3,5.3-2.9,6.1-5.2,2.3-6.2-10.8-5.6-14.3-5.7-15-.6-30-1.5-44.9-2.4-7.3-.4-14.5-.8-21.8-1-3.6-.1-7.2.1-10.7-.6s-4.9-.3-7.9,1.9c-11.1,8.1-22.4,16.1-33.1,24.8-4.5,3.7-10.2,6.9-10.6,13.2a39.2,39.2,0,0,0,.5,6.8c.9,7.8,1.1,15.7,1.8,23.6.3,3.6.8,7.2,1.5,10.8s.9,8.2,3.8,9.9C127.8,502.2,127.8,502.1,127.8,502Z"/><path d="M400.8,329.3c3.1,1.6,6.4,2.9,9.6,4.3s8.9,3.4,5.4,6.9c-1.8,1.8-6.5,2.2-8.8,2.8l-13.7,3.5c-5.5,1.4-13.3,1.9-16.2,7.7-1.7,3.5-.3,14.6-6.4,13.9-2.8-.3-3.6-2.8-4.2-5.2s-1.6-5.1-4.2-6.7-2.7-1.9-3.2-6c-.1-.5.5.4,0-1.4a7,7,0,0,0-2.5-3.5c-.7-.5-.5-.9-1.3-1.1s-4.8,1-6.7,1.3a52.2,52.2,0,0,1-11.8.5c-4.2-.3-8.4-1.3-12.6-.8s-5,1.8-5.4,5.1.2,4.4-2.2,6.1-6.9,2.3-10.3,3c0,0,0,.1,0,.1,3.2,0,3,2.9.2,4.3s-4.6.4-6.6.2c-5.5-.6-11-2.2-16.5-2.8a16.3,16.3,0,0,0-7.1,1.2,24.7,24.7,0,0,1-8.9,1.8c-7.3.1-14.7.2-22,0s-12.2-2.4-18.3-2.2c-3.1.1-6,1.1-9.1,1.5a49.3,49.3,0,0,1-11.4,0c-14.1-1.2-28.5-.3-42.6-.2s-28.7.3-43,.9c-6.2.2-12.5-.4-18.6,0s-13.9-1.3-20.7-1.8c-12.8-.9-25.5-4.9-37.9-8.3l-9-2.4c-2.2-.6-5.6-.8-7.4-2.5a4,4,0,0,1,.8-6.5c2.2-1.3,5.1-.4,7.4-.4,5.6-.1,10.9-2.4,16.5-2.6,2.9-.1,3.9,1.2,6.1,2.8a15.7,15.7,0,0,0,8.4,2.4,279.5,279.5,0,0,0,39.3-1.3c6.9-.6,13.8-1.4,20.6-2.5l9.4-1.7c2.6-.5,6.1-.8,8.2-2.6s2.4-3.8,4.6-5.2a11.5,11.5,0,0,1,5.7-1.6,42.2,42.2,0,0,1,6.9.5c3.1.4,6.4-.2,9,1.6,4.5,3,9.8,2.5,15.1,2.2,6.9-.4,13.7-.9,20.6-.8s13.2-1.4,19.4-.2c1.6.3,5.1.6,6.2,2.1,2.8,3.8-3.1,4.2-4.1,6-2.6,4.4,6.5,3.4,8.3,3.9a48.4,48.4,0,0,1,6.7,2.6c1.8.7,3.9.9,5.3,2.2s1.7,3.4,4.3,3.9,4.5-.4,6.7-.9c6.8-1.5,13.5-3.2,19.5-6.7,3-1.8,5.1-3.9,8.6-4.6a101.4,101.4,0,0,0,10.7-2.6c2.2-.7,5.1-2.7,7.4-2-2-.6-4.2.9-5.7-1.3-2.9-4.1,2.9-6.4,5.5-6.9s7-.2,10.4-.2c7.7-.1,15.2-.2,22.9.4,3.8.3,7.7.7,11.5.9s6.2-1.3,9.8-2.3c6.7-1.8,13.1.3,19.7,1.8s14.4-1.3,21.7-.5c0,0,0-.1,0-.1-5.3-.6-11,1.3-16.4,1.2s-11.5-2.8-17.5-3.1a23.6,23.6,0,0,0-8.2.9c-2.9.9-4.9,2.2-8,2.1-6.7-.3-13.4-1.1-20.1-1.5s-12.5.2-18.7.1c-3.7-.1-12.1-.6-12.9,4.6s4,3.8,7,4.2c0,0,0-.1,0-.1-3.3-.5-5.9,1.1-9,2s-7.8,1.5-11.5,2.7-6,3.9-9.2,5.5a57.7,57.7,0,0,1-11.6,4.2c-4.8,1.2-12.3,4.5-15.9-.3-.8-1-.8-1.6-1.9-2.2s-3.3-1-4.8-1.6c-3.2-1.3-6.2-2.6-9.7-2.7s-6.8-.3-4-3.8c1.3-1.5,4.3-1.7,3.8-4.4s-1.2-1.8-2.4-2.2c-7.1-2.9-15.3-.9-22.7-.9s-16.8.8-25.3,1c-3.2.1-7.2.4-10-1.4-1.1-.6-1.9-1.7-3.1-2.1s-4.5-.2-6.5-.4c-5.6-.7-11.8-1.6-15.7,3.3-2.3,2.8-3.4,4.1-7.1,5s-8.4,1.6-12.6,2.3c-8.4,1.3-16.8,2.2-25.3,2.9s-17.3.7-26,.8c-3.6,0-7.3.4-10.8-.1s-5.7-2.8-9-4.6-6.2-.2-8.8.4-7.8,1.8-11.9,1.7-10.4-.4-8.9,5.1c.6,2.1,3,3,4.8,3.5,7.6,2.3,15.4,4.1,23.1,6.1s15.6,4.7,23.5,5.4l11.6.8c4.6.4,9,1.5,13.6,1.2,8.3-.6,16.9.2,25.3-.3s17.5-.5,26.4-.5c17.4.1,35.3-1.3,52.6.3a46.9,46.9,0,0,0,13.2-.3c4.3-.8,8.1-1.6,12.5-.8,8.6,1.6,16.7,1.8,25.4,1.8,4.1,0,8.3.2,12.4-.1s6.6-2.4,10.1-2.9,6.4,1,9.8,1.4,7.4,1.2,11,1.4c2.1.1,8.4.4,7.7-3.2a2.6,2.6,0,0,0-.3-.9c-.1-.2-1.8-1-1.8-.8s4.3-.8,4.7-.9c3.2-.8,6.5-2.1,7.2-5.6s-.3-6.6,4.7-7.5,7.7.2,11.5.6a52.7,52.7,0,0,0,12.8-.2c2.4-.3,6.5-2,8.3-1a9.7,9.7,0,0,1,2.7,3c.6,1.5-.5,3.5-.1,5s1.4,2.1,2.7,3,4.2,2.9,5,5.9.7,5.5,3.8,6.4c6.4,1.8,5.4-9.9,6.8-13.3,2.5-6,10-6.6,15.5-8l11.9-3c3.2-.8,8.4-1.3,11.2-3.2a3,3,0,0,0,1.5-2.5c0-4-13-7.6-16.1-9.3C400.8,329.2,400.8,329.3,400.8,329.3Z"/><path d="M240.7,333.2c-26,1.6-52.6,4.7-78.6,2a45.7,45.7,0,0,1-6.6-1.1c-.9-.2-1.8-.8-2.7-.9-3.3-.5-2.9,1.6-3.9,4.1s-5.1,4.1-8.7,4.4c-6.1.6-12.1,2-18.1,3-14.5,2.4-29.1,3.1-43.8,3.5a79.6,79.6,0,0,1-18.6-1.5c-4.8-1-8.8-3.5-13.8-2.9-2.6.4-5.2,1.2-7.9,1.3s-6.1-.9-9,.4-2.9,2.9-5.1,3.1-6.4-1.1-9.2-1.8-6.9-1.5-9.8-3-.9-4.9,1.5-6.7a75.9,75.9,0,0,1,17.3-9.2c25.3-10.3,53.1-11.9,79.9-15.1,14.5-1.7,29.1-3.4,43.7-4.5,9.7-.7,19.8-1.8,29.6-1.2s20.8.6,31.2.7c15,.2,30,.2,45,.7l6.2.3c1.9.2,2.1-.2,1.7,1.5-1,4.1-7.4,8.5-10.3,11.2s-7.9,6.9-10.1,11.5c0,0,0,.1,0,.1,4.2-8.9,14.3-13.4,19.6-21.5,1.9-2.8,1.9-2.1.3-2.9s-3.2-.2-4.2-.3l-8-.3-20.8-.4c-14.4-.2-28.8-.2-43.2-.6a423.3,423.3,0,0,0-53.5,2.3c-15.5,1.5-31,3.5-46.4,5.3-13.9,1.6-27.9,3.3-41.6,6.7S15.8,329.5,5.2,338c-.5.4-2.4,1.7-2.5,2.3-1.1,4.7,9.3,6,12.1,6.7a44.7,44.7,0,0,0,8.1,1.7c3,.2,3.6-1.9,6.1-3s5.9-.3,9-.4,6-1.2,9-1.5c4.9-.4,9.7,2.5,14.4,3.4,7.4,1.5,14.9,1.3,22.4.9,15.5-.8,30.5-1.8,45.9-4.6,4.6-.8,9.7-1,14.2-2.1a6.5,6.5,0,0,0,4.5-3c1.1-2,.3-5.1,3.3-5.3s5.7,1.6,8.1,1.9,7.3.7,10.9.8c9.3.4,18.6.2,27.8-.2,14.1-.5,28.1-1.5,42.1-2.4Z"/><path d="M400.8,329.1c-5.3,5.4-11.8,4.4-18.6,3.5-4-.6-8.1-1-12.1-1.7s-6.5-2-10.4-.1c-7.4,3.5-15.1,2-22.9,1-9.3-1.1-18.6.1-27.9-.4-1.8-.1-8.4-.3-7.9,3.2s7.7.7,10,1.3c3.8,1,4.2,3.6.1,4.3s-6.1-2.3-9.4-.8c-1.4.7-2.1,2.3-3.4,3s-3.2.4-4.8.6a31.7,31.7,0,0,0-10,3.3c-7.2,3.6-13.5,7.6-21.5,9.2-4.7.9-10.1,1.9-14.9,1.8-1.6,0-3.4.1-3.2-2.1s1.9-2.1,2.7-3.3a.8.8,0,0,0,0-.1c-3.8-.7-7.1-2.7-10.8-3.6s-6.9.3-10.2-1-5.2-4.8-2.5-7.2,5-.5,7.1-3.7c0,0,0-.1,0-.1-1.6,0-12,1-11.2-2.1s8.8-1.2,10.3-1.2,6.3.2,6.6-3-1.4-5.1-2.2-7.2-.8-3.3-1.4-5-1.6-2.9-1.9-4.6c-1.2-6.1,5.2-4.7,9.3-4.8,8.3-.1,16.8.9,24.9.1,4.4-.4,9.5.4,13.9.7l13.9.8c18.6,1.2,37.3,2,55.8,4a274.1,274.1,0,0,1,29.6,4.9c8.4,1.9,16.3,4.8,22.9,10.4,0,0,0-.1,0-.1-11.9-10.2-29.1-12.1-44-14.3-17.6-2.5-35.5-3.2-53.3-4.4s-35.5-1.9-53.2-2.3c-4.1-.1-8.3,0-12.4,0s-7.2-.9-7.7,3.1a9.7,9.7,0,0,0,1.2,4.6c1.5,3.3,2.5,6.8,3.7,10.3s1.8,4.7-.6,6c-3.9,2.2-15.8-2.4-15.9,4,0,0,0,.1,0,.1,2.6,0,5.7-.5,8.2,0s2.6,1.8-.1,2.6-3.7.2-4.4,2.3a7.3,7.3,0,0,0,.4,3.3c1.6,4.8,8,2.8,11.8,3.4a33.1,33.1,0,0,1,6.7,2.3c.7.3,3.6.8,4,1.4s.6.4.2,1.6-1.5.8-1.7,1.9c-.6,5.2,21.2,0,24.2-.9,9.1-2.9,16.6-10.2,26.4-11.2,3.4-.3,3.4-.3,6-2.4s3.3-1.9,5.5-1.2,8.8,2.6,8.8-1.1c0,0,0-.1,0-.1.1-1.8-3.6-2.5-4.9-2.6s-5.6,1.4-7.4.5-.1-3.5,1.4-4,4.7-.5,7.3-.4c6.8.3,13.6-.4,20.4-.2s12.7,1.9,19.1,1.7a24.4,24.4,0,0,0,9.4-2.3c2.8-1.3,3.8-1.3,7-.6a180.2,180.2,0,0,0,18.9,2.9c5.8.7,10.9.4,15.2-4C400.8,329.2,400.8,329.2,400.8,329.1Z"/><path d="M123.7,446.2a30.4,30.4,0,0,0-.8,9.9c.7,9.4,1.7,18.9,2.4,28.3.2,2.5.4,5,.6,7.5s.7,6.1.2,6.4.9,2.5-1.3-.8-4.9-9.4-7.3-14c-4.8-9.2-9-19.1-14.7-27.8S90,438.9,83.7,430.5l-19-24.9-9.5-12.4c-1.5-2-3.8-3.9-.5-5.2s5.6.2,7.7.6l31.9,4.9,17.4,2.7c4.4.7,10.1,1,12,5.8s1.1,12.4,1.5,18.1c.6,8.8.8,17.6-1.3,26.2,0,0,0,.1,0,.1a67.9,67.9,0,0,0,1.7-17.3c-.1-5.7-.7-11.3-.9-17-.1-4,.4-9.9-2.8-12.8s-9.9-3.1-14.1-3.7l-19.3-3-17.4-2.6-9.7-1.5c-1.9-.3-6.8-1.7-8.2.3s-.3.4-.4.8,5.6,8,6.7,9.4l23.2,30.3c7.2,9.4,15.5,18.6,21.6,28.8s11.4,21.8,17,32.7l2.7,5.2c.7,1.3,1.1,4.3,2.3,2.6a4.9,4.9,0,0,0,.2-.9c.3-1.5-.3-4.3-.4-5.7-.6-7.5-1.1-15-1.6-22.5s-2.6-15.3-.6-23C123.7,446.2,123.7,446.2,123.7,446.2Z"/><path d="M177.7,488.3c3.3-3.3,8.3-4.1,12.8-5.3s9.7-2.5,14.6-3.7c9.1-2.1,18.3-3.9,27.5-6l12.8-3.1c3.8-.9,9.1-2.7,13-2.1,10.3,1.7-3.8,15.9-6.2,18.9a260.4,260.4,0,0,1-18.1,20.4c-4,4-8,12.1-15.4,8.4-1.2-.6-2.6-2.1-3.8-2.8l-6.5-3.3c-3.7-2-7.4-4.2-11-6.5s-8.3-5.2-12.5-7.6-7.6-3-7.2-7.3c0,0,0-.1,0-.1-.4,4.3,3.9,5.6,7.2,7.5,5.3,3.1,10.4,6.4,15.6,9.5,2.9,1.7,5.8,3.4,8.7,5s8,2.9,8.2,5.3h0c6.6,2,10.1.3,13.9-5s10.3-10.8,15-16.4,10.2-11.7,14.4-18.1a7.2,7.2,0,0,0,1.5-3.5c.3-7.2-10.6-3.7-14.2-3-8,1.6-15.9,3.8-23.8,5.6s-15.9,3.4-23.8,5.3c-4,1-7.9,2-11.8,3.1s-8,1.9-11,4.8C177.7,488.2,177.7,488.3,177.7,488.3Z"/><path d="M52.7,389.4l-6-4.5-4.5-3.9-10.5-9-21-18-4.5-3.9c-1.4-1.2-4.8-3.1-5.5-4.9s-.1-2,.7-3.4,2.4-1,4.6-.2c7.6,2.8,15.7,4.2,23.5,6.3s16.6,4.6,25,6.8c2.9.7,24.2,4.9,24,6.3s-3.3,1.5-3.9,1.9a22.6,22.6,0,0,0-4.2,3.4,46.5,46.5,0,0,0-5.6,7.6c-3.4,5.4-6.8,11.7-12.2,15.4,0,0,0,.1,0,.1,5.8-3.9,9.2-10.8,12.9-16.5a38.6,38.6,0,0,1,5.8-7.3c1.5-1.4,7.1-3.6,7.4-5.3a.9.9,0,0,0,0-.1c-15.1-2.8-29.9-6.9-44.7-11-6.8-1.9-13.6-3.4-20.4-5.2l-5.1-1.5c-1.4-.5-3.6-1.9-5-1.9s-1.7.3-2.4,1.6-.9,1.2-.8,2.1,0,.1,0,.1c.3,2.7,5.4,5.5,7.4,7.2l9,7.7,36,30.9s0-.1,0-.1v-.8S52.7,389.4,52.7,389.4Z"/><path d="M177.7,488.3,198.6,501l9.8,5.9c3.2,2,8.1,3.9,10.8,6.5s1.2,1.6-.9,1.8a35.7,35.7,0,0,1-4.8-.2L201.8,514c-8.4-1-16.8-2.2-25.2-3.6l-24.2-4.1c-2.7-.5-22.6-2.7-22.7-4.7s21.8-6.3,24-6.9c8-2.3,16-4.5,24.1-6.4,0,0,0-.1,0-.1-16.8,4-33.3,9.2-49.9,13.9a1.1,1.1,0,0,0,0,.1c16.2,2.8,32.5,5.7,48.8,8.3,14.5,2.4,30.5,6.1,45.2,4.5a1,1,0,0,0,0-.1l-44-26.7S177.7,488.3,177.7,488.3Z"/><path d="M370.7,367.3c4.5-4.6,1.2-11.6,4.9-16.6,1.7-2.3,4.2-3.1,6.9-3.8s8.3-1.8,12.5-2.9l12.4-3.3,4.8-1.2c1-.3,3.8-2.3,4.6-2.3,3.3,0,8.2,7.6,9.6,9.9,3.5,6.1-4.6,7.6-8.8,10-7.9,4.3-16.4,7.8-24.6,11.4l-12.5,5.3c-3.3,1.3-7.9,4.2-11.4,3.9-2-.2-8.3-1.1-6.2-4.3.5-.8,2.9-1.6,3.7-2.2s2.8-2.6,4.2-3.8,0-.1,0-.1c-2.3,2-4.9,3.8-7.2,5.7-.5.4-1.1.5-1.3,1.2-.5,2.8,4.5,3.2,6.3,3.4,3.5.4,6.9-1.6,10.2-2.9l12.5-5.2q12-5.2,23.7-10.9c3-1.4,5.7-3,8.7-4.2s3.8-1.9,3.9-4a4.9,4.9,0,0,0-.6-2.1c-1.3-3.1-5.9-9.8-9.3-10.7-1.6-.4-4.1,1.4-6.1,2l-12.1,3.3c-4.4,1.2-8.8,2.4-13.3,3.3s-6.9,1-9.5,3.4c-5.2,4.8-1.2,12.9-6,17.7C370.7,367.2,370.8,367.3,370.7,367.3Z"/><path d="M407.8,365.3c-18.8,13.6-38.2,26.7-56.2,41.3l-12.3,10.2c-2.3,1.9-4.6,3.9-7,5.7a27.2,27.2,0,0,1-6.1,3.3c-3.9,1.8-7.7,6-11.1,8.6s-9.3,7.2-14,10.7-8.6,6.8-13.2,9.5c-1.4.8-3,1.7-4.7,1.1s-3.1-4-1.5-6.2c2.8-3.7,7.4-6.7,10.9-9.7L306.1,428c8.2-7.2,16.2-15.3,24.9-21.9,2.6-2,5.4-2.8,7.3-5.6a17.8,17.8,0,0,1,4.5-4.9c2.3-1.6,4-1.1,6.5-1.6,5.2-1.1,10.2-6.1,14.7-8.9s10.6-6.3,16-9.3,10.9-5.7,16.4-8.6c2.9-1.5,9.6-7.1,11.4-1.8,0,0,0-.1,0-.1-1.7-4.9-6.9-.5-9.7,1l-16.4,8.5c-4.9,2.6-9.7,5.3-14.5,8.2s-9.9,7.4-15.2,10c-2.3,1.1-4.4.5-6.7,1.2s-3.7,2.3-5.1,3.7-1.9,3.1-3.2,4.4-3.8,2.2-5.6,3.5c-4.3,3-8.1,7.1-12,10.5l-14,12.3-13.5,11.8-6.4,5.6c-1.5,1.3-4,2.9-4.7,4.9-1.2,3.5,2.3,6.2,5.8,4.6s8.9-6.1,12.9-9.1,10.4-7.8,15.5-11.9,7.7-7.1,12.3-9.1,9.1-6.2,13.4-9.7c21.6-17.9,44.4-33.9,67.1-50.3C407.8,365.4,407.8,365.3,407.8,365.3Z"/><path d="M172.7,336.2c-2-.4-3.3-2-4.9-3,0,0,0,.1,0,.1,1.6,1.1,3,2.6,4.9,3,0,0,0-.1,0-.1Z"/><polygon points="176.8 332.9 176.8 332.8 176.8 332.9 176.8 332.9"/><polygon points="181.7 310.3 181.7 310.2 181.7 310.3 181.7 310.3"/><path d="M281.7,453.3c4.1,1.1,7.1-2.2,10.2-4.4l11.7-8.4,10.2-7.3c3.5-2.5,7.3-6.2,11.3-7.9s1.9.9.6,2.3a47.3,47.3,0,0,1-5.2,4.3l-11.2,9.3q-10.4,8.7-20.5,17.8c-14.1,12.6-28,25.4-42,38.2l-10.1,9.2a30,30,0,0,1-3.7,3.3c-2.8,1.8-.9-.7,0-2.1,4.2-6.5,9.6-12.6,14.4-18.7,2.9-3.7,5.9-7.3,8.8-11a40.5,40.5,0,0,0,4.1-5.7c.8-1.6.8-3.3,1.9-4.8,2.5-3.5,6.4-6.2,9.6-9.1s5.5-6.7,9.8-4.9c0,0,0-.1,0-.1-3.4-1.4-5,.4-7.4,2.7s-4.9,4.4-7.4,6.6-4.6,4.3-5.8,7.6-3.4,5.7-5.4,8.3c-4.3,5.5-8.7,11-12.9,16.5s-9,10.3-12.1,16.6c0,0,0,.1,0,.1,16.2-14.2,31.9-29.1,47.9-43.5s33.2-28.9,50.1-43a.7.7,0,0,0,0-.1c-4.3-1.2-8.4,3.4-11.7,5.8l-11.8,8.4-11.7,8.4c-3.4,2.5-7.3,6.8-11.8,5.5C281.7,453.2,281.7,453.3,281.7,453.3Z"/><path d="M407.8,365.3c-3.6-1.1-6.1,1.2-9.1,3l-9.7,5.5L368.6,385l-9.7,5.6c-2.9,1.7-5.7,4.1-8.9,5.4-.7.3-3.7,1.2-4.4.2s1-3.6,1.9-4.6a80.2,80.2,0,0,1,9-7.6,77.5,77.5,0,0,1,18.6-10.9l21.9-9c7.3-3,14.7-5.7,21.9-9,.6-.3,2.6-1.7,3.3-1.3s-2.9,3.2-3.5,3.6l-11.1,7.8s0,.1,0,.1l15.8-11.1a.7.7,0,0,0,0-.1c-3-1-7.4,2-10.1,3.1l-11,4.5-23.7,9.7c-7.3,3-13.7,6-20,10.7-2.9,2.2-5.7,4.5-8.5,6.8s-4.8,3.5-4.8,5.7,0,1.6,1.7,1.9,7.1-3.2,9.3-4.5L367,386c7-4,14.1-7.8,21.2-11.7l9.7-5.5c3.1-1.8,6.2-4.6,9.9-3.5C407.8,365.4,407.8,365.3,407.8,365.3Z"/><path d="M231.8,309.3c2.8-.8,30.8-2,31-.7s-28.1.6-31,.6h16.3c5.6,0,11,.6,16.5-.8,0,0,0-.1,0-.1-5.8-.2-11.4-.1-17.2,0s-10.5-.8-15.6.8C231.8,309.2,231.9,309.3,231.8,309.3Z"/><path d="M262.6,418.2c-21.7-.5-43.4-2-65.1-3.4L182,414l-7.6-.3c-2.3-.1-7.2.6-5.6-3s5.2-3.6,7.1-4.7l14-8.1c8.7-4.9,17.3-10.6,26.3-15,3.7-1.8,7.2-2.7,10.2-5.6s2.6-2.6,4.9-3,6-.1,9-.5c10.2-1.4,20.5-2.1,30.7-3l15.5-1.4c3.6-.3,13.2-2,15.2,2.1s-5.6,10.3-7.5,12.8c-3.6,4.5-7.3,9-11,13.4s-7,8.2-10.3,12.5c-2.1,2.7-6.4,9.6-10.4,7.9,0,0,0,.1,0,.1,3.6,1.6,7.6-4.2,9.6-6.8,3.6-4.7,7.4-9.1,11.1-13.7s7.4-8.9,11-13.4c2-2.5,4-5,5.9-7.6s2.1-2.5,2-4.2c-.3-4.5-8.8-3.9-11.7-3.7-12.3.7-24.6,2.2-36.9,3.1-5.6.4-11.2,1.5-16.8,1.8-2.8.2-5.9-.3-8.3,1.3s-3.1,3.4-5.2,4.6c-4.4,2.6-9.5,4.2-14,6.8l-16,9.2-14.9,8.5c-2.3,1.3-8.8,3.6-9.7,6.5s7,3,9.6,3.1c28.1,1.3,56.2,3.6,84.4,4.3Z"/><path d="M229.7,377.2c-6.8,5.8-15.3,9.4-23,13.9L181.1,406c-8.3,4.8-16.6,9.6-24.3,15.3l-23,17.3-5,3.8c-.4.3-4.5,4-5,3.8s-.8-7.6-.8-9.5c0-5.8-.3-11.5-.6-17.3-.1-2.5-.3-5.1-.4-7.6s-.1-2.6-.1-3.8-.2-8.1.9-9.3c2.6-3.1,10.5-3.3,14.3-4.2l29.9-6.5,33.8-7.3,17.4-3.7c3.9-.8,8.5-3.3,11.6.3,0,0,0-.1,0-.1-2.7-3.2-6.1-1.5-9.7-.7l-17.4,3.7-32.8,7L138,394.2c-5.7,1.2-15.7.9-16.2,8.1s.5,14.2.8,21.1-.5,12.9.3,19.1c.1.4.1.9.1,1.3a19.2,19.2,0,0,0,.8,2.5,25.6,25.6,0,0,0,2.9-2.2l5.7-4.3,13-9.6c8.2-6.2,16.2-12.6,25-17.8L201,394.6c5-2.9,9.9-6,15-8.7s9.6-5,13.8-8.6C229.7,377.3,229.7,377.2,229.7,377.2Z"/><path d="M262.6,418.3c5.1-.1,9.5-3.4,14.2-4.7l17-4.7c11-3,22.1-5.9,33.2-8.4l7.1-1.6c1.2-.3,2.8-1.1,4.1-.7,5.9,1.7-4.7,9.2-6.6,10.8l-26.3,22.9L292.6,443c-3.8,3.3-7.3,6.7-10.9,10.1s-7.8,6.2-11.4,9.5l-4.9,4.4c-.5.4-2.2,2.1-2.6,2.1s-2.6-1.9-3-2.6c-2.1-3.5.6-9.6.8-13.6.1-1.3.1-2.6,0-3.9-.1-3.8-.4-7.6-.6-11.5s-1.2-6.2-5.5-4-9.2,6.6-13.5,10.1c-1.7,1.3-3.9,3-6.2,3.1s-3.6-1.3-1.5-3.8,5.3-4.3,7.7-6.2l6.9-5.6c5.1-4.1,10.5-8,14.8-12.9,0,0,0-.1,0-.1-5.9,6.6-13.4,11.7-20.2,17.3l-5.4,4.4c-1.1.9-5.2,3.2-5.4,4.4s0,.1,0,.1c-1.8,5.3,7.7.8,8.7.1,2.9-2.2,5.4-4.8,8.4-6.9s6.6-5.6,9.4-4.6,2,7.8,2.2,10.6a73.9,73.9,0,0,1,.1,11.3c-.2,2.6-1.1,5.1-1.4,7.7a7.3,7.3,0,0,0,.1,2.6,5.6,5.6,0,0,0,2.3,3.5c2,1,2.9-.5,4.5-1.9,3.1-2.7,6.1-5.6,9.2-8.3l17.5-15.2,48.1-41.8a.4.4,0,0,0,0-.1c-1.7-5.6-8.6-2-12.7-1-7.6,1.8-15.2,3.7-22.8,5.6L282.5,412c-3.4.9-7,1.6-10.2,3s-6.1,3.2-9.7,3.2Z"/><path d="M231.7,444.3c3.4,1,5.3-.3,7.8-2.5s5.8-5,9-7.3,12.1-10.1,13.7-3.7a31.4,31.4,0,0,1,.2,4.2c.1,3.6.5,7.2.7,10.8a54,54,0,0,1-.4,12.4c-.3,1.7-1.1,3.3-1.1,5h0c0,1.3.7,2.4.9,3.7s-.5,3.7-2.4,3.9-4.4-.7-6.7-.3c-8.4,1.5-16.9,4-25.2,5.9l-26.8,6.2-12.4,2.9c-1.8.4-3.9,1.3-5.9,1.2-3.5-.2-1.4-2.1.6-3.7q24-19.5,48.2-38.9s0-.1,0-.1c-17.4,13.9-34.7,28-52,42a.6.6,0,0,0,0,.1c4,1.8,8.9-.4,12.9-1.4l15.3-3.6c10.2-2.4,20.4-4.8,30.6-7,4.6-1,9.2-2.5,13.8-3.4,2.4-.5,4.4-.1,6.7-.1s2.9.8,3.6-1.5c0,0,0-.1,0-.1s-.6-36.4-.2-1.5c0-2.4-1-4-.6-6.6,1.7-9.6.9-18.1.4-27.9-.4-7.9-6.7-3.6-11.1-.6a102.4,102.4,0,0,0-10.9,8.4c-2.8,2.4-4.9,4.4-8.7,3.3C231.7,444.2,231.7,444.3,231.7,444.3Z"/><path d="M229.7,377.2l-66,14.1-32.4,6.8c-3.8.8-8.5,3-11.9.2s-5.1-8-7.1-11.7-5.2-9.6-7.5-14.5c-.9-1.8-2.2-3.9-2.7-5.8s.9-3.4,3.6-3.8c5.4-.9,11.3-.4,16.8-.6l16.8-.4c11.5-.2,23.1-.2,34.6-.2s22.5-.5,33.6.2c5.9.3,11.7.5,17.6.9,2.6.2,5.3-.3,7.9,0s2.3.7,3.2,2.6,1.4,2.9,3.3,4,4.1,1.2,4.9,3c1.6,3.8-3.7,3.9-5.9,4.1s-5.8.2-8.8,1.2c0,0,0,.1,0,.1,3-1,15.4.1,14.9-4.5-.3-3-4.2-3.2-6.1-4.6s-1.4-3.4-2.8-5.1-3.8-1-5.4-1c-12.5,0-25-.9-37.6-1H154.1c-12.8.1-25.7.3-38.5.7-3.1.1-13.5-1.3-13.8,3a7.1,7.1,0,0,0,1,2.9c1.3,2.9,2.7,5.8,4.2,8.7,2.9,5.7,6,11.3,9.1,16.9,2.1,3.8,4.1,7,9,6.1,6.5-1.2,13-2.7,19.4-4.1l85.2-18.2S229.7,377.2,229.7,377.2Z"/><path d="M103.7,362.5c1.5,7.3,6,13.8,9.3,20.4,1.8,3.6,3.8,7.2,5.8,10.7a19.4,19.4,0,0,0,2.1,3.7c.5.6,3.6,1.9,3.6,2.1s-7.9.2-8.7,0L102,397.2l-25.6-4-12.1-1.9c-2.2-.4-10.5-.3-11-3.3s4.5-7.7,5.6-9.3,3.6-5.3,5.5-7.9c3.7-5.1,5.9-10.5,13.1-10.5,8.7-.1,17.7,1.6,26.3,2.3,0,0,0-.1,0-.1l-19.1-1.7c-5.1-.5-10.5-1.7-14.6,2s-6.2,8.7-8.9,12.6-6.5,8.8-8.4,14a.9.9,0,0,0,0,.1l36.5,5.9,18.7,2.9c6,.9,11.9,2.7,17.8,1.1,0,0,0-.1,0-.1-3.1-.1-4.6-1.5-6.1-4.1s-4.2-7.7-6.2-11.6c-3.5-6.8-8.1-13.7-9.7-21.2C103.8,362.4,103.7,362.4,103.7,362.5Z"/><path d="M370.7,367.3c.2,2.4,1,5.3-1.4,6.5s-4.6-.3-6.6.5-1.8,1.9-3.5,2.3a13.2,13.2,0,0,1-3.5,0l-13.3-.9-25.5-1.5c-3.9-.2-8.4.1-12.3-.8s-5.3-3.4-8.1-4.8a27,27,0,0,0-9.9-3c-3.2-.3-7.1.9-10-.6-4.8-2.4,1.2-3.6,3.7-3.7a97.2,97.2,0,0,1,12.9.6,82.9,82.9,0,0,0,11,.4c1.4-.1,3.5-.1,4.7-1s1.3-1.7,2.9-2.2c3.5-1.2,7.7-1.3,11.3-1.9l13.6-1.9,14.6-1.9a29.4,29.4,0,0,1,5.7-.6c1.7.1,3,1.1,4.5,1.4s4.9-.5,6.4,2.7c.8,1.6.6,3.3.8,5a17.3,17.3,0,0,0,2.1,5.4s0-.1,0-.1a17.3,17.3,0,0,1-2.1-5.4c-.3-1.7-.1-3.4-.8-5-1.8-3.6-4.1-1.9-7.1-2.6s-2.9-1.6-5.2-1.5-4.8.7-7.2,1l-15.6,2c-5.2.7-10.4,1.4-15.6,2.3-1.9.3-4.2.4-6,1.1s-2.2,2.1-3.9,2.7c-3.7,1.3-9.3.4-13.2.1s-10.4-1.1-15.7-.5c-1.6.2-4.5.6-3.6,2.6s7.2,1.7,9.4,1.7a27.1,27.1,0,0,1,13.1,3.5c3.2,1.7,5.1,4.1,8.9,4.6,5.5.7,11.2.7,16.7,1,10.5.6,20.9,1.2,31.4,1.9,1.8.1,3.9.5,5.7,0s2.5-2.2,5-2.2,4.9.3,6-1.7.1-4.2,0-5.4S370.7,367.2,370.7,367.3Z"/><path d="M360.7,354.2c-15.7,2.6-31.3,4.9-47.1,6.6a50.3,50.3,0,0,1-8.5.4c-.8-.1-6.4-1.2-4.6-2.7s3,0,4.2,0a15.2,15.2,0,0,0,4.1-.9,64.2,64.2,0,0,0,8.3-4,.5.5,0,0,0,0-.1c-1.7-2.5-6.6,1.2-3.9-3.7,1.8-3.2,6-5.5,9.4-6.4a24.7,24.7,0,0,1,11.1.3,10.1,10.1,0,0,0,5.5.1,26.5,26.5,0,0,1,5.9-.6c2.6.1,8.1,1.4,9.7-1.2s-3.3-.2.2-3.6c1.6-1.6,5.1.8,4.5,2.9s-1.5,1.4-1.7,2.9a.4.4,0,0,0,0,.1c2.2,1.6,6.8-1.5,7.7,2.4s-3.5,2.4-4.8,4.6a4.3,4.3,0,0,0-.2,2.9s0-.1,0-.1c-.8-5.5,4.4-2.5,5.2-6.2s-2.2-3.5-3.9-3.4-2.7.7-3.1.4c-2-1.5-.1-1.6.4-2.7s.9-1.1.8-1.9c-.4-2.5-4.1-2.3-5.6-1.4a.4.4,0,0,0,0,.1c.2,3.2,1,4.1-2.7,4.3s-4.8-.2-7.2-.2-4.9,1.1-7.3,1.2-7.7-1.8-11.8-1.5a17.1,17.1,0,0,0-11,5.5c-.9,1-3.9,2.9-1.8,4.3s3-1,3.6-.4-2.9,3.2-4,3.7c-4.2,2-8.1,2.8-12.7,1.4,0,0,0,.1,0,.1,1.8,3.7,4.6,3.7,8.4,3.6,5.8-.1,11.7-1,17.4-1.8,11.9-1.5,23.7-3.3,35.5-5.2C360.7,354.3,360.7,354.2,360.7,354.2Z"/><path d="M274.6,362.4c7.2,2.1,15.9-1.4,22.1,3.7a8.4,8.4,0,0,1,2.5,2.8q1.7,1.4-.6,2.3l-3.9.3-13.7,1.1-27.4,2.1c-2.5.2-5.4.7-7.9.4s-1.3-.2-3.3-2.2-5.3-.6-8.3-1.4-.2-3.6-.4-6c-.4-4.5-9.3-.5-9.7-2.6s22.9-.6,25.3-.6h13.1c2.1,0,11-1.1,12.1.2s0-.1,0-.1-8.2-.2-10.2-.2h-14c-9.3,0-18.4-1-27.6.1a1,1,0,0,0,0,.1,14.2,14.2,0,0,0,5.8,1c1.3,0,3.6-.4,4.6.6s-1.1,4-.8,5.8,5.5,1.2,7.7,1.9,2,2,3.4,3,5,.5,7.2.4c5.6-.3,11.1-.8,16.7-1.3l33.3-2.6a1.1,1.1,0,0,0,0-.1c-2.1-3.8-5-6.8-9.4-7.7s-11.1.5-16.6-1.1C274.6,362.3,274.6,362.4,274.6,362.4Z"/><path d="M274.6,362.3c.2,0,4.1-2.8,4.8-3.1,2.6-1.1,2.4-.4,4.7,1s6.1.4,9.8.2c1.4-.1,4.2.1,2,1.8s-5.8,0-7.1.1H274.6l23.1-.2s0-.1,0-.1c-2.8-4.1-7.3,0-11.3-1-2-.5-3.2-2.8-5.2-2.8s-5.7,2.8-7.5,3.8a.9.9,0,0,0,0,.1l.9.2S274.6,362.3,274.6,362.3Z"/><path d="M245.7,362.1H218.3l-7.9-.5c1.2-1,5.9-.2,7.7-.2h9.5c5.6,0,12.8-1.2,18.1.9,0,0,0-.1,0-.1-5.3-2.1-12.5-.9-18.1-.9h-19s0,.1,0,.1c5.7,1.5,12.2,1,18,1h19.1Z"/><path d="M369.7,341.6c-.2,1-.8,2-2,2.1a2.1,2.1,0,0,1-2.3-1.5,1.8,1.8,0,0,1,1.9-2.4,2.5,2.5,0,0,1,2.3,1.9s0-.1,0-.1a2.5,2.5,0,0,0-3.1-1.9,1.8,1.8,0,0,0-1.2,1.9,2,2,0,0,0,1.5,2.1c1.5.4,2.5-.6,2.9-2S369.7,341.6,369.7,341.6Z"/><path d="M300.7,371.4c16.9-.1,33.7,1.5,50.6,2.5,4,.2,8.3-.1,12.1.7,1.1.2,3.3.3,4.2.7s-.3,1.9-1.8,2.8c-6.2,4-13.1,6.9-20,9.7-14.6,5.8-29.1,12.1-43.8,17.8-7.8,3-15.7,5.8-23.7,8.2a18.7,18.7,0,0,0-4.3,1.4c-1.2.7-1.7,1.9-2.8,2.8s-7.9,2.6-5.8-1.9,6-7.5,8.7-10.8l9.3-11.6c5.8-7.2,12.5-14.3,17.2-22.3,0,0,0-.1,0-.1-4.9,8.3-11.8,15.6-17.8,23l-19.2,23.9a.5.5,0,0,0,0,.1c1.5.8,3.2,1.6,5,1.2s2.9-2.3,4.5-3.6c3.2-2.7,9.3-3.3,13.2-4.6,10-3.3,19.8-7.2,29.5-11.2s18.3-7.7,27.6-11.3,19.1-7,26.3-13.5a1.2,1.2,0,0,0,0-.1,32.2,32.2,0,0,1-6.4-.7c-2.6-.6-5.5-.4-8.2-.5-6.1-.2-12.3-.8-18.4-1.2-12-.9-24-1.6-36-1.5Z"/><path d="M272.7,416.2c-1.2-1.9,8-4.6,9.7-5.2l12.8-5.2,25.6-10.3,25.6-10.3,12.8-5.1,6.4-2.6,2.7-1.1a16,16,0,0,1-2.4,2.3c-6.5,6-13.2,11.9-20.1,17.5a25.9,25.9,0,0,0-3.2,2.8l-1.8,2.2a4,4,0,0,0-2.9-.7c-4,.1-8.5,2-12.3,2.9l-52.8,12.8s0,.1,0,.1l54.7-13.3a99.9,99.9,0,0,1,11.8-2.4q1.6,1.5,2.4-.4l1.9-2.1c1.1-1.1,2.4-2,3.7-3,7.3-6.1,14.4-12.5,21.6-18.8,0,0,0-.1,0-.1-3.9.9-7.7,3-11.4,4.5l-12.8,5.1-24.6,9.9-24.6,9.9-12.8,5.2c-2.8,1.1-8.5,2.2-10.2,4.5a.3.3,0,0,0,0,.1l.5.8S272.7,416.3,272.7,416.2Z"/></g><path class="cls-11" d="M127.8,502.1c-1.4-.4-1.8-1.6-2.1-2.8-4.2-14.1-3.3-28.9-5.2-43.3-.4-3.2-.6-6.6.8-9.8,13.1-12.4,28.4-22.1,42.6-33.1,1.8-1.4,3.7-2.9,6.3-2.4s5.6,1,8.4,1c21.8.3,43.5,2.7,65.3,3.3,5.9.2,12,.3,17.9,1.5,4,3.3,1.1,5.7-1.4,7.5-5.4,3.8-10.8,7.7-15.9,11.8s-8.2,5.8-11.1,10c-12,9.9-24.2,19.7-36.2,29.6-5.3,4.4-10.9,8.3-16.5,12.2a30.2,30.2,0,0,1-2.8,2.6c-14.7,4.3-29.1,9.6-44.3,11.8C131.6,502.3,129.7,501.1,127.8,502.1Z"/><path class="cls-12" d="M400.8,329.2c5.2,2.9,11.1,4.3,16,7.9.8,3.6-1.9,4.1-4.3,4.7-9.1,2.6-18.3,4.7-27.4,7.1-5.6,1.4-8.7,4.4-9,10.2a55.5,55.5,0,0,1-1.1,5.9c-.3,2-1.4,3.3-3.5,3.6s-4.5-2.7-4.8-5.3a8.7,8.7,0,0,0-6.5-7.7c-.9-1.1-1.9-2.5-1.4-3.6,1.6-3.3-.5-4.9-2.5-6.8-.4-.3.1-1-1.2-.6a53.7,53.7,0,0,1-21.8,1.4,37.1,37.1,0,0,0-9-.4c-4.1.4-5.8,2.3-5.3,6.3s-1.7,4.9-4.3,6-6,1.4-8.3,1.9c1.2,0,3.1-.2,2.6,2.8-3,3.1-6.8,1.7-10.3,1.8s-8.4-.7-11.9-2c-5.6-2-9.8.2-14.4,2.1-8.9.3-17.8.1-26.7.1a48.3,48.3,0,0,1-11.3-1.4,23.8,23.8,0,0,0-12.3,0,39.6,39.6,0,0,1-13.3,1c-5.5-.8-11-.5-16.5-.5-16.6,0-33.3.2-49.9-.1-8.3-.1-16.6,1-24.9,1.1a117.2,117.2,0,0,1-12.9-.5c-5.5,1.4-10.9-.7-16.3-.9-3-.1-6-.6-8.9-.6-6.6-.1-12.6-2.7-18.9-4-9.1-2-18.1-4.6-27.1-7-2.7-.7-5.7-1-7.1-4s3.2-5.7,6.3-5.3c6.5.8,12.5-1.5,18.7-2.3,2.1-.3,4-.4,5.5,1.1,3.5,3.6,8,4.1,12.5,4l16.4-.2a280.7,280.7,0,0,0,31.8-2.3c6.9-.8,13.8-2,20.7-3.4,2.6-.5,5.8-1,7.1-3.3,4.1-7.4,10.7-5.9,17.1-5.3,1.8.2,3.6.8,5.4.2s4,3.2,6.7,3.3c6.3.8,12.5.1,18.8-.4,8.1-.7,16.2.3,24.3-.5a23.7,23.7,0,0,1,11.3,1c1.4.4,3.1.5,3.4,2.4s-.9,2.7-2.2,3.5-3.2,1.2-2.7,3.1,2.7,1.9,4.3,1.7c5.7-.7,10,3.2,15.2,4.2a1.7,1.7,0,0,1,1.2.9c2.4,5.7,6.7,3.8,10.9,3,8.8-1.8,17.3-4.3,24.4-10.1a3.2,3.2,0,0,1,1.3-.7c6.1-1.3,12.2-2.3,17.9-4.9,1.1-.5,2.4,0,3.5.1-.5,0-1.2-.3-1.8-.2-2.2.2-4.6.5-5.1-2.4s1.7-4.6,4.2-5.4c4.5-1.4,9.3-.4,13.9-.7,11.6-.9,23.1.9,34.6,1.4a5.6,5.6,0,0,0,2.9-.4c8.2-4.5,16.5-2.4,24.6-.2,5.9,1.6,11.5,0,17.3-.2C397.9,329.5,399.3,328.7,400.8,329.2Z"/><path class="cls-13" d="M240.7,333.3c-5,.3-75,6-87.9,0-1.2-.6-3.3.1-3.4,1.5-.6,8.1-7.5,6.5-11.9,7.3-13.4,2.4-27,5.2-40.5,5.4s-26.2,2.5-39.1-1.2a13.2,13.2,0,0,1-2-.3c-5.8-2.8-7.3-2.8-14.3-1.2a19.4,19.4,0,0,1-6.9.2,9.1,9.1,0,0,0-7.9,2.2c-1.2,2-3.1,1.6-4.8,1.3a114.8,114.8,0,0,1-15.7-4.2c-1.9-.6-3.8-1.5-3.4-4.1,6.5-6.1,14.5-9.8,22.7-13,19.5-7.7,40.3-10.1,60.9-12.4,29.7-3.4,59.4-7.4,89.4-7.9,1.9,1.1,86.6.8,86,2.3C258.8,316.6,243.8,326,240.7,333.3Z"/><path class="cls-12" d="M400.8,329.2c-5,5.7-12,4.4-17.8,3.6s-12.7-1.4-18.9-3.2a4,4,0,0,0-2.9.4c-8.1,5-16.8,2.8-25.2,1.8s-19.4.6-29.1-.5a5.9,5.9,0,0,0-2.5.4c-1.6.5-3.8,1-3.5,2.9s2.6,1.6,4.1,1.2a11.7,11.7,0,0,1,7.3.5c.9.4,2.1.6,2.1,1.8s-1.1,1.6-2.1,1.8-3.7,1-5.4,0c-3.2-1.9-5.6-1.1-7.8,1.6a3.1,3.1,0,0,1-2.1,1.3c-11.7-.4-19.7,8.5-30,11.5-6.8,2-13.9,2.6-21,3.1a2.2,2.2,0,0,1-2.4-1.4c-.8-2.3,2-2.3,2.8-4.2-5.7-.8-10.3-5.2-16.6-3.9-1.4.3-2.9-.5-4.4-.7s-3-2.8-3.3-4.9,1.5-2.8,3.4-3.2,3.3-.4,4.5-2.9H218.6c-.4-2.7,1.6-2.9,3.4-3.2a56.9,56.9,0,0,1,7.4-.2c7.1-.1,7.8-1.2,5.2-8-.7-1.8-1.7-3.6-1.8-5.6s-1.7-3.4-2.2-5.3-1-4.2,1.5-5.4c8.9-.2,17.8-.5,26.7.3,1.9.2,4,.4,5.9-.3,23.2.9,46.4,2.9,69.6,4.3a286.6,286.6,0,0,1,42.9,5.9C386,320.5,394.1,323.1,400.8,329.2Z"/><path class="cls-14" d="M123.7,446.2c-2.4,7.8.3,15.4.6,23.1.4,9.4,1.4,18.8,2,28.1,0,.6-.4,1.2-.7,1.8-6.7-12.8-13.4-25.7-20-38.5a55.4,55.4,0,0,0-5.3-8.4L52.8,390.2a1.2,1.2,0,0,1,.3-1.6c2-1.3,4.2-.9,6.3-.6,18.7,2.9,37.4,5.6,56,8.7,2.8.5,5.5,1.2,7.5,3.5,2.2,4.9,1.5,10.1,1.8,15.2C125.4,425.7,126.4,436,123.7,446.2Z"/><path class="cls-15" d="M177.7,488.2l2-2c20.8-7.1,42.6-10.1,63.7-15.7,3.7-1,7.5-1.6,11.2-2.3s5-.8,6.9,1.5,0,5-1.6,7.2a294.3,294.3,0,0,1-25.9,30.4c-1.3,1.3-2.8,2.4-3.3,4.3-3.4,5.2-8,5.6-13.4,3.7a1.3,1.3,0,0,0-.8-1.6c-12.3-5.6-23.2-13.4-34.9-20C179.7,492.7,177,491.6,177.7,488.2Z"/><path class="cls-16" d="M52.7,389.4q0,.4,0,.8L1.7,346.4c-3.1-2.7-.3-4.3,1-6.1,7.7,3.4,15.9,4.8,24,6.9,17.3,4.7,34.5,9.7,52.1,13,0,.3-.1.8-.3.9-9.9,3.6-13.1,13.3-18.8,20.8C57.6,384.6,55.8,387.5,52.7,389.4Z"/><path class="cls-17" d="M177.7,488.2l44,26.7-4.3.5c-20.9-1.2-41.5-5.1-62.1-8.5l-27.5-4.8C144.4,497.5,160.9,492.2,177.7,488.2Z"/><path class="cls-18" d="M370.7,367.2c3.3-2.7,2.5-6.7,2.8-10.1.6-5.8,2.8-9.1,9-10.2,9.6-1.8,18.9-4.7,28.4-7.2,2.1-.5,4.2-.9,5.8-2.6,3.2,1.1,10.8,10.1,10.8,13.1s-2.3,2.9-3.9,4-4.1,2-6.1,3c-15.1,7.3-30.4,14.1-46,20.2a4.4,4.4,0,0,1-2.4.3c-2-1.2-4.9-.1-6.6-2.3s-.4-1.9.4-2.2C366.2,372.1,368.1,369.3,370.7,367.2Z"/><path class="cls-19" d="M407.8,365.3c-12,8.7-23.9,17.5-36,25.9s-25.7,20-38.4,30.3c-1.5,1.3-3.2,2.4-4.8,3.5s-4,1.6-5.6,2.9c-11.1,9-22.4,17.7-34.1,25.8-2.7,1.9-5.5,3.6-8.2-.1-1.1-3.3,1.4-5,3.3-6.7,8.5-7.5,17.1-14.8,25.5-22.3s14.1-12.2,21-18.4c2.7-2.4,7.1-2.9,8.1-7.1,2-2,3.8-4.1,6.5-5.1s5.4-.1,8-2c14.5-10.5,30.5-18.6,46.4-26.7,1.2-.6,2.4-1.5,3.6-2S407.3,362.5,407.8,365.3Z"/><path class="cls-20" d="M172.7,336.3c-2-.4-3.3-2-4.9-3"/><path class="cls-20" d="M176.8,332.9"/><path class="cls-20" d="M181.7,310.3"/><path d="M281.7,453.2c2.1,1,3.8.2,5.5-1l36-25.8c1.6-1.2,3.3-2.4,5.4-1.3-11.8,10-23.9,19.7-35.5,30-19.5,17.4-38.6,35.1-57.9,52.7l-4.5,3.9c3.1-6.9,8.7-11.9,13-17.9,5.4-7.7,12-14.5,17-22.5.5-1.1,0-2.4.9-3.4,3.8-4.7,8.8-8.3,13.1-12.5C276.7,453.6,278.6,451.5,281.7,453.2Z"/><path d="M407.8,365.3c-1.9-.9-3.5-.4-5.2.6-16.4,10-33.8,18.2-50,28.6-2.1,1.3-4.2,2.8-6.9,1.7-.6-2.1.6-3.5,1.9-4.7a133.5,133.5,0,0,1,20.3-15.3,11.1,11.1,0,0,0,1.9-.9l49.3-20.2c1.5-.6,2.8-2,4.6-.9Z"/><path class="cls-21" d="M231.8,309.2c5.1-1.9,10.4-.5,15.6-.8,3.1-.2,6.2-.2,9.4-.3l7.8.2c-6,1.9-12.2.6-18.4.8S236.7,309.2,231.8,309.2Z"/><path class="cls-22" d="M262.6,418.3c-23.7-.6-47.4-2.3-71.1-3.8-7.6-.5-15.3-.4-22.9-1.3-1.1-4.1,2.6-4.6,4.7-5.9,9.8-5.8,19.8-11.3,29.7-17,6.1-3.5,12-7.6,18.8-9.9,3.2-1.1,4.8-4.3,7.6-6,4.7-.8,9.7,0,14.3-1.5q23.3-1.7,46.6-3.9a22.9,22.9,0,0,1,8.9.7l1.5.5c2.6,2.5.8,4.4-.7,6.5-8.1,10.8-16.9,21-25.4,31.4-3.2,3.9-5.7,8.7-10.8,10.7A2,2,0,0,1,262.6,418.3Z"/><path class="cls-12" d="M229.7,377.3c-5.3,4.8-12,7.4-18.1,11-14.2,8.5-28.6,16.7-42.9,25-10.8,6.6-20.4,14.9-30.6,22.3-4.9,3.5-9.6,7.1-14.4,10.7a14.4,14.4,0,0,1-.9-3.8c.6-14.1-1.2-28-1-42.1a4.6,4.6,0,0,1,3.6-3.3q48.3-10.6,96.6-20.8C224.5,375.6,227.6,374,229.7,377.3Z"/><path class="cls-23" d="M262.6,418.3h1.1a26.4,26.4,0,0,0,9.4-3.6c20.1-5.6,40.2-11.2,60.6-15.7,2.6-.6,6-2.4,7,2.3l-49.6,43.2c-3.2,2.8-7,5.1-9.4,8.8-6.9,4.7-12.4,11-19,16-3.8-1.9-4.4-5-3.3-8.7,2.3-8.2.6-16.5.6-24.7,0-3.6-3-3.7-5.5-2.1a73.9,73.9,0,0,0-12.4,9.1,15.1,15.1,0,0,1-6.3,3.9c-2.1.6-4,.6-4.1-2.4l27.6-22.4A37.8,37.8,0,0,0,262.6,418.3Z"/><path class="cls-24" d="M231.7,444.3c3.9,1.6,6.3-1.1,8.7-3.3a100.3,100.3,0,0,1,15.3-11.2c4.5-2.7,6.8-1.7,6.7,3.4-.2,9.6,2.5,19.2-.7,28.7-.8,2.5,1,4.8,1,7.3l-1.9,2c-5.8-2.4-11.1.6-16.5,1.8-19.8,4.2-39.6,9-59.3,13.6-1.8.4-3.6.7-5.3-.4l36.8-29.8Z"/><path class="cls-25" d="M229.7,377.3l-81.5,17.4-22.5,4.7c-4.4,1.6-7-1-8.8-4.3-4.9-9-10-17.9-14.2-27.2-.9-2-2-4.1,1-5.4,34.9-1.6,69.8-1.3,104.8-1.1,4.4.9,8.8.2,13.2.4s6.9.4,10.3.5c1.7,0,3.8,0,4.1,1.9.5,3.7,3,4.6,5.8,5.7s3.9,2.7,1.9,5.4C239.2,376.8,234.2,375.4,229.7,377.3Z"/><path class="cls-26" d="M103.7,362.4c1.1,6.6,5.3,11.9,8.1,17.8s5.3,9.9,7.8,14.9c1.3,2.6,3,4.3,6.1,4.1l-4,1.1-51.3-8.1-17.7-2.9c1.9-6.1,6.4-10.7,9.7-16,1.5-2.4,3.5-4.4,4.8-6.9,2.5-4.8,6.3-6.9,11.7-6.3Z"/><path class="cls-27" d="M370.7,367.2c.7,6.9.6,7-8,7-1.9,3-4.9,2.5-7.6,2.3-16.3-1.2-32.7-2-49.1-3-2.1-.1-3.9-.6-5.3-2.3v-.2c-5.5-3.7-11.4-6.1-18.3-5.5a12.6,12.6,0,0,1-5.9-.6c-1.5-.6-3.2-1.5-1-3.3,7.4-1.3,14.8.1,22.1.4,3.7-.2,7.5.7,11.1-.9.7-2.1,2.7-2.2,4.5-2.5,13.6-2.4,27.3-3.8,40.9-5.8,2.2-.3,4.7-.6,6.6,1.3,5-1,7.6.9,7.8,6.1A14.3,14.3,0,0,0,370.7,367.2Z"/><path class="cls-12" d="M360.7,354.2c-17.3,2.8-34.5,5.4-52,7.1-3.4-.3-7.5,1.2-9.4-3.7,7.1,2.6,12.2-1.3,17.7-4.1-1-2.2-1.9-1-2.7-.9s-2.1.4-2.6-.7.9-1.5,1.5-2.2c5.9-7.6,13.6-7.8,22-5.8.8.2,1.8.7,2.4.4,4.4-2.1,9-.8,13.5-1,1.8-.1,5.2.4,3.1-3.5-.4-.8,0-1.3.8-1.4s3-.3,4.3.8a1.7,1.7,0,0,1,.3,2.3c-.5,1-1.9,1.4-1.7,2.9s1.8.6,2.7.4,4.2-.4,5,2-1.7,2.8-3.2,3.4S360.3,352.4,360.7,354.2Z"/><path class="cls-28" d="M274.6,362.4c4.5,1.6,9.3.7,13.9.8s9.6,3,12.2,8l-49,3.8c-2.6.2-5.3.2-7.9.3-1.3-3.8-4.4-4.2-7.7-3.7s-4.5-.7-2.9-3.8.3-4.4-3-4.4-5,.4-7.3-.9a108.7,108.7,0,0,1,23-.1h28.1C274.1,361.8,274.4,361.9,274.6,362.4Z"/><path class="cls-29" d="M274.6,362.4l-.9-.2,5.7-3.1c1.2-.7,2.4-1.4,3.6,0,2.8,3.2,6.3,2.4,9.7,1.5s3.9-.6,5,1.7Z"/><path class="cls-12" d="M245.7,362.2h-23c-4.7-.6-9.5.5-14.2-1h32.3A9.4,9.4,0,0,1,245.7,362.2Z"/><path class="cls-12" d="M369.7,341.7c-.3,1.5-1.2,2.2-2.4,2.1a2,2,0,0,1-1.9-2.4,1.7,1.7,0,0,1,2-1.6A2.4,2.4,0,0,1,369.7,341.7Z"/><path class="cls-30" d="M300.7,371.3c17.6-.2,35,1.6,52.5,2.7,3.1.2,6.3.2,9.4.3s4.7.9,7.1,1l-1.1,1c-10.3,7.4-22.4,11.3-34,16-19.4,8-38.7,16.5-59,22.3a5,5,0,0,0-3,1.7c-2.4,3.7-5.4,4.2-9,2l34.7-43.1A37.3,37.3,0,0,0,300.7,371.3Z"/><path class="cls-31" d="M272.7,416.3c-1.2-1-.1-1.4.6-1.7l94.9-38.3h.5l-23,20c-2.1,1.2-3.4,3.3-5,5-1.9-1.3-3.8-.5-5.7-.1Z"/><polyline class="cls-32" points="187.6 326.6 202.3 302.7 204.6 259.3 177.1 228.8 177.7 227 205.3 246.6 206.6 222.9 213.6 215.6 217.9 216.5 227 263.5 261.7 238.2 263 239.6 230.6 276.4 239.2 326.8"/><polygon class="cls-33" points="243.4 0 286.2 99.4 327.9 84.1 318.2 136.6 361.5 148 327.9 192.9 323.3 247.7 283.7 262.2 230 249.1 217.5 227.5 209.6 234.5 205.4 232.7 167.1 257 117.5 241.1 120.4 222 39.6 147.2 87.1 119.6 78.5 96 121.5 89.2 103.6 60.3 243.4 0"/><polygon class="cls-34" points="243.4 0 103.6 60.3 236.7 144.2 243.4 0"/><polygon class="cls-35" points="243.4 0 236.7 144.2 264.5 180.7 270.7 124.1 243.4 0"/><polygon class="cls-35" points="103.6 60.3 236.7 144.2 140.1 119.4 103.6 60.3"/><polygon class="cls-34" points="236.7 144.2 115.3 192.7 140.1 119.4 236.7 144.2"/><polygon class="cls-35" points="126.2 96.9 39.6 147.2 122.2 172.3 140.1 119.4 126.2 96.9"/><polygon class="cls-36" points="115.3 192.7 233.2 202.3 243.6 183.8 264.5 180.7 236.7 144.2 115.3 192.7"/><polygon class="cls-37" points="39.6 147.2 120.4 222 138.9 203.1 115.3 192.7 122.2 172.3 39.6 147.2"/><polygon class="cls-34" points="120.4 222 117.5 241.1 169.6 216.8 138.9 203.1 120.4 222"/><polygon class="cls-36" points="117.5 241.1 167.1 257 179.8 221.3 169.6 216.8 117.5 241.1"/><polygon class="cls-37" points="167.1 257 205.4 232.7 179.8 221.3 167.1 257"/><polygon class="cls-35" points="87.1 119.6 101.1 111.5 78.5 96 87.1 119.6"/><polygon class="cls-34" points="78.5 96 121.5 89.2 126.2 96.9 101.1 111.5 78.5 96"/><polygon class="cls-34" points="243.4 0 300.1 131.9 270.7 124.1 243.4 0"/><polygon class="cls-34" points="243.6 183.8 244.3 219.1 361.5 148 270.7 124.1 264.5 180.7 243.6 183.8"/><polygon class="cls-35" points="361.5 148 244.3 219.1 327.9 192.9 361.5 148"/><polygon class="cls-35" points="291.1 111 300.1 131.9 318.2 136.6 327.9 84.1 291.1 111"/><polygon class="cls-34" points="327.9 84.1 291.1 111 286.2 99.4 327.9 84.1"/><polygon class="cls-34" points="327.9 192.9 323.3 247.7 244.3 219.1 327.9 192.9"/><polygon class="cls-35" points="323.3 247.7 283.7 262.2 244.3 219.1 323.3 247.7"/><polygon class="cls-36" points="283.7 262.2 230 249.1 244.3 219.1 283.7 262.2"/><polygon class="cls-37" points="244.3 219.1 243.6 183.8 233.2 202.3 213.5 220.6 230 249.1 244.3 219.1"/><polygon class="cls-37" points="115.3 192.7 233.2 202.3 213.5 220.6 217.5 227.5 209.6 234.5 115.3 192.7"/><polygon class="cls-36" points="115.3 192.7 233.2 202.3 217.9 216.5 115.3 192.7"/><polygon class="cls-25" points="218.8 269.5 213.6 215.6 217.9 216.5 227 263.5 218.8 269.5"/><polygon class="cls-25" points="218.8 269.5 261.7 238.2 222.4 275.8 218.8 269.5"/><polygon class="cls-18" points="222.4 275.8 230.6 276.4 263 239.6 261.7 238.2 222.4 275.8"/><polygon class="cls-25" points="225.7 331.3 200.8 331.3 222.4 275.8 225.7 331.3"/><polygon class="cls-16" points="213.6 215.6 218.8 269.5 200.8 331.3 213.6 215.6"/><line class="cls-38" x1="225.7" y1="331.3" x2="239.2" y2="326.8"/><polygon class="cls-18" points="213.6 215.6 206.6 222.9 200.8 331.3 213.6 215.6"/><polygon class="cls-18" points="204.6 259.3 177.1 228.8 177.7 227 205.1 251.5 204.6 259.3"/><polygon class="cls-25" points="205.1 251.5 205.3 246.6 177.7 227 205.1 251.5"/><polygon class="cls-16" points="202.3 302.7 187.6 326.6 200.8 331.3 202.3 302.7"/><polygon class="cls-25" points="239.2 326.8 225.7 331.3 222.4 275.8 239.2 326.8"/><polygon class="cls-18" points="218.8 269.5 200.8 331.3 222.4 275.8 218.8 269.5"/><polygon class="cls-16" points="230.6 276.4 239.2 326.8 222.4 275.8 230.6 276.4"/></g></g></g></svg>