<?xml version="1.0" encoding="UTF-8"?>
<svg width="32px" height="29px" viewBox="0 0 32 29" version="1.1" xmlns="http://www.w3.org/2000/svg" xmlns:xlink="http://www.w3.org/1999/xlink">
    <!-- Generator: Sketch 48.1 (47250) - http://www.bohemiancoding.com/sketch -->
    <title>Group 5</title>
    <desc>Created with Sketch.</desc>
    <defs></defs>
    <g id="Job-spec/Desktop" stroke="none" stroke-width="1" fill="none" fill-rule="evenodd" transform="translate(-1139.000000, -2548.000000)">
        <g id="Group-5" transform="translate(1131.000000, 2538.000000)">
            <g id="Group-12-Copy-2">
                <rect id="Rectangle-10-Copy-11" x="0" y="0" width="48" height="48" rx="2"></rect>
                <path d="M23.999982,26.5473079 L32.9912842,20.9508057 L39.1577053,25.928646 L30.2401263,31.7973986 L23.9998105,26.5474146 L17.7596842,31.7973031 L8.84210526,25.9285505 L15.0085263,20.9516651 L23.999982,26.5473079 Z M17.7598737,10.1052632 L24.0001895,15.3552471 L15.0087158,20.9509012 L8.84229474,15.9740157 L17.7598737,10.1052632 Z M24.0182842,27.6768582 L30.2766,32.9115639 L32.9548105,31.1488374 L32.9548105,33.1245044 L24.0182842,38.5263158 L15.0817579,33.1245044 L15.0817579,31.1488374 L17.7599684,32.9115639 L24.0182842,27.6768582 Z M39.1578947,15.9741112 L30.2403158,10.1053586 L24,15.3553426 L32.9914737,20.9509966 L39.1578947,15.9741112 Z" id="Dropbox" fill="#0F82E2"></path>
            </g>
        </g>
    </g>
</svg>