<?xml version="1.0" encoding="UTF-8"?>
<svg width="36px" height="36px" viewBox="0 0 36 36" version="1.1" xmlns="http://www.w3.org/2000/svg" xmlns:xlink="http://www.w3.org/1999/xlink">
    <!-- Generator: Sketch 48.2 (47327) - http://www.bohemiancoding.com/sketch -->
    <title>social/facebook/active</title>
    <desc>Created with Sketch.</desc>
    <defs></defs>
    <g id="Symbols" stroke="none" stroke-width="1" fill="none" fill-rule="evenodd">
        <g id="social/facebook/active">
            <g id="Group-Copy-2">
                <g id="Group-11-Copy-2">
                    <g id="Group-13-Copy" fill="#008EDA">
                        <rect id="Rectangle-10-Copy-10" x="0" y="0" width="36" height="36" rx="2"></rect>
                    </g>
                    <g id="facebook-logo" transform="translate(12.750000, 9.000000)" fill="#FFFFFF" fill-rule="nonzero">
                        <path d="M10.1046008,0.00390125152 L7.58612827,0 C4.75671073,0 2.92821682,1.81115602 2.92821682,4.6144003 L2.92821682,6.74194782 L0.396005311,6.74194782 C0.177192172,6.74194782 0,6.91321276 0,7.12446553 L0,10.2070394 C0,10.4182922 0.177394216,10.5893621 0.396005311,10.5893621 L2.92821682,10.5893621 L2.92821682,18.3676774 C2.92821682,18.5789301 3.10540899,18.75 3.32422213,18.75 L6.62803787,18.75 C6.84685101,18.75 7.02404318,18.5787351 7.02404318,18.3676774 L7.02404318,10.5893621 L9.98478901,10.5893621 C10.2036021,10.5893621 10.3807943,10.4182922 10.3807943,10.2070394 L10.3820066,7.12446553 C10.3820066,7.02303299 10.3401836,6.92589183 10.2660336,6.8541088 C10.1918836,6.78232577 10.0908619,6.74194782 9.98579923,6.74194782 L7.02404318,6.74194782 L7.02404318,4.93839924 C7.02404318,4.07154115 7.23800727,3.63147998 8.40763725,3.63147998 L10.1041967,3.63089479 C10.3228078,3.63089479 10.5,3.45962985 10.5,3.24857214 L10.5,0.386223901 C10.5,0.175361256 10.3230099,0.00429137667 10.1046008,0.00390125152 Z" id="Shape"></path>
                    </g>
                </g>
            </g>
        </g>
    </g>
</svg>