<svg xmlns="http://www.w3.org/2000/svg" width="926.7" height="697" viewBox="0 0 926.7 697"><defs><style>.cls-1{fill:#e4e4e1;}.cls-2{fill:#b9b9b7;}.cls-3{fill:#d1d0ce;}.cls-4{fill:#a8a7a6;}.cls-5{fill:#212428;}.cls-6{fill:#1897d4;}.cls-7{fill:#3f444a;}.cls-8{fill:#e97598;}.cls-9{fill:#9dada4;}.cls-10{fill:#71c5f0;}.cls-11{fill:#74bde7;}.cls-12{fill:#155c89;}.cls-13{fill:#5b6a6d;}.cls-14{fill:#68406a;}.cls-15{fill:#2c2c2c;}.cls-16{fill:#1b1b1b;}.cls-17{fill:#070707;}.cls-18{fill:#252525;}.cls-19{fill:#393939;}.cls-20{fill:#040404;}.cls-21{fill:#2f2f2f;}.cls-22{fill:#282828;}.cls-23{fill:#484848;}.cls-24{fill:#151515;}.cls-25{fill:#080808;}.cls-26{fill:#616161;}.cls-27{fill:#242424;}.cls-28{fill:#3c3c3c;}.cls-29{fill:#232323;}.cls-30{fill:#626262;}.cls-31{fill:#4a4a4a;}.cls-32{fill:#313131;}.cls-33{fill:#1a1a1a;}.cls-34{fill:#515151;}.cls-35{fill:#545454;}</style></defs><title>Join_1</title><g id="Layer_2" data-name="Layer 2"><g id="Layer_1-2" data-name="Layer 1"><path class="cls-1" d="M421.3,294.5c-3.5,0-6.7-.1-9.6-.3h-.3c-1.8-1.9-1.8-4.1-1.8-6.3V287c0-13.7-.7-27.7-1.3-41.2-.3-7.7-.7-15.7-1-23.6-.5-16.2-1.2-32.8-1.9-48.7q-.5-12.2-1-24.5t-1-25.5c-.7-16.8-1.4-34.2-2-51.2-.1-2.3-.2-4.6-.3-6.8-.4-6.4-.7-13,0-19.6h0c1-3,3.7-3.8,6.1-4.5l49.7-15c24.3-7.4,49.4-15,74.1-22.2,1.7-.5,3.5-.8,5.2-1.2a46.1,46.1,0,0,0,6.4-1.6h.1A8.9,8.9,0,0,1,546,0a1.5,1.5,0,0,1,1.2.5c.5.7.5,1.9.1,3.8a10.3,10.3,0,0,0-.1,3.2c.1,1.8.3,3.7-1.1,5.5a167.8,167.8,0,0,0-4.9,16.1c-1,3.6-2,7.3-3.1,10.9-4.1,12.8-7.9,26-11.2,37.3l-.2.9c-.3,1.3-.6,3.1-2.4,3.1a4.4,4.4,0,0,1-2.2-.8H522c-2.4-5.1-5-9.5-10.9-10.2h-1.8a17.7,17.7,0,0,0-5.2.8l-1,.3a10.2,10.2,0,0,1-3.3.7,5,5,0,0,1-1.8-.3,15.3,15.3,0,0,0-6.1-1h-5.4l-5.4-.3-5.3-.3h-2.5l-1.3.3h-.5a25,25,0,0,0-7-1,23,23,0,0,0-14.2,5.2H450a4.3,4.3,0,0,1-3-1.6l-.3-.2c-3.2-3-6.3-4.5-9.2-4.5s-6.6,1.8-9.9,5.5-2.3,8.5-2,13.1c.1,1.5.2,3.2.2,4.7s.4.8,1.8.8h12.1a42.9,42.9,0,0,0,10-1l1.6-.3a8.5,8.5,0,0,1,4.2,1.5,11.6,11.6,0,0,0,2.5,1.2,13.2,13.2,0,0,0,4.3.8,13.9,13.9,0,0,0,6.7-1.9l1.1-.6a10.4,10.4,0,0,1,4-1.7h.2a11.1,11.1,0,0,1,3.6,1.8,9.8,9.8,0,0,0,3.4,1.7,12.5,12.5,0,0,0,3.4.5,14.3,14.3,0,0,0,7.8-2.6,8,8,0,0,1,4.2-1.7,4.5,4.5,0,0,1,2.7.9,12.7,12.7,0,0,0,8.4,3.4,15.4,15.4,0,0,0,7.4-2.1h.2a6.2,6.2,0,0,1,3-1h1.1c2.6,2,1.8,4.4,1.1,6.4l-.3.9-4.9,16.5c-3.2,10.6-6.4,21.5-9.6,32.2-4.8,16.5-9.8,33.2-14.7,49.4-6.3,20.9-12.8,42.5-18.9,63.9-.7,2.6-1.9,5-5.3,5.3-10.7.6-15,5-15.3,15.8,0,.6,0,1.2,0,1.8s.2,4.2-1.2,6.1a6.9,6.9,0,0,0,0,.9c0,1.1,0,2.9-2.5,2.9h-4.1l-11.2.2Z"/><path class="cls-1" d="M449.9,290.1c-.3,1.5.5,3.5-2.2,3.5-12-.3-23.9,1-35.9.1-1.8-1.9-1.6-4.3-1.6-6.6-.1-21.6-1.6-43.2-2.2-64.8-.8-24.4-1.9-48.8-2.9-73.2s-2.1-51.1-3-76.7c-.3-8.8-1.3-17.6-.3-26.4.9-2.8,3.3-3.5,5.7-4.2,41.3-12.3,82.4-25.2,123.8-37.2,3.8-1.1,7.8-1.4,11.6-2.7s5.4-2.8,4.1,2.5c-.7,2.8,1,5.9-1.1,8.5-3.4,8.8-5.2,18.1-8.1,27.1-3.9,12.4-7.6,24.9-11.2,37.3-.5,1.7-.4,5.1-4,2.9-2.4-5-4.9-9.7-11.3-10.5a17.2,17.2,0,0,0-7.3.8c-1.9.6-3.7,1.5-5.7.8s-6.8-1.1-10.3-.9-9.5-.8-14.3-.5a3.9,3.9,0,0,1-1.9.3c-7.9-2.3-15.1-.8-21.6,4.2-1.3,0-2-.9-2.9-1.7-6.9-6.5-13.4-6.1-19.9,1.1-3.7,5.7-1.8,12.1-1.9,18.2,0,1.2,1.3,1.3,2.3,1.4,7.4-.2,14.9.9,22.2-.8,3.2-1.1,5.3,1.6,8,2.3a13.6,13.6,0,0,0,11.5-1.1c1.6-.9,3.1-2,4.9-2.2s4.4,3,7,3.6c4.2,1.2,8.1.2,11.7-2.2,2-1.3,4-2.4,6.3-.7,5.1,4.4,10.6,4.5,16.3,1.3,1.1-.6,2.3-1.3,3.7-1,2.7,2,1.3,4.5.6,6.8-4.8,16.2-9.7,32.5-14.5,48.7-11.1,37.8-22.7,75.4-33.6,113.3-.7,2.6-1.8,4.7-4.8,4.9-11,.6-15.5,5.3-15.8,16.3C451,284.9,451.7,287.7,449.9,290.1Z"/><path class="cls-2" d="M411.7,294.1c-8.9-1.8-17.7-4.3-26.3-6.6l-14.1-3.8c-2.7-.7-2.8-2.5-2.9-4.4s-.4-6-.6-8.8c-.4-5.4-.8-11-.9-16.6-.1-3.6-.9-4.9-3.3-4.9l-1.8.2h-3.1l-3.3-.2,3.3-.8c8.1-1.9,8.1-1.9,7.6-10.3-1.3-22.4-2.7-45.2-4-67.2l-1.3-21.2c-.9-14-1.7-28.5-2.7-42.7s-1.7-25.8-2.6-38.7q-1.1-16.6-2.2-33.3v-.7c-.2-2.1-.3-4.2.9-5.5a3.9,3.9,0,0,1,3-1.1H359c3.3,2.4,7.3,3.6,11.2,4.7l2.3.7c5.2,1.5,10.3,3.4,15.3,5.2l11.9,4.1a5.4,5.4,0,0,1,3.5,2.4h.1c-.2,14.2.5,28.6,1.1,42.5.4,9.1.9,18.5,1.1,27.7.2,11,.7,22.2,1.2,33,.2,5.4.5,10.8.7,16.2q.5,13.8,1.1,27.6c.7,16.1,1.4,32.7,1.9,49,.2,6,.5,12.2.8,18.1.5,11.3,1.1,23.1,1.1,34.6v.6Z"/><path class="cls-2" d="M402.7,44.8c-.4,23.4,1.7,46.8,2.2,70.2.3,16.4,1.3,32.8,1.9,49.3,1,25.5,2.2,51.1,3,76.6.6,17.6,1.9,35.1,1.9,52.8-13.6-2.8-26.9-7-40.4-10.4-2.4-.6-2.4-2.2-2.6-4.1-.5-8.4-1.4-16.9-1.5-25.3-.1-4.3-1.3-6.1-5.7-5.2a12.2,12.2,0,0,1-3-.1c8.3-2,8.5-2,8-10.8q-2.4-41.8-5-83.5c-1-15.9-1.9-31.8-3-47.7-1.6-24-3.2-48-4.8-72-.2-3.5-1-7.5,4.9-6.6,4.1,3,8.9,4,13.6,5.4,9.2,2.8,18.1,6.4,27.2,9.3A4.9,4.9,0,0,1,402.7,44.8Z"/><path class="cls-3" d="M478.5,292.9c-2.3-.7-2.4-2.7-2.6-4.3v-.2a40.2,40.2,0,0,1-.1-6.1c.4-6.3-.3-12.5-8.1-15.1a2.5,2.5,0,0,1-1.7-2.4v-.6h1c1.8,0,2.3-1.3,2.9-3.3l8.2-27.7,19.2-64.7c3-10.2,6-20.6,9-30.7l7.2-24.6c1.6-5.4,3.3-10.8,5-16h0l.2-.6c.5-1.5.8-2.5-.2-3.5l-.2-.2.2-.9a106.1,106.1,0,0,1,3.9-12.5l.2-.5.7.3.6.2s.2,0,.3-.5l1.1-3.9c3.5-12.3,7.2-25,10.9-37.5,1.9-6.5,4-13.2,5.9-19.6l1.8-5.9a1.7,1.7,0,0,1,.5-.7l.2-.2.5-.5,1.1,1.9-1.8,14.3q-2.1,16.6-4.1,33.2-1.4,11.2-2.7,22.5c-1.1,9.6-2.3,19.6-3.5,29.3-1,7.8-2,15.8-3,23.5s-1.8,14.2-2.7,21.3-1.9,15.3-2.8,23-1.6,13.6-2.5,20.4c-1.8,14.7-3.8,30-5.8,45.3a4.9,4.9,0,0,0,.7,3.9l.2.3-.3.3c-1.6,1.9-1.7,4.1-1.8,6.5s-.1,1.8-.2,2.6c-1.2,8.3-2.3,17.2-3.3,27.2-.3,3.1-1.3,5-5.2,5.1-6.9.2-13.9.6-20.7,1.1l-8.2.5h-.2Z"/><path class="cls-3" d="M522.9,79.7c.8.3,1.5.7,1.9-.6,4-13.8,7.9-27.6,12-41.3,2.5-8.5,5.2-17,7.8-25.5.1-.3.4-.5.6-.7l.7,1.1c-1.9,15.8-3.9,31.5-5.8,47.3s-4.1,34.5-6.2,51.8c-1.8,14.9-3.9,29.9-5.7,44.8s-3.5,28.9-5.2,43.4-3.8,30.2-5.8,45.3a5.4,5.4,0,0,0,.8,4.3c-2.3,2.8-1.7,6.2-2.1,9.4-1.3,9.1-2.3,18.1-3.3,27.2-.3,3.1-1.2,4.5-4.7,4.6-9.6.3-19.3,1-28.9,1.6-2-.6-2.1-2.4-2.2-4a39.6,39.6,0,0,1-.1-6c.4-7-.8-13-8.5-15.6a2,2,0,0,1-1.3-1.9c2.7.3,3.3-1.7,3.9-3.7q13.7-46.2,27.4-92.4c5.4-18.4,10.7-36.9,16.1-55.3,1.6-5.4,3.3-10.8,5-16.1.5-1.6,1.3-3.1-.1-4.6A110.5,110.5,0,0,1,522.9,79.7Z"/><path class="cls-4" d="M392.2,41.7,359.1,30.6c-1-.3-1.7-.7-1.9-1.3s.5-1.3,1.1-1.8h.1L382.3,24l54.8-7.8,29.4-4.3,37.2-5.4,26.9-3.7,12.1-1.6,3.9-.5-3.6,1.5a252.6,252.6,0,0,1-25.5,8.4L506,13.9c-18.9,5.9-38.1,11.6-56.8,17.2l-26,7.8-14,4.3-6.4,2h-.2Z"/><path class="cls-4" d="M402.7,44.8c-14.5-4.9-28.9-9.9-43.4-14.6-2-.7-1.9-1.1-.6-2.3l78.4-11.2L503.7,7l39-5.3c-12,4.9-24.5,7.9-36.8,11.7-27.5,8.6-55.2,16.7-82.8,25Z"/><path class="cls-5" d="M550.9,458.7a3.4,3.4,0,0,1-3.6-2.8v-.5l13.1-2.2,29.4-4.9,50.8-8.4,22-3.6,30.2-5,63-10.6a26.3,26.3,0,0,1,4.6-.3h4.2l-2.1.9a40.2,40.2,0,0,1-5,1.7c-3.5,1-6.7,1.9-9.3,4.6l-1.1,1.2.3-1.6v-.4a2.6,2.6,0,0,0,.1-.9h-.3l-1.1.2-25.8,6.3-14.6,3.5-69.3,17.1a10.8,10.8,0,0,1-2.7.3h-3.6a7.4,7.4,0,0,0-4.2,1,5.7,5.7,0,0,1-4.4,1.6h-4.1c-4.6,0-9.2.3-13.7.6l-9.5.6-11.4.4c-9.6.3-19.5.6-29.3,1.2h-2.7Z"/><path class="cls-5" d="M747.8,427.2c.2-1.4.7-2.4-1.8-1.8-13.4,3.4-27,6.6-40.4,9.9l-69.3,17.1c-3.5.9-7.3-.9-10.6,1.3a5.5,5.5,0,0,1-4.6,1.5c-9-.4-17.9.8-26.9,1.1-13.6.5-27.2.8-40.8,1.6-2.1.1-4.8,1.1-5.7-2.2l42-7,50.8-8.4,52.3-8.6,63-10.6a32.9,32.9,0,0,1,6.4-.3C757.5,422.9,751.8,423.1,747.8,427.2Z"/><path class="cls-6" d="M453.2,295c-2.3,0-2.8-1.7-3.1-3a5.1,5.1,0,0,0-.6-1.6h-.1v-.2c0-1,0-2,0-2.9s-.1-4.3,0-6.5c.3-10.6,6-16.3,16.3-16.3h1.1c9.9,4,11.7,6.7,11.8,17.8,0,1-.1,1.9-.1,2.9-.2,2.5-.3,4.9.7,7.1l.2.5h-.6c-5.8,1.5-11.9,1.7-17.7,1.8l-7.6.3Z"/><path class="cls-6" d="M466.6,264.9c9.9,4,11.4,6.4,11.5,17.3,0,3.4-.9,6.9.7,10.2-8.3,2.2-16.8,1.5-25.1,2.1-3.3.2-2.5-2.9-3.7-4.4,0-3.1-.1-6.3,0-9.4C450.2,270,456,264.5,466.6,264.9Z"/><path class="cls-7" d="M675.4,212.3h-5.7l-5.1-.3,1.9-.8a13.6,13.6,0,0,1,5.8-1.1h7.4l2.1-.2-1.8,1.1A8.6,8.6,0,0,1,675.4,212.3Z"/><path class="cls-7" d="M669.6,211.8h-3c4.2-1.9,8.7-.5,13-.9C676.5,212.7,673,211.3,669.6,211.8Z"/><path class="cls-6" d="M426.7,95.2h-.1a3.7,3.7,0,0,1-2.3-3.6c0-1.5,0-3-.1-4.4-.1-5-.3-10.3,2-15.2h.1c3.2-3.7,7.3-5.8,11.5-5.8s9.2,2.6,12.1,7.2a3.8,3.8,0,0,1,2.2,4.6,21.3,21.3,0,0,0,.1,7.2c.1,1.2.3,2.3.4,3.5a7.2,7.2,0,0,1-1.2,4.2,2.5,2.5,0,0,1-.6,1.8,3.3,3.3,0,0,1-2.5.7Z"/><path class="cls-6" d="M426.7,72.2c6.9-8,17.4-7.3,22.9,1.5a3.3,3.3,0,0,1,2,4.1c-.8,3.7.3,7.3.4,10.9a6.5,6.5,0,0,1-1.2,4.1c.1,2.2-1.5,2.2-3,2.2l-21.1-.2a3.2,3.2,0,0,1-2-3.1C424.9,85.1,423.8,78.5,426.7,72.2Z"/><path class="cls-8" d="M485.1,97.4a12.4,12.4,0,0,1-4.6-.9h-.2a13.6,13.6,0,0,0-2.9-2.3,10.5,10.5,0,0,1-4.1-4h0v-1c-.8-6.7-1.6-13.5-1.1-20.4V68h6.6l18.5.2c1.6,0,2.1,1.5,2.4,2.3,1.9,8.3,1.7,15.7-.7,22.6l-.3.8-.6-.7c-.5-.6-.9-.9-1.3-.9a3.1,3.1,0,0,0-1.7.9l-.8.6C490.9,96.3,488,97.4,485.1,97.4Z"/><path class="cls-8" d="M472.6,68.5l24.6.2c1.2,0,1.6,1,1.9,2,1.8,7.5,7.1,7.7,4.6,15.1-1.8-2.2-8.3,6.9-9.7,7.9-4.1,2.8-8.4,4.4-13.3,2.4-2-2.4-5.4-3.2-6.9-6.3C473,82.7,472.1,75.6,472.6,68.5Z"/><path class="cls-9" d="M462.2,97.4a14,14,0,0,1-4.8-.9h-.2a13.9,13.9,0,0,0-2.5-2.1c-1.9-1.3-3.9-2.7-4.2-5.6l-.2-1.2c-.7-3.5-1.4-7.1-.1-10.7.3-1-.2-1.8-.9-2.7l-.3-.3.3-.3c4.2-4.3,8.8-6.4,13.7-6.4a20.8,20.8,0,0,1,8.1,1.8l.7-.4.6-.4.5-.2.2.5c1.7,5.4,1.9,10.9,2,16.3,0,1.9.1,3.9.2,5.8a1.2,1.2,0,0,1-.4,1.7C470.9,95,466.9,97.4,462.2,97.4Z"/><path class="cls-9" d="M472.6,68.5c2.4,7.2,1.7,14.8,2.2,22.2a.7.7,0,0,1-.2,1.1c-5.2,3.5-10.4,6.7-17,4.2-2.2-2.5-6.2-3.4-6.7-7.4s-1.8-7.8-.3-11.7c.4-1.2-.2-2.2-.9-3.2,6.1-6.2,13.1-8,21.2-4.5C471.3,69.4,472,68.8,472.6,68.5Z"/><path class="cls-10" d="M507.7,97.5c-3.3,0-6.3-1.3-9.6-4.2l-.2-.2.7-22.9h.4l2.9-1a21.6,21.6,0,0,1,7.3-1.7l2.4.2c6.6,1.3,10.4,5.1,11.8,11.8.2,4.2,0,9.4-4.1,13.5S511,97.5,507.7,97.5Z"/><path class="cls-11" d="M498.4,93l.7-22.3c4-1.2,7.7-3.3,12.4-2.4,6.6,1.3,10.1,5.1,11.4,11.4s-.4,9.4-4,13C510.3,98.4,504.7,98.5,498.4,93Z"/><path class="cls-12" d="M425,95.4a1.8,1.8,0,0,1-1.4-.5,1.7,1.7,0,0,1-.4-1.3,49.8,49.8,0,0,0-.1-6.2c-.3-5.2-.6-10.7,3.2-15.5l1.2-1.5-.3,1.8a93.8,93.8,0,0,0-1,17.2V90c0,1.6.1,3.1,1,4.4l.5.7H425Z"/><path class="cls-12" d="M426.7,72.2a93.8,93.8,0,0,0-1.1,17.3c.1,1.8,0,3.7,1.2,5.2-1.2.1-3.2.7-3.1-1.1C424.2,86.4,421.5,78.7,426.7,72.2Z"/><path class="cls-13" d="M457.4,96.5l.2-.4-.3.4-6.9-3.4.3-6.4.6,1.7a10.6,10.6,0,0,0,3.1,3.3,10.4,10.4,0,0,1,3.6,4.1l.5,1.2Z"/><path class="cls-13" d="M450.9,88.7c1.6,3.1,5.4,4.1,6.7,7.4l-6.7-3.3Z"/><path class="cls-14" d="M480.6,96.5c-2.8-.6-4.7-2.4-6.3-4.3V92l.3-2.2.7.5,1.7,1c1.8,1,3.7,2.1,4.4,4.6l.2.8Z"/><path class="cls-14" d="M474.6,91.8l.2-1.1c2.2,1.5,5,2.3,5.9,5.3C478.1,95.5,476.3,93.7,474.6,91.8Z"/><path class="cls-15" d="M686.5,262.3l-1.9-.2-.8-.2.6-.7,5.2-5.9c3.8-4.3,7.6-8.7,11.4-13.2l9.3-11.3c4-5,8.2-10.1,12.4-15.1a12.7,12.7,0,0,0,1.6-2.7c1.1-2.2,2.3-4.6,5.6-4.8h.8l-4.1,9.8L713,250.3l-.6,1c-.7,1.2-1.1,1.9,0,2.8l.3.3-.2.3c-2.8,5.8-7.6,6.6-12.3,6.6H695a22.1,22.1,0,0,0-4.2.5A22.8,22.8,0,0,1,686.5,262.3Z"/><path class="cls-15" d="M684.6,261.6c5.5-6.4,11.1-12.7,16.5-19.1,7.3-8.8,14.3-17.7,21.7-26.4,2.2-2.5,2.4-7,6.9-7.3q-8.6,20.6-17.2,41.3c-.6,1.4-2.2,2.7-.5,4.4-3.7,7.6-10.6,6.3-17.1,6.2C691.5,260.7,688.2,262.3,684.6,261.6Z"/><path class="cls-16" d="M653.7,220.6a1.8,1.8,0,0,1-1.3-.5,3.5,3.5,0,0,1-.6-2.5c0-.2,0-.3,0-.5a24.2,24.2,0,0,1,2.6-11.5v-.2h5.8a8.5,8.5,0,0,0,4.2-.9h.1l52.9-1.3,8.4.4.2,1.3-71.3,15.7Z"/><path class="cls-16" d="M652.7,205.7c3.3-.3-3-1,12-.9l52.8-1.3,7.9.4v.4l-70.8,15.6c-2.8.8-2.4-1.4-2.4-2.9C652.3,213.1,650.9,209.3,652.7,205.7Z"/><path class="cls-17" d="M593.7,209.3l-8.4-1.1c-6.8-.9-13.9-1.8-20.9-2.5l-2.6-.3a26.9,26.9,0,0,0-4.1-.4,7.7,7.7,0,0,0-5.6,2.1l-.5.5-.3-.6c-.6-1.3-.7-2.2-.3-2.8s1.3-1,2.9-1.1l15-1.1c14.4-1.1,29.2-2.2,43.8-2.2a215.1,215.1,0,0,1,34.9,2.6l5,1.4-4.8-.5c-3.6,2.3-7.6,2.3-11.4,2.4a41.9,41.9,0,0,0-5.2.3c-8.9,1.2-17.9,1.9-26.7,2.5l-10.9.9h-.1Z"/><path class="cls-17" d="M647.7,202.8c-5.1,3.3-10.9,1.8-16.4,2.6-12.4,1.7-25,2.3-37.5,3.4-9.8-1.2-19.5-2.6-29.3-3.5-4.2-.4-8.8-2.2-12.6,1.5-1-2.3-.4-3.1,2.2-3.2C585.2,201.4,616.4,197.7,647.7,202.8Z"/><path class="cls-18" d="M282.5,499.7H280c-5.7-1-11-3.2-16.1-5.3l-3.4-1.4-34.7-13.8-35.8-14.2a30.4,30.4,0,0,0-4.3-1.3l-1.3-.3h-.2v-.2c-1.6-3-4.4-3.9-7.4-4.8l-2.6-.9-45.8-18-21.7-8.5a13.4,13.4,0,0,1-2.1-1.1l-.9-.6-.3-.2v-.3c.6-3.9,3.6-4.1,6-4.3h1.4c7-1.1,14.2-1.9,21.2-2.6l6.1-.7,80-9.3,1.8-.2,29.3-3.4,44.1-5.1h4.4a10,10,0,0,0,3.8-.6c11.8-2.5,23.8-4.3,35.4-6.1l14.3-2.2,147.8-23.8,13.8-2.2,28.4-4.6,52-8.3h2.7c11.7,3.4,23.3,7.3,34.6,11l14.4,4.8c18.3,5.9,36.8,12.1,54.7,18.1s38.5,12.9,57.7,19.1h.3a143,143,0,0,1,14.7,5.4h.2a5.4,5.4,0,0,0,2.7,1.2,5.8,5.8,0,0,1,3.4,1.8l.4.5-.6.3a51.3,51.3,0,0,1-15.9,4c-16.8,3.9-34.2,6.7-51,9.4l-19.7,3.2c-26.5,4.5-53.5,8.9-79.5,13.2L562,455.3l-5.3.8c-2.8.4-5.7.8-8.5,1.4a49.6,49.6,0,0,0-5.5.7l-3,.5c-40.9,6.8-82.6,13.4-122.9,19.7l-73.9,11.8L325.1,493l-38.4,6.2A24.8,24.8,0,0,1,282.5,499.7Z"/><path class="cls-18" d="M778,416.9a50.5,50.5,0,0,1-15.7,3.9c-23.4,5.4-47.1,8.6-70.7,12.6-43.2,7.3-86.4,14.2-129.7,21.4-4.6.8-9.2,1.3-13.8,2.2-2.9.2-5.7.8-8.5,1.2-65.5,10.8-131.2,21-196.8,31.5-18.7,3-37.5,5.9-56.2,9.1a22.5,22.5,0,0,1-5,.4h-1.6c-6.8-1.2-13-4.1-19.3-6.6-23.5-9.4-47-18.5-70.5-28a43.7,43.7,0,0,0-5.8-1.6c-2.2-4.1-6.6-4.5-10.3-5.9-22.5-9-45-17.7-67.5-26.5a24.5,24.5,0,0,1-3-1.7c.6-4.3,4.3-3.7,7-4.1,9-1.4,18.1-2.3,27.2-3.3l81.8-9.5,73.3-8.5c2.8-.3,5.7.4,8.4-.7,16.4-3.4,33.1-5.6,49.7-8.3l161.6-26,80.3-12.9h2.5c16.5,4.8,32.6,10.5,48.9,15.8,37.5,12.2,74.9,25,112.4,37.2a145.1,145.1,0,0,1,15,5.5C773.6,415.6,776.5,414.9,778,416.9Z"/><path class="cls-19" d="M390.3,697a5.7,5.7,0,0,1-3.8-1.5l-72.8-60.3L282.2,609a15,15,0,0,1-1.9-2l-.8-.9h-.1v-.2c-.8-6.9-.9-13.8-1-20.6-.1-3.7-.1-7.5-.3-11.2-.5-11.9-.5-24-.5-35.6,0-8.6,0-17.4-.2-26.2,0-1.1-.2-2.3-.3-3.5-.4-3.8-.9-7.7,2.1-11.2l.2-.2h1.6c14.2,10.7,28.8,21.2,43,31.4L348,546.2l16.5,12c9.8,7.1,20,14.4,29.8,21.8,2.2,1.7,4,2.4,5.6,2.4a7.2,7.2,0,0,0,4.3-1.6h.2c3-.5,5.6-2.1,8.1-3.7l2.4-1.5c20.1-11.7,40.7-23.4,60.6-34.7l44.2-25.2,40.9-23.3c16.9-9.6,34.4-19.4,51.5-29.4l2.3-1.4c5.2-3,10.5-6.2,16-8.7h.4a2.4,2.4,0,0,1,2.1.8,3.1,3.1,0,0,1-.1,2.8c-10.2,19.2-21,38.3-31.5,56.9-5.5,9.8-11.2,19.9-16.8,29.9l-16.9,30.2c-9.8,17.5-19.9,35.6-29.7,53.5-2.4,4.4-5.1,8.6-7.7,12.7l-3.2,5.1c-1.3,2.8-3.8,4-6.3,4.9L393.3,696.3A8.6,8.6,0,0,1,390.3,697Z"/><path class="cls-19" d="M279.7,497.8h1c22.1,16.6,44.6,32.5,66.9,48.8,15.4,11.3,31.1,22.3,46.4,33.8,3.7,2.8,6.8,3.5,10.5.8,4.1-.7,7.2-3.3,10.7-5.3,34.8-20.3,70-39.9,104.8-60,30.7-17.7,61.7-34.8,92.3-52.6,6-3.5,12-7.1,18.4-10.1,2.4-.1,2.5,1.2,1.8,2.9-15.6,29.2-32.2,57.8-48.2,86.8s-31.3,55.6-46.6,83.7c-3.3,6.1-7.3,11.9-10.9,17.8-1.2,2.6-3.5,3.8-6.1,4.7L393.1,695.8c-2.4.9-4.1,1-6.3-.8q-52.1-43.3-104.3-86.4a27.4,27.4,0,0,1-2.7-2.9c-1.2-10.6-.8-21.2-1.2-31.8-.9-20.6-.2-41.2-.6-61.8C277.9,507.4,276,502.2,279.7,497.8Z"/><path class="cls-20" d="M458.1,292.6a44.9,44.9,0,0,0,4.9-.4,45.5,45.5,0,0,1,5.1-.4h.7a36.1,36.1,0,0,0,9.6-1,75.9,75.9,0,0,1,14.8-1.3,100,100,0,0,0,11.1-.6c5.5-.7,5.7-.8,6.3-6,1.2-9.8,2.2-18.4,3.3-26.3.1-.5.1-1,.1-1.5.1-2.3.3-4.9,3.4-6.1h.2c12.7.6,24.1,1,34.6,1h7.5c2,1.2,2.3,3.3,2.6,5.1v.4c.4,2.4.9,4.9,1.4,7.2s1.2,5.6,1.6,8.4,2.2,5.1,5.6,5.8l5.8,1.3a130.7,130.7,0,0,0,16.5,3,11.2,11.2,0,0,0,3.2.5h39.7c4,0,5.7-1.5,6.1-5.4.2-2,.5-3.9.9-5.8s.4-2.4.6-3.6.7-5.2,3.7-6.7h.1a61.9,61.9,0,0,1,10.7-.8h25.8c3,0,6.1-.3,9.1-.5s6.1-.6,9.2-.6h1.2a5.1,5.1,0,0,0,3.9-2.1l.4-.4c.8-1,1.8-2.1,3.4-2.1h.7c10.7.2,21.7,1.2,32.2,2.2l14.5,1.3c29.5,2.3,55.7,4.5,80.1,6.7,11.5,1,24.8,2.9,37.2,9.2,9.5,4.8,19.7,9.8,30.6,13h.4v.4c-.5,2.7-2.7,2.7-3.7,2.7h-2c-11.5,0-22.2,2.8-31.3,5.5-17.9,5.4-36.5,7.6-54.6,9.8l-6.8.8c-19.8,2.4-36.1,4.6-51.4,6.7-11.2.7-22.6,1.6-33.6,2.4l-27.4,2-4.9.4c-3,.3-6,.6-9.1.6h-9.3a23.1,23.1,0,0,0-6.7.8c-8.7.9-17.4,1-25.9,1.1h-3.6c-7.4.1-15,.4-22.3.7-9.3.4-19,.7-28.5.7h-6.6c-3.4,0-6.9.3-10.3.5s-6.9.5-10.4.5h-4.1l-24-.5c-12.7-.2-25.9-.4-38.8-1.2H479.7c-9.4,0-19-.3-28.2-.7s-18.2-.7-27.4-.7c-5.9,0-11.9-.2-17.8-.4s-12.2-.4-18.3-.4h-1.8c-15,.1-29.9.9-43.9,1.7-6.1.4-12.4.5-18.4.7l-10,.3L274.5,322l-15,.6-22.4.9-9.6.2a187.6,187.6,0,0,1-35.2-3.3c-17.5-3.3-35.4-5.6-52.8-7.9L120.6,310l-40.9-5.6L28,297.4h-.8l-1.2-.2c-7.8-.6-15.8-1.2-21.6-8-3.3-4-5-6.8-4.2-8.9s4-3.1,8.9-4c20.8-4,41.1-7.8,61.3-10.6,15.9-2.2,32.2-3.8,47.9-5.4l20.9-2.1,3.3-.2c3.5,0,4,1.5,4.7,6.2.4,3.1.8,6.3,1.2,9.4s.7,5.9,1.1,8.8c.7,5.3,3.6,9.5,8.9,12.9a12.3,12.3,0,0,0,3.2.5h.5c6.3-.5,12.7-.6,18.9-.7s13.2-.3,19.8-.8c3.1-.2,6.4-.4,10.5-.4h22.6a17,17,0,0,0,5.5-.6,29.9,29.9,0,0,1,5.9-.5h1.2c5.3-.1,5.9-.7,6.2-5.8.8-11.9,1.8-23.9,3.1-35.7v-.7a6.3,6.3,0,0,1,1.5-4.2l.2-.2h.2c2.6.4,2.8,2.5,2.9,4v.7c.1,1.1.3,2.1.4,3.2a45,45,0,0,1,.5,5.3c.1,3.2,1.4,4.5,4.7,4.5h.5c10-.4,20.1-.5,29.9-.7,14.2-.2,28.8-.5,43.2-1.3,2.6-.2,3.7-1.1,3.9-3.2a10.7,10.7,0,0,1,.2-1.2v-.3c1.3-7.5,1.5-7.6,8.7-8.5l5.9-.4,4.7-.3c5.3,0,5.7,2.4,6.1,9.2.2,2.9.3,5.7.5,8.5s.5,7.6.7,11.3,1.4,4.6,4.1,5.3l13.2,3.6c7.9,2.2,16.1,4.5,24.4,6.1H442"/><path class="cls-20" d="M468.2,292.3a38,38,0,0,0,10.4-1c8.5-1.9,17.2-.8,25.8-1.9,5.5-.7,6.1-.8,6.8-6.4q1.6-13.1,3.3-26.3c.3-2.6-.2-5.9,3.2-7.2,14,.7,27.9,1.1,41.9.9,1.9,1.2,2.1,3.2,2.5,5.2.9,5.2,2.2,10.4,3,15.6.6,3.6,2.4,5.5,5.9,6.2,7.4,1.6,14.8,3.6,22.4,4.3a10.3,10.3,0,0,0,4.2.5c12.8,0,25.6-.1,38.5.1,4.3.1,6.5-1.5,6.9-5.8s1-6.2,1.4-9.4.8-5,3.4-6.3c8.2-1.4,16.5-.4,24.7-.6,3.8-.1,7.6-.1,11.4,0,6.6,0,13.2-1.3,19.8-1.1a5.6,5.6,0,0,0,4.3-2.3c1.1-1.2,2-2.7,4.1-2.3,15.7.3,31.2,2.3,46.8,3.5q40.1,3.1,80.1,6.7c12.8,1.1,25.3,3.2,37,9.2,9.9,5,20,9.9,30.7,13-.4,2.6-2.7,2.3-4.3,2.3-11.1-.1-21.8,2.4-32.3,5.5-20,6-40.7,8.1-61.3,10.6q-25.7,3.2-51.4,6.7c-20.3,1.2-40.6,3.1-61,4.5-5.5.4-10.9,1.2-16.4.9s-9.2-.7-13.7.6c-9.8,1-19.6,1-29.4,1.1-18.8.3-37.5,1.7-56.3,1.4-8.6-.1-17.2,1.5-25.9.9-20.9-.7-41.9-.5-62.8-1.8h-2.5c-21.8.6-43.5-1.2-65.3-1.2-12.6,0-25.2-.9-37.9-.8-14.6.1-29.3.8-43.9,1.7-9.5.6-19,.6-28.4.9l-39.4,1.5c-12.5.5-24.9.8-37.4,1.5a188.1,188.1,0,0,1-44.7-3.1c-23.7-4.5-47.8-7.1-71.7-10.3L28,296.9l-2-.3c-7.8-.6-15.6-1.3-21.3-7.8s-6.1-10.1,4.3-12.1c20.4-3.9,40.8-7.8,61.3-10.6,22.8-3.1,45.9-5.1,68.8-7.5,6.1-.5,6.6-.4,7.4,5.5s1.4,12.1,2.2,18.2,4.3,10.2,9.2,13.3a11.6,11.6,0,0,0,3.9.6c12.9-1,25.8-.5,38.7-1.5,10.4-.8,20.9.1,31.3-.3,2.5-.1,5,.2,7.4-.6a37.7,37.7,0,0,1,6.9-.5c5.5-.1,6.4-.8,6.7-6.2q1.1-17.9,3.1-35.7c.2-1.6.1-3.3,1.4-4.6,2.6.4,2.3,2.5,2.5,4.2s.9,5.6.9,8.4,2.2,5.1,5.7,5c24.4-.9,48.8-.6,73.1-2,2.5-.1,4.1-1,4.3-3.7a13.8,13.8,0,0,1,.2-1.5c1.3-7.3,1.3-7.3,8.3-8.1l5.9-.4c9.2-.8,9.8-.5,10.3,8.5.4,6.6.9,13.3,1.2,19.9.2,3.1,1.5,5,4.4,5.7,12.6,3.2,24.9,7.2,37.6,9.7,9.9-.1,19.8,0,29.8,0"/><path class="cls-21" d="M103.6,429.2a8.7,8.7,0,0,1-6-3.9c-30-42.8-61.8-88.5-92.7-135a5.6,5.6,0,0,1-.5-1l-.2-.4-.3-.6H5.4l1-.2a.8.8,0,0,1,.6.3c4.5,5.7,10.9,6,17,6.3a58.6,58.6,0,0,1,6.7.6c14.9,2.5,30.2,4.6,44.9,6.6L85.8,303l21.9,2.8,26.4,3.5,5.9.8c20.6,2.9,42,5.9,62.9,9.3a143.4,143.4,0,0,0,23.4,2.1,102.9,102.9,0,0,0,14.2-.9h.3l2-.2h6.5c6.3,0,12.6-.3,18.8-.7s9.5-.5,14.3-.6c12.2-.3,24.7-.8,36.7-1.3L341,317l16.8-.7c9.2-.4,18.6-.8,27.9-1h.5v.5c.1,2.6-1.5,4-3,5.3l-1.2,1L342,362.4,305.4,399l-1.1,1c-1.3,1.1-2.4,2-2.1,3.8v.4l-.3.2c-2.9,1.5-6,1.5-8.9,1.5a36.8,36.8,0,0,0-4.3.2c-13.1,1.7-26.5,3.1-39.4,4.5l-26.1,2.8c-7.7.9-15.5,1.9-23,3l-21.7,2.8-21.9,2.3-18.6,1.9-19.2,2.4L107,427.2c-1.3.2-2.3.5-2.8,1.7l-.2.4Z"/><path class="cls-21" d="M4.8,288.7c.6-.1,1.6-.5,1.8-.2,6.4,7.9,15.8,5.7,24,7.1,18.3,3.1,36.7,5.4,55,7.9,16.1,2.2,32.2,4,48.3,6.3,22.9,3.2,45.9,6.4,68.8,10.1,12.3,2,25.1,2.9,37.7,1.1a13.9,13.9,0,0,1,2.5-.2c13.2.6,26.2-.9,39.4-1.2,19.6-.4,39.2-1.4,58.8-2.1,14.9-.5,29.8-1.4,44.8-1.7.2,3-2.3,4.2-4,5.9L305,398.7c-1.4,1.4-3.7,2.5-3.3,5.2-4.1,2.1-8.8,1.1-13.1,1.7-21.8,2.8-43.7,4.8-65.5,7.3-14.9,1.7-29.8,4-44.7,5.8s-27,2.7-40.5,4.2c-10.3,1.2-20.6,2.7-31,3.9-1.4.2-2.6.6-3.2,2a8.3,8.3,0,0,1-5.6-3.7C66.8,380.3,35.6,335.5,5.4,290A9.9,9.9,0,0,1,4.8,288.7Z"/><path class="cls-22" d="M778.6,417.4h-3c-1.6,0-3.3-.2-4.3-2.3l-.3-.6h.7c1.8-.3,3-.8,3.5-1.6s.7-2.4.2-4.8c-6.8-33-12.7-62-18.3-88.8l-.4-1.5c-.6-2.2-1.2-4.6.5-7h.2a63.4,63.4,0,0,1,13.1-2.2l6-.7,6.3-.9c15.4-2.2,31.2-4.5,46.9-5.9,13.3-1.2,26.3-4.5,38.9-7.8,5.3-1.4,10.8-2.8,16.3-4a65.5,65.5,0,0,1,14.4-1.7H904a2.9,2.9,0,0,0,2.3-.9v-.2h.2c1.8,0,2.5,1.3,3,2.4l.4.8,5.6,9.3c3.2,5.4,6.5,10.9,9.9,16.3,1.9,3,1.6,4.5-1.4,6.4L860,364.1l-28.1,18.6c-16.3,10.8-33.1,22-49.7,32.9l-.7.5A5,5,0,0,1,778.6,417.4Z"/><path class="cls-22" d="M757.7,310.7c6.2-2,12.7-2,19-2.9,17.7-2.5,35.4-5.2,53.2-6.8s36.9-7.6,55.3-11.8a64.1,64.1,0,0,1,16.3-1.6c1.7.1,3.7.8,5.2-.8,2,0,2.2,1.8,3,3,5.2,8.5,10.1,17.2,15.5,25.6,1.8,2.8,1.5,4-1.3,5.8Q881,349.5,838.2,378q-28.1,18.7-56.3,37.2c-1.1.7-2.2,2-3.9,1.7s-5,.7-6.3-2.1c4.3-.6,5.1-2.6,4.2-7q-9.1-44.4-18.3-88.8C757.1,316.2,755.7,313.4,757.7,310.7Z"/><path class="cls-23" d="M159.1,298.3a3.8,3.8,0,0,1-2.9-1.1h-.1c-2.4-4-2.6-8.4-2.9-12.6-.1-1.4-.2-2.8-.3-4.1-1.6-14.9-2.8-26.4-3.9-37.3v-.4c-.2-2.2-.5-4.6,1.3-6.6h.2c5.3-1.8,10.8-2,16.1-2.1h2.2l14.2-.5c17.4-.6,35.4-1.2,53.1-2.3H252a2.9,2.9,0,0,0,2.2-.7c.6-.6.9-1.8.8-3.6a52.6,52.6,0,0,0-.6-5.6c-.5-3.8-1.1-7.8.1-11.8a3.4,3.4,0,0,1,1.4-1.5,15.6,15.6,0,0,1,5.4-.8H239.5a5.5,5.5,0,0,1-4-1.4l-.4-.3.3-.4a3.3,3.3,0,0,1,2.5-1h36.8l73.6-.4h.2c2,0,3.2.3,3.8,1.1s.7,2.2.4,4.3c-.8,5.2-1.5,10.5-2.1,15.7s-1.5,12.3-2.5,18.4c-.4,2.7-.3,4.3.4,5.1a3.1,3.1,0,0,0,2.5.9h9.2l-7.3,1H351c-4.4.7-4.5,4.3-4.6,8.2,0,.5,0,1,0,1.5-.2,3.8-1.5,5.1-5.5,5.2-8.5.4-17.1.5-25.4.6s-15.9.2-23.8.5l-12.4.4-14.4.5H264c-3.6,0-4.9-1.5-5-5.4s-.2-9.2-1.6-13.9c-1.6-1.7-1.4-3.6-1.2-5.6s.1-1,.1-1.5c-5.7,8.8-11.8,17.3-17.6,25.6s-12.6,17.8-18.7,27.2h16.2a5.1,5.1,0,0,1,4.1,1.5l.4.4-.4.3a4.5,4.5,0,0,1-3.1.9h-7.8c-9.1,0-18.3.3-27.2.7s-15.3.6-23,.7c-3.5,0-7.1.2-10.6.4l-7.3.4h-2.2Z"/><path class="cls-23" d="M352.8,248.9c-7.4,0-6.7,5.8-6.9,10.3s-1.4,4.6-5,4.8c-16.4.8-32.8.4-49.2,1.1-8.9.4-17.9.4-26.8.8-3.7.2-5.2-.7-5.4-4.9s-.3-9.5-1.7-14.1c-2.3-2.3-.7-5.3-1.1-8.4-12.1,18.8-25.5,35.9-37.6,54.9,5.5.3,10.1,0,14.7.2,2.1.1,4.4-.6,6.1,1.3-1.1.9-2.5.8-3.8.8-19-.4-37.9,1.1-56.9,1.3-6,.1-11.9.6-17.9.8-1.6.1-3.4.6-4.7-.8-3.1-5.1-2.5-11-3.1-16.5-1.4-12.4-2.7-24.8-3.9-37.3-.2-2.3-.6-4.7,1.1-6.7,5.9-2,12.1-2,18.2-2.2,22.4-.8,44.9-1.4,67.3-2.8,4.8-.3,9.7,0,14.5,0s4.9-1,4.8-4.8c-.2-5.8-2.3-11.5-.5-17.3a2.9,2.9,0,0,1,1.2-1.2c3.3-1.3,7-.2,10.4-1.5,16.9-.7,33.8-1.2,48.1-1.3-9.5-.3-21.6.4-33.7.8-13.8.4-27.6.1-41.4.1a5.1,5.1,0,0,1-3.7-1.3c1.2-1.3,2.8-.7,4.2-.7,36.1-.2,72.2-.2,108.3-.5,4.1,0,4.4,1.2,3.9,4.8-1.7,11.3-2.8,22.8-4.6,34.1C346.8,247.2,347.5,249.6,352.8,248.9Z"/><path class="cls-21" d="M273.4,597l-13.3-19.8-55.2-82.8-21.1-31.7.4-.3a5.3,5.3,0,0,1,2.9-.9,7.2,7.2,0,0,1,2.7.6l45,18,20.4,8.1,5.2,2.1a145.8,145.8,0,0,0,19.4,6.9h.4v.5a55.4,55.4,0,0,0-.2,12.1c.1,1.9.2,3.9.2,5.9q0,8.5,0,17c0,9.3,0,18.9.1,28.3.1,7.9.3,15.9.5,23.6.1,5.2.3,10.4.4,15.7,0,.4,0,.7.1,1.1s.3,3.1-1,4.5l-.4.5Z"/><path class="cls-21" d="M279.7,497.8c-1,6,0,12,0,18,0,15.1-.1,30.3.1,45.4.1,13.1.7,26.2.9,39.3,0,1.8.6,3.7-.8,5.3-6.5-9.6-13-19.2-19.4-28.8l-76-114a5.2,5.2,0,0,1,5.1-.2l65.5,26.1C263.2,492,271.2,495.6,279.7,497.8Z"/><path class="cls-24" d="M635.6,518.5c-2.4,0-2.6-2.1-2.7-3.5v-.6l-.4-2.9a77.7,77.7,0,0,1-.8-8.6c-.1-5-.1-10.1,0-15.1.1-9.1.3-18.5-.8-27.7a8.3,8.3,0,0,1,.2-2.4,7.5,7.5,0,0,0,.2-2.1v-.2h.1c.4-.8.4-1,.4-1.1h-.9a8.6,8.6,0,0,1-3,.7,3.9,3.9,0,0,1-2.2-.6h-.2v-.2a2.7,2.7,0,0,1,.4-2.2,3.5,3.5,0,0,1,2.7-.9h.6c10.6-.9,20.9-3.7,30.9-6.5,5.1-1.4,10.4-2.8,15.7-4,10.3-2.3,20.8-4.9,30.9-7.4,12.6-3.1,25.6-6.4,38.5-9.1l.7-.2a9.5,9.5,0,0,1,2-.3,1.5,1.5,0,0,1,1.4.6c.4.7.2,1.7-.7,3.3h0l-16.8,13.7-89.3,72.9-3.8,2.9-1.8,1.3h-.9Z"/><path class="cls-24" d="M631.7,455.7c.5-1,.9-2-.9-1.9s-3.2,1.3-4.9.2c-.5-2.8,1.8-2.4,3.2-2.5,16-1.4,31.1-7,46.6-10.5,23.2-5.2,46.1-11.7,69.3-16.5,2-.4,5.2-1.6,2.8,2.7L641.8,513.7c-1.8,1.5-3.7,2.8-5.5,4.2s-2.7-2-2.9-3.6c-.5-3.8-1.1-7.5-1.2-11.4-.3-14.3.9-28.6-.8-42.8C631.2,458.6,631.8,457.2,631.7,455.7Z"/><path class="cls-25" d="M526.3,644.2c2.1-5.7,5.2-10.9,8.3-16,1.4-2.3,2.9-4.8,4.2-7.2,8.7-16,17.8-32.1,26.5-47.7l10.1-18L626,465l3.6-6.6,2.1-3.9.4,1a33,33,0,0,1,2.1,12.2c0,4.3,0,8.7,0,13,0,7.7-.1,15.7.2,23.5,0,.8,0,1.5,0,2.3,0,3.8.1,7.8,2.2,11.2l.2.3-57.4,66.3-54.1,62.5Z"/><path class="cls-25" d="M631.7,455.7a33,33,0,0,1,2,12c.1,12.2-.2,24.3.2,36.5.2,4.6-.3,9.5,2.4,13.8L579,584l-52.3,60.4c3-8.3,8.2-15.4,12.4-23.1,12-22,24.4-43.8,36.6-65.6l50.6-90.3Z"/><path class="cls-26" d="M647.5,262.1c-2.9-1.3-2.4-4-2.2-5.6.6-3.9,1.2-7.8,1.7-11.6.9-6.3,1.8-12.8,3-19.2.4-2.4,1-5.4,4-7a138,138,0,0,1,19.3-4.8l6.9-1.4,12.5-2.9c8.1-1.9,16.4-4,24.8-5.1l-.5-.6-.5-.7h.9l2.7-.2,6.1-.4h2.3c1.9,0,3,.1,3.5.9s-.1,2.4-1.9,5.8h-.1c-2.2,2.5-4.2,5.3-6.2,8s-4.2,5.7-6.6,8.4c-5.5,6.2-10.8,12.7-15.9,19.1-3.7,4.5-7.5,9.3-11.3,13.8-1.4,1.6-2.9,3.3-5.4,3.7H647.5Z"/><path class="cls-26" d="M684.6,261.6H647.7c-2.4-1.1-2.2-3.1-1.9-5.1,1.6-10.3,2.8-20.6,4.7-30.9.5-2.6,1.1-5.2,3.7-6.7,8.5-3,17.4-4.2,26.1-6.1,14.2-3.1,28.2-7.3,42.7-8.7-1.8-.2-4,1.5-5.6-.8,2.9-.2,5.9-.6,8.8-.6,6.6-.2,6.6-.1,3.4,5.9S721.6,220,717,225.2c-9.4,10.7-18,22-27.2,32.9C688.3,259.8,686.9,261.2,684.6,261.6Z"/><path class="cls-27" d="M593.7,283.3c-6.5,0-12.8-1.6-18.9-3.2l-7.8-1.9c-3-.6-3.1-2.8-3.3-4.5a9.6,9.6,0,0,0-.2-1.4c-1.2-5.3-2.2-10.7-3.2-15.9l-1.1-5.9-1.4-7.6-6-32.7c-.1-.8-.2-1.6-.3-2.4v-1.1h0l.2-.5a3.1,3.1,0,0,1,2.8-2.3l6.7-.3c11.2,0,21.9,2,32,4a2.2,2.2,0,0,1,1.2.8l.2.2h.1a22.7,22.7,0,0,1,.3,7.1c0,.7-.1,1.3-.1,2-.3,9.6.1,19.4.5,28.8s.8,18.7.5,28c0,.5,0,1.1,0,1.6,0,2.3.1,4.7-1.8,6.8v.2Z"/><path class="cls-27" d="M593.7,282.8c-9.2,0-17.8-3.2-26.7-5-3.4-.7-2.6-3.6-3-5.5-1.7-7.2-2.9-14.5-4.3-21.8l-7.4-40.3c-.2-1.1-.3-2.3-.4-3.4s.8-2.4,2.6-2.5c13.1-1,25.8,1.2,38.5,3.8.5.1.8.6,1.1.9.8,3,.3,6,.2,8.9-.6,19,1.6,37.9,1,56.9C595.2,277.5,595.8,280.5,593.7,282.8Z"/><path class="cls-28" d="M655.7,203.7c-1,3-5.9,9.6-8.5,13-8,10.1-16.1,20.2-23.8,30.6s-16.1,21.4-24.7,31.8c-1.1,1.4-1.2,3.1-1.9,4.5s-2.2.2-3.1-.8c.8-22.6-1.6-45.2-.9-67.7.1-2.1-.3-4.4,1-6.3s6.3-2.1,9.5-2.3c10.6-.9,21.1-1.8,31.7-3a109.6,109.6,0,0,1,13.8-.7"/><path class="cls-29" d="M156.3,297.2c-6.7-5.2-10-12-10.1-20.9a48.8,48.8,0,0,0-.7-6.6,54.7,54.7,0,0,1-.7-6.1c-.1-3.3-1.5-4.6-4.7-4.6h-.7v-1h.4c1.8-.1,3-.6,3.7-1.4s.8-2.5.2-5a52.2,52.2,0,0,1-1-7.3,57.3,57.3,0,0,0-.8-6.5c-.5-2.2-.3-3.6.4-4.5a3.6,3.6,0,0,1,2.9-1.1h7.4l-.3.7a3,3,0,0,1-2.7,2.2l1.6,1.1h.1l1.1,11.2q1.3,12.7,2.5,25.4.8,8.2,1.5,16.4l.8,8.3Z"/><path class="cls-29" d="M150.7,236.8q1.8,18.2,3.6,36.4c.8,7.9,1.5,15.8,2.2,23.6-6.7-5.2-9.8-12-9.9-20.5-.1-4.3-1.2-8.5-1.4-12.8s-2.4-5.2-6-5c4.8-.1,5.8-2.5,4.8-7s-.9-9.3-1.8-13.8.1-5.3,4-4.9a50.2,50.2,0,0,0,5.5,0c-1.7,3.9-4.9.2-7.1,1.5s.1,1.1-.2.5S148.3,234.7,150.7,236.8Z"/><path class="cls-27" d="M254.2,233.4l-2.4-.2h-.5c-1-1-2.4-1.1-3.8-1.2h-1.3c-2.8-.3-4.6-1.7-6-4.6a112.8,112.8,0,0,1-3.8-16c-.3-1.8-.7-3.6-1-5.3v-.6h2.5c2-.2,4.1-.3,6.1-.3a19.7,19.7,0,0,1,12.2,3.5l.2.2v.3c-.5,5.4.2,10.9.9,16.2l.4,2.9c.3,2.3.1,3.8-.7,4.6A3.3,3.3,0,0,1,254.2,233.4Z"/><path class="cls-27" d="M255.7,208.7c-.6,6.5.5,12.9,1.3,19.2s-1.8,5.2-5.3,4.7c-1.5-1.5-3.7-1.2-5.5-1.4s-4.4-1.9-5.6-4.3c-2.3-6.9-3.3-14.1-4.8-21.2C242.7,205.2,249.6,204.2,255.7,208.7Z"/><path d="M150.6,237.2l-2.4-.9a12.4,12.4,0,0,0-5.2-1.3h-3.5l2.8-1.1a13.4,13.4,0,0,1,5-.7c1.6,0,2.9,0,4.1-.9h.1l16.4-.7,68-2.8h2.5a1.5,1.5,0,0,0,1.2-.4,2.5,2.5,0,0,0,.4-1.8v-1.4l.9,1.1c2.3,2.6,5.5,3.1,8.9,3.6h.7c.8.1,1.5.2,1.8.8a2.1,2.1,0,0,1-.3,1.8v.3l-101.3,4.1Z"/><path d="M240.6,226.9c2.5,2.9,6.1,3.3,9.5,3.8,1.3.2,2.5.1,1.5,1.9l-100.9,4.1c-2.5-.6-4.5-2.3-8.3-2.2,3.8-1.5,6.8.1,9.2-1.7l84.3-3.4C237.8,229.4,240.7,230.8,240.6,226.9Z"/><path class="cls-20" d="M255.7,209.2h-.4c-5.6-1.4-11.5-2.9-17.4-2.9h-2.5v-2H321v1.6l-55.1,2.5a10.1,10.1,0,0,1-3.2.4h-3.5a8.8,8.8,0,0,0-3.3.5h-.2Z"/><path class="cls-20" d="M255.7,208.7c-6.5-1.7-13-3.4-19.9-3v-.9h84.7v.6l-54.7,2.4c-3.3,1.1-6.8-.4-10.1.9Z"/><path class="cls-30" d="M301.4,404.2h-1.4a1,1,0,0,1-1-.5c-.2-.4-.1-1,.5-2a10.5,10.5,0,0,1,2-2.1l.9-.8,17.4-17.4,62-61.9,2.5-2.7,1.2-1.3v-.2h7.2c12.5,0,25.3.4,37.6.8l25.7.7h6l75.6,1.9,17.2.4h.1c5,2.3,8.8,6,12.5,9.7,1.8,1.7,3.6,3.5,5.5,5.1,5,4.1,10.1,8.7,16.3,14.4l1.6,1.2c2,1.4,4.5,3.2,3.3,6.9v.3h-.3L563.4,362l-70.7,11.3-44.9,7.4L398,388.9l-49.3,7.8L319,401.3l-11.8,2-5.4,1h-.3Z"/><path class="cls-30" d="M301.7,403.8c-.6-.6-3.6,1.1-1.8-1.8a17.9,17.9,0,0,1,2.8-2.9l79.4-79.3c1.3-1.3,2.5-2.7,3.7-4,23.4-.3,46.8,1.1,70.2,1.5l6,.3,92.7,2.4c7.3,3.3,12,9.8,17.9,14.7s11,9.5,16.3,14.4c2.2,2,6.1,3.3,4.8,7.6L492.6,372.9c-31.6,5.1-63.1,10.5-94.6,15.6-26.3,4.3-52.7,8.2-79,12.4Z"/><path class="cls-31" d="M400,585.2c-2.1,0-4-1.3-6.6-3.2-22.4-16.6-45.3-33.2-67.5-49.3l-9.6-6.9-25.2-18.1-8-5.7c-1.4-1-2.9-2-2.9-4.2v-.4h.4l9-1.3,20.4-3,55.3-8.7,21.5-3.5L404,478l23.5-3.7,31.3-5,27.8-4.5,25.5-4.1,18.9-3,9-1.4v.4c.6,2.4-.9,3.7-2.2,4.7l-.7.6-16.7,15.4c-6,5.6-12.3,11.4-18.5,17s-14.6,13.3-21.6,19.9-15.4,14.3-23.2,21.3-18.3,16.7-29,26.7l-6.7,6.1c-3.9,3.5-7.8,7.1-11.5,10.9-1.3,1.3-2.8,2.9-5.2,3C403.3,584.2,401.7,585.2,400,585.2Z"/><path class="cls-31" d="M404.6,581.7c-3.7,4.9-6.8,2.9-10.9-.1-25.6-18.9-51.3-37.6-77.1-56.2-11-8-22.1-15.8-33.1-23.7-1.4-1-2.8-1.9-2.8-3.9l29.4-4.4,55.3-8.7,38.7-6.2,54.8-8.7,53.3-8.6,27.4-4.3c.7,2.5-1.4,3.5-2.7,4.8-11.8,10.7-23.4,21.7-35.2,32.4-15.1,13.6-29.7,27.6-44.8,41.2-9.8,8.8-19.4,17.7-29,26.7-6,5.7-12.4,11-18.2,17C408.3,580.2,406.8,581.7,404.6,581.7Z"/><path class="cls-32" d="M776.3,416.2H775l-2.4-.6-1-.3L753,409.1,710.2,395l-35.4-11.8L631,368.5l-24.4-7.8-11.1-3.5h-.3v-.4c-.1-2.2,1.5-2.9,2.7-3.5l1-.5a212.1,212.1,0,0,1,19.3-10.3L629,337l9.9-5.3c10.1-5.5,20.6-11.1,31.3-15.9h5.7a12.1,12.1,0,0,0,3.7-.5h.1c13-.4,26.3-1.6,39.1-2.7l13.7-1.2c5.8-.5,11.7-.7,17.4-.9l7.9-.3h.4l2.6,12.8q2.7,13.5,5.4,26.9c4.1,20.3,8.4,41.3,12.8,62,.3,1.6.2,2.7-.4,3.4A2.7,2.7,0,0,1,776.3,416.2Z"/><path class="cls-32" d="M757.7,310.7c2.6,13.1,5.2,26.2,7.9,39.3q6.3,31,12.8,62.1c.7,3.2-.5,4-3.3,3.6a30.6,30.6,0,0,1-3.4-.9l-61.4-20.3-79.2-26.4c-11.8-3.9-23.7-7.6-35.5-11.3-.1-2.4,2.1-2.7,3.5-3.6,9.6-6,20-10.4,30-15.7,13.6-7.2,27-14.9,41.1-21.1,3.1-.3,6.3.5,9.4-.5,17.6-.6,35.2-2.5,52.7-3.9C740.9,311.2,749.3,311.1,757.7,310.7Z"/><path class="cls-33" d="M406.2,582.9a2.9,2.9,0,0,1-1.9-.8l-.4-.4,6.3-5.8L423,564.2l25.9-24,31.2-28.9,31.8-29.4,20.2-18.6,2.5-2a15.1,15.1,0,0,0,4.6-4.7v-.3h.3a15,15,0,0,0,3.2-.5,15.3,15.3,0,0,1,3.6-.6h1.7a2.7,2.7,0,0,0,2.2.9h2c10-.9,20.2-1.2,30-1.5l13.5-.5,7.8-.4c5.7-.3,11.5-.6,17.3-.6h11.3l-1.3.9c-7.3,5-15.2,9.4-22.8,13.6l-10.7,6c-20.4,11.9-41.3,23.8-61.5,35.2l-10.2,5.8-28.8,16.3-30.5,17.3L434.1,567l-24.6,14.1-.9.7A4,4,0,0,1,406.2,582.9Z"/><path class="cls-33" d="M404.6,581.7l18.7-17.2,57.1-52.9,52-48c2.4-2.2,5.5-3.8,7.2-6.8,2.8-.1,5.3-1.6,8.2-1,1.3,1.5,3.1,1,4.7.9,14.5-1.3,29-1.4,43.5-2,9.9-.4,19.8-1.3,29.7-.9h5.1c-10.7,7.3-22.3,13.1-33.5,19.6-23.8,13.8-47.8,27.4-71.7,41L466.3,548l-57,32.7C407.9,581.4,406.7,583.5,404.6,581.7Z"/><path class="cls-23" d="M593.3,357.2v-.4c-.4-2.5-2.2-4-4.1-5.5l-1.5-1.3-11.4-10.1c-4.5-4-9.2-8.1-13.7-12.3a34.4,34.4,0,0,0-2.9-2.3,19.3,19.3,0,0,1-5.2-5l-.5-.7h.9l9-.4,19.8-.7,18.9-.4c11.8-.2,23.9-.4,35.8-1,5.4-.3,10.8-.4,16.1-.5l12.1-.3a3.7,3.7,0,0,1,1.6-.4,2.6,2.6,0,0,1,1.8.7l.3.2v.3a4.5,4.5,0,0,1-2.7,2.5l-.5.3-15.8,8.2L608,350.2c-2.8,1.5-5.6,3.1-8.2,4.7l-3.8,2.2h-2.7Z"/><path class="cls-23" d="M669.6,316.8c-.5,1.4-1.8,1.9-3,2.5l-58.9,30.5c-4.1,2.1-8,4.6-12,6.9h-2c-.6-3.4-3.6-5.1-5.8-7.1-8.3-7.5-16.9-14.8-25.1-22.4-2.7-2.5-6.1-4.1-8.1-7.3,9.6-.4,19.2-.8,28.8-1.1,18.3-.5,36.5-.4,54.8-1.4,9.5-.5,18.9-.4,28.4-.8A2.4,2.4,0,0,1,669.6,316.8Z"/><path class="cls-34" d="M652.2,227.3c-.1.7-.2,1.4-.3,2.1-1.4,8.4-2.9,17.6-4.6,29a4.2,4.2,0,0,0,.5,2l.4,1.1v.4c-2,3.7-2.5,8-2.9,12a60.3,60.3,0,0,1-.9,6.6c-.6,2.8-1.7,3.7-4.2,3.7H596.5v-.2c-1.3-1.9-1.2-3.5.4-5.5l3.7-4.4c4.5-5.4,9.2-10.9,13.3-16.7,5.3-7.5,11.1-14.8,16.6-21.8s10-12.7,14.8-19.2a91.7,91.7,0,0,1,6.3-7.5l3-3.3,1.1-1.2-.2,1.6-.4,3.3c-.3,2.9-.6,5.8-1,8.8"/><path class="cls-34" d="M651.4,229.3c-1.7,9.7-3.1,19.4-4.6,29.1-.2,1,.6,2.2.9,3.3-3.2,5.8-2.5,12.5-3.8,18.8-.5,2.5-1.3,3.3-3.8,3.3H596.7c-1.3-1.7-1-3.2.4-4.9,5.8-6.9,11.8-13.7,17-21.1,10-14.1,21.3-27.1,31.4-41.1,2.8-3.8,6.1-7.2,9.2-10.8-.4,4-.8,8.1-1.4,12.1Z"/><path class="cls-35" d="M249.8,295.5h-1.5l-3.1-.2H215.6l.5-.8,3.7-5.7c2.5-3.9,4.9-7.5,7.3-11.1,9.6-13.9,19.2-27.5,27.3-39l.4-.9c.4-.9.8-1.9,2-1.9h.7c1.9.7,1.4,2.3,1.1,3.4a7.1,7.1,0,0,0-.2,1,36,36,0,0,0-.2,4.5c0,.6,0,1.3,0,1.9l-.9,11.8c-.8,10.1-1.6,20.5-2.4,30.8C254.8,292.3,254,295.5,249.8,295.5Z"/><path class="cls-35" d="M239.9,294.8H216.6c4.1-6.2,7.4-11.6,11-16.8q13.6-19.6,27.3-39c.7-1,.9-3.1,2.6-2.5s.7,2.4.5,3.9a63,63,0,0,0-.2,6.5c-1.1,14.2-2.3,28.4-3.3,42.6-.3,4-1.8,6-6.2,5.4A61.1,61.1,0,0,0,239.9,294.8Z"/><path class="cls-27" d="M255.5,208.3a8.9,8.9,0,0,1,4.8-1.2H268l-2,1.1a9.9,9.9,0,0,1-4.8,1h-5.5l-2.2.2Z"/><path class="cls-27" d="M255.7,208.7c3.2-1.9,6.7-.7,10.1-.9C262.5,209.6,259.1,208.4,255.7,208.7Z"/></g></g></svg>