<svg xmlns="http://www.w3.org/2000/svg" width="797.8" height="626.8" viewBox="0 0 797.8 626.8"><defs><style>.cls-1{fill:#2f2f2f;}.cls-2{fill:#111;}.cls-3{fill:#282828;}.cls-4{fill:#393939;}.cls-5{fill:#585858;}.cls-6{fill:#353535;}.cls-7{fill:#0b0b0b;}.cls-8{fill:#434343;}.cls-9{fill:#191919;}.cls-10{fill:#bcbcba;}.cls-11{fill:#d9d9d7;}.cls-12{fill:#17191c;}.cls-13{fill:#42484e;}.cls-14{fill:#525960;}.cls-15{fill:#3e3e3e;}.cls-16{fill:#34383d;}.cls-17{fill:#1897d4;}.cls-18{fill:#1781aa;}.cls-19{fill:#b2bbb8;}.cls-20{fill:#8d9391;}.cls-21{fill:#e97598;}.cls-22{fill:#bc6280;}.cls-23{fill:#74bde7;}.cls-24{fill:#5a91ad;}</style></defs><title>meet_9</title><g id="Layer_2" data-name="Layer 2"><g id="Layer_1-2" data-name="Layer 1"><path class="cls-1" d="M11.7,258.9c-2.9,4.1-8,6.8-8.2,12.7-1.4-.9-1.7-2.4-1.7-3.9q-.5-14.9-1-29.8c2.1.3,2.4,2.1,3,3.5C6.5,247.3,9.1,253.1,11.7,258.9Z"/><path class="cls-2" d="M247.6,307.5a56.2,56.2,0,0,1-10.1-.9c-5.7-1-11.5-1.6-17.2-2.2l-8.9-1-43.8-5.6L157,296.5a282.2,282.2,0,0,0-28.4-3.1h-.2l-.7-.3-1.5-.6-18.6-5.7c-15.2-4.6-31-9.5-46.6-14-11.3-3.3-22.9-6.4-34.1-9.3l-15.2-4.1h-.2l-2.2-4.9L3.4,241.7l-.3-.8c-.5-1.2-.9-2.2-2.3-2.4H.4v-.3c-.9-2.6.1-4.8,1.1-6.9l.5-1,.7-1.4c1-1.7,1.8-3.2.5-5.5a1.8,1.8,0,0,1-.2-1.6c.4-.9,1.5-1.2,2.6-1.5l1-.3L72.4,191l5.9-2.6,5-2.1c3-1.3,6.2-2.6,9.2-4a48.4,48.4,0,0,1,21.7-4.9h3.8a14.9,14.9,0,0,0,6.1,1.1h6.6l3.2.2h.6l-.2.6c-1.8,4.3-5,7.5-8.1,10.6a50.9,50.9,0,0,0-5.7,6.3,3.6,3.6,0,0,1-2,1.1l-7.3,1.9c-6.6,1.8-13.4,3.6-20.1,5-3.3.7-4.8,2.1-5.5,5.2-1,4.7-1.8,9.5-2.4,13.1a6.1,6.1,0,0,1-.5,1.4c-.5,1.1-.7,1.8.2,2.6l4-.3c13.4-1,27.2-2.1,40.9-2.9l20-1.4,8.2-.6,25.5-2,22.5-1.8,14.2-.8c7-.4,14.3-.7,21.4-1.5h2.7c2.5-.1,5-.1,7.2-1.5h7.3a2.4,2.4,0,0,0,1.9-.6c.4-.5.5-1.3.3-2.7-1-6.6-2-13.3-2.9-19.8-.7-4.7-1.3-9.5-2-14.2l-3.5-23.6c-2.7-17.9-5.5-36.4-8.1-54.7a11.4,11.4,0,0,0-.5-1.8c-.6-1.7-1.2-3.6.3-5.6l.4-.5,7.4,9.6L275.2,132l.7,1.2c.6,1,1.1,2,2.3,2h.8v.5a6.5,6.5,0,0,0,1.7,3.7A15.8,15.8,0,0,1,282,141a30.2,30.2,0,0,0,4.1,5.2c2,2.2,4.1,4.5,5.2,7.5l.2.4-.4.2a3.5,3.5,0,0,0-1.8,1.9l-4.8,9.7c-3,6-6,12.2-8.9,18.4-1.4,3.1-3.1,6.2-4.6,9.3-3.1,5.8-6.2,11.9-8.2,18.6a35.6,35.6,0,0,0,5-1.2l2-.6c3.1-.8,6.3-1.9,9.3-2.9a89.6,89.6,0,0,1,14.5-4.1h.4l.2.3a5.6,5.6,0,0,0,2.9,2.8h.3v.3c.2,1.3.8,1.6,1.6,1.6h87.3a2.3,2.3,0,0,0,2-.9l.2-.2h.5c2.9,0,5.4-1,8.2-2a26.8,26.8,0,0,1,7.6-2l46.1-.2a163.9,163.9,0,0,1,21.6,3.8c4.7,1,9.6,2.1,14.4,2.9s9.6,1.8,14.3,2.9a164.1,164.1,0,0,0,21.6,3.8h2.8c4.5,0,9-1.1,13.4-2.1l5.7-1.2h.1l2.2.2,4.8.6,2.5.2c.8,0,1.2-.1,1.4-.4s.1-1.8-.5-3.7l-11.3-37.2c-12.2-40-24.8-81.4-37-122.1-.7-2.2-1.4-4.4-2.1-6.5A120.1,120.1,0,0,1,500,27v-.5h.5l.2-1.3.7,1.2,12.1,20.5,38.9,65.5,6,9.9,2.9,4.8-.2.3c-1.1,1.7-1,3.5-.9,5.5,0,.4,0,.7,0,1.1q.1,11.2.3,22.3c.2,16.9.5,34.3.6,51.4,0,3.2.8,3.8,2.3,3.8a11.2,11.2,0,0,0,2.6-.4l32.4-7.8,22.6-5.4h1.8c1.6,0,2.6-.1,2.9-1.5s-.5-1.9-1.9-2.9l-1.4-1.2c-1.5-1.7-3.2-3.3-4.8-4.9-3.4-3.3-6.9-6.7-9.4-10.9l-.7-1.1,1.3.4,13.8,4.4c10.6,3.4,21.6,6.9,32.3,10.5s21,5.8,30.5,6c14.1.3,27.8,4.1,41.1,7.8l3.1.9c6.9,1.9,13.1,6,19.1,10l5.4,3.5.7.4-7.2,4.6-14.7,9.5-10,6.8c-7.2,5-14.7,10.1-22.6,14.1-12.3,6.1-25.1,11.7-37.5,17l-19.8,8.7-2.7,1.2c-3.5,1.5-7.2,3.1-10.2,5.6h-.2c-6.5,1.2-13.2,1.3-19.6,1.3-3.8,0-7.8,0-11.7.3-8.4.6-17,1-25.3,1.3l-18.9.9c-12.5.7-25.2,1.2-37.4,1.6l-16.2.6h-1.9c-5.1,0-10.2.2-15.2.4l-7.8.3c-18.3.5-36.8.7-54.8.9l-31,.4c-6.7.1-13.5.4-20.1.7l-9.2.4-14.9,1.8h-2L329.5,299l-33.6,3.5-14.7,1.7-17.3,2h-1.3A145.5,145.5,0,0,1,247.6,307.5Z"/><path class="cls-2" d="M608.7,175.9c15.4,5,30.8,9.7,46,14.9,10,3.4,20,5.8,30.6,6,15.1.3,29.6,4.7,44,8.7,8.8,2.4,16.5,8.5,24.3,13.5l-21.2,13.7c-10.8,7-21.1,15.1-32.6,20.8-18.7,9.3-38.2,17.1-57.2,25.7-4.5,2-9.2,3.6-13,6.9-10.3,2-20.8.9-31.2,1.6-14.7,1-29.4,1.3-44.2,2.2-17.9,1-35.8,1.5-53.6,2.2-8.3-.1-16.6.4-24.9.6-28.6.8-57.2.8-85.8,1.3-9.8.2-19.6.7-29.4,1.1l-15,1.8h-2l-47.8,5c-10.7,1.2-21.3,2.7-32,3.8-8.7.9-17.4,1.9-26.3.3s-17.4-2.1-26.1-3.2l-43.8-5.6c-13-1.7-25.9-4-39-4.5l-2.3-.9c-21.7-6.6-43.4-13.3-65.2-19.6-16.4-4.8-32.9-9-49.4-13.4-2.6-5.8-5.2-11.7-7.9-17.5-.7-1.4-1-3.3-3-3.5-1-2.8.5-5.1,1.6-7.6s3-4.2,1.2-7.3,1.9-2.2,3.1-2.7l71.7-31.4c4.7-2.1,9.5-3.9,14.2-6.2a49.2,49.2,0,0,1,25.1-4.7c5.2,2.2,10.7.3,16,1.1-2.9,6.9-9.5,10.9-13.7,16.8a3.1,3.1,0,0,1-1.7.9c-9.1,2.4-18.2,5.1-27.4,6.9-3.7.7-5.2,2.5-5.9,5.6s-1.7,8.7-2.4,13.1c-.2,1.5-1.9,3,.1,4.5,15-1.1,30-2.3,45-3.2l28.2-1.9c16-1.1,32-2.7,47.9-3.8,11.9-.9,23.8-1.1,35.7-2.3,3.3-.3,7,.2,10.1-1.7,2.2,0,4.3,0,6.5.1s3.7-1,3.3-3.9c-1.8-11.3-3.2-22.7-4.9-34-3.9-26.1-7.9-52.1-11.6-78.3-.3-2.2-2.1-4.6-.3-7l32.1,41.3c1,1.3,1.4,3.6,3.8,3.3.1,2.3,1.9,3.8,3,5.6,2.6,4.6,7.4,7.6,9.2,12.7a4,4,0,0,0-2,2.1c-4.5,9.4-9.3,18.7-13.6,28.2s-10.2,18.1-13,28.6a49.3,49.3,0,0,0,7.8-1.9c8-2.1,15.5-5.6,23.8-7a6.1,6.1,0,0,0,3.1,3c.4,2.9,2.8,1.8,4.3,1.9h83.3c1.4,0,3,.5,4.2-1,5.7.1,10.5-3.6,16.1-4l46.1-.2c12.2,1,23.9,4.8,36,6.7s23.8,5.6,36,6.6c7.6.8,14.7-1.8,22-3.2l6.9.8c4.9.6,5.4.1,4-4.5q-24.2-79.7-48.4-159.3c-2.4-7.9-5.4-15.7-6.8-23.9a.5.5,0,0,0,.5-.4l51,86,8.7,14.5c-1.4,2.1-1,4.5-1,6.8.3,24.6.7,49.2.9,73.7,0,4.5,1.6,4.8,5.5,3.9,18.3-4.5,36.7-8.7,55-13.1,1.8-.4,4.6.6,5.1-2s-2.1-3.2-3.4-4.6C618.1,186.4,612.3,182.1,608.7,175.9Z"/><path class="cls-3" d="M332.1,626.8c-1.6,0-2.9-1.1-4.1-2.1L220.9,534a14.5,14.5,0,0,1-4-5.8L190.9,466,178,435.1l-5-12.3-2.6-6.3h.8c2,.2,2.7,1.6,3.3,2.9l.4.7,3.9,7.3,5.9,11.1,14.7,27,11.7,21.3,14,25.4c1.9,3.4,3.7,7,5.4,10.4a195.4,195.4,0,0,0,10,18.1,29.9,29.9,0,0,1,1.9,3.6c1.2,2.5,2.2,4.8,4.5,6.4h.1a1.9,1.9,0,0,0,1.4.8,4,4,0,0,0,2-.9l.8-.5,64.6-35.8,23.8-13.2c27.7-15.3,56.3-31.2,84.4-47l4.5-2.3c3.8-1.8,7.8-3.8,10.7-7.1h.1l.6-.4a2.5,2.5,0,0,0,.9-.7l6.9-10.9c10.4-16.5,21.1-33.6,31.4-50.6l1.7-2.5c1.8-2.5,3.7-5.2,3.5-8.5v-.5h1.7a6.6,6.6,0,0,0,3.2.9h.8l.2.2a5.3,5.3,0,0,0,3.1,1.8l11.9,3.6,28,8.5,21.9,7c13.3,4.3,27,8.7,40.6,12.6l6.7,2.1c5.8,1.8,11.9,3.8,18,4.5l1.4.2-1.2.7c-25,15.1-50.8,29.8-75.7,44-15.9,9.1-32.3,18.5-48.4,27.9l-1,.5c-1.5.8-2.9,1.6-3.5,3.3l-.2.5-.5-.2h-.8a5.3,5.3,0,0,0-2.5.9l-3.8,2.2-32,18.4-.6.3c-1.2.6-2.3,1.3-2.4,2.7v.5h-.7a3.6,3.6,0,0,0-2.5,1.4l-9.3,8.9L429,531c-18.8,18.3-37.8,37-56.1,55.1l-24.2,23.9-1.9,1.9a80.1,80.1,0,0,1-8.3,7.6l-.6.4c-2,1.5-4,3-3.8,5.8v.4h-.3A4.4,4.4,0,0,1,332.1,626.8Z"/><path class="cls-3" d="M620.3,412.1c-41,24.7-82.8,47.8-124.1,71.9-1.8,1.1-4,1.8-4.7,4.1-1.4-.5-2.6.2-3.8.8l-35.8,20.6c-1.3.8-3.1,1.4-3.3,3.4a3.9,3.9,0,0,0-3,1.5c-5.5,5.5-11.3,10.7-16.9,16.2-26.9,26.2-53.6,52.7-80.3,79.1a105.1,105.1,0,0,1-10.2,9.5c-2.1,1.6-4.8,3.3-4.5,6.7-2.2,1-3.7-.3-5.3-1.6L221.2,533.6a14,14,0,0,1-3.9-5.6q-19.4-46.5-38.9-93.1c-2.5-5.9-4.9-11.9-7.3-17.8,2.1.2,2.5,1.9,3.3,3.4l9.8,18.4,14.7,27,25.7,46.6c5.2,9.5,9.5,19.4,15.4,28.5,2.2,3.4,3,7.7,6.6,10.1,1.8,2.1,3.4.3,4.8-.5L316,514.8c36.1-20,72.2-40,108.1-60.2,5.2-2.9,11.2-4.7,15.3-9.5.5-.4,1.2-.7,1.6-1.2,12.8-20.5,25.7-40.9,38.3-61.5,2.2-3.5,5.5-6.7,5.3-11.4h1a6.7,6.7,0,0,0,4,1,5.7,5.7,0,0,0,3.4,2c13.3,4,26.6,7.9,39.9,12,20.8,6.5,41.5,13.6,62.5,19.6C603.6,407.9,611.7,411.1,620.3,412.1Z"/><path class="cls-4" d="M96.4,402.3c-1.6,0-2.8-.8-4-2.5L33.6,316,3.4,272.9a2,2,0,0,1-.3-.8v-.3H3c.1-4.2,2.7-6.9,5.2-9.4a29.2,29.2,0,0,0,3.1-3.5l.2-.3h.3l15.2,4.1c11.2,3,22.8,6.1,34.1,9.4,15.6,4.5,31.3,9.3,46.6,14l18.6,5.7,1.6.6.7.3h.2c11.7,12.7,24.4,24.8,36.6,36.6l6.3,6.1c8.2,7.9,16.3,16.1,24.2,24l7.6,7.6a5.9,5.9,0,0,1,1.1,1.8l.4.8.3.5-5.8,1.7L188.6,375l-31.2,9.1-55.4,16.1-1.5.2c-1.3,0-2,.1-2.3,1.3v.3h-.3Z"/><path class="cls-4" d="M11.7,258.9c16.5,4.5,33,8.7,49.4,13.4,21.8,6.3,43.5,13.1,65.2,19.6l2.3.9c13.7,14.9,28.4,28.7,43,42.7,10.8,10.3,21.2,21,31.7,31.6a10.5,10.5,0,0,1,1.4,2.5l-16.2,4.8-86.6,25.2c-1.4.4-3.6-.5-4.1,1.9-2.2.7-3.7-.2-5-2.1L3.8,272.6a3,3,0,0,1-.3-.9C3.7,265.7,8.9,263.1,11.7,258.9Z"/><path class="cls-1" d="M620.3,412.6c-6.3-.8-12.4-2.7-18.3-4.6l-6.7-2c-13.6-3.9-27.3-8.4-40.6-12.6l-21.9-7-28-8.5-11.9-3.6a6.2,6.2,0,0,1-3.6-2.1h-.1v-.2a3.3,3.3,0,0,1,2.4-2.9l3.8-1.4,13.5-5,18.5-6.4,22.7-7.9,18.4-6.7,18-6.5,27.1-9.5,23.1-8.1,43.9-15.7,4.8-1.7,1-.3c1.7-.5,2.8-.9,2.8-2.7v-.5h4.3v.6a16.3,16.3,0,0,1-2.7,5.9l-.4.5-15,23.5c-14.9,23.4-30.4,47.6-45.4,71.4l-1.5,2.1c-1.6,2.1-3.1,4-2.8,6.8l.2,2.2-1.1-1.8c-.2.1-.3.4-.4.9a.9.9,0,0,1,0,.6.9.9,0,0,1-.6.5h-.1c-.6,0-.8.2-.9.4a.5.5,0,0,1-.1.5h-.1l-1,1.4v-.9a1.6,1.6,0,0,0-.1.5,1,1,0,0,1-1.1,1Z"/><path class="cls-1" d="M620.3,412.1c-8.6-1.1-16.6-4.2-24.8-6.6-21-6-41.7-13.1-62.5-19.6-13.3-4.1-26.6-8-39.9-12a5.7,5.7,0,0,1-3.4-2,2.7,2.7,0,0,1,2.1-2.5c5.7-2.2,11.5-4.4,17.2-6.4l41.2-14.4,36.4-13.2,50.2-17.6,48.7-17.4c1.8-.6,4.1-.7,4.1-3.5h3.2c-.4,2.4-1.8,4.3-3,6.2q-30.3,47.5-60.5,94.9c-1.8,2.8-4.7,5.3-4.4,9.2l-.2-.3c-.9.2-1,.8-1.1,1.5a.4.4,0,0,1-.3.6c-.8,0-1.4.4-1.4,1.3h.1c-.9.1-1.2.6-1.3,1.4A.5.5,0,0,1,620.3,412.1Z"/><path class="cls-5" d="M256.8,214.7h-7.4v-.2c-.4-.6-.9-.7-1.8-.8H247l-33.8-5.3-45-7.3-8.4-1.4L138.5,196l-9.9-1.6,6.7-9.1,20.1-27.2.3-.5c1-1.3,1.8-2.4,1.4-4h0v-.8l.8-.2h.7a1.4,1.4,0,0,0,1-.3,1.3,1.3,0,0,0,.3-.8h-.6l.6-.7v-.3h.3l.7-.7v0h.1l.8-1.2h0v-.2c0-.2,0-.4.1-.6h.1c5-6.5,10.7-13.2,18.2-18.1,11.3-7.4,22.6-15.1,33.6-22.6l23.4-15.9.8-.7c.7-.7,1.5-1.6,2.5-1.6s1.7.7,2.3,2.2v.3l-.2.2c-1.2,1.5-.7,3-.1,4.6a12.4,12.4,0,0,1,.5,2c2.6,18.2,5.4,36.7,8.1,54.7l3.5,23.6c.7,4.7,1.4,9.5,2,14.2.9,6.5,1.9,13.2,2.9,19.7.3,1.7.1,2.8-.5,3.5A3.3,3.3,0,0,1,256.8,214.7Z"/><path class="cls-5" d="M242.6,91c-1.8,2.4,0,4.8.3,7,3.7,26.1,7.7,52.2,11.6,78.3,1.7,11.3,3.2,22.7,4.9,34,.5,2.9-.3,4.1-3.3,3.9s-4.3-.1-6.5-.1c-.6-1-1.6-.9-2.6-1.1l-33.8-5.3L159.8,199l-30.3-5,26.4-35.7c1.1-1.5,2.4-2.8,1.8-4.9V153h.4c1.6.2,2.6-.3,2.5-2.1h0c.7,0,1.1-.3,1.1-1h-.1c1.2-.3,1-1.3,1.1-2.1,5.3-6.8,10.8-13.2,18.1-18,19.1-12.6,38-25.7,57-38.5C239,90.5,240.8,86.9,242.6,91Z"/><path class="cls-4" d="M522.7,217.6a165,165,0,0,1-21.8-3.8c-4.7-1-9.5-2.1-14.3-2.8s-9.8-1.9-14.5-2.9a163.5,163.5,0,0,0-21.5-3.8h-.3V204c-1-2.9-3.5-3.9-6-4.8a21.3,21.3,0,0,1-3.2-1.5l-5.3-3.2a137,137,0,0,0-16.2-9h-.3V183q0-.5,0-1c0-.4.1-.7.1-1v-.4h.4c1.7-.3,2.1-1.5,2.7-3l.5-1.2,16.6-34.5,16.4-34.3,15.7-32.4,17.7-36.7a7.4,7.4,0,0,1,.7-1.1c.9-1.2,1.3-1.9.3-3.1l-.2-.3,1.7-3,3.5-6.2c.9-1.7,1.9-2.5,2.8-2.5s2,1,2.9,3l.2.4-1.5.8h-.1c-1.7.3-1.7,1.1-1.5,2.6a7.6,7.6,0,0,1,.1,1.3c-.2,5.6-.2,11.2-.3,16.7,0,7.2-.1,14.7-.6,22.1s-.6,17.3-.5,25.7,0,17-.5,25.5-.4,15.6-.3,23.2c.1,4.3.1,8.8.1,13.2s.3,6.9,2,9.7h.1c0,.3.1.7.1,1a4.4,4.4,0,0,0,.3,1.7l7.2,13.2c4,7.4,8.2,15,12.2,22.6.5,1,1.1,2,1.7,3,1.7,2.7,3.4,5.4,3.5,8.9v.6Z"/><path class="cls-4" d="M522.8,217.1c-12.2-1-24-4.7-36-6.6s-23.8-5.7-36-6.7c-1.6-4.4-6.2-4.6-9.5-6.6-7.1-4.2-14-8.9-21.5-12.3v-2q0-.5,0-1v-1c2.5-.4,2.7-2.7,3.6-4.4,11-22.9,22-45.9,33-68.8s22.3-46,33.4-69c.7-1.4,2.8-2.8,1-4.8l5.1-8.9c2-3.5,3.5-2.6,4.8.5l-1,.6c-3,.5-1.7,2.8-1.8,4.4-.5,12.9,0,25.8-.8,38.8-1.1,17,0,34.1-1.1,51.2-.8,12.1-.1,24.2-.2,36.4,0,3.5.2,6.9,2.1,9.9a9.3,9.3,0,0,0,.5,2.9c6.4,11.9,13.1,23.8,19.4,35.8C519.5,209.2,522.6,212.5,522.8,217.1Z"/><path class="cls-6" d="M246.3,551.4c-2.5-1.7-3.7-4.3-4.9-6.8a29.3,29.3,0,0,0-1.8-3.5,196.5,196.5,0,0,1-10-18.2c-1.7-3.4-3.5-6.9-5.4-10.3l-14-25.4L198.5,466l-14.7-27-5.9-11.1-3.9-7.3-.4-.8c-.6-1.2-1.1-2.2-2.5-2.4h-.3l-.4-.7a55.7,55.7,0,0,1-4.3-10.7v-.5h.5l1.5-.3a16.1,16.1,0,0,1,3.4-.6c23.6-.6,47.5-1.9,68.1-3.2l3.7.2c2.8,0,5.6-.3,8.3-.6a83.7,83.7,0,0,1,8.4-.6l3.9.2h.4v.4a120,120,0,0,1-1.3,16.4c-.3,2.3-.6,4.6-.8,6.9-1.3,12.7-2.7,25.3-4.2,37.5-1,8.7-2.2,17.5-3.2,26q-1.3,10.1-2.5,20.2-1.8,14.9-3.6,29.8L247,551.9Z"/><path class="cls-6" d="M246.6,551c-3.6-2.5-4.4-6.8-6.6-10.1-5.9-9.1-10.2-19-15.4-28.5l-25.7-46.6-14.7-27-9.8-18.4c-.8-1.4-1.2-3.2-3.3-3.4a57.6,57.6,0,0,1-4.5-11.1,29.5,29.5,0,0,1,4.9-.9c22.7-.6,45.4-1.8,68.1-3.2,8.1.9,16.1-1.7,24.2-.7.1,7.8-1.4,15.5-2.2,23.2q-1.9,18.8-4.2,37.5c-1.8,15.4-3.9,30.8-5.8,46.3S248.3,536.7,246.6,551Z"/><path class="cls-7" d="M243.3,402.6l-3.7-.2h-.3a2.7,2.7,0,0,0-2.2-.9H180.7l-49,.2h-1.1l-7.9-.2-7.9-.2-5.8.2h-3.3a3.5,3.5,0,0,0-2.6.9h-.2l-5.7-.3v-.6c.5-2,2.1-2.1,3.2-2.1h1.2l55.4-16.1,31.2-9.1,10.8-3.2,5.5-1.6,160.2.4h.1a8.3,8.3,0,0,0,4,.8H371l96.7.2H478l.2,2.7h-.5l-4.4.6-9.8,1.3-14.7,1.7-22.2,2.6L404,382.8l-19.1,2.6-26.2,3.3-23,2.9-6.4.8c-14.7,1.9-29.8,3.9-44.7,6.1l-4.6.6a57.6,57.6,0,0,0-12.2,2.3h-4l-3.9-.2c-2.8,0-5.6.3-8.3.6A83.7,83.7,0,0,1,243.3,402.6Z"/><path class="cls-7" d="M263.8,401.2c-8.1-.9-16.1,1.6-24.2.7-1.3-1.5-3.1-.9-4.7-.9-34.4,0-68.9-.2-103.3.2-7.6.1-15.2-.8-22.7-.2-2.1.2-4.3-.8-6.2.9l-4.9-.3c.6-2.4,2.7-1.4,4.1-1.9l86.6-25.2,16.2-4.8,160,.4c2,1.1,4.2.8,6.4.8l106.5.2V373c-4.7.7-9.4,1.4-14.2,2-12.3,1.5-24.6,2.7-36.9,4.3-13.9,1.8-27.8,3.9-41.7,5.7l-49.2,6.3c-17,2.2-34.1,4.4-51.1,6.9-5.6.8-11.4,1.1-16.9,2.9Z"/><path class="cls-8" d="M336,626.5h-2.8V626c-.3-3.4,2.2-5.3,4.2-6.7l.5-.4a79.4,79.4,0,0,0,8.2-7.5l2-1.9,24.2-23.9c18.3-18.1,37.3-36.9,56.1-55.2L436,523l9.3-8.9a4.4,4.4,0,0,1,3.2-1.7h.7v.4l.6,6.5c.5,4.7.9,9.5,1.3,14.3q.8,10,1.6,20.1c1.2,15.1,2.4,30.7,3.9,46,.1,1.2.1,2.4.1,3.6,0,2.8,0,5.7,1.5,8.2h.1c.1,3-2.1,3.3-4,3.4H454l-36.5,3.4-71.4,6.7-3.6.4A48.5,48.5,0,0,1,336,626.5Z"/><path class="cls-8" d="M333.7,625.9c-.3-3.4,2.4-5.1,4.5-6.7a105.1,105.1,0,0,0,10.2-9.5c26.8-26.4,53.4-52.9,80.3-79.1,5.6-5.4,11.4-10.7,16.9-16.2a3.9,3.9,0,0,1,3-1.5c.7,6.9,1.4,13.9,2,20.8,1.8,22,3.3,44.1,5.4,66.1.4,4-.5,8.2,1.6,12,.1,2.7-1.7,2.7-3.7,2.9L346.1,625C342,625.4,337.9,626.4,333.7,625.9Z"/><path class="cls-9" d="M689.6,297.5l-10.9-1.8c-8.4-1.3-17.1-2.7-25.6-4.5-2.6-.5-5.3-.9-7.9-1.3-5.2-.7-10.6-1.4-15.7-3.5l-.8-.3.6-.5c3.1-2.7,6.8-4.3,10.4-5.8l2.7-1.2,19.8-8.7c12.4-5.3,25.2-10.9,37.4-17,7.8-3.9,15.3-9,22.5-14l10.1-6.8,14.7-9.5,6.8-4.4.3.2,11.4,10,30.8,27.1c1.2,1.1,1.7,1.9,1.6,2.7s-1.2,1.5-2.2,2a5,5,0,0,0-1.5.9l-.3.3h0l-.3.2H793a7.8,7.8,0,0,0-2.2-.3c-2.3,0-4.4,1-6.5,2.1l-3.2,1.4-16,6c-12.6,4.7-25.6,9.6-38.5,14.3l-10.5,4.1c-7.5,3-15.2,6.1-23.2,7.9h-3.4Z"/><path class="cls-9" d="M692.9,297h-3.2c-12.2-2-24.4-3.8-36.4-6.2-7.8-1.6-16-1.7-23.5-4.7,3.8-3.3,8.5-4.9,13-6.9,19.1-8.6,38.6-16.3,57.2-25.7,11.5-5.7,21.7-13.8,32.6-20.8L753.7,219c14.1,12.4,28.2,24.7,42.2,37.1,3.8,3.4-.9,3.5-2.2,4.9l-.7-.5.2.8h-.1c-4.7-1.3-8.2,1.8-12.2,3.3-18.2,6.8-36.3,13.7-54.5,20.3C715.3,289.1,704.5,294.3,692.9,297Z"/><path d="M624.5,407.4c-.3-3.1,1.4-5.3,3-7.5l1.4-2c15.1-23.8,30.5-48,45.4-71.4l15-23.5.4-.6a15.4,15.4,0,0,0,2.6-5.5v-.3h.3c8-1.8,15.6-4.9,23-7.9l10.5-4.1c12.8-4.7,25.9-9.5,38.4-14.3l16-6,3.1-1.4c2.2-1.1,4.4-2.2,7-2.2a8.9,8.9,0,0,1,2.4.3l.9.3-.8.6-18.1,14.3c-13.3,10.6-27,21.5-41,31.6-26.4,19.2-50,42.4-72.7,64.7l-7.3,7.1c-6.5,6.4-13.2,12.8-19.7,19l-9.4,9-.8.7Z"/><path d="M692.9,297c11.7-2.7,22.4-7.9,33.6-12,18.2-6.6,36.3-13.5,54.5-20.3,3.9-1.5,7.5-4.6,12.2-3.3-19.6,15.3-38.9,31.3-59,45.9-29.2,21.2-54.4,46.8-80,71.9-9.6,9.4-19.4,18.7-29.1,28-.3-3.9,2.6-6.4,4.4-9.2q30.1-47.6,60.5-94.9C691.1,301.3,692.4,299.4,692.9,297Z"/><path class="cls-3" d="M563.4,212.3c-2.8,0-3.2-2.3-3.3-4.8-.1-17.2-.4-34.6-.6-51.5q-.2-11.1-.3-22.3c0-.3,0-.7,0-1-.1-2-.1-4.1,1.1-6l.3-.5,11.3,11.4,32.4,32.9,3.3,3.4,1.5,1.6h0c2.4,4.1,5.9,7.5,9.2,10.7,1.6,1.6,3.3,3.2,4.9,5l1.3,1.1c1.2,1,2.6,2.1,2.2,3.9s-2.4,2.3-3.9,2.3h-1.6l-22.6,5.4-32.4,7.8A12.1,12.1,0,0,1,563.4,212.3Z"/><path class="cls-3" d="M608.7,175.9c3.7,6.2,9.4,10.5,14.2,15.8,1.3,1.4,3.8,2.4,3.4,4.6s-3.3,1.6-5.1,2c-18.3,4.4-36.7,8.6-55,13.1-3.9.9-5.4.6-5.5-3.9-.2-24.6-.6-49.2-.9-73.7,0-2.3-.4-4.7,1-6.8l43.2,43.9Z"/><path class="cls-3" d="M296.6,207.4a6.6,6.6,0,0,1-3.4-3.2v-.3l2.1-10.1c1.6-7.6,3.2-15.5,5.2-23.2l.3-1c2.2-8.5,2.2-8.5-5.7-13.5a5.3,5.3,0,0,1-1.3-1.3l-.5-.6-.6-.7h.9c.8-.1,1.2-.3,1.5-1l3.2-9.2c5.1-14.6,10.3-29.7,15.5-44.6,7.7-22,16.9-48.1,26.5-74.9.4-1,.4-1.7.2-2.1s-.7-.6-1.5-.8h-.6l3-5.9,6.5-12.7C348.6.7,349.3,0,350,0s1.6,1.3,2.1,2.8l.2.4-.4.2c-.6.3-.6.6-.4,1.5L355,20.1l1.2,5.1-.3.2-.7.3-.7.3-2.3,6.5c-2.1,6-4.3,12.2-5.9,18.4-2.6,10-5.8,20.6-10,33.3V85a10.5,10.5,0,0,1-.3,1.7l-5,15.8c-6.6,20.8-13.4,42.4-20.2,63.5-1.3,4-2.5,8.1-3.7,12.1-2.9,9.6-6,19.5-9.7,29l-.2.5Z"/><path class="cls-3" d="M296.8,207a6.1,6.1,0,0,1-3.1-3c2.4-11.1,4.5-22.2,7.3-33.2s2.8-9.7-5.6-15a9.4,9.4,0,0,1-1.7-1.8,2,2,0,0,0,1.9-1.4q9.3-26.9,18.7-53.7,13.1-37.5,26.5-74.8c.8-2.1.4-3.1-1.7-3.6l9.2-18c1.7-3.4,2.6-1.8,3.4.5-.9.5-.8,1.2-.6,2,1.5,6.7,3,13.3,4.5,20-.6.3-1.5.5-1.6.9-2.8,8.3-6,16.5-8.2,25-2.9,11.2-6.3,22.3-10,33.2a18.9,18.9,0,0,1-.4,2.4q-12.5,39.6-25.1,79.3C305.9,179.6,302.1,193.5,296.8,207Z"/><path class="cls-7" d="M417.3,181.3v-.2L417,180a11.7,11.7,0,0,0-.6-2.2l-16.6-41.2L377.5,80.7c-4.4-11.1-8.9-22.4-13.2-33.4l-6-15.2-.3-.8h.8c2,.2,2.8,1.8,3.4,3l.3.6,15.2,26.7,15.1,26.5,3.8,6.8c3.3,5.9,6.6,12,10.5,17.6a12,12,0,0,0-1.5-3.6l-.5-1L386,71.1,362.5,25.6l-.3-.5a3,3,0,0,1-.6-2.4,2.4,2.4,0,0,1,1.6-1.4l.4-.2.2.4,13.1,20.9c10.7,17.2,21.8,35,32.8,52.4l4.1,6.8c4,6.7,8.1,13.5,13.5,19.3l.6.7c1.8,2,3.5,3.8,5.9,4.9h.3v.3c.3,2.6-1,4.4-2.3,6.1a18.7,18.7,0,0,0-1.4,2.1,42.8,42.8,0,0,1-2.4,3.8c-1.8,2.6-3.5,5.1-3.9,8.2-1,8-2,16.1-2.9,24l-1.1,9.7v1.7Z"/><path class="cls-7" d="M419.8,181v1l-1.9-1a23,23,0,0,0-.8-3.4q-19.5-48.5-39-97.1c-6.5-16.2-12.8-32.4-19.2-48.6,2,.2,2.6,2,3.4,3.4,10.1,17.7,20.1,35.5,30.3,53.2,4.9,8.6,9.4,17.5,15.1,25.6l.5.4-.3-.6c.1-2.3-1.2-4.1-2.2-6L363,25.4c-.6-1.2-2-2.7.4-3.6,15.3,24.5,30.5,49,45.9,73.4,5.6,8.9,10.4,18.4,17.7,26.2,2,2.1,3.9,4.4,6.7,5.7.4,3.4-2.2,5.4-3.6,7.9s-5.7,7.5-6.3,12.2C422.3,158.5,421.1,169.8,419.8,181Z"/><path d="M457.2,612.2c-1.6-2.8-1.6-5.8-1.6-8.7,0-1.2,0-2.4-.1-3.5-1.5-15.3-2.7-30.9-3.9-46q-.8-10-1.6-20.1c-.4-4.8-.9-9.6-1.3-14.3l-.6-6.5c.2-2.1,1.7-2.9,2.9-3.6l.6-.3,32.1-18.4,3.8-2.2a6.1,6.1,0,0,1,3-1l1.1.2h.5L457.8,613.2Z"/><path d="M457.7,612c-2.2-3.8-1.3-8-1.6-12-2.1-22-3.7-44.1-5.4-66.1-.6-7-1.3-13.9-2-20.8.2-2,1.9-2.7,3.3-3.4L487.7,489c1.2-.7,2.4-1.3,3.8-.8Z"/><path class="cls-1" d="M290.4,154.4v-.3c-1-2.8-3-5-5-7.2a30.9,30.9,0,0,1-4.2-5.4l-1.1-1.6a7.4,7.4,0,0,1-1.9-4.2h.1l6.7-13c5-9.7,10.1-19.6,15.3-29.4s11.9-22.6,17.8-33.6l7.8-14.7v-.2h.2a1,1,0,0,0,.9-1.1v-.2a.5.5,0,0,1,0-.5h.1l.7-.8h-.5l.7-1.1h.1l.7-1.1V40a1.4,1.4,0,0,0,.1-.8h0a.5.5,0,0,1,0-.5h.1l.8-1.2v.7a1.8,1.8,0,0,0,.1-.8h0a.5.5,0,0,1,0-.5h.1l.8-1.3v.7a2.3,2.3,0,0,0,.1-.7.5.5,0,0,1,0-.4h0l.9-1.9,1.1-1.8.6-1.6h.2c2.3-.7,3.2-2.2,3-5.2h-.1a.5.5,0,0,1,0-.5h.1l.8-1V23a1.4,1.4,0,0,0,.1-.8H338a.5.5,0,0,1,0-.4v-.2h.2l.5-.7-.6-1,1.1.3a3.1,3.1,0,0,1,2.2,1.3c.4.7.3,1.6-.2,2.9-9.6,26.8-18.7,52.9-26.5,74.8-5.2,14.8-10.4,29.9-15.5,44.5l-3.2,9.2a2.5,2.5,0,0,1-2.3,1.7h-3.4ZM327.9,42a1,1,0,0,0,.2-.5h-.2Z"/><path class="cls-1" d="M339.1,20.5c2.1.5,2.4,1.4,1.7,3.6q-13.3,37.4-26.5,74.8-9.4,26.8-18.7,53.7a2,2,0,0,1-1.9,1.4h-2.9c-1.9-5.1-6.6-8.1-9.2-12.7-1-1.8-2.9-3.3-3-5.6,7.3-14.2,14.6-28.4,22-42.5C309.1,77,317.7,61,326.2,44.9c1.2-.2,1.4-1.1,1.3-2.1h-.1c1.2-.3,1.2-1.1,1.1-2.1h-.1c1.1-.3,1.2-1.2,1.1-2.1h-.1c1.1-.3,1.2-1.2,1.1-2.1h-.1c1-.3,1.1-1.2,1.1-2.1h-.1l1-1.7V33l1-1.7.5-1.4c3.2-.9,3.6-3.3,3.4-6.1h-.1c1.2-.3,1.2-1.1,1.1-2.1h-.1c.7-.2,1-.6.7-1.3Z"/><path class="cls-10" d="M128.8,76.9a21.5,21.5,0,0,0-7.7,2.7L118.3,81c-.8.3-1.2.7-1.2,1.2s.6,1.7,1.7,2.5l1.1.8a12.4,12.4,0,0,1,4.3,4.4l.4.7h-.8c-6.1-.1-12.6-.6-18.3-4.4l-.3-.2v-.3c1.8-13.4,4.6-26.9,7.4-39.9l.6-3,5.7,3.1.2,4.1h-.3c-.5.2-.6.4-.6.4s.3.4.4.6l.4.6,2,3.7c2.5,4.5,5.1,9.1,7.7,13.6a7.5,7.5,0,0,1,.5,1.1c.3.9.6,1.7,1.6,2V63.9h.1a14.6,14.6,0,0,0,1.6-6.3,23.2,23.2,0,0,1,.7-4.5v-.5c.3-1,.6-2.3,2-2.6h.4c1.2,0,1.9,1,2.4,1.8l.3.4a18,18,0,0,1,2,3.8,15.6,15.6,0,0,0,2.9,4.9l4.8-23.6.6.4c2.5,1.6,4.6,3.4,4.2,6.7l1.6,3.2c1.2,2.5,2.5,5,4,7.4s1.4,2.5,2,3.8c1.4,2.8,2.6,5.5,5.1,7.6l.2.2v.2c-.1,3.2-2.5,3.9-4.4,4.4a9.9,9.9,0,0,0-2,.7l-2.1.9c-2.7,1.1-5,2.1-4.7,6,.2,1.8-1.9,2.6-2.6,2.9-3.2,1.2-6.4,2.7-9.4,4.1a101,101,0,0,1-13.9,5.7l-.8.2Z"/><path class="cls-10" d="M113.7,43.6l4.9,2.7.2,3.4c-1.7.7-.4,1.5,0,2.2,3.2,5.8,6.4,11.6,9.7,17.3.7,1.2.7,3.2,3,3.5V64.1c2-3.4,1.3-7.4,2.3-10.9.3-1.1.4-2.5,1.8-2.7s1.9,1,2.6,2c2.1,2.8,2.4,6.6,5.6,9.4L148.7,38c2.3,1.5,4.4,3.1,4,6.4,1.9,3.6,3.6,7.3,5.7,10.8s3.5,8.5,7.1,11.5c-.2,3.9-3.9,3.5-6.1,4.7s-7.5,2.2-7,7.5c.1,1.2-1.2,1.9-2.3,2.3-7.9,3-15.2,7.4-23.3,9.8l2.7-14.6c-4.4.2-7.7,2.6-11.2,4.1s-1.3,3.3.4,4.6,4.2,2.7,5.3,5c-6.4-.1-12.6-.7-18.1-4.3C107.7,71.6,110.7,57.6,113.7,43.6Z"/><path class="cls-3" d="M419.3,181l1.1-9.7c.9-7.9,1.8-16,2.9-24,.4-3.4,2.3-6.1,4-8.7a42.4,42.4,0,0,0,2.3-3.7,19.5,19.5,0,0,1,1.5-2.2c1.2-1.7,2.3-3.2,2.1-5.4v-.6h.6c1.5,0,2-1.1,2.5-2.3a9.3,9.3,0,0,1,.6-1.2L471.8,64l16.6-28a11,11,0,0,1,1.3-1.7l.6-.7.4-.4.4.4c1.7,1.8.6,3.3-.2,4.3l-.6,1L472.4,75.6,456.8,108l-16.4,34.3-16.6,34.5-.5,1.1c-.6,1.5-1.2,3.2-3.5,3.6h-.7Z"/><path class="cls-3" d="M419.8,181c1.3-11.3,2.6-22.5,4-33.8.6-4.8,4.1-8.2,6.3-12.2s4-4.6,3.6-7.9c2.5,0,2.6-2.3,3.5-3.7l51.7-87.1a19.9,19.9,0,0,1,1.9-2.3c1.8,2-.3,3.4-1,4.8-11.1,23-22.3,46-33.4,69s-22,45.9-33,68.8C422.5,178.3,422.3,180.6,419.8,181Z"/><path class="cls-11" d="M103.4,85.9v-.2c-2.7-3.8-6.5-6.4-10.2-8.9a74.1,74.1,0,0,1-6-4.5l-1.9-1.8c-1.9-2-3.8-3.8-6.7-3.9h-.2v-.2c-1.8-2-.6-3.7.3-5l.4-.5,5.8-8.7c2.4-3.5,4.8-7.1,7.1-10.7,1-1.6,1.9-2.5,3.7-2.5l1.5.2,5.1.9c3.9.6,8,1.3,11.8,3l.4.2-.6,2.8c-2.7,13-5.5,26.5-7.4,39.8v.5Z"/><path class="cls-11" d="M113.7,43.6c-2.9,14-5.9,28-7.9,42.2l-2.1-.4c-4.2-5.9-10.9-8.9-16.2-13.5-2.7-2.3-4.8-5.7-8.9-5.9-1.8-1.9-.2-3.5.7-4.9,4.3-6.5,8.7-12.9,12.9-19.4,1.2-1.9,2.2-2.6,4.7-2.1C102.5,40.9,108.3,41.1,113.7,43.6Z"/><path class="cls-9" d="M82.4,227.4c-1.8-1.3-1.1-2.8-.7-3.9a5.3,5.3,0,0,0,.4-1.1c.6-3.6,1.4-8.4,2.4-13.1s2.6-5.2,6.3-6c6.7-1.3,13.5-3.2,20.1-4.9l7.3-1.9a2.7,2.7,0,0,0,1.4-.7,51.6,51.6,0,0,1,5.8-6.5c3-3,6.1-6.2,7.9-10.3v-.3h.9c1-.1,1.6-.2,1.9-1.1h0l21.7-25,.2.9c.6,2.1-.5,3.5-1.5,4.9l-.3.4-20.4,27.6-6,8.1h-.1l-9.6,6.5c-7.7,5.2-15.7,10.6-23.4,16.2-1.5,1.1-3.2,2.1-4.7,3.1-3.2,2-6.5,4-9,7l-.3.4Z"/><path class="cls-9" d="M157.6,153.5c.6,2.1-.7,3.4-1.8,4.9L129.5,194c-11,7.6-22.2,14.9-32.9,22.8-4.6,3.4-10.1,5.7-13.8,10.2-2-1.5-.3-3-.1-4.5.7-4.4,1.5-8.8,2.4-13.1s2.2-4.9,5.9-5.6c9.2-1.8,18.3-4.5,27.4-6.9a3.1,3.1,0,0,0,1.7-.9c4.2-5.9,10.8-9.9,13.7-16.8,1.1-.2,2.4,0,2.9-1.5Z"/><path class="cls-11" d="M131.1,64.3a54.3,54.3,0,0,0-12.6-14.3h-.2l-.2-4.1h.5c3.3-.4,4.5-2.8,5.7-5.3l1.1-2c1.4-2.3,3.3-4.7,6.5-4.7a9.7,9.7,0,0,1,3.3.7,27.8,27.8,0,0,0,6,1.2,23.4,23.4,0,0,1,7.9,2l.3.2-5.1,24.9-.6-.6a14.8,14.8,0,0,1-3.8-5.9,17.4,17.4,0,0,0-1.9-3.6l-.3-.5c-.6-.8-1-1.3-1.6-1.3h-.2c-.8.1-1,.8-1.2,1.8v.5a22.5,22.5,0,0,0-.7,4.3,15.6,15.6,0,0,1-1.7,6.7l-.4.7Z"/><path class="cls-11" d="M118.7,49.7l-.2-3.4c4.5-.5,5.4-4.6,7.2-7.5s4.6-5.5,9.2-3.8,9.5.9,13.8,3.1l-4.9,23.7c-3.2-2.8-3.5-6.6-5.6-9.4-.7-.9-1.3-2.2-2.6-2s-1.5,1.7-1.8,2.7c-1.1,3.6-.3,7.5-2.3,10.9A55,55,0,0,0,118.7,49.7Z"/><path class="cls-12" d="M407.2,114.4a208,208,0,0,1-11.3-18.8L392,88.7,376.9,62.2,361.7,35.5l-.3-.6c-.6-1.2-1.2-2.3-2.7-2.5h-.4V32a10.4,10.4,0,0,0-1.8-4.4,20.3,20.3,0,0,1-1.3-2.4l-1.1-4.8L350.6,5.1c-.2-.8-.5-2,.9-2.6l.4-.2L364.1,22l-.6.2c-.6.2-.9.5-1,.8s.2,1,.5,1.6l.3.6,23.5,45.5,19.2,37,.5,1a10.1,10.1,0,0,1,1.7,5.3v.2l-.8.8Z"/><path class="cls-12" d="M363.4,21.8c-2.4.9-1,2.4-.4,3.6l42.7,82.5c1,1.9,2.3,3.7,2.2,6l-.2.2c-5.7-8.1-10.2-17-15.1-25.6C382.3,70.8,372.3,53,362.2,35.3c-.8-1.3-1.4-3.1-3.4-3.4-.3-2.7-2.1-4.6-3.2-6.9-1.5-6.7-3-13.3-4.5-20-.2-.9-.3-1.6.6-2Z"/><path d="M166.6,406.5a112.1,112.1,0,0,0-17.8-1.6l-6.9-.3L114,403l-12.5-.7.9-.8a4.6,4.6,0,0,1,3.3-1.2h3.2l5.9-.2,7.9.2,7.9.2h1.1l49.1-.2H237a3.7,3.7,0,0,1,3,1.2l.7.8h-1c-20.6,1.2-44.5,2.6-68.1,3.2a15.2,15.2,0,0,0-3.2.6l-1.6.4h-.2Z"/><path d="M102.7,401.9c1.9-1.7,4.1-.7,6.2-.9,7.6-.6,15.1.3,22.7.2,34.4-.4,68.9-.2,103.3-.2,1.6,0,3.4-.6,4.7.9-22.7,1.3-45.4,2.6-68.1,3.2a29.5,29.5,0,0,0-4.9.9c-8.2-1.6-16.5-1.4-24.7-1.9Z"/><path class="cls-10" d="M103.6,85.9l-4.3-.7L89,83.5a4.9,4.9,0,0,1-4.2-2.9L80,70.3l-2.3-4.7h.8c3.3.1,5.4,2.2,7.4,4.2l1.8,1.8A73.2,73.2,0,0,0,93.7,76c3.7,2.6,7.6,5.3,10.4,9.2l.7,1Z"/><path class="cls-10" d="M78.5,66.1c4.1.1,6.3,3.6,8.9,5.9,5.3,4.6,12,7.6,16.2,13.5L89.1,83a4.4,4.4,0,0,1-3.8-2.7C83.1,75.6,80.8,70.8,78.5,66.1Z"/><path class="cls-11" d="M123.5,90.6v-.2a11.4,11.4,0,0,0-4-4l-1.1-.8c-.7-.5-2.3-1.9-2.1-3.5a2.6,2.6,0,0,1,1.8-2l2.7-1.3c2.6-1.3,5.3-2.7,8.7-2.9h.6l-2.9,15.7Z"/><path class="cls-11" d="M123.9,90.2c-1.2-2.3-3.3-3.5-5.3-5s-3.2-3.4-.4-4.6,6.8-3.9,11.2-4.1L126.7,91Z"/><path class="cls-12" d="M165.1,67.1c-2.6-2.2-4-5.1-5.3-7.9-.6-1.3-1.2-2.5-1.9-3.7s-2.7-5-4-7.5l-1.7-3.3-1.1-2.1,2.4,1.9c7,5.6,14.3,11.4,12.4,22.3v.9Z"/><path class="cls-12" d="M165.5,66.7c-3.6-3-4.8-7.6-7.1-11.5s-3.8-7.2-5.7-10.8C159.9,50.1,167.3,55.7,165.5,66.7Z"/><path d="M124,179.7a15.9,15.9,0,0,1-6.5-1.2l-2.1-.9,21.9-.5-.2.7c-.5,1.6-1.7,1.7-2.8,1.8h-.7l-3.1-.2H124Z"/><path d="M136.6,177.6c-.4,1.5-1.7,1.4-2.9,1.5-5.3-.8-10.8,1.1-16-1.1Z"/><path class="cls-13" d="M337.5,23.7c.2,2.8-.2,5.2-3.4,6.1C335,27.7,335.8,25.5,337.5,23.7Z"/><path class="cls-9" d="M158.8,153.5H157l.7-.7.5-.7a2.6,2.6,0,0,1,2.2-1.5h.5v.5a2.6,2.6,0,0,1-.6,2A2.3,2.3,0,0,1,158.8,153.5Z"/><path class="cls-9" d="M160.6,150.9c.1,1.8-.9,2.3-2.5,2.1C158.9,152.2,159.2,150.8,160.6,150.9Z"/><path class="cls-9" d="M161.1,150.1a2,2,0,0,1,.9-2.4l.3-.3,1.1-1.1-.2,1.5v.5c0,.7-.1,1.8-1.4,2.1h-.4Z"/><path class="cls-9" d="M162.7,147.8c-.1.8.1,1.9-1.1,2.1S162.1,148.4,162.7,147.8Z"/><path class="cls-13" d="M331.6,34.8c0,.9-.1,1.7-1.1,2.1Z"/><path class="cls-13" d="M330.6,36.8c.1.9,0,1.8-1.1,2.1Z"/><path class="cls-13" d="M338.5,21.7c.1,1,.1,1.8-1.1,2.1Z"/><path class="cls-13" d="M329.5,38.8c.1.9,0,1.8-1.1,2.1Z"/><path class="cls-13" d="M327.5,42.7c.1,1,0,1.9-1.3,2.1Z"/><path class="cls-13" d="M328.5,40.8c.1,1,0,1.8-1.1,2.1Z"/><path class="cls-13" d="M333.6,31.3l-1,1.7Z"/><path class="cls-13" d="M332.5,33.3l-1,1.7Z"/><path class="cls-3" d="M620.3,411.6a1.8,1.8,0,0,1,1.7-1.8h1.3l-3.1,3.4Z"/><path class="cls-3" d="M620.8,411.6c.1-.8.4-1.3,1.3-1.4Z"/><path class="cls-3" d="M621.5,410.4a1.7,1.7,0,0,1,1.9-1.7h1.4l-3.4,3Z"/><path class="cls-3" d="M622,410.4c0-.9.6-1.2,1.4-1.3Z"/><path d="M623.2,408.5c.1-.7.3-1.7,1.5-1.9h.5v.5a1.8,1.8,0,0,1-1.4,2.1l-.8.3Z"/><path d="M623.7,408.6c.1-.7.3-1.4,1.1-1.5S624.4,408.3,623.7,408.6Z"/><path class="cls-13" d="M339.1,20.6c.3.7,0,1.1-.7,1.3Z"/><path class="cls-14" d="M500.6,25.6l.4.9a.5.5,0,0,1-.4.4l-.9-.8Z"/><path class="cls-14" d="M498.3,22.8l-.6-.4.3-.3.6.3Z"/><path class="cls-9" d="M160.1,151.4V151a1.6,1.6,0,0,1,.3-1.3,1.1,1.1,0,0,1,.9-.4h.9v.4a1.6,1.6,0,0,1-.4,1.2,1.4,1.4,0,0,1-1.1.4Z"/><path class="cls-9" d="M161.6,149.9c0,.7-.3,1.1-1.1,1S160.7,149.6,161.6,149.9Z"/><path class="cls-8" d="M456.4,371.6l-85.3-.2h-2.2a9.3,9.3,0,0,1-4.3-.8l-160.2-.4V370l-.4-.9a5.1,5.1,0,0,0-.9-1.5l-7.6-7.6c-7.9-7.9-16-16.1-24.2-24l-6.3-6.1c-12.3-11.7-24.9-23.9-36.6-36.6l-.8-.9h1.2a282.6,282.6,0,0,1,28.5,3.1l10.5,1.4,43.8,5.5,8.9,1c5.7.6,11.6,1.2,17.3,2.2a55.1,55.1,0,0,0,10,.8,144.5,144.5,0,0,0,14.9-1h1.3l17.3-2,14.8-1.8,33.5-3.5,14.4-1.5h.3l.2.3.3.6.3.6h.1c.2,0,.3-.1.4-.8v-.7l15.3-1.9,9.2-.4c6.6-.3,13.4-.6,20.2-.7l31-.4c18-.2,36.5-.4,54.8-.9l7.8-.3c5-.2,10.2-.4,15.3-.4h2.3v.5c-.3,8.9-2.3,17.6-4.2,26.1-.8,3.3-1.5,6.6-2.2,10l-2.5,12.3c-2,10-4.1,20.4-6.1,30.7v.4h-5.4l-3.1.2Z"/><path class="cls-8" d="M475.8,292.7c-28.6.8-57.2.8-85.8,1.3-9.8.2-19.6.7-29.4,1.1l-15,1.8c-.1.7-.1,1.7-1.2,1.5s-.6-.9-.8-1.4l-47.8,5c-10.7,1.2-21.3,2.7-32,3.8-8.7.9-17.4,1.9-26.3.3s-17.4-2.1-26.1-3.2l-43.8-5.6c-13-1.7-25.9-4-39-4.5,13.7,14.9,28.4,28.7,43,42.7,10.8,10.3,21.2,21,31.7,31.6a10.5,10.5,0,0,1,1.4,2.5l160,.4c2,1.1,4.2.8,6.4.8l106.5.2,3.1-.2h5c2.7-14.3,5.7-28.6,8.5-43,2.4-11.9,6.1-23.6,6.4-35.9C492.4,292,484.1,292.5,475.8,292.7Z"/><path class="cls-4" d="M489.1,372.5a7.6,7.6,0,0,1-3.6-1.1l-.3-.2v-.4c1.9-10.2,4-20.6,6.1-30.7l2.5-12.3c.7-3.3,1.5-6.7,2.2-10,1.9-8.4,4-17.1,4.2-25.9v-.5h.5l16.2-.6c12.3-.4,25-.9,37.5-1.6l18.9-.9c8.3-.3,16.9-.7,25.3-1.3,3.9-.3,7.9-.3,11.7-.3,6.4,0,13-.1,19.4-1.3h.3c5,2,10.3,2.7,15.4,3.4,2.6.4,5.4.7,8,1.3,8.5,1.7,17.1,3.1,25.5,4.5l10.9,1.8h.4v.4c0,2.7-2,3.2-3.5,3.7l-.9.3-4.8,1.7L637,318.4l-23.1,8.1L586.8,336l-18,6.5-18.4,6.7-22.7,7.9-18.5,6.4-13.5,5-3.8,1.4c-1.2.5-1.8,1.1-1.8,2v.4h-1.1Z"/><path class="cls-4" d="M485.7,371c2.7-14.3,5.7-28.6,8.5-43,2.4-11.9,6.1-23.6,6.4-35.9,17.9-.7,35.8-1.2,53.6-2.2,14.7-.9,29.5-1.1,44.2-2.2,10.4-.7,20.9.3,31.2-1.6,7.5,3.1,15.7,3.1,23.5,4.7,12.1,2.4,24.3,4.2,36.4,6.2,0,2.8-2.4,2.9-4.1,3.5l-48.7,17.4-50.2,17.6-36.4,13.2L509,363.1c-5.8,2-11.5,4.2-17.2,6.4a2.7,2.7,0,0,0-2.1,2.5A6.7,6.7,0,0,1,485.7,371Z"/><path class="cls-5" d="M386.2,209.5H298.9c-1.5,0-2.4-.8-2.6-2.5h0c3.7-9.5,6.7-19.4,9.7-29,1.2-4,2.5-8.1,3.7-12.1,6.8-21.2,13.6-42.7,20.2-63.5l5-15.7a9.7,9.7,0,0,0,.3-1.6V83.7h.9a2.3,2.3,0,0,1,1.9,1.2,2.5,2.5,0,0,0,.7.7h0l1.2,1.1-.3.3h.4a8.8,8.8,0,0,0,1,4.7v.3l9.6,23.4c5.8,14.2,11.8,28.9,17.8,43.3,2.2,5.4,4.4,10.8,6.5,16.1,4.3,10.9,8.8,22.1,13.9,32.9v.3l-.2.2A3.3,3.3,0,0,1,386.2,209.5Z"/><path class="cls-5" d="M296.8,207c5.3-13.4,9-27.4,13.4-41.1q12.7-39.6,25.1-79.3a18.7,18.7,0,0,0,.4-2.4c1.6-.4,1.8,1.3,2.7,1.8l1.2,1h0c-.3,1.9.5,3.6,1.2,5.3,9.1,22.2,18.2,44.5,27.4,66.7,6.8,16.4,12.9,33,20.4,49.1-1.1,1.5-2.7,1-4.2,1H301.2C299.6,208.8,297.3,209.9,296.8,207Z"/><path class="cls-5" d="M554.2,215.4l-2.6-.2-4.8-.6-2.3-.3h-.1c-14.7-15.4-30.1-30.8-47-47.1h-.1c-1.9-3-2.2-6.3-2.2-10.2s0-8.8-.1-13.1c-.1-7.6-.2-15.5.3-23.3s.5-17.1.5-25.4,0-17.2.5-25.8.5-14.8.6-22.1c0-5.5,0-11.1.3-16.7a6.7,6.7,0,0,0-.1-1.1c-.2-1.3-.4-3.3,2.3-3.7h.2l1.2,1.1v.2a119,119,0,0,0,4.7,17.3c.7,2.1,1.4,4.4,2.1,6.6,12.3,40.7,24.9,82.1,37,122.1l11.3,37.2c.7,2.4,1,3.8.4,4.6A2.7,2.7,0,0,1,554.2,215.4Z"/><path class="cls-5" d="M499.5,26.1l.9.8c1.4,8.2,4.4,16,6.8,23.9q24,79.7,48.4,159.3c1.4,4.6,1,5.1-4,4.5l-6.9-.8q-23-24.1-47-47.1c-1.9-3.1-2.1-6.4-2.1-9.9.1-12.1-.5-24.3.2-36.4,1.1-17.1-.1-34.2,1.1-51.2.9-13,.3-25.9.8-38.8C497.8,29,496.6,26.6,499.5,26.1Z"/><path class="cls-9" d="M388.3,208.5v-.3c-5-10.8-9.6-22.1-13.9-33-2.1-5.3-4.3-10.8-6.5-16.1-6-14.4-12-29.1-17.8-43.3l-9.6-23.4v-.3a9.6,9.6,0,0,1-1.1-5.2V86l.7.5.7.5a8.1,8.1,0,0,1,1.6,1.4l15.6,19.2,59.2,72.9h0a2.5,2.5,0,0,0,2.5,1.7h.5v2.7l-.2.2A89.1,89.1,0,0,0,409.7,197a13.7,13.7,0,0,1-1.9,2c-1.5,1.3-2.9,2.6-2.6,4.9v.5h-.5a26,26,0,0,0-7.3,2,24.2,24.2,0,0,1-8.5,2.1Z"/><path class="cls-9" d="M388.6,208c-7.5-16.1-13.6-32.7-20.4-49.1-9.2-22.2-18.3-44.5-27.4-66.7-.7-1.7-1.5-3.4-1.2-5.3a14.6,14.6,0,0,1,2.3,1.9l21,25.8L416.7,181a3,3,0,0,0,3,2v2a89.8,89.8,0,0,0-10.4,11.8c-1.7,2.3-5,3.6-4.6,7.2C399.1,204.3,394.4,208.1,388.6,208Z"/><path class="cls-1" d="M82.3,226.6c2.6-3.1,6-5.2,9.2-7.2,1.6-1,3.2-2,4.7-3.1,7.7-5.6,15.7-11,23.4-16.3l9.6-6.5h.2l9.1,1.5,21.4,3.5,8.5,1.4,44.9,7.3,33.8,5.3h.5a2.9,2.9,0,0,1,2.5,1.2l.3.4-.4.3c-2.4,1.5-5.1,1.6-7.7,1.6h-2.6c-7.1.7-14.4,1.1-21.5,1.5l-14.2.8-22.5,1.8-25.5,2-8.2.6-20,1.4c-13.6.8-27.5,1.9-40.8,2.9l-5.4.4Z"/><path class="cls-1" d="M82.7,227c3.8-4.5,9.2-6.8,13.8-10.2,10.8-7.9,21.9-15.2,32.9-22.8l30.3,5,53.4,8.7L247,213c1,.2,2,.1,2.6,1.1-3.1,1.9-6.8,1.4-10.1,1.7-11.9,1.2-23.8,1.4-35.7,2.3-16,1.2-32,2.7-47.9,3.8l-28.2,1.9C112.7,224.7,97.7,225.8,82.7,227Z"/><path class="cls-9" d="M261.6,212.7c1.9-7.1,5.2-13.4,8.4-19.5,1.6-3,3.2-6.1,4.6-9.2,2.8-6.2,5.9-12.4,8.9-18.5l4.8-9.7a4.4,4.4,0,0,1,2.3-2.3h3.4v.2l.5.6a4.6,4.6,0,0,0,1,1.1c8.3,5.2,8.4,5.5,6.1,14.6l-.3,1c-2,7.6-3.6,15.5-5.2,23.1l-2.1,10.1v.3h-.3a88.9,88.9,0,0,0-14.4,4c-3,1-6.2,2.1-9.3,2.9l-2,.6a32.8,32.8,0,0,1-5.9,1.3h-.7Z"/><path class="cls-9" d="M290.8,153.9h2.9a9.4,9.4,0,0,0,1.7,1.8c8.5,5.3,8.1,5.2,5.6,15s-4.9,22.1-7.3,33.2c-8.2,1.3-15.8,4.9-23.8,7a49.3,49.3,0,0,1-7.8,1.9c2.8-10.5,8.8-19.2,13-28.6s9.1-18.8,13.6-28.2A4,4,0,0,1,290.8,153.9Z"/><path class="cls-3" d="M525.6,217.7h-3.3v-.4c-.1-3.2-1.7-5.7-3.4-8.4-.6-1-1.2-2-1.8-3-4-7.6-8.1-15.2-12.2-22.6l-7.2-13.2a5.2,5.2,0,0,1-.5-2.1c0-.3,0-.6-.1-.9l-.2-1.5,1.1,1c16.9,16.3,32.3,31.7,47,47.1l.6.7-.9.2-5.6,1.2C534.8,216.7,530.3,217.7,525.6,217.7Z"/><path class="cls-3" d="M497.7,166.8q24,23.1,47,47.1c-7.3,1.4-14.4,3.9-22,3.2-.2-4.6-3.2-7.9-5.2-11.6-6.3-12-12.9-23.8-19.4-35.8A9.3,9.3,0,0,1,497.7,166.8Z"/><path class="cls-3" d="M404.2,204c-.3-2.8,1.4-4.4,2.9-5.8a12.8,12.8,0,0,0,1.8-1.8,90.1,90.1,0,0,1,10.5-11.8l.2-.2h.3a137.4,137.4,0,0,1,16.3,9.1l5.3,3.2a20.3,20.3,0,0,0,3.1,1.4c2.7,1,5.4,2.1,6.6,5.5l.2.7-47.2.2Z"/><path class="cls-3" d="M404.7,204c-.4-3.7,2.9-4.9,4.6-7.2A89.8,89.8,0,0,1,419.7,185c7.6,3.4,14.5,8,21.5,12.3,3.3,1.9,7.9,2.1,9.5,6.6Z"/><path class="cls-15" d="M344.8,299h-.3c-.5-.1-.7-.6-1-1.2l-.2-.5-.4-.7h3.5v.9C346,298,345.9,299,344.8,299Z"/><path class="cls-15" d="M345.7,297c-.1.7-.1,1.7-1.2,1.5s-.6-.9-.8-1.4Z"/><path class="cls-5" d="M248.4,552.5a2.8,2.8,0,0,1-2.2-1.2v-.2l1.5-13.1q1.8-15,3.6-30,1.2-10.1,2.5-20.2c1.1-8.5,2.2-17.4,3.2-26,1.5-12.2,2.9-24.8,4.2-37.5.2-2.3.5-4.7.8-6.9a119.1,119.1,0,0,0,1.3-16.2v-.5l4.5-.2h.1l1.3.6a14,14,0,0,0,2.7,1.1l31.8,8.1,31.8,8.1,24.3,6.3c15.7,4.1,31.9,8.4,47.9,12.3l9.5,2.5c7.2,2,14.7,4.1,22.4,4.9h1l-.6.7c-3,3.5-7.1,5.5-11,7.4l-4.4,2.3c-28.1,15.8-56.7,31.6-84.4,47l-23.7,13.2L251.7,551l-.8.5A4.7,4.7,0,0,1,248.4,552.5Z"/><path class="cls-5" d="M263.8,401.2h3.9a27.4,27.4,0,0,0,4,1.8l63.6,16.3c24.1,6.2,48.1,12.7,72.2,18.6,10.6,2.6,21,6.3,31.9,7.4-4.1,4.8-10.1,6.6-15.3,9.5-36,20.2-72.1,40.1-108.1,60.2l-64.6,35.8c-1.4.8-3,2.6-4.8.5,1.7-14.3,3.4-28.6,5.1-42.8s3.9-30.8,5.8-46.3q2.2-18.7,4.2-37.5C262.4,416.7,263.9,409,263.8,401.2Z"/><path class="cls-1" d="M439.4,445.6c-7.7-.8-15.3-2.9-22.6-4.9l-9.4-2.5c-16-3.9-32.3-8.2-48-12.3l-24.3-6.3-31.8-8.1-31.8-8.1a15,15,0,0,1-2.9-1.2l-1.3-.6-1.2-.5,1.2-.4a58.4,58.4,0,0,1,12.4-2.4l4.6-.6c14.9-2.2,30-4.2,44.7-6.1l6.4-.8,23-2.9,26.2-3.3,19-2.6,22.7-3.1,22.2-2.6,14.7-1.7,9.7-1.3,4.4-.6h.7c1.3,0,1.9-.2,1.9-1.5v-.5h5v.5c.2,3.7-1.8,6.5-3.7,9.2l-1.7,2.5c-10.4,16.9-21.1,34-31.5,50.6l-6.9,10.9a3.3,3.3,0,0,1-1.2,1l-.5.3h-.3Z"/><path class="cls-1" d="M439.5,445.1c-11-1.1-21.3-4.8-31.9-7.4-24.1-5.9-48.2-12.4-72.2-18.6l-63.6-16.3a27.4,27.4,0,0,1-4-1.8c5.5-1.9,11.3-2.1,16.9-2.9,17-2.5,34-4.7,51.1-6.9l49.2-6.3c13.9-1.8,27.8-3.9,41.7-5.7,12.3-1.6,24.6-2.8,36.9-4.3,4.7-.6,9.5-1.3,14.2-2,1.5,0,2.9.1,3-2h4c.2,4.7-3.2,7.9-5.3,11.4-12.6,20.6-25.5,41-38.3,61.5C440.7,444.4,440,444.7,439.5,445.1Z"/><path class="cls-3" d="M419.6,183.5a3.5,3.5,0,0,1-3.4-2.3l-.3-.7h1.9l2.3,1.2v.3q0,.5,0,1v.5Z"/><path class="cls-3" d="M419.7,183a3,3,0,0,1-3-2h1.1l1.9,1Q419.7,182.5,419.7,183Z"/><path class="cls-3" d="M478.2,373.5h-1l-.2-2.8,4.2-.2v.5C481.1,373.5,479.1,373.5,478.2,373.5Z"/><path class="cls-3" d="M480.7,371c-.1,2.1-1.6,2-3,2v-1.8Z"/><path class="cls-4" d="M357.2,108.4,341.5,89.2a7.3,7.3,0,0,0-1.4-1.2l-.7-.5h0l-1.1-1a3.4,3.4,0,0,1-.9-1c-.4-.5-.6-.8-1.1-.8h-.3l-.9.2.3-.9c4.3-12.7,7.4-23.2,10-33.2,1.6-6.3,3.8-12.5,5.9-18.5l2.3-6.6c.2-.5.8-.7,1.3-.9l.6-.2.5-.2.2.5a19.4,19.4,0,0,0,1.2,2.3,11.4,11.4,0,0,1,1.9,4.7l6,15.3c4.3,10.9,8.7,22.2,13.1,33.2l22.4,55.9,16.6,41.2a12.6,12.6,0,0,1,.6,2.4l.2,1.1v.6h-1.9Z"/><path class="cls-4" d="M417.8,181h-1.1l-53.8-66.3-21-25.8a14.6,14.6,0,0,0-2.3-1.9h0l-1.2-1c-.9-.5-1.1-2.2-2.7-1.8,3.7-11,7.1-22,10-33.2,2.2-8.5,5.3-16.7,8.2-25,.1-.4,1.1-.6,1.6-.9,1,2.3,2.9,4.3,3.2,6.9,6.4,16.2,12.7,32.4,19.2,48.6q19.4,48.6,39,97.1A23,23,0,0,1,417.8,181Z"/><polygon class="cls-12" points="406.8 114.2 407.9 113.1 409.7 116.1 406.8 114.2"/><path class="cls-12" d="M407.8,113.9l.3.6-.5-.4Z"/><path class="cls-12" d="M131.4,73.2c-2-.2-2.6-1.6-3-2.8l-.4-1c-2.6-4.5-5.2-9.2-7.7-13.7l-2-3.7-.3-.4a1.7,1.7,0,0,1-.6-1.4,1.8,1.8,0,0,1,1.1-1.1h.3l.2.2a55.3,55.3,0,0,1,12.9,14.5h.1v9.3Z"/><path class="cls-12" d="M118.7,49.7a55,55,0,0,1,12.8,14.4c0,2.8,0,5.6,0,8.6-2.3-.2-2.3-2.3-3-3.5-3.3-5.7-6.5-11.5-9.7-17.3C118.3,51.2,117,50.4,118.7,49.7Z"/><path class="cls-10" d="M633.5,109.4a17.9,17.9,0,0,1,6.4,2.3l2.3,1.1c.6.3,1,.6,1,1s-.5,1.4-1.5,2.1l-.9.7a10.3,10.3,0,0,0-3.6,3.7l-.3.6h.7c5.1,0,10.5-.5,15.3-3.7h.2v-.3c-1.5-11.2-3.9-22.4-6.2-33.3l-.5-2.5-4.8,2.6-.2,3.4h.3l.5.3c0,.1-.2.4-.3.5l-.4.5-1.7,3.1c-2.1,3.7-4.2,7.6-6.4,11.4l-.4.9c-.3.8-.5,1.4-1.3,1.7V98.5h-.1a12.2,12.2,0,0,1-1.3-5.3,19.4,19.4,0,0,0-.6-3.7V89c-.2-.8-.5-1.9-1.7-2.1h-.3c-1,0-1.6.8-2,1.5l-.3.4a15.1,15.1,0,0,0-1.7,3.1,13,13,0,0,1-2.4,4.1l-4-19.7-.5.3c-2,1.4-3.8,2.8-3.5,5.6l-1.4,2.7c-1,2.1-2.1,4.2-3.3,6.2s-1.1,2.1-1.6,3.2-2.2,4.6-4.2,6.3h-.2v.2c.1,2.7,2.1,3.2,3.7,3.7l1.6.6,1.7.8c2.3,1,4.2,1.8,3.9,5-.1,1.5,1.6,2.2,2.2,2.4,2.7,1,5.3,2.3,7.9,3.4a84.2,84.2,0,0,0,11.6,4.7l.7.2Z"/><path class="cls-10" d="M646.1,81.5,642,83.8l-.2,2.9c1.4.6.3,1.2,0,1.8-2.7,4.8-5.3,9.7-8.1,14.4-.6,1-.6,2.7-2.5,2.9V98.6c-1.7-2.8-1.1-6.1-2-9.1-.3-.9-.4-2.1-1.5-2.3s-1.6.9-2.2,1.6c-1.7,2.3-2,5.5-4.7,7.8l-4.1-19.8c-1.9,1.3-3.7,2.6-3.3,5.3-1.6,3-3,6.1-4.7,9s-2.9,7.1-5.9,9.6c.1,3.3,3.3,2.9,5.1,3.9s6.3,1.8,5.8,6.2c-.1,1,1,1.6,1.9,2,6.6,2.5,12.7,6.2,19.5,8.2L633,108.9c3.7.2,6.5,2.2,9.4,3.4s1.1,2.8-.3,3.8-3.5,2.2-4.4,4.2c5.3-.1,10.5-.6,15.1-3.6C651,104.9,648.5,93.2,646.1,81.5Z"/><path class="cls-11" d="M654.6,116.8h.1c2.2-3.1,5.4-5.3,8.5-7.5a61.8,61.8,0,0,0,5-3.7l1.6-1.5c1.6-1.6,3.2-3.2,5.6-3.3h.3c1.5-1.6.5-3.1-.2-4.1l-.3-.4-4.9-7.3-5.9-8.9c-.8-1.3-1.6-2.1-3.1-2.1l-1.3.2-4.3.7a37.4,37.4,0,0,0-9.8,2.5h-.3l.5,2.3c2.3,10.8,4.6,22.1,6.1,33.2v.4Z"/><path class="cls-11" d="M646.1,81.5c2.4,11.7,5,23.4,6.6,35.2l1.8-.3c3.5-4.9,9.1-7.4,13.5-11.3,2.2-1.9,4-4.8,7.5-4.9,1.5-1.6.2-2.9-.6-4.1-3.6-5.4-7.3-10.7-10.8-16.2-1-1.6-1.9-2.2-4-1.7C655.4,79.3,650.5,79.5,646.1,81.5Z"/><path class="cls-11" d="M631.6,98.9A45.3,45.3,0,0,1,642.1,87h.2l.2-3.4h-.4c-2.7-.3-3.7-2.3-4.8-4.4l-.9-1.7c-1.2-1.9-2.7-3.9-5.4-3.9a8.1,8.1,0,0,0-2.7.5,23.2,23.2,0,0,1-5,1,19.5,19.5,0,0,0-6.6,1.6h-.3l4.3,20.8.5-.5a12.4,12.4,0,0,0,3.2-4.9,14.5,14.5,0,0,1,1.6-3l.3-.4c.5-.7.8-1.1,1.3-1.1h.2c.6.1.8.7,1,1.5v.5a18.8,18.8,0,0,1,.6,3.6,13,13,0,0,0,1.4,5.6l.3.6Z"/><path class="cls-11" d="M641.8,86.6l.2-2.9c-3.7-.4-4.5-3.8-6-6.3s-3.9-4.6-7.7-3.2-7.9.8-11.5,2.6l4.1,19.8c2.7-2.3,2.9-5.5,4.7-7.8.6-.8,1.1-1.8,2.2-1.6s1.2,1.4,1.5,2.3c.9,3,.3,6.3,2,9.1A45.9,45.9,0,0,1,641.8,86.6Z"/><path class="cls-10" d="M654.5,116.9l3.6-.6,8.6-1.4a4.1,4.1,0,0,0,3.5-2.5l4.1-8.5,1.9-4h-.7c-2.8.1-4.5,1.8-6.2,3.5l-1.5,1.5a61,61,0,0,1-4.9,3.7c-3.1,2.2-6.3,4.4-8.7,7.7l-.6.8Z"/><path class="cls-10" d="M675.4,100.3c-3.5.1-5.2,3-7.5,4.9-4.5,3.8-10,6.3-13.5,11.3l12.1-2a3.7,3.7,0,0,0,3.2-2.2Z"/><path class="cls-11" d="M637.8,120.8v-.2a9.5,9.5,0,0,1,3.4-3.4l.9-.7c.6-.4,1.9-1.6,1.8-2.9a2.2,2.2,0,0,0-1.5-1.7l-2.2-1.1a17.6,17.6,0,0,0-7.3-2.4h-.5l2.4,13.1Z"/><path class="cls-11" d="M637.6,120.4c1-1.9,2.8-3,4.4-4.2s2.6-2.9.3-3.8-5.7-3.3-9.4-3.4l2.2,12.2Z"/><path class="cls-12" d="M603.1,101.2c2.2-1.8,3.3-4.2,4.4-6.6s1-2.1,1.6-3.1,2.3-4.2,3.3-6.2l1.4-2.8.9-1.7-2,1.6c-5.9,4.7-11.9,9.5-10.4,18.6v.7Z"/><path class="cls-12" d="M602.9,100.8c3-2.5,4-6.4,5.9-9.6s3.2-6,4.7-9C607.5,87,601.3,91.7,602.9,100.8Z"/><path class="cls-12" d="M631.2,106.2c1.7-.2,2.1-1.4,2.5-2.3l.3-.8c2.2-3.8,4.3-7.7,6.4-11.4l1.7-3.1.3-.3a1.4,1.4,0,0,0,.5-1.2,1.5,1.5,0,0,0-1-.9h-.4a46.1,46.1,0,0,0-10.7,12.1h-.1v7.8Z"/><path class="cls-12" d="M641.8,86.6a45.9,45.9,0,0,0-10.6,12c0,2.3,0,4.7,0,7.2,1.9-.2,1.9-1.9,2.5-2.9,2.8-4.8,5.4-9.6,8.1-14.4C642.2,87.9,643.3,87.2,641.8,86.6Z"/><path class="cls-16" d="M338.5,86l1.2,1Z"/><polygon class="cls-17" points="193.4 135.8 180.7 149.5 193.4 160.5 203.9 147.6 193.4 135.8"/><polygon class="cls-17" points="239.3 132.1 206.2 166.1 179.5 164 159.7 153.2 149.7 129.7 153.2 157.5 178.6 182.8 198.8 257.3 202 184.8 227 166.5 239.3 132.1"/><polygon class="cls-18" points="159.7 153.2 179.1 163.8 149.7 129.5 149.7 129.7 159.7 153.2"/><polygon class="cls-18" points="239.3 132.1 206.2 166.1 226.2 155.3 239.3 132.1"/><polygon class="cls-18" points="198.8 257.3 185.6 226 178.6 182.8 198.8 257.3"/><polygon class="cls-19" points="318.3 135.8 305.7 149.5 318.3 160.5 328.9 147.6 318.3 135.8"/><polygon class="cls-19" points="364.3 132.1 331.2 166.1 304.4 164 284.7 153.2 274.7 129.7 278.1 157.5 303.6 182.8 323.7 257.3 327 184.8 352 166.5 364.3 132.1"/><polygon class="cls-20" points="284.7 153.2 304.1 163.8 274.7 129.5 274.7 129.7 284.7 153.2"/><polygon class="cls-20" points="364.3 132.1 331.2 166.1 351.2 155.3 364.3 132.1"/><polygon class="cls-20" points="323.7 257.3 310.6 226 303.6 182.8 323.7 257.3"/><polygon class="cls-21" points="444.6 135.8 432 149.5 444.6 160.5 455.2 147.6 444.6 135.8"/><polygon class="cls-21" points="490.6 132.1 457.5 166.1 430.8 164 411 153.2 401 129.7 404.5 157.5 429.9 182.8 450.1 257.3 453.3 184.8 478.3 166.5 490.6 132.1"/><polygon class="cls-22" points="411 153.2 430.4 163.8 401 129.5 401 129.7 411 153.2"/><polygon class="cls-22" points="490.6 132.1 457.5 166.1 477.5 155.3 490.6 132.1"/><polygon class="cls-22" points="450.1 257.3 436.9 226 429.9 182.8 450.1 257.3"/><polygon class="cls-23" points="561.3 138.2 548.8 151.6 561.3 162.5 571.6 149.8 561.3 138.2"/><polygon class="cls-23" points="606.5 134.5 573.9 168 547.6 166 528.2 155.4 518.3 132.2 521.7 159.6 546.8 184.4 566.6 257.8 569.8 186.5 594.4 168.5 606.5 134.5"/><polygon class="cls-24" points="528.2 155.4 547.3 165.8 518.3 132 518.3 132.2 528.2 155.4"/><polygon class="cls-24" points="606.5 134.5 573.9 168 593.6 157.4 606.5 134.5"/><polygon class="cls-24" points="566.6 257.8 553.6 227 546.8 184.4 566.6 257.8"/></g></g></svg>