<?xml version="1.0" encoding="UTF-8"?>
<svg width="168px" height="54px" viewBox="0 0 168 54" version="1.1" xmlns="http://www.w3.org/2000/svg" xmlns:xlink="http://www.w3.org/1999/xlink">
    <!-- Generator: Sketch 47.1 (45422) - http://www.bohemiancoding.com/sketch -->
    <title>novo_logo</title>
    <desc>Created with Sketch.</desc>
    <defs>
        <polygon id="path-1" points="51.875 0.4806 51.875 53.5036 0.6093 53.5036 0.6093 0.4806 51.875 0.4806"></polygon>
    </defs>
    <g id="Symbols" stroke="none" stroke-width="1" fill="none" fill-rule="evenodd">
        <g id="novo_logo">
            <g id="Page-1" transform="translate(0.000000, -1.000000)">
                <path d="M68.1313,1.6889 C58.6373,1.6889 50.3133,6.6829 45.6313,14.1839 C47.3513,17.5069 48.3303,21.2769 48.3303,25.2779 C48.3303,25.3419 48.3203,25.4029 48.3203,25.4659 L48.3303,25.4659 L48.3303,45.8219 C53.1853,51.2739 60.2553,54.7129 68.1313,54.7129 C79.6043,54.7129 89.3733,47.4239 93.0643,37.2259 L82.4033,5.8639 C78.2823,3.2249 73.3873,1.6889 68.1313,1.6889" id="Fill-1" fill="#AEB6AF"></path>
                <g id="Group-5" transform="translate(116.000000, 0.752300)">
                    <mask id="mask-2" fill="white">
                        <use xlink:href="#path-1"></use>
                    </mask>
                    <g id="Clip-4"></g>
                    <path d="M25.3633,0.4806 C20.2913,0.4806 15.5533,1.9066 11.5243,4.3766 L0.6093,36.4856 C4.4283,46.4376 14.0683,53.5036 25.3633,53.5036 C40.0053,53.5036 51.8753,41.6346 51.8753,26.9926 C51.8753,12.3506 40.0053,0.4806 25.3633,0.4806" id="Fill-3" fill="#73B6D7" mask="url(#mask-2)"></path>
                </g>
                <g id="Group-8" transform="translate(0.000000, 0.752300)" fill="#008EDA">
                    <path d="M45.6309,13.4313 C41.6099,5.6693 33.5099,0.3603 24.1649,0.3603 C10.8189,0.3603 -0.0001,11.1793 -0.0001,24.5253 C-0.0001,24.5893 0.0089,24.6503 0.0099,24.7143 L-0.0001,24.7143 L-0.0001,53.9993 L48.3299,53.9993 L48.3299,45.0703 C44.1579,40.3853 41.6199,34.2143 41.6199,27.4483 C41.6199,22.3003 43.0919,17.4983 45.6309,13.4313" id="Fill-6"></path>
                </g>
                <path d="M48.3203,25.4663 C48.3203,25.4033 48.3303,25.3413 48.3303,25.2783 C48.3303,21.2773 47.3513,17.5073 45.6313,14.1833 C43.0913,18.2513 41.6193,23.0523 41.6193,28.2003 C41.6193,34.9663 44.1583,41.1373 48.3303,45.8223 L48.3303,25.4663 L48.3203,25.4663 Z" id="Fill-9" fill="#AEB6AF"></path>
                <path d="M48.3203,25.4663 C48.3203,25.4033 48.3303,25.3413 48.3303,25.2783 C48.3303,21.2773 47.3513,17.5073 45.6313,14.1833 C43.0913,18.2513 41.6193,23.0523 41.6193,28.2003 C41.6193,34.9663 44.1583,41.1373 48.3303,45.8223 L48.3303,25.4663 L48.3203,25.4663 Z" id="Fill-11" fill="#288BBF"></path>
                <path d="M127.5244,5.1294 L128.9284,1.0004 L80.7504,1.0004 L82.4034,5.8634 C89.7614,10.5754 94.6424,18.8154 94.6424,28.2004 C94.6424,31.3704 94.0854,34.4084 93.0644,37.2254 L97.3904,49.9504 C98.5624,53.3334 101.5294,54.7134 104.8384,54.7134 C108.1484,54.7134 111.1254,53.3334 112.2884,49.9504 L116.6094,37.2384 C115.4774,34.2904 114.8514,31.0904 114.8514,27.7444 C114.8514,18.1744 119.9234,9.7904 127.5244,5.1294" id="Fill-13" fill="#DD6E8C"></path>
                <path d="M82.4033,5.8638 L93.0643,37.2258 C94.0853,34.4078 94.6423,31.3698 94.6423,28.2008 C94.6423,18.8158 89.7613,10.5748 82.4033,5.8638" id="Fill-15" fill="#AEB6AF"></path>
                <path d="M82.4033,5.8638 L93.0643,37.2258 C94.0853,34.4078 94.6423,31.3698 94.6423,28.2008 C94.6423,18.8158 89.7613,10.5748 82.4033,5.8638" id="Fill-17" fill="#DD6E8C"></path>
                <path d="M114.8516,27.7446 C114.8516,31.0906 115.4776,34.2896 116.6096,37.2386 L127.5246,5.1296 C119.9236,9.7906 114.8516,18.1746 114.8516,27.7446" id="Fill-19" fill="#73B6D7"></path>
                <path d="M114.8516,27.7446 C114.8516,31.0906 115.4776,34.2896 116.6096,37.2386 L127.5246,5.1296 C119.9236,9.7906 114.8516,18.1746 114.8516,27.7446" id="Fill-21" fill="#DD6E8C"></path>
            </g>
        </g>
    </g>
</svg>