<?xml version="1.0" encoding="UTF-8"?>
<svg width="36px" height="36px" viewBox="0 0 36 36" version="1.1" xmlns="http://www.w3.org/2000/svg" xmlns:xlink="http://www.w3.org/1999/xlink">
    <!-- Generator: Sketch 48.2 (47327) - http://www.bohemiancoding.com/sketch -->
    <title>social/pinterest/normal</title>
    <desc>Created with Sketch.</desc>
    <defs></defs>
    <g id="Symbols" stroke="none" stroke-width="1" fill="none" fill-rule="evenodd">
        <g id="social/pinterest/normal">
            <g id="Group-2-Copy">
                <g id="Group-16-Copy" fill="#3C4043">
                    <g id="Group-12-Copy-2">
                        <rect id="Rectangle-10-Copy-11" x="0" y="0" width="36" height="36" rx="2"></rect>
                    </g>
                </g>
                <path d="M18.4870586,8.75675676 C13.1138816,8.75675676 8.75675676,13.1127374 8.75675676,18.4870586 C8.75675676,22.470029 11.1527177,25.8934842 14.5818939,27.3981111 C14.5544331,26.7195988 14.5773171,25.9026379 14.7500918,25.1634828 C14.9377411,24.3739827 16.0018498,19.8623905 16.0018498,19.8623905 C16.0018498,19.8623905 15.6917708,19.2410883 15.6917708,18.3222934 C15.6917708,16.8805977 16.5281831,15.8039027 17.5682636,15.8039027 C18.4527325,15.8039027 18.8806644,16.4686846 18.8806644,17.2650498 C18.8806644,18.1540955 18.3131397,19.4848036 18.021368,20.7171101 C17.7776528,21.7503254 18.5385477,22.5913145 19.5568883,22.5913145 C21.4001993,22.5913145 22.6416595,20.2239587 22.6416595,17.418373 C22.6416595,15.286723 21.2056848,13.6905598 18.5934695,13.6905598 C15.6425701,13.6905598 13.8038359,15.8908621 13.8038359,18.34861 C13.8038359,19.1976086 14.0532722,19.7948826 14.4445896,20.2571405 C14.6253737,20.4711065 14.6494019,20.5557775 14.5841823,20.8006369 C14.5384142,20.9779884 14.4308592,21.4104971 14.3862352,21.5809833 C14.3210157,21.826987 14.1219244,21.9162348 13.899949,21.8246986 C12.5394917,21.2697601 11.9067475,19.7811521 11.9067475,18.1071832 C11.9067475,15.3439331 14.2374889,12.028033 18.8600687,12.028033 C22.5752957,12.028033 25.0204574,14.7180541 25.0204574,17.6025897 C25.0204574,21.4196507 22.8991051,24.2710045 19.7697101,24.2710045 C18.720476,24.2710045 17.7318846,23.7034798 17.3932006,23.0592936 C17.3932006,23.0592936 16.8279643,25.3007871 16.7089672,25.7332958 C16.5030107,26.4827488 16.099107,27.2333459 15.7295295,27.8168894 C16.6048447,28.0754793 17.5293607,28.2162162 18.4870586,28.2162162 C23.8602356,28.2162162 28.2162162,23.8602356 28.2162162,18.4870586 C28.2162162,13.1127374 23.8602356,8.75675676 18.4870586,8.75675676" id="Pinterest" fill="#BEC9D0"></path>
            </g>
        </g>
    </g>
</svg>