<svg xmlns="http://www.w3.org/2000/svg" width="1700.4" height="521.8" viewBox="0 0 1700.4 521.8"><defs><style>.cls-1{fill:#d2d2d2;}.cls-2{fill:#e0e0e0;}.cls-3{fill:#e8e8e8;}.cls-4{fill:#d7d7d7;}.cls-5{fill:#ddd;}.cls-6{fill:#e5e5e5;}.cls-7{fill:#bbb;}.cls-8{fill:#c7c7c7;}.cls-9{fill:#cbcbcb;}.cls-10{fill:#f6f6f6;}.cls-11{fill:#c1c1c1;}.cls-12{fill:#efefef;}.cls-13{fill:#fbfbfb;}</style></defs><title>rocks_3</title><g id="Layer_2" data-name="Layer 2"><g id="Layer_2-2" data-name="Layer 2"><path class="cls-1" d="M819.8,164c3.7,2.7-.3,3.9-1.3,5.2q-31.6,37.2-63.3,74.3c-6.8,8-14,15.7-20.3,24-3.6,4.7-6.9,6.3-12,3a39.9,39.9,0,0,0-5.2-2.5c2.3-1.5,5.7,2,6.9-.6s-2.8-4.2-4.1-6.6a41.6,41.6,0,0,0-2.5-3.7c-8.2-11.6-16.5-23.1-24.7-34.7s-15.1-22-22.7-33l1.3-1.3c11.3-.2,22.3-2.9,33.4-4.4,27.3-3.8,54.5-8.3,81.6-13.1C797.8,168.5,809.2,168.4,819.8,164Z"/><path class="cls-2" d="M819.8,164c-10.5,4.5-22,4.6-33,6.5-27.1,4.8-54.3,9.3-81.6,13.1-11.1,1.6-22.1,4.3-33.4,4.4.2-1.7,0-3.7.8-4.9,6.5-9.8,11.4-20.4,17.1-30.6,8.1-14.5,16-29,24.3-43.3,2.5-4.3,1.6-6.2-2.8-7.4,5.3-2.9,9.7-1.8,14.7,1.5,29.8,19.4,59.8,38.5,89.7,57.7C817.1,161.9,818.4,163,819.8,164Z"/><path class="cls-3" d="M711.3,101.8c4.3,1.2,5.3,3.1,2.8,7.4-8.3,14.3-16.3,28.9-24.3,43.3-5.7,10.2-10.6,20.8-17.1,30.6-.8,1.3-.6,3.3-.8,4.9l-1.3,1.3h-3.8c-.1-2.1-1.7-2.9-3.3-3.4-11.6-4.1-22.6-9.7-33.9-14.4l-55.2-22.8c-2.7-1.1-5.5-2.4-5.9-6L702,104.2Z"/><path class="cls-4" d="M666.7,189.4h3.8c7.5,11,15,22.1,22.7,33s16.4,23.1,24.7,34.7a41.6,41.6,0,0,1,2.5,3.7c1.3,2.3,5.5,3.5,4.1,6.6s-4.6-.9-6.9.6h-.2c-1.1-3-3.6-3.1-6.2-2.6H711c-1.1-3-3.6-3-6.2-2.6h-.3c-.9-1.5-1.5-3.9-3.9-1.5l-86.2-33.9c-2.3-.9-5.2-1-6.2-4a18.1,18.1,0,0,0,9.5-3c14.1-8.6,28.5-16.8,42.5-25.5C662.6,193.5,666.2,193.1,666.7,189.4Z"/><path class="cls-2" d="M666.7,189.4c-.5,3.7-4.2,4.1-6.5,5.5-14.1,8.7-28.4,16.8-42.5,25.5a18.1,18.1,0,0,1-9.5,3l-44.6-79.5,4.8-1.2c.4,3.5,3.2,4.8,5.9,6l55.2,22.8c11.3,4.7,22.3,10.4,33.9,14.4C665.1,186.5,666.7,187.2,666.7,189.4Z"/><path class="cls-1" d="M704.8,262.7c2.6-.4,5-.4,6.2,2.6A11.8,11.8,0,0,1,704.8,262.7Z"/><path class="cls-1" d="M711.2,265.3c2.6-.5,5-.4,6.2,2.6A12.1,12.1,0,0,1,711.2,265.3Z"/><path class="cls-1" d="M700.6,261.2c2.4-2.5,3,0,3.9,1.5Z"/><path class="cls-5" d="M1160.3,137.6h5.1c4.1,2.9,2.2,7.4,2.9,11.2,3.7,22.1,4.1,44.5,6.7,66.7,1.2,10.5,2.5,21,3.8,31.6-.1,3.6.5,7.5-4.9,7.6-7.2-8.4-17.3-13-26.1-19.1-19.4-13.5-39.4-25.9-58.9-39.2-2.7-1.9-7-2.6-8-6.8.5-.7.9-1.6,1.6-2,19.5-11.7,39.1-23.1,58.4-35,6.7-4.1,14.9-6.3,19.5-13.6Z"/><path class="cls-4" d="M1080.9,189.6c1,4.2,5.2,4.9,8,6.8,19.5,13.3,39.6,25.8,58.9,39.2,8.8,6.1,18.9,10.7,26.1,19.1-5.2,2.6-10.8.6-16.1,1.3-2.1.3-4.9-1.1-5.7,2.3L1125,260c-6.1-1.4-12.1-3-17.9.9l-52.3,3.5c-2.6.2-3.4-1-3.4-3.3a19.7,19.7,0,0,0,3.8-6.5c2.7-7.4,5.6-14.7,8.3-22.1,5.1-14.2,10.7-28.3,14.8-42.9Z"/><path class="cls-6" d="M1080.9,189.6h-2.6c-8.2-7.1-17.3-12.9-26-19.2l-39.1-28a12.8,12.8,0,0,1,6.4-1.3l64.7-.4c2.4,0,5.3,1,6.7-2.2h3.4c1,2.4,2,2.5,2.9,0q24.4-1.2,48.8-.6c4.5,2.8,9.5.5,14.2,1.2-4.5,7.3-12.8,9.4-19.5,13.6-19.3,11.9-38.9,23.4-58.4,35C1081.8,188,1081.4,188.9,1080.9,189.6Z"/><path class="cls-5" d="M1091.1,138.5c-1.4,3.2-4.4,2.1-6.7,2.2l-64.7.4a12.8,12.8,0,0,0-6.4,1.3l39.1,28c8.8,6.3,17.8,12.2,26,19.2-4.1,14.6-9.7,28.7-14.8,42.9-2.7,7.4-5.6,14.7-8.3,22.1a19.7,19.7,0,0,1-3.8,6.5l-25.9-73.8c-5-14.3-9.9-28.7-14.9-43-.8-2.4-2.7-4.9,2.2-4.9Z"/><path class="cls-7" d="M1178.8,247.1c-1.3-10.5-2.6-21-3.8-31.6-2.6-22.2-3-44.6-6.7-66.7-.6-3.8,1.3-8.3-2.9-11.2,12-.6,23.8,2.1,35.8,2.5,3.5.1,2.8,2,2.3,4.3-3.3,14.8-6.6,29.7-9.9,44.5-4.8,5.9-4,13.4-5.9,20.1C1184.4,221.6,1183.2,234.7,1178.8,247.1Z"/><path class="cls-8" d="M1178.8,247.1c4.4-12.4,5.6-25.5,9.1-38.1,1.8-6.7,1.1-14.2,5.9-20.1q-6.8,32-13.6,64c-.6,2.8-1.6,4.4-5,4.4-7.7.1-15.4.7-23.1,1,.8-3.4,3.6-2.1,5.7-2.3,5.3-.7,10.9,1.3,16.1-1.3C1179.3,254.6,1178.7,250.7,1178.8,247.1Z"/><path class="cls-7" d="M1107.1,260.9c5.8-3.9,11.8-2.4,17.9-.9Z"/><path class="cls-9" d="M1160.3,139c-4.7-.7-9.7,1.5-14.2-1.2h14.2Z"/><path class="cls-5" d="M1097.4,138.3c-.9,2.5-1.9,2.4-2.9,0Z"/><path class="cls-10" d="M935.1,13c-1.7-.3-2.2-1.8-3.8-3.9l27.6-2,88.9-6a16,16,0,0,1-1.8,3.3l-33.5,37.8c-3.5,4-7.3,7.7-9.7,12.6l-2.2.6a33.2,33.2,0,0,1-5.2-2.4L943.3,17.2c-2-1.4-3.8-3.6-6.7-2.3v-.4h.4C936.8,13.3,936,13.1,935.1,13Z"/><path class="cls-1" d="M1002.7,54.7c2.4-4.8,6.2-8.6,9.7-12.6L1046,4.3a16,16,0,0,0,1.8-3.3c2.5-.9,3.4,1.2,4.6,2.6,7,7.8,13.8,15.8,20.9,23.5,2.4,2.6,2.3,4.3-1,5.6l-.8-.5.2,1-.3-.3.2.3c-6.5-1-11.9,2.4-17.6,4.3C1036.8,43.1,1019.8,49,1002.7,54.7Z"/><path class="cls-7" d="M1002.7,54.7c17.1-5.7,34.1-11.6,51.2-17.1,5.7-1.9,11.2-5.3,17.6-4.3q-32.5,27.6-65,55.2c-2.7,2.3-4,1.3-5.4-1.1,3.5-2.9,1.8-6.6,1.5-10-.7-7.3-2.8-14.5-2-22Z"/><path class="cls-1" d="M1000.6,55.4c-.7,7.5,1.3,14.7,2,22,.3,3.4,2,7.1-1.5,10-21.9-23.9-43.5-48-64.6-72.5,3-1.3,4.7,1,6.7,2.3L995.4,53A33.2,33.2,0,0,0,1000.6,55.4Z"/><path class="cls-1" d="M935.1,13c.9.1,1.7.4,2,1.4C935.7,14.8,935.4,13.9,935.1,13Z"/><path class="cls-7" d="M1071.6,33.2l-.2-1,.8.5A.6.6,0,0,1,1071.6,33.2Z"/><path class="cls-3" d="M1492,51.1c-.2,1.7-1.5,2.4-2.8,3.2l-53.2,33.5c-2.2,1.4-3.7,2.2-5.9-.3-15.9-17.7-32-35.2-48-52.7-.6-.6-1.1-1.3-.6-2.2,18.8,1.9,37.3,5.9,55.9,9S1473.8,47.9,1492,51.1Z"/><path class="cls-1" d="M1459.2.9c16.9-1.9,16.9-1.9,22.2,14,3.1,9.1,6.2,18.2,9.2,27.4.6,2,2,3.9,1,6.1-1.2-.2-2.9-.1-3.6-.8-7.4-7.1-16.6-11.9-24.3-18.5-2.5-2.2-5.1-5.1-8.7-4.8-9.9.8-19.8,2-29.7,3l-36.7,3.6a3.5,3.5,0,0,1,2.8-3.2l25.4-8.5,46.4-15.4Z"/><path class="cls-2" d="M1459.2.9l4,2.9-46.4,15.4-25.4,8.5a3.5,3.5,0,0,0-2.8,3.2l-7.5.7.2-.5.5.2h-2.6L1360.7,6.1,1454.1,1c.5.7.9.7,1.3-.1Z"/><path class="cls-11" d="M1381.1,31.5l7.5-.7,36.7-3.6c9.9-1,19.8-2.2,29.7-3,3.6-.3,6.2,2.6,8.7,4.8,7.7,6.7,16.9,11.5,24.3,18.5.8.7,2.4.6,3.6.8-.7,1,3.3,1.4.4,2.7-18.2-3.2-36.4-6.5-54.6-9.5s-37.1-7.1-55.9-9A.9.9,0,0,1,1381.1,31.5Z"/><path class="cls-1" d="M1455.4,1c-.4.7-.8.8-1.3.1Z"/><path class="cls-11" d="M1379.2,31.1h2.6l-.9,1.4Z"/><path class="cls-12" d="M1589.1,215c2.4-2,4.9-2.2,7.7-.6l102.9,55.3c.3.2.5.7.7,1l-1.5,1.8h.3c-2.5-.1-4.4,1.5-6.5,2.4-14.6,6.6-29.3,13.1-43.8,19.8-18.8,8.7-38,16.4-56.4,26h-9.1a3.6,3.6,0,0,0-2.7-1.3l-51.3-8.6-46.4-7.4v-2.7l1.5-1.4-.2.2,1.4-1.4h-.2l1.5-1.4h-.2l1.5-1.4h-.2a1.4,1.4,0,0,0,1.4-1.4h-.3c1.7.5,2.8-.7,3.9-1.6,25.8-20.2,51.7-40.3,77.3-60.6C1576.7,226.3,1584.3,222.4,1589.1,215Z"/><path class="cls-8" d="M1592.3,320.6c18.4-9.6,37.6-17.3,56.4-26,14.5-6.7,29.2-13.2,43.8-19.8,2.1-1,4-2.6,6.5-2.4-12.6,11.9-26.4,22.3-39.7,33.4-15.8,13.1-31.8,26-47.6,39l-.8-.4v1a1.2,1.2,0,0,0-1.5,1.3l-.2-.3.3.2C1601.3,339.5,1595.9,330.6,1592.3,320.6Z"/><path class="cls-9" d="M1482.8,303.1l46.4,7.4,51.3,8.6a3.6,3.6,0,0,1,2.7,1.3,6.4,6.4,0,0,1-4.4,2.4l-67.8,10.8c-2.5.4-5.2.3-6.2,3.4-7.4.9-11.7-2.3-14.1-9.4s-6.1-14.8-9.3-22.2A2.2,2.2,0,0,0,1482.8,303.1Z"/><path class="cls-7" d="M1504.9,337.2c1-3.1,3.6-3.1,6.2-3.4l67.8-10.8a6.4,6.4,0,0,0,4.4-2.4h9.1c3.7,10,9,18.9,17.3,25.9-1.1,2-3,1.3-4.6,1.1Z"/><path class="cls-7" d="M1589.1,215c-4.7,7.3-12.4,11.3-19,16.5-25.7,20.3-51.5,40.4-77.3,60.6-1.2.9-2.2,2.1-3.9,1.6l46.4-46c2.9-2.9,6.3-5.3,8.7-8.5C1555.4,224.2,1571.9,219.2,1589.1,215Z"/><path class="cls-7" d="M1482.8,303.1a2.2,2.2,0,0,1-1.2,2.5c-1.7-2.2-2.3-4.2,1.1-5.4Z"/><path class="cls-8" d="M1698.8,272.5l1.5-1.8C1700.6,272,1699.8,272.3,1698.8,272.5Z"/><path class="cls-7" d="M1489.1,293.8a1.4,1.4,0,0,1-1.4,1.4C1487.6,294.2,1488.1,293.7,1489.1,293.8Z"/><path class="cls-7" d="M1609.5,346.5a1.2,1.2,0,0,1,1.5-1.3Z"/><path class="cls-7" d="M1611,345.2v-1l.8.4A.6.6,0,0,1,1611,345.2Z"/><path class="cls-7" d="M1487.9,295.1l-1.5,1.4C1486.4,295.5,1486.8,295,1487.9,295.1Z"/><path class="cls-7" d="M1486.6,296.4l-1.5,1.4C1485.1,296.8,1485.6,296.4,1486.6,296.4Z"/><path class="cls-7" d="M1485.4,297.7l-1.4,1.4C1483.9,298.1,1484.3,297.7,1485.4,297.7Z"/><path class="cls-7" d="M1484.1,299l-1.5,1.4C1482.6,299.4,1483.1,299,1484.1,299Z"/><path class="cls-12" d="M768.8,509.1l-63.9-60.3c1.3-2.5,3.4-2.2,5.1-2.6,18.1-4.4,36.3-8.9,54.5-13.1,10.3-2.4,20.7-4.3,31-6.5,1.1,1.5,2.6,1.1,4,.8l22.8-4.9c1.4-.3,2.3-.9,2.6-2.3,2.7-.3,5.4-.9,7.9.9-5.7,4.6-9.2,11-13.5,16.8-16.1,21.7-32.4,43.3-48.5,65-.8,1-2.2,2.4-.3,3.8Z"/><path class="cls-13" d="M770.4,506.7c-1.8-1.4-.4-2.8.3-3.8,16.1-21.7,32.4-43.2,48.5-65,4.3-5.8,7.8-12.2,13.5-16.8q30.3,19.3,59.4,40.5l.6,3.6v.4c-2.8-1.8-4.9-.1-7,1.4s-2.2.3-2.6,1.6h0c-2.9-.5-5.5.9-8.1,1.8L837,483.6Z"/><path class="cls-5" d="M885.7,466.9c2.1-1.6,4.2-3.2,7-1.4l-35.4,44.8a5.9,5.9,0,0,1-4.2,2.5l-57.2,7.5-4.5-2.1,82.6-43.8c3.2-1.7,6.6-3.1,9-5.9h0C884.3,468.5,885.3,468.2,885.7,466.9Z"/><path class="cls-7" d="M883.1,468.4c-2.5,2.8-5.8,4.2-9,5.9l-82.6,43.8,4.5,2.1c-12.7,5.3-19.3-4.5-27.1-11.2l1.6-2.5L837,483.6l38.1-13.4C877.6,469.3,880.2,468,883.1,468.4Z"/><path class="cls-7" d="M824.9,420.2c-.3,1.4-1.1,2-2.6,2.3l-22.8,4.9c-1.4.3-2.9.8-4-.8C805,423.3,814.6,420.2,824.9,420.2Z"/><path class="cls-5" d="M892.8,465.1l-.6-3.6C894.3,462.4,895.6,463.4,892.8,465.1Z"/><path class="cls-7" d="M885.7,466.9c-.4,1.4-1.4,1.6-2.6,1.6C883.5,467.2,884.7,467.2,885.7,466.9Z"/><path class="cls-12" d="M131.9,206.4a7,7,0,0,1,7.1,3l70.3,89c.2.3.1.7.2,1.1l-2.1.7h.3c-2.2-1.2-4.5-.9-6.8-1.1-15.6-1.5-31.3-3.1-46.9-4.4-20.2-1.7-40.4-4.5-60.5-5.3l-8.1-4.1c-.2-1.1-1-1.6-1.9-2.3L41,253.2,2.5,226.6l1.1-2.3-.2.2,1.9-.5H5.1l1.8-.5H6.7l1.8-.4H8.4l1.9-.4H10a1.3,1.3,0,0,0,1.8-.4l-.2-.2c1.3,1.2,2.7.7,4.1.5,30.9-4,61.9-7.9,92.8-12.1C116.4,209.5,124.8,209.9,131.9,206.4Z"/><path class="cls-8" d="M93.5,289.4c20.2.8,40.4,3.6,60.5,5.3,15.6,1.3,31.3,2.9,46.9,4.4,2.3.2,4.6-.2,6.8,1.1-15.9,3.5-32.3,5.3-48.5,7.9-19.2,3-38.5,5.8-57.8,8.7l-.6-.7-.3.8v0c-.8-.5-1.4-.4-1.8.3v0C94.1,308.1,92.8,298.8,93.5,289.4Z"/><path class="cls-9" d="M2.5,226.6,41,253.2,83.5,283c.9.6,1.7,1.2,1.9,2.3a6.7,6.7,0,0,1-4.8-.1L15.8,263c-2.4-.8-4.8-2.1-6.9-.1-7-2.6-9.5-7-8.9-13.6S.4,235.1.5,228A1.9,1.9,0,0,0,2.5,226.6Z"/><path class="cls-7" d="M9,262.9c2.1-2,4.4-.7,6.9.1l64.7,22.2a6.7,6.7,0,0,0,4.8.1l8.1,4.1c-.6,9.4.7,18.7,5.3,27.8-1.8,1-3.2-.3-4.6-1.2Z"/><path class="cls-7" d="M131.9,206.4c-7.1,3.5-15.5,3.1-23.4,4.2-30.9,4.2-61.8,8.1-92.8,12.1-1.4.2-2.8.6-4.1-.5l59.5-14.6c3.7-.9,7.7-1.3,11.1-2.7C98.2,198.3,115,201.9,131.9,206.4Z"/><path class="cls-7" d="M2.5,226.6a1.9,1.9,0,0,1-2,1.4c-.6-2.5-.4-4.3,3.1-3.7Z"/><path class="cls-8" d="M207.4,300.2l2.1-.7C209.3,300.6,208.4,300.5,207.4,300.2Z"/><path class="cls-7" d="M11.9,222.3a1.3,1.3,0,0,1-1.8.4C10.4,221.9,11,221.8,11.9,222.3Z"/><path class="cls-7" d="M98.7,317.2c.4-.7,1-.8,1.8-.3Z"/><path class="cls-7" d="M100.6,316.9l.3-.8.6.7A.6.6,0,0,1,100.6,316.9Z"/><path class="cls-7" d="M10.2,222.7l-1.9.4C8.8,222.4,9.3,222.2,10.2,222.7Z"/><path class="cls-7" d="M8.6,223.2l-1.8.4C7.1,222.8,7.7,222.7,8.6,223.2Z"/><path class="cls-7" d="M7,223.6l-1.8.5C5.5,223.3,6.1,223.1,7,223.6Z"/><path class="cls-7" d="M5.3,224.1l-1.9.5C3.8,223.7,4.4,223.5,5.3,224.1Z"/><path class="cls-12" d="M505,428.4c4.2.4,4.7,1.6,2.1,3.8L408.7,510a12.8,12.8,0,0,1-1.9.8h-3.5c0-1.4-3.3-1.7-5.4-2.4-14.5-4.9-28.8-9.9-43.6-14.6-19.1-6.2-36.2-13.1-57-18.6l-.8-4.8c1.9-.8,2.1-1.4,2.3-2,3.9-10.2,7.9-20.5,11.7-30.7s6.6-18.4,9.8-27.6l5.8-1.3h4.8l2.9.2h-.1l2.9.2h-.1c.2.4,1.2.5,2.9.2v-.2c-.8,1.1,1.6,1.2,3.5,1.4,42.5,5,84.7,10,127.5,14.9C481.5,426.7,490.1,429.1,505,428.4Z"/><path class="cls-8" d="M297.3,475.1c20.9,5.6,37.9,12.4,57,18.6,14.8,4.8,29.1,9.7,43.6,14.6,2.1.7,5.5,1,5.4,2.4-24.8-1.5-46.7-4.4-69.8-6.7-27.5-2.7-54.5-5.6-81.7-8.5l.8-.6-1.9.5.9-.3-.9.3c.1-.5-.8-.6-2.6-.2l.5-.2-.4.2C261,488,278,481.3,297.3,475.1Z"/><path class="cls-9" d="M320.4,410c-3.3,9.2-6.4,18.4-9.8,27.6s-7.9,20.5-11.7,30.7c-.2.6-.5,1.2-2.3,2s-4.5-.5-5.2-1.3q-14.2-15.5-28.2-31.1c-1-1.2-1.2-2.6-7.4-1.8-2.6-3.5,3.3-7.1,17.1-11.4s28.5-9.5,42.8-14.3C316.5,410.8,318.4,410.5,320.4,410Z"/><path class="cls-7" d="M255.6,436.2c6.3-.8,6.4.6,7.4,1.8q14,15.6,28.2,31.1c.7.8,2.2,1.3,5.2,1.3l.8,4.8C278,481.3,261,488,248.1,495.3c-4,.2-2.9-1-2.7-1.9C248.7,474.3,252.2,455.2,255.6,436.2Z"/><path class="cls-7" d="M505,428.4c-14.9.6-23.5-1.7-34.4-3-42.7-4.8-85-9.9-127.5-14.9-1.9-.2-4.4-.3-3.5-1.4l95.4,4.8c5.9.3,11.1,1,17.7.9C483.5,414.6,495.1,421.1,505,428.4Z"/><path class="cls-7" d="M320.4,410c-2,.5-3.9.8-5,.4,4.2-1.8,8.1-3,10.8-1.7Z"/><path class="cls-8" d="M403.1,510.7h3.7C404.2,511.5,403.6,511.2,403.1,510.7Z"/><path class="cls-7" d="M339.5,409.4c-1.7.3-2.7.3-2.9-.2C338.6,408.8,339.5,408.8,339.5,409.4Z"/><path class="cls-7" d="M248,495.3c1.8-.4,2.7-.3,2.6.2Z"/><path class="cls-7" d="M250.7,495.5l1.9-.5-.8.6Q250.7,495.8,250.7,495.5Z"/><path class="cls-7" d="M336.7,409.3l-2.9-.2C335.8,408.7,336.9,408.7,336.7,409.3Z"/><path class="cls-7" d="M334,409.2l-2.9-.2C333.1,408.6,334,408.6,334,409.2Z"/><path class="cls-7" d="M331.3,409.1h-2.9C330.4,408.5,331.4,408.5,331.3,409.1Z"/><path class="cls-7" d="M328.7,409h-3C327.7,408.3,328.7,408.4,328.7,409Z"/></g></g></svg>