<svg xmlns="http://www.w3.org/2000/svg" width="1590.4" height="521.8" viewBox="0 0 1590.4 521.8"><defs><style>.cls-1{fill:#d2d2d2;}.cls-2{fill:#e0e0e0;}.cls-3{fill:#e8e8e8;}.cls-4{fill:#d7d7d7;}.cls-5{fill:#ddd;}.cls-6{fill:#e5e5e5;}.cls-7{fill:#bbb;}.cls-8{fill:#c7c7c7;}.cls-9{fill:#cbcbcb;}.cls-10{fill:#f6f6f6;}.cls-11{fill:#c1c1c1;}.cls-12{fill:#efefef;}.cls-13{fill:#fbfbfb;}</style></defs><title>rocks_1</title><g id="Layer_2" data-name="Layer 2"><g id="Layer_2-2" data-name="Layer 2"><path class="cls-1" d="M709.8,164c3.7,2.7-.3,3.9-1.3,5.2q-31.6,37.2-63.3,74.3c-6.8,8-14,15.7-20.3,24-3.6,4.7-6.9,6.3-12,3a39.9,39.9,0,0,0-5.2-2.5c2.3-1.5,5.7,2,6.9-.6s-2.8-4.2-4.1-6.6a41.6,41.6,0,0,0-2.5-3.7c-8.2-11.6-16.5-23.1-24.7-34.7s-15.1-22-22.7-33l1.3-1.3c11.3-.2,22.3-2.9,33.4-4.4,27.3-3.8,54.5-8.3,81.6-13.1C687.8,168.5,699.2,168.4,709.8,164Z"/><path class="cls-2" d="M709.8,164c-10.5,4.5-22,4.6-33,6.5-27.1,4.8-54.3,9.3-81.6,13.1-11.1,1.6-22.1,4.3-33.4,4.4.2-1.7,0-3.7.8-4.9,6.5-9.8,11.4-20.4,17.1-30.6,8.1-14.5,16-29,24.3-43.3,2.5-4.3,1.6-6.2-2.8-7.4,5.3-2.9,9.7-1.8,14.7,1.5,29.8,19.4,59.8,38.5,89.7,57.7C707.1,161.9,708.4,163,709.8,164Z"/><path class="cls-3" d="M601.3,101.8c4.3,1.2,5.3,3.1,2.8,7.4-8.3,14.3-16.3,28.9-24.3,43.3-5.7,10.2-10.6,20.8-17.1,30.6-.8,1.3-.6,3.3-.8,4.9l-1.3,1.3h-3.8c-.1-2.1-1.7-2.9-3.3-3.4-11.6-4.1-22.6-9.7-33.9-14.4l-55.2-22.8c-2.7-1.1-5.5-2.4-5.9-6L592,104.2Z"/><path class="cls-4" d="M556.7,189.4h3.8c7.5,11,15,22.1,22.7,33s16.4,23.1,24.7,34.7a41.6,41.6,0,0,1,2.5,3.7c1.3,2.3,5.5,3.5,4.1,6.6s-4.6-.9-6.9.6h-.2c-1.1-3-3.6-3.1-6.2-2.6H601c-1.1-3-3.6-3-6.2-2.6h-.3c-.9-1.5-1.5-3.9-3.9-1.5l-86.2-33.9c-2.3-.9-5.2-1-6.2-4a18.1,18.1,0,0,0,9.5-3c14.1-8.6,28.5-16.8,42.5-25.5C552.6,193.5,556.2,193.1,556.7,189.4Z"/><path class="cls-2" d="M556.7,189.4c-.5,3.7-4.2,4.1-6.5,5.5-14.1,8.7-28.4,16.8-42.5,25.5a18.1,18.1,0,0,1-9.5,3l-44.6-79.5,4.8-1.2c.4,3.5,3.2,4.8,5.9,6l55.2,22.8c11.3,4.7,22.3,10.4,33.9,14.4C555.1,186.5,556.7,187.2,556.7,189.4Z"/><path class="cls-1" d="M594.8,262.7c2.6-.4,5-.4,6.2,2.6A11.8,11.8,0,0,1,594.8,262.7Z"/><path class="cls-1" d="M601.2,265.3c2.6-.5,5-.4,6.2,2.6A12.1,12.1,0,0,1,601.2,265.3Z"/><path class="cls-1" d="M590.6,261.2c2.4-2.5,3,0,3.9,1.5Z"/><path class="cls-5" d="M1050.3,137.6h5.1c4.1,2.9,2.2,7.4,2.9,11.2,3.7,22.1,4.1,44.5,6.7,66.7,1.2,10.5,2.5,21,3.8,31.6-.1,3.6.5,7.5-4.9,7.6-7.2-8.4-17.3-13-26.1-19.1-19.4-13.5-39.4-25.9-58.9-39.2-2.7-1.9-7-2.6-8-6.8.5-.7.9-1.6,1.6-2,19.5-11.7,39.1-23.1,58.4-35,6.7-4.1,14.9-6.3,19.5-13.6Z"/><path class="cls-4" d="M970.9,189.6c1,4.2,5.2,4.9,8,6.8,19.5,13.3,39.6,25.8,58.9,39.2,8.8,6.1,18.9,10.7,26.1,19.1-5.2,2.6-10.8.6-16.1,1.3-2.1.3-4.9-1.1-5.7,2.3L1015,260c-6.1-1.4-12.1-3-17.9.9l-52.3,3.5c-2.6.2-3.4-1-3.4-3.3a19.7,19.7,0,0,0,3.8-6.5c2.7-7.4,5.6-14.7,8.3-22.1,5.1-14.2,10.7-28.3,14.8-42.9Z"/><path class="cls-6" d="M970.9,189.6h-2.6c-8.2-7.1-17.3-12.9-26-19.2l-39.1-28a12.8,12.8,0,0,1,6.4-1.3l64.7-.4c2.4,0,5.3,1,6.7-2.2h3.4c1,2.4,2,2.5,2.9,0q24.4-1.2,48.8-.6c4.5,2.8,9.5.5,14.2,1.2-4.5,7.3-12.8,9.4-19.5,13.6-19.3,11.9-38.9,23.4-58.4,35C971.8,188,971.4,188.9,970.9,189.6Z"/><path class="cls-5" d="M981.1,138.5c-1.4,3.2-4.4,2.1-6.7,2.2l-64.7.4a12.8,12.8,0,0,0-6.4,1.3l39.1,28c8.8,6.3,17.8,12.2,26,19.2-4.1,14.6-9.7,28.7-14.8,42.9-2.7,7.4-5.6,14.7-8.3,22.1a19.7,19.7,0,0,1-3.8,6.5l-25.9-73.8c-5-14.3-9.9-28.7-14.9-43-.8-2.4-2.7-4.9,2.2-4.9Z"/><path class="cls-7" d="M1068.8,247.1c-1.3-10.5-2.6-21-3.8-31.6-2.6-22.2-3-44.6-6.7-66.7-.6-3.8,1.3-8.3-2.9-11.2,12-.6,23.8,2.1,35.8,2.5,3.5.1,2.8,2,2.3,4.3-3.3,14.8-6.6,29.7-9.9,44.5-4.8,5.9-4,13.4-5.9,20.1C1074.4,221.6,1073.2,234.7,1068.8,247.1Z"/><path class="cls-8" d="M1068.8,247.1c4.4-12.4,5.6-25.5,9.1-38.1,1.8-6.7,1.1-14.2,5.9-20.1q-6.8,32-13.6,64c-.6,2.8-1.6,4.4-5,4.4-7.7.1-15.4.7-23.1,1,.8-3.4,3.6-2.1,5.7-2.3,5.3-.7,10.9,1.3,16.1-1.3C1069.3,254.6,1068.7,250.7,1068.8,247.1Z"/><path class="cls-7" d="M997.1,260.9c5.8-3.9,11.8-2.4,17.9-.9Z"/><path class="cls-9" d="M1050.3,139c-4.7-.7-9.7,1.5-14.2-1.2h14.2Z"/><path class="cls-5" d="M987.4,138.3c-.9,2.5-1.9,2.4-2.9,0Z"/><path class="cls-10" d="M825.1,13c-1.7-.3-2.2-1.8-3.8-3.9l27.6-2,88.9-6A16,16,0,0,1,936,4.3L902.4,42.2c-3.5,4-7.3,7.7-9.7,12.6l-2.2.6a33.2,33.2,0,0,1-5.2-2.4L833.3,17.2c-2-1.4-3.8-3.6-6.7-2.3v-.4h.4C826.8,13.3,826,13.1,825.1,13Z"/><path class="cls-1" d="M892.7,54.7c2.4-4.8,6.2-8.6,9.7-12.6L936,4.3A16,16,0,0,0,937.7,1c2.5-.9,3.4,1.2,4.6,2.6,7,7.8,13.8,15.8,20.9,23.5,2.4,2.6,2.3,4.3-1,5.6l-.8-.5.2,1-.3-.3.2.3c-6.5-1-11.9,2.4-17.6,4.3C926.8,43.1,909.8,49,892.7,54.7Z"/><path class="cls-7" d="M892.7,54.7c17.1-5.7,34.1-11.6,51.2-17.1,5.7-1.9,11.2-5.3,17.6-4.3q-32.5,27.6-65,55.2c-2.7,2.3-4,1.3-5.4-1.1,3.5-2.9,1.8-6.6,1.5-10-.7-7.3-2.8-14.5-2-22Z"/><path class="cls-1" d="M890.6,55.4c-.7,7.5,1.3,14.7,2,22,.3,3.4,2,7.1-1.5,10-21.9-23.9-43.5-48-64.6-72.5,3-1.3,4.7,1,6.7,2.3L885.4,53A33.2,33.2,0,0,0,890.6,55.4Z"/><path class="cls-1" d="M825.1,13c.9.1,1.7.4,2,1.4C825.7,14.8,825.4,13.9,825.1,13Z"/><path class="cls-7" d="M961.6,33.2l-.2-1,.8.5A.6.6,0,0,1,961.6,33.2Z"/><path class="cls-3" d="M1382,51.1c-.2,1.7-1.5,2.4-2.8,3.2l-53.2,33.5c-2.2,1.4-3.7,2.2-5.9-.3-15.9-17.7-32-35.2-48-52.7-.6-.6-1.1-1.3-.6-2.2,18.8,1.9,37.3,5.9,55.9,9S1363.8,47.9,1382,51.1Z"/><path class="cls-1" d="M1349.2.9c16.9-1.9,16.9-1.9,22.2,14,3.1,9.1,6.2,18.2,9.2,27.4.6,2,2,3.9,1,6.1-1.2-.2-2.9-.1-3.6-.8-7.4-7.1-16.6-11.9-24.3-18.5-2.5-2.2-5.1-5.1-8.7-4.8-9.9.8-19.8,2-29.7,3l-36.7,3.6a3.5,3.5,0,0,1,2.8-3.2l25.4-8.5,46.4-15.4Z"/><path class="cls-2" d="M1349.2.9l4,2.9-46.4,15.4-25.4,8.5a3.5,3.5,0,0,0-2.8,3.2l-7.5.7.2-.5.5.2h-2.6L1250.7,6.1,1344.1,1c.5.7.9.7,1.3-.1Z"/><path class="cls-11" d="M1271.1,31.5l7.5-.7,36.7-3.6c9.9-1,19.8-2.2,29.7-3,3.6-.3,6.2,2.6,8.7,4.8,7.7,6.7,16.9,11.5,24.3,18.5.8.7,2.4.6,3.6.8-.7,1,3.3,1.4.4,2.7-18.2-3.2-36.4-6.5-54.6-9.5s-37.1-7.1-55.9-9A.9.9,0,0,1,1271.1,31.5Z"/><path class="cls-1" d="M1345.4,1c-.4.7-.8.8-1.3.1Z"/><path class="cls-11" d="M1269.2,31.1h2.6l-.9,1.4Z"/><path class="cls-12" d="M1479.1,215c2.4-2,4.9-2.2,7.7-.6l102.9,55.3c.3.2.5.7.7,1l-1.5,1.8h.3c-2.5-.1-4.4,1.5-6.5,2.4-14.6,6.6-29.3,13.1-43.8,19.8-18.8,8.7-38,16.4-56.4,26h-9.1a3.6,3.6,0,0,0-2.7-1.3l-51.3-8.6-46.4-7.4v-2.7l1.5-1.4-.2.2,1.4-1.4h-.2l1.5-1.4h-.2l1.5-1.4h-.2a1.4,1.4,0,0,0,1.4-1.4h-.3c1.7.5,2.8-.7,3.9-1.6,25.8-20.2,51.7-40.3,77.3-60.6C1466.7,226.3,1474.3,222.4,1479.1,215Z"/><path class="cls-8" d="M1482.3,320.6c18.4-9.6,37.6-17.3,56.4-26,14.5-6.7,29.2-13.2,43.8-19.8,2.1-1,4-2.6,6.5-2.4-12.6,11.9-26.4,22.3-39.7,33.4-15.8,13.1-31.8,26-47.6,39l-.8-.4v1a1.2,1.2,0,0,0-1.5,1.3l-.2-.3.3.2C1491.3,339.5,1485.9,330.6,1482.3,320.6Z"/><path class="cls-9" d="M1372.8,303.1l46.4,7.4,51.3,8.6a3.6,3.6,0,0,1,2.7,1.3,6.4,6.4,0,0,1-4.4,2.4l-67.8,10.8c-2.5.4-5.2.3-6.2,3.4-7.4.9-11.7-2.3-14.1-9.4s-6.1-14.8-9.3-22.2A2.2,2.2,0,0,0,1372.8,303.1Z"/><path class="cls-7" d="M1394.9,337.2c1-3.1,3.6-3.1,6.2-3.4l67.8-10.8a6.4,6.4,0,0,0,4.4-2.4h9.1c3.7,10,9,18.9,17.3,25.9-1.1,2-3,1.3-4.6,1.1Z"/><path class="cls-7" d="M1479.1,215c-4.7,7.3-12.4,11.3-19,16.5-25.7,20.3-51.5,40.4-77.3,60.6-1.2.9-2.2,2.1-3.9,1.6l46.4-46c2.9-2.9,6.3-5.3,8.7-8.5C1445.4,224.2,1461.9,219.2,1479.1,215Z"/><path class="cls-7" d="M1372.8,303.1a2.2,2.2,0,0,1-1.2,2.5c-1.7-2.2-2.3-4.2,1.1-5.4Z"/><path class="cls-8" d="M1588.8,272.5l1.5-1.8C1590.6,272,1589.8,272.3,1588.8,272.5Z"/><path class="cls-7" d="M1379.1,293.8a1.4,1.4,0,0,1-1.4,1.4C1377.6,294.2,1378.1,293.7,1379.1,293.8Z"/><path class="cls-7" d="M1499.5,346.5a1.2,1.2,0,0,1,1.5-1.3Z"/><path class="cls-7" d="M1501,345.2v-1l.8.4A.6.6,0,0,1,1501,345.2Z"/><path class="cls-7" d="M1377.9,295.1l-1.5,1.4C1376.4,295.5,1376.8,295,1377.9,295.1Z"/><path class="cls-7" d="M1376.6,296.4l-1.5,1.4C1375.1,296.8,1375.6,296.4,1376.6,296.4Z"/><path class="cls-7" d="M1375.4,297.7l-1.4,1.4C1373.9,298.1,1374.3,297.7,1375.4,297.7Z"/><path class="cls-7" d="M1374.1,299l-1.5,1.4C1372.6,299.4,1373.1,299,1374.1,299Z"/><path class="cls-12" d="M658.8,509.1l-63.9-60.3c1.3-2.5,3.4-2.2,5.1-2.6,18.1-4.4,36.3-8.9,54.5-13.1,10.3-2.4,20.7-4.3,31-6.5,1.1,1.5,2.6,1.1,4,.8l22.8-4.9c1.4-.3,2.3-.9,2.6-2.3,2.7-.3,5.4-.9,7.9.9-5.7,4.6-9.2,11-13.5,16.8-16.1,21.7-32.4,43.3-48.5,65-.8,1-2.2,2.4-.3,3.8Z"/><path class="cls-13" d="M660.4,506.7c-1.8-1.4-.4-2.8.3-3.8,16.1-21.7,32.4-43.2,48.5-65,4.3-5.8,7.8-12.2,13.5-16.8q30.3,19.3,59.4,40.5l.6,3.6v.4c-2.8-1.8-4.9-.1-7,1.4s-2.2.3-2.6,1.6h0c-2.9-.5-5.5.9-8.1,1.8L727,483.6Z"/><path class="cls-5" d="M775.7,466.9c2.1-1.6,4.2-3.2,7-1.4l-35.4,44.8a5.9,5.9,0,0,1-4.2,2.5l-57.2,7.5-4.5-2.1,82.6-43.8c3.2-1.7,6.6-3.1,9-5.9h0C774.3,468.5,775.3,468.2,775.7,466.9Z"/><path class="cls-7" d="M773.1,468.4c-2.5,2.8-5.8,4.2-9,5.9l-82.6,43.8,4.5,2.1c-12.7,5.3-19.3-4.5-27.1-11.2l1.6-2.5L727,483.6l38.1-13.4C767.6,469.3,770.2,468,773.1,468.4Z"/><path class="cls-7" d="M714.9,420.2c-.3,1.4-1.1,2-2.6,2.3l-22.8,4.9c-1.4.3-2.9.8-4-.8C695,423.3,704.6,420.2,714.9,420.2Z"/><path class="cls-5" d="M782.8,465.1l-.6-3.6C784.3,462.4,785.6,463.4,782.8,465.1Z"/><path class="cls-7" d="M775.7,466.9c-.4,1.4-1.4,1.6-2.6,1.6C773.5,467.2,774.7,467.2,775.7,466.9Z"/><path class="cls-12" d="M131.9,76.4a7,7,0,0,1,7.1,3l70.3,89c.2.3.1.7.2,1.1l-2.1.7h.3c-2.2-1.2-4.5-.9-6.8-1.1-15.6-1.5-31.3-3.1-46.9-4.4-20.2-1.7-40.4-4.5-60.5-5.3l-8.1-4.1c-.2-1.1-1-1.6-1.9-2.3L41,123.2,2.5,96.6l1.1-2.3-.2.2,1.9-.5H5.1L7,93.6H6.7l1.8-.4H8.4l1.9-.4H10a1.3,1.3,0,0,0,1.8-.4l-.2-.2c1.3,1.2,2.7.7,4.1.5,30.9-4,61.9-7.9,92.8-12.1C116.4,79.5,124.8,79.9,131.9,76.4Z"/><path class="cls-8" d="M93.5,159.4c20.2.8,40.4,3.6,60.5,5.3,15.6,1.3,31.3,2.9,46.9,4.4,2.3.2,4.6-.2,6.8,1.1-15.9,3.5-32.3,5.3-48.5,7.9-19.2,3-38.5,5.8-57.8,8.7l-.6-.7-.3.8v0c-.8-.5-1.4-.4-1.8.3v0C94.1,178.1,92.8,168.8,93.5,159.4Z"/><path class="cls-9" d="M2.5,96.6,41,123.2,83.5,153c.9.6,1.7,1.2,1.9,2.3a6.7,6.7,0,0,1-4.8-.1L15.8,133c-2.4-.8-4.8-2.1-6.9-.1-7-2.6-9.5-7-8.9-13.6S.4,105.1.5,98A1.9,1.9,0,0,0,2.5,96.6Z"/><path class="cls-7" d="M9,132.9c2.1-2,4.4-.7,6.9.1l64.7,22.2a6.7,6.7,0,0,0,4.8.1l8.1,4.1c-.6,9.4.7,18.7,5.3,27.8-1.8,1-3.2-.3-4.6-1.2Z"/><path class="cls-7" d="M131.9,76.4c-7.1,3.5-15.5,3.1-23.4,4.2-30.9,4.2-61.8,8.1-92.8,12.1-1.4.2-2.8.6-4.1-.5L71.1,77.5c3.7-.9,7.7-1.3,11.1-2.7C98.2,68.3,115,71.9,131.9,76.4Z"/><path class="cls-7" d="M2.5,96.6A1.9,1.9,0,0,1,.5,98c-.6-2.5-.4-4.3,3.1-3.7Z"/><path class="cls-8" d="M207.4,170.2l2.1-.7C209.3,170.6,208.4,170.5,207.4,170.2Z"/><path class="cls-7" d="M11.9,92.3a1.3,1.3,0,0,1-1.8.4C10.4,91.9,11,91.8,11.9,92.3Z"/><path class="cls-7" d="M98.7,187.2c.4-.7,1-.8,1.8-.3Z"/><path class="cls-7" d="M100.6,186.9l.3-.8.6.7A.6.6,0,0,1,100.6,186.9Z"/><path class="cls-7" d="M10.2,92.7l-1.9.4C8.8,92.4,9.3,92.2,10.2,92.7Z"/><path class="cls-7" d="M8.6,93.2l-1.8.4C7.1,92.8,7.7,92.7,8.6,93.2Z"/><path class="cls-7" d="M7,93.6l-1.8.5C5.5,93.3,6.1,93.1,7,93.6Z"/><path class="cls-7" d="M5.3,94.1l-1.9.5C3.8,93.7,4.4,93.5,5.3,94.1Z"/><path class="cls-12" d="M395,428.4c4.2.4,4.7,1.6,2.1,3.8L298.7,510a12.8,12.8,0,0,1-1.9.8h-3.5c0-1.4-3.3-1.7-5.4-2.4-14.5-4.9-28.8-9.9-43.6-14.6-19.1-6.2-36.2-13.1-57-18.6l-.8-4.8c1.9-.8,2.1-1.4,2.3-2,3.9-10.2,7.9-20.5,11.7-30.7s6.6-18.4,9.8-27.6l5.8-1.3h4.8l2.9.2h-.1l2.9.2h-.1c.2.4,1.2.5,2.9.2v-.2c-.8,1.1,1.6,1.2,3.5,1.4,42.5,5,84.7,10,127.5,14.9C371.5,426.7,380.1,429.1,395,428.4Z"/><path class="cls-8" d="M187.3,475.1c20.9,5.6,37.9,12.4,57,18.6,14.8,4.8,29.1,9.7,43.6,14.6,2.1.7,5.5,1,5.4,2.4-24.8-1.5-46.7-4.4-69.8-6.7-27.5-2.7-54.5-5.6-81.7-8.5l.8-.6-1.9.5.9-.3-.9.3c.1-.5-.8-.6-2.6-.2l.5-.2-.4.2C151,488,168,481.3,187.3,475.1Z"/><path class="cls-9" d="M210.4,410c-3.3,9.2-6.4,18.4-9.8,27.6s-7.9,20.5-11.7,30.7c-.2.6-.5,1.2-2.3,2s-4.5-.5-5.2-1.3q-14.2-15.5-28.2-31.1c-1-1.2-1.2-2.6-7.4-1.8-2.6-3.5,3.3-7.1,17.1-11.4s28.5-9.5,42.8-14.3C206.5,410.8,208.4,410.5,210.4,410Z"/><path class="cls-7" d="M145.6,436.2c6.3-.8,6.4.6,7.4,1.8q14,15.6,28.2,31.1c.7.8,2.2,1.3,5.2,1.3l.8,4.8C168,481.3,151,488,138.1,495.3c-4,.2-2.9-1-2.7-1.9C138.7,474.3,142.2,455.2,145.6,436.2Z"/><path class="cls-7" d="M395,428.4c-14.9.6-23.5-1.7-34.4-3-42.7-4.8-85-9.9-127.5-14.9-1.9-.2-4.4-.3-3.5-1.4l95.4,4.8c5.9.3,11.1,1,17.7.9C373.5,414.6,385.1,421.1,395,428.4Z"/><path class="cls-7" d="M210.4,410c-2,.5-3.9.8-5,.4,4.2-1.8,8.1-3,10.8-1.7Z"/><path class="cls-8" d="M293.1,510.7h3.7C294.2,511.5,293.6,511.2,293.1,510.7Z"/><path class="cls-7" d="M229.5,409.4c-1.7.3-2.7.3-2.9-.2C228.6,408.8,229.5,408.8,229.5,409.4Z"/><path class="cls-7" d="M138,495.3c1.8-.4,2.7-.3,2.6.2Z"/><path class="cls-7" d="M140.7,495.5l1.9-.5-.8.6Q140.7,495.8,140.7,495.5Z"/><path class="cls-7" d="M226.7,409.3l-2.9-.2C225.8,408.7,226.9,408.7,226.7,409.3Z"/><path class="cls-7" d="M224,409.2l-2.9-.2C223.1,408.6,224,408.6,224,409.2Z"/><path class="cls-7" d="M221.3,409.1h-2.9C220.4,408.5,221.4,408.5,221.3,409.1Z"/><path class="cls-7" d="M218.7,409h-3C217.7,408.3,218.7,408.4,218.7,409Z"/></g></g></svg>