<svg xmlns="http://www.w3.org/2000/svg" width="824.8" height="681.6" viewBox="0 0 824.8 681.6"><defs><style>.cls-1{fill:#121212;}.cls-2{fill:#131313;}.cls-3{fill:#2c2c2c;}.cls-4{fill:#2e2e2e;}.cls-5{fill:#232323;}.cls-6{fill:#3f3f3f;}.cls-7{fill:#5b5b5b;}.cls-8{fill:#323232;}.cls-9{fill:#272727;}.cls-10{fill:#424242;}.cls-11{fill:#393939;}.cls-12{fill:#1897d4;}.cls-13{fill:#74bde7;}.cls-14{fill:#313131;}.cls-15{fill:#7c7c7c;}.cls-16{fill:#1584af;}.cls-17{fill:#2a2a2a;}.cls-18{fill:#136d89;}.cls-19{fill:#0e4b59;}.cls-20{fill:#898989;}.cls-21{fill:#353537;}.cls-22{fill:gray;}.cls-23{fill:#6f6f6f;}.cls-24{fill:#1a1a18;}.cls-25{fill:#848484;}.cls-26{fill:#817f7f;}.cls-27{fill:#010103;}.cls-28{fill:#020202;}.cls-29{fill:#3d3d3b;}.cls-30{fill:#737373;}.cls-31{fill:#2f2f2f;}.cls-32{fill:#303030;}.cls-33{fill:#8c8c8c;}.cls-34{fill:#040202;}.cls-35{fill:#1f1f1f;}.cls-36{fill:#141416;}.cls-37{fill:#8f8d8d;}.cls-38{fill:#706e6d;}.cls-39{fill:#535353;}.cls-40{fill:#565451;}</style></defs><title>sectors_new</title><g id="Layer_2" data-name="Layer 2"><g id="Layer_1-2" data-name="Layer 1"><path class="cls-1" d="M373.2,295.8a3.3,3.3,0,0,1-2.6-.9,4.2,4.2,0,0,1-.7-3.4v-7.1h.1a38.1,38.1,0,0,1,15.3-5.6c4.2-.7,8.4-1.6,12.4-2.5s7.4-1.7,11.2-2.3a164.8,164.8,0,0,1,16.8-1.7,153.9,153.9,0,0,0,17.7-1.9h1.2a2.6,2.6,0,0,0,2.3-.9v-.2h.2a14.6,14.6,0,0,0,7.7,2,20.3,20.3,0,0,0,11.4-3.6c3-2.1,5.2-3.7,5.5-5.8s-.7-3.4-2.8-5.9l-3-3.7a54.8,54.8,0,0,0-5.2-6.1l-.6-.5c-.8-.7-1.8-1.5-1.1-2.9,2.1-4.3-.9-5.9-4-7.5h-.1l-6.6-3.5-14-7.4-.5-.3c-1.5-.8-3.4-1.8-3.2-4.2v-.2h.2l8.8-.2c4.7,0,9.5.2,14.1.3l9.9.3c13.9.3,27.6.3,38.1.3h92.2a49.2,49.2,0,0,0,10.7,1l8-.3,4.9-.2,1.8-.3,2-.3h6.8c8.5,0,17.1-.3,25.5-.6l19-.6H681a73.6,73.6,0,0,0,14.9-1.2,5.4,5.4,0,0,0-2.5-2.1,8.5,8.5,0,0,1-2.7-2l-.3-.4,8.9-.4h.8a13,13,0,0,0,3-.5,13.9,13.9,0,0,1,3.2-.5h1.2L783.6,226l20.8,3.7v.2c0,.2,0,.5,0,.7a3.4,3.4,0,0,1-.3,1.7,9.3,9.3,0,0,0-.9,8.6,9.5,9.5,0,0,0,7.2,5.3h.2a.7.7,0,0,1-.1.6c-.5.8-2.6,1.3-4.8,1.8s-3.9.9-4.1,1.4a.1.1,0,0,0,0,.1h0c.6.1,2.9.2,4.7.3,4.7.2,5.1.3,5.2.6v.2l-.2.2a222.9,222.9,0,0,0-47.7,14L753,269.8l-4.8,1.9c-11.6,2.9-23.5,4.1-34.8,5.1l-15.8,1.5c-8.1.8-16.4,1.7-24.7,2.2-6.1.4-12.3,1-18.2,1.6l-7.4.7-3.7.3a54.4,54.4,0,0,0-11.3,1.6h-1.6a110.3,110.3,0,0,0-17.3,1.8l-9.1,1.3h-2.2l-.9.4-1,.5H599a10.9,10.9,0,0,0-6.7,1.9H569.8c-7,0-12.4.1-17.4.3-14.3.6-28.8.9-42.8,1.3l-32.8.9-14.3.2c-7.6,0-15.4.1-23,.7s-18,.8-26.3.8H399.2l-13.7.2c-4.1.1-8,.5-11.4.8Z"/><path class="cls-1" d="M804.1,229.9l-96.6-17.3c-2.9-.5-5.4,1.2-8.2.8l-8.4.4c1.7,2,4.4,2.2,5.3,4.5-7.8,1.7-15.6,1.1-23.4,1.2-17.1.3-34.1,1.5-51.2,1.1-1.3,0-2.6.5-3.9.5-7.9.2-15.8,1.2-23.6-.6H539.8c-25.3,0-50.6.2-75.9-.2-10.9-.2-21.9-1-32.8-.4-.1,2.6,2,3.4,3.6,4.3,6.8,3.8,13.7,7.3,20.6,10.9,3.2,1.7,6.4,3.3,4.2,7.9-.8,1.6.7,2.2,1.7,3.2,3.1,3,5.4,6.6,8.1,9.8,5.4,6.3,2.3,8.5-2.8,12s-13.6,5.1-19.3,1.5c-1,1.3-2.4.8-3.7,1-11.4,2.1-23,1.6-34.5,3.6-7.9,1.4-15.7,3.5-23.6,4.8a38.1,38.1,0,0,0-15.2,5.5v7c-.4,3,.8,4.3,3.9,4s7.6-.7,11.4-.9c17.9-.5,35.9.5,53.8-.9,12.4-1,24.9-.5,37.3-.9,25.2-.8,50.5-1.2,75.7-2.1,13-.5,26-.2,38.9-.2h.9c2.4-1.7,5.1-2.1,8-1.9l1.9-.9h2.1c9.3-1.1,18.5-3.4,28-3.1,4.9-1.4,10-1.4,15.1-1.9,8.6-.8,17.1-1.7,25.7-2.3,13.5-.9,27-2.5,40.4-3.7,11.7-1,23.3-2.2,34.8-5l15.2-6.1A220.8,220.8,0,0,1,811,251.5c.9-.5-10.7-.4-9.8-1-.7-1.6,9.5-2.2,9-4-7.2-1.4-10.2-8.1-6.4-14.3A6.3,6.3,0,0,0,804.1,229.9Z"/><path class="cls-2" d="M29,345.2c-2.4-.5-2.8-2.4-3.2-4.1l-.3-1.2L9.4,284.7l-9-30.6c-1.6-5.6,1.5-13,6.8-16.2a79.2,79.2,0,0,1,26.9-10.4c5.8-1.1,11.7-2.5,17.3-3.9,8.5-2.1,17.3-4.3,26.1-5.3s20.7-2,30.9-2.7l10.8-.8,57.3-4.5,24.7-1.9a31.3,31.3,0,0,0,9.1,1.1l5.3-.2,5.3-.2h1.8l1.6.2,1.9.2a2.9,2.9,0,0,0,2.9-1.8h.1l5.2-.3h.2a67,67,0,0,0,11,1.2,23.4,23.4,0,0,0,9.6-1.9l2.6-.2,3-.2-.3.4c-.6,1-.8,1.8-.6,2.3s.9.8,2,1l6.7.9,3.4.5-.4.4c-2.6,2.4-5.7,3.6-9,4.8a40.5,40.5,0,0,0-7.4,3.5,26.5,26.5,0,0,0,8.7,1.2H275l-1.7.3a98.8,98.8,0,0,0-16.4,5.3c-3.9,1.5-7.9,3.1-11.9,4.2-2,.6-3.2,1.3-3.7,2.3s-.3,2.4.5,4.4l1.2,3.2a74,74,0,0,0,4,9.1,18.9,18.9,0,0,1,2.6,11.1h0c-1.2,2.1-1.1,4.1.2,6.8,2.1,4.2,3.8,8.6,5.6,12.9l2.2,5.3,16,39.6-.6-.3c-4.4-2.2-7.8-5.6-11.1-8.9a65,65,0,0,0-7.1-6.4,45,45,0,0,1-8.9-8c-4.9-6.2-10.8-9.1-18.6-9.1l-3.4.2h-3a75.6,75.6,0,0,1-7.6-.5l-4.8-.4h-3.3l-.9-1h0c-2.4-2.4-5.6-3-8.7-3.6l-2.1-.4L164.3,281h-.2l-1.7-.3a2.3,2.3,0,0,0-2,.9h-.2a20.1,20.1,0,0,1-5.1-1,18.9,18.9,0,0,0-5.2-1H147c-.6-1.2-1.3-1.7-2.1-1.7a4.2,4.2,0,0,0-2,.7c-15.4,8.8-27.3,15.4-38.5,21.6-6.4,3.5-12.8,7.3-19,10.9-8.9,5.2-18.2,10.6-27.5,15.4-5.8,3-11.5,6.4-17,9.6l-9.3,5.4a3.8,3.8,0,0,0-2.2,3.3v.3Z"/><path class="cls-2" d="M260.2,206.6l-5,.3c-6.9,3-13.9,1.8-21,.6l-5,.3c-1.5,3.1-4.4,1.6-6.5,1.6-7.1-.3-14.3,1.3-21.4-.8L119.3,215c-13.9,1.1-27.9,1.9-41.7,3.5s-28.9,6.5-43.5,9.2A79.2,79.2,0,0,0,7.3,238.1c-5.1,3.1-8.3,10.4-6.7,16l25.1,85.8c.6,2,.5,4.5,3.3,5.1a4.1,4.1,0,0,1,2.3-3.5c8.8-5,17.3-10.4,26.3-15,15.8-8.2,30.9-17.7,46.5-26.3q19.3-10.7,38.5-21.6c2.1-1.2,3.4-.9,4.5,1.1h2c3.8-.3,7.2,1.9,11,2,1.2-1.5,2.7-1,4.1-.7l29,6.6c3.8.9,7.9,1.2,10.9,4.2h0l.9.9h3.2c5.1.3,10.3,1.3,15.3.8,9.2-.9,16.4,1.7,22.2,9a44.5,44.5,0,0,0,8.9,8c6.4,4.7,10.9,11.6,18.2,15.2l-15.8-39c-2.5-6.1-4.8-12.2-7.7-18.1-1.3-2.6-1.5-4.6-.1-7a18.8,18.8,0,0,0-2.5-11c-2.2-3.9-3.5-8.2-5.2-12.3s-1-5.8,3.4-7.1c9.6-2.7,18.5-7.6,28.4-9.5-6-.5-12.2,1-18.6-1.4,5.7-3.8,12.2-4.3,16.9-8.6l-9.7-1.3C259.2,209.9,258.9,208.6,260.2,206.6Z"/><path class="cls-3" d="M482,600.7c-1.7-2.3-.7-4.5.2-6.5l.5-1.1c5.5-13.5,10.4-27.5,15.2-41,2.2-6.2,4.4-12.5,6.6-18.8l3.3-9.1c6.3-17.2,12.7-35,18.6-52.7,3.3-9.8,7-19.6,10.5-29.2,2.5-6.7,5.1-13.5,7.5-20.3,3.9-10.9,7.8-22.1,11.5-32.9s7.3-21.2,11.1-31.8,6.9-18.9,10.3-28.1l6.7-18.1c1.6-4.5,3.2-9.1,4.7-13.5l2.1-6.2v-1.2h1.2l6.3,7.8,13.6,17,44.9,56.7,5.5,7.1,6.9,8.9,1,1.4c1.1,1.6,2,3,4.1,3.4h.5l-.4.3a9.2,9.2,0,0,0-2.2,3.8,13.8,13.8,0,0,1-1.3,2.9v.2h-.2a3.3,3.3,0,0,0-1.6-.6,2.1,2.1,0,0,0-1.6.9c-17.1,19.2-35,38.3-52.3,56.7l-6.5,6.9c-8.7,9.2-17.3,18.8-25.7,28l-7.6,8.3-19,20.9L524,556.5c-9,9.8-18.9,20.3-31,33-1.2,1.2-2.3,2.6-3.4,4s-4.3,5.4-7.3,7.2h-.2Z"/><path class="cls-3" d="M592.1,290.4h-.9v1.1c-2.3,6.6-4.5,13.2-6.9,19.7-5.6,15.4-11.4,30.8-16.9,46.2-7.6,21.5-14.9,43.2-22.6,64.7-5.9,16.5-12.5,32.8-18,49.5-7,20.7-14.5,41.2-21.9,61.8s-13.8,40.2-21.8,59.8c-.9,2.2-2.7,4.7-.8,7.4,4.5-2.8,7-7.5,10.6-11.2q15.6-16.4,31-33c17.3-18.8,34.4-37.7,51.7-56.6,11.1-12.1,22.1-24.3,33.3-36.3,19.7-21.1,39.6-42.1,58.8-63.6,1.2-1.4,2.2-1.1,3.5-.3,1.4-2.1,1.6-4.9,3.6-6.7-2.8-.5-3.7-3.1-5.3-5-4.2-5.3-8.3-10.7-12.5-16L612,315.1Z"/><path class="cls-4" d="M473.3,680l-4.3-.2-5.2-.2a22.3,22.3,0,0,0-7.6,1.1H453v-.2c-.2-1.6-1.2-1.7-2.4-1.7h-7.9c-8,0-18.6-.1-29.5-1h-6.9a9.9,9.9,0,0,0-4.9,1.1l-4.5.2a45.9,45.9,0,0,1-6.7-.5h-.2l-.2-.5a2.4,2.4,0,0,0-.3-.6l-3.5-.3c-2.2-.2-4.5-.4-6.7-.4a24,24,0,0,0-8,1.2H367l-.3-.3-.3.3h-.1l-8.3-.4H358a10.7,10.7,0,0,0-6-1.8,22.9,22.9,0,0,0-6.7,1.3h-3.9l-15.6-.2c-1.3,0-2.6-.3-2.8-2h.1a2.5,2.5,0,0,0,.9-2.4,166.3,166.3,0,0,1,.5-21.5c.3-4,.5-8.2.6-12.3.5-21.9,1.5-45.1,3-68.9.6-10,1-20.1,1.4-29.9q.2-5.4.4-10.7v-.3h.3c4.5,1.1,8.4,3.3,12.3,5.5l5.1,2.8c13.8,6.9,27.4,13.9,43.6,22.3l9.7,5.3c4.8,2.7,9.8,5.4,14.8,7.8,9.6,4.5,19.1,9.5,28.3,14.3l15.4,8,15,7.9.7.4a3.4,3.4,0,0,0,1.6.7,1.7,1.7,0,0,0,1.3-.8h1.5v.3c-.8,7.8-1.4,15.8-2,23.6-.8,10-1.6,20.3-2.7,30.5-.6,5.3-1.1,11-1.2,16.7,0,.2,0,.5,0,.7s-.1,3.1,1,4.3l.3.3h-1v.9l.2.3h-.2v1.6Z"/><path class="cls-4" d="M358.1,677.1l8.1.4c.3-.6.7-.6,1,0h4c6-2.1,12.2-.9,18.3-.5.3,0,.5.8.7,1.2a45.2,45.2,0,0,0,11,.3c3.9-2.1,8-.5,12-1,12.2,1,24.4,1.1,36.6,1,1.5,0,3.1-.2,3.4,1.9h3c5.7-2,11.5-.8,17.3-.7l-.2-.2v-1.8c-.1.7.1.9.7.8-1.4-1.5-1.1-3.4-1.1-5.2.1-5.6.6-11.2,1.2-16.8,2-18,3-36.1,4.8-54.1h-1c-1.4,1.7-2.5.5-3.8-.2l-15-7.8c-14.6-7.4-28.9-15.3-43.7-22.3-8.4-3.9-16.3-8.8-24.5-13.1-14.5-7.5-29-15-43.6-22.3-5.7-2.8-11-6.7-17.3-8.2-.6,13.5-1,27.1-1.9,40.6q-2.1,34.4-3,68.9c-.3,11.3-1.9,22.5-1.2,33.8a2.7,2.7,0,0,1-1,2.7c.2,1.5,1.3,1.7,2.5,1.8l19.4.3C349.6,675.2,353.9,674.3,358.1,677.1Z"/><path class="cls-5" d="M674.6,393c-2.2-.4-3.3-2.1-4.4-3.6l-1-1.4-7-8.9-5.5-7.1-44.9-56.7-13.6-17-6.2-7.7-.2-.2.2-.2a11.4,11.4,0,0,1,7-2h1.3c.6.6.9.7,1,.7s.5-.7.5-1.4v-.2h2.5a5.7,5.7,0,0,0,3.8,1.3,16.9,16.9,0,0,0,3.6-.5,53.6,53.6,0,0,1,7.4-.9c4.4-.3,8.9-.7,12.9-3a54.3,54.3,0,0,1,11.5-1.6l3.7-.3,7.4-.7c6-.6,12.1-1.2,18.2-1.6,8.2-.5,16.6-1.4,24.7-2.2l15.8-1.5c11.3-1,23.2-2.2,34.7-5h.3v.3c.3,4.1,3.2,6,6.1,7.9a24.9,24.9,0,0,1,3.5,2.6c5.8,5.5,12,10.7,18.1,15.7l6.7,5.7,20,16.8,8.5,7.2,3,2.5,6.9,5.8h.1a4.5,4.5,0,0,0,2.9,1.5h.5v.2a2.8,2.8,0,0,1-.1,2.3,3.3,3.3,0,0,1-2.5,1l-1.2.2c-19,6.9-39.4,14.3-66.2,23.8l-55.3,19.6L674.6,393Z"/><path class="cls-5" d="M592.1,290.4,612,315.1l44.9,56.7c4.2,5.3,8.2,10.7,12.5,16,1.5,1.9,2.5,4.4,5.3,5l79.9-28.3q33.1-11.8,66.2-23.8c1.4-.5,4.7.3,3.7-3.2-1.5.1-2.4-.7-3.5-1.6l-9.9-8.3-28.5-24c-8.3-7.1-16.9-13.9-24.8-21.3-3.4-3.2-9.2-4.6-9.6-10.6-11.4,2.9-23.1,4-34.8,5-13.5,1.2-26.9,2.8-40.4,3.7-8.6.6-17.1,1.5-25.7,2.3-5,.5-10.2.5-15.1,1.9-6.3,3.7-13.6,2.4-20.4,3.9-2.3.5-5.2,1.1-7.6-.8h-2.1c-.1,1.5-.5,2.3-1.9.9S594.5,288.7,592.1,290.4Z"/><path class="cls-5" d="M225.4,452.9l-1.4-.6-3.1-1.5-16.9-9.3L91.4,379.7,48.5,356,29,345.1h-.1v-.2a4.3,4.3,0,0,1,2.4-3.7l9.2-5.4c5.5-3.3,11.3-6.6,17.1-9.6,9.3-4.8,18.6-10.2,27.5-15.4,6.2-3.6,12.6-7.4,19-10.9,11.2-6.2,23.1-12.9,38.5-21.6a4.7,4.7,0,0,1,2.3-.7c1,0,1.8.6,2.5,1.9l1.1,2.3H148l.3.4h.1l.6.7-.5-.2c.4,3.3,1.9,6.2,3.3,9.1l.7,1.5,15.4,32.1c9.1,19,18.5,38.6,27.6,57.9,6.4,13.5,12.8,27.3,19,40.7l11.7,25.2.3.6c.3.6.7,1.2.5,1.8s-.6.8-1.3,1h-.2Z"/><path class="cls-5" d="M147.2,279.5c-1.1-2-2.4-2.3-4.5-1.1q-19.2,10.9-38.5,21.6c-15.6,8.6-30.7,18.1-46.5,26.3-9,4.6-17.5,10-26.3,15a4.1,4.1,0,0,0-2.3,3.5l62.4,34.6,129.6,71.1c1.4.8,3,1.4,4.5,2.1s1-1.8.4-3.1c-10.3-22-20.3-44-30.7-65.9-14.2-30.1-28.6-60-43-90.1-1.7-3.6-3.7-7.1-4.1-11.1h0c-.7-.3-.7-.6,0-1Z"/><path class="cls-6" d="M482.5,602.8h-.6v-2.3h.1c2.9-1.8,5.1-4.5,7.1-7.1s2.2-2.7,3.4-4c12.2-12.8,22-23.3,31-33l32.7-35.7,19-20.9,7.6-8.3c8.4-9.2,17.1-18.7,25.7-28l6.5-6.9c17.3-18.4,35.2-37.5,52.3-56.7a2.6,2.6,0,0,1,1.9-1,3.8,3.8,0,0,1,1.9.6h.2v.2l-.2.7a14.4,14.4,0,0,1-.5,1.6l-37.6,93.7-17.5,43.6c-.6,1.4-1.2,2.9-2.8,3.7l-.7.7h.5l-.9.4h-.8c-3.2,0-5.8,1.6-8.4,3.2a33.7,33.7,0,0,1-3.9,2.2c-19.2,8.5-38.6,17.6-57.4,26.4l-6.6,3.1L496.1,597l-10,4.8A8.4,8.4,0,0,1,482.5,602.8Z"/><path class="cls-6" d="M671,399.5c-1.2-.7-2.3-1-3.5.3-19.2,21.6-39,42.6-58.8,63.6-11.2,12-22.2,24.2-33.3,36.3-17.2,18.9-34.4,37.8-51.7,56.6q-15.3,16.7-31,33c-3.5,3.7-6.1,8.3-10.6,11.2v2a7.6,7.6,0,0,0,3.8-.9c16.1-7.7,32.2-15.4,48.3-23,21.3-10,42.5-20,64-29.5,4.3-1.9,7.9-5.7,13.1-5.4h-.1l1.3-1.2c1.7-.8,2.2-2.4,2.8-3.9l55-136.8C670.6,401.1,670.8,400.2,671,399.5Z"/><path class="cls-5" d="M323,674.6l-.6-1.3-1.3-2.8-6.2-14.3-41.2-95.8-30.3-70.8L230,458.4h.2a3.1,3.1,0,0,1,1.9-.8,4.7,4.7,0,0,1,2.8,1.4l.8.6,18.2,13.1,15.2,10.9,26.6,18.9,17,12.1,9.3,6.7,4.3,3.1.9.9a1.9,1.9,0,0,0,1.9.9h.1a2.3,2.3,0,0,1,1.2,2.2q-.2,5.4-.4,10.7c-.4,9.8-.8,20-1.4,29.9-1.5,23.8-2.5,47-3,68.9-.1,4.1-.4,8.3-.6,12.3a166.1,166.1,0,0,0-.5,21.4,3,3,0,0,1-1.1,2.9l-.2.2Z"/><path class="cls-5" d="M323.2,674.5a2.7,2.7,0,0,0,1-2.7c-.7-11.3.9-22.5,1.2-33.8q.8-34.5,3-68.9c.8-13.5,1.3-27.1,1.9-40.6a2.1,2.1,0,0,0-1-2,2.2,2.2,0,0,1-2-1l-.9-.9-13.7-9.8-43.6-31-33.4-24c-1.4-1-3-3.1-5.2-1.3l43.6,101.9,47.3,110.1C321.8,671.8,322.5,673.2,323.2,674.5Z"/><path class="cls-1" d="M321.8,521.7l-9.4-6.8-17-12.1L268.8,484,253.6,473,235.4,460l-.8-.6a4.3,4.3,0,0,0-2.5-1.3,2.6,2.6,0,0,0-1.6.7l-.3.2v-.3a10.4,10.4,0,0,0-4.7-5.7l-.5-.3.5-.2c.6-.2.9-.5,1-.7s-.1-.8-.4-1.3l-.4-.7L214,424.5c-6.2-13.3-12.6-27.1-19-40.7-9.1-19.3-18.5-38.9-27.6-57.9L152,293.7l-.7-1.5c-1.5-3-3-6.2-3.4-9.7v-.9l4.7,6.2,9.3,12.3L173,314.9c9.3,12.3,19,25.1,28.1,37.9,4.8,6.7,9.8,13.3,14.6,19.8l8.8,11.8L238,402.6l11.4,15.3,26.9,36.5L295.1,480,324.6,520h.1c1,1.4,2,2.7,1.8,4.5v.4Z"/><path class="cls-1" d="M230.3,458.5c2.3-1.8,3.8.2,5.2,1.3l33.4,24,43.6,31,13.7,9.8c.2-1.8-.8-3.1-1.8-4.4q-17.8-24-35.4-48L249.2,418c-8.3-11.2-16.7-22.3-24.9-33.5s-15.7-21-23.3-31.6c-12.8-17.8-26.1-35.1-39.3-52.6l-13.5-17.8c.4,4.1,2.4,7.6,4.1,11.1,14.3,30,28.7,60,43,90.1,10.4,21.9,20.5,44,30.7,65.9.6,1.2,1.7,2.3-.4,3.1A10.7,10.7,0,0,1,230.3,458.5Z"/><path class="cls-7" d="M603.2,218.8a110.2,110.2,0,0,0-16.2-3.5l-8-1.4c-22.5-4.5-45.4-9-67.5-13.2l-8-1.5-35.9-6.9-28.4-5.4a5.2,5.2,0,0,1-1.6-.7l-.7-.4-.4-.2,4.5-3.1,63-34.3c1-.5,1.8-1,1.8-2.2h.1c4.5-2.6,9.7-5.6,15.5-6.5h.3c1.7,0,2.8,1.1,3.9,2.1l.2.2,12.6,11.8c10.5,9.9,21.3,20,32.2,29.8l9.3,8.1c6.9,6,14.1,12.2,20.6,18.9a4.3,4.3,0,0,0,1.6.9l.9.4h.1l.4.5a20.1,20.1,0,0,0,6.6,6.9l.8.5Z"/><path class="cls-7" d="M521.6,139.4c-5.7.9-10.6,3.6-15.4,6.5,0,1.4-1.1,1.9-2.1,2.5l-62.8,34.2-4.1,2.9a9.6,9.6,0,0,0,2.2,1l64.3,12.3c25.2,4.9,50.3,9.7,75.4,14.8,8,1.6,16.3,2.4,24.1,4.9l6.9.5c-3.8-2.4-5.3-5-6.9-7.4a8.8,8.8,0,0,1-2.6-1.3c-9.4-9.6-19.9-18-29.8-27-15.2-13.6-29.9-27.7-44.9-41.6C524.6,140.5,523.5,139.3,521.6,139.4Z"/><path class="cls-8" d="M474.1,678.7c-1.3-1.4-1.2-3.1-1.2-4.7s0-.5,0-.7c.1-5.7.6-11.4,1.2-16.8,1.1-10.1,1.9-20.5,2.7-30.5.6-7.7,1.3-15.7,2-23.6v-.2h.6l1,.3.8.2a.9.9,0,0,0,.7-.4h.5a7.6,7.6,0,0,0,3.4-.9l10-4.8,38.3-18.2,6.6-3.1c18.8-8.8,38.1-17.9,57.4-26.4a33.1,33.1,0,0,0,3.9-2.1c2.6-1.6,5.3-3.3,8.7-3.3H612l-.4.4-7.4,7.4L588,567.5,539.8,615l-19.2,18.9h-.2c-2.3,0-3.5,1.6-4.8,3.1l-.8,1a46.1,46.1,0,0,1-4.2,4.1c-2.8,2.5-5.7,5-7.1,8.7h0L476.9,677h-.1a1.3,1.3,0,0,0-1.3,1.1h-.1l-1,.5h-.3Z"/><path class="cls-8" d="M611.4,543.7c-5.2-.3-8.8,3.5-13.1,5.4-21.5,9.5-42.7,19.5-64,29.5-16.2,7.6-32.2,15.3-48.3,23a7.6,7.6,0,0,1-3.8.9c-1,1.2-2-.3-3,0-1.8,18-2.8,36.1-4.8,54.1-.6,5.5-1.1,11.1-1.2,16.8,0,1.8-.3,3.7,1.1,5.2l1-.5a1.6,1.6,0,0,1,1.5-1.3l26.5-26.2c2.2-5.7,7.6-8.6,11.4-12.9,1.6-1.8,2.9-4.2,5.9-4.2l67.3-66.2C595.7,559.5,603.6,551.6,611.4,543.7Z"/><path class="cls-6" d="M604.9,221.8a49.2,49.2,0,0,1-10.8-1h-.4l.3-.3a4.4,4.4,0,0,1,3.3-1.2h2.9a3.8,3.8,0,0,0,2.9-1h.1l6.1.4a20.8,20.8,0,0,1-5.9-6.5l-.3-.5c-2.6-6.7-7-12.5-11.2-18-1.9-2.4-3.8-4.9-5.5-7.5-6.1-8.9-12.4-17.8-18.5-26.4l-5.7-8-3.7-5.1-3.9-5.3c-.7-1-1.4-2.2-1.1-3.3a3,3,0,0,1,2-1.8h.2L576,147.9l4.6,2.6c34.3,19.5,68.8,39.6,98.5,56.9,4.9,2.8,9.1,4.1,13.6,4.1h3a4.3,4.3,0,0,1,3.9,1.9l.2.4-8.3.4a9.5,9.5,0,0,0,2.2,1.5,5.4,5.4,0,0,1,2.9,2.7v.3h-.3a73,73,0,0,1-15.3,1.2h-8.1l-19,.6c-8.3.3-17,.6-25.5.6h-6.7l-2,.3-1.9.3-4.9.2Z"/><path class="cls-6" d="M603.2,211.6c1.6,2.5,3.1,5,6.9,7.4l-6.9-.5c-2.6,2.5-6.4-.6-9,2,7.8,1.7,15.7.8,23.6.6,1.3,0,2.6-.5,3.9-.5,17.1.4,34.1-.8,51.2-1.1,7.8-.1,15.6.4,23.4-1.2-.9-2.3-3.7-2.4-5.3-4.5l8.4-.4c-1.6-2.5-4.2-1.7-6.4-1.7-5.2.1-9.6-1.5-14.1-4.1-32.7-19.1-65.5-38.2-98.5-56.9l-25-14.3c-2.9,1.2-2,3-.8,4.8,2.5,3.5,5.1,6.9,7.6,10.4,8.1,11.5,16.3,22.9,24.2,34.5C592.2,194.5,599.4,201.9,603.2,211.6Z"/><path class="cls-4" d="M824.1,337.7a4.9,4.9,0,0,1-3.2-1.6h-.1l-6.9-5.8-3-2.5-8.5-7.2-20-16.9-6.7-5.7c-6-5-12.3-10.2-18.1-15.7a24.5,24.5,0,0,0-3.4-2.5c-2.9-1.9-6-3.9-6.3-8.3v-.2h.2l4.8-1.9,10.4-4.2c6.8-2.9,13.3-9.3,19.6-15.5,7.9-7.8,16.1-15.8,25.2-17.4h.3v.3c2.2,13.8,5.1,32.4,7.9,51s5.8,37.2,7.9,51h0v.6h.3l.3,2.3h-.6Z"/><path class="cls-4" d="M748.2,271.5c.4,6,6.2,7.4,9.6,10.6,7.9,7.5,16.5,14.3,24.8,21.3l28.5,24,9.9,8.3c1,.9,2,1.8,3.5,1.6l-.2-1.9-.4-.2a4.3,4.3,0,0,1,.3-.7c-4.4-27.7-11.5-74.3-15.9-102-16.4,2.9-29.5,26.5-44.8,32.9Z"/><path class="cls-6" d="M432.1,186.7l-.7-.4a3.5,3.5,0,0,0-1.4-.5l-12.4-.5-14.4-.6-14.3-.7c-11.3-.6-22.9-1.2-34.3-1.5l-5.8-.4c-2.2-.2-4.4-.4-6.6-.4h-.3v-.3a74.3,74.3,0,0,1,5.8-12.2c1.2-2.2,2.5-4.5,3.6-6.9,3.5-7.2,7.2-14.5,10.8-21.6l4-7.8a5.5,5.5,0,0,0,.7-3.3h-.4l.7-1.2v.5a1.4,1.4,0,0,0,.6-1.2h0a2.9,2.9,0,0,1,2.3-1.4h.1l6.2,5.7,13.6,12.4,14.3,12.8L419.5,171l4.2,3.6c3.8,3.2,7.7,6.5,10.7,10.7v.2l-1.3,1.2h-1.2Z"/><path class="cls-6" d="M370.2,126.6a2.6,2.6,0,0,0-2.1,1.3,1.5,1.5,0,0,1-1.1,1.5v-.2a5.5,5.5,0,0,1-.7,3.8c-4.9,9.8-10,19.5-14.7,29.4-3.1,6.4-7.2,12.2-9.5,19,4.1,0,8.3.7,12.4.8,16.2.4,32.4,1.4,48.6,2.2l26.8,1.1a7.1,7.1,0,0,1,2.2.9h1l1.1-1c-4.1-5.6-9.8-9.7-14.9-14.3l-29.4-26.5Z"/><path class="cls-9" d="M271.4,211.8l-3-.4-6.7-.9c-1.3-.2-2.1-.6-2.4-1.3s-.1-1.6.6-2.8h.2a8.5,8.5,0,0,0,4-2.2l1-.8,46.8-34.5,50.3-37.1,1-.8a7.2,7.2,0,0,1,3.8-2h.2v.2a5.9,5.9,0,0,1-.7,4l-4,7.8c-3.6,7-7.3,14.3-10.8,21.6-1.1,2.3-2.4,4.7-3.7,6.9a73.7,73.7,0,0,0-5.8,12.1h-.1c-14.5,6.9-30.2,13.8-48.1,21.1H294a8.9,8.9,0,0,1-3.4.9h-.4a2.1,2.1,0,0,0-1.5.5h.4l-.7.5h-.1l-.7.5.2-.4a1.7,1.7,0,0,0-1.1.5h.4l-.7.5h-.1l-.7.4.2-.4h-.4a2.2,2.2,0,0,0-1.7.5h.4l-.7.5h-.1l-.8.5.2-.4a1.6,1.6,0,0,0-1.1.5h.4l-.6.4h-.1l-.7.5.2-.5a1.6,1.6,0,0,0-1.1.5h.4l-.7.4h-.1l-.7.4.2-.4h-.5a2.1,2.1,0,0,0-1.7.6h.4l-.7.4h-.1l-.7.4.2-.4h-.2a3.3,3.3,0,0,0-3.3,1.9h-.8Z"/><path class="cls-9" d="M342.2,181.5c2.3-6.8,6.4-12.6,9.5-19,4.7-9.9,9.8-19.6,14.7-29.4a5.5,5.5,0,0,0,.7-3.8c-2,.2-3.2,1.7-4.6,2.7l-97.1,71.6c-1.6,1.2-3,2.7-5.1,3-1.3,2-1,3.3,1.6,3.6l9.7,1.3h.6c.9-1.7,2.4-2.2,4.2-2h0c.7-1.2,1.9-1,3-1h0a1.9,1.9,0,0,1,2-1h0a2,2,0,0,1,2-1h0c.7-1.2,1.9-1,3-1h0a2,2,0,0,1,2-1h0a2.1,2.1,0,0,1,2.1-1,8.3,8.3,0,0,0,3.8-.9C310.3,196,326.4,189,342.2,181.5Z"/><path class="cls-10" d="M445.3,162.6l-25.7-12.1-.6-.3-39.5-18.8-1.3-.6c-2-.9-4.1-1.8-5.2-4v-.2h.2l.5-.3a2.7,2.7,0,0,1,1.2-.6l22.1-3.1,40.5-5.7h.9c2,0,3,1,4.2,2.7h0c-1.1,2.7-.1,5,.9,7.3a24.8,24.8,0,0,1,1,2.5c1.3,4.2,2.8,8.5,4.2,12.6,2.8,8.2,5.7,16.8,7.8,25.4v.5Z"/><path class="cls-10" d="M442.4,119.4c-1.2-1.7-2.3-2.9-4.8-2.5l-62.7,8.8c-.6.1-1.1.6-1.6,1,1.3,2.7,4,3.4,6.4,4.5l40.1,19.1,36.5,17.2c-3.1-12.9-7.9-25.4-11.9-38C443.3,126.3,440.8,123.2,442.4,119.4Z"/><path class="cls-11" d="M603.1,211.8l-.9-.3a4.8,4.8,0,0,1-1.8-1c-6.5-6.7-13.7-12.9-20.6-18.9l-9.3-8.1c-10.9-9.8-21.7-20-32.2-29.8l-12.6-11.8-.2-.2c-1.1-1-2.1-2-3.6-2h-1.3l.9-.5c3.5-2.1,7.5-2.9,11.4-3.8a50.2,50.2,0,0,0,7.9-2.1,15,15,0,0,1,5.4-1.1c3.3,0,6.4,1.3,9.4,3.9l.3.3-.4.2c-1,.4-1.5.9-1.7,1.5s.4,2,1,2.9l3.9,5.3,3.7,5.1,5.7,8c6.1,8.6,12.5,17.6,18.5,26.5,1.7,2.6,3.7,5.1,5.5,7.5,4.2,5.6,8.6,11.3,11.3,18.1l.2.6Z"/><path class="cls-11" d="M603.2,211.6c-3.8-9.7-11-17.1-16.7-25.5-7.9-11.6-16.1-23-24.2-34.5-2.5-3.5-5.1-6.9-7.6-10.4-1.2-1.7-2.1-3.6.8-4.8-4.3-3.8-9-5-14.6-2.8s-13.3,2.3-19.2,5.9c1.9-.1,3,1.1,4.3,2.2,14.9,13.9,29.7,28,44.9,41.6,10,8.9,20.5,17.4,29.8,27A8.8,8.8,0,0,0,603.2,211.6Z"/><path class="cls-8" d="M434.1,185.7H434c-3-4.1-6.9-7.4-10.7-10.6l-4.2-3.6L404,157.7l-14.3-12.8-13.6-12.4-6.4-5.9h.4a5.8,5.8,0,0,1,1.8-.4,2.7,2.7,0,0,1,1.5.4h.1c1,2.1,3,3,4.9,3.8l1.3.6,39.5,18.8.6.3,25.7,12.1,10.8,5.1h1.6l-.5.4-3.7,3c-3.3,2.6-6.6,5.4-9.8,8.2l-.9.6c-1.1.7-2.1,1.4-1.5,3v.2l-4.4,3Z"/><path class="cls-8" d="M456.2,167.5l-36.5-17.2-40.1-19.1c-2.3-1.1-5.1-1.8-6.4-4.5a3.3,3.3,0,0,0-3-.1l19.7,18,29.4,26.5c5.1,4.6,10.7,8.7,14.9,14.3h2.9l4.1-2.9c-1-2.4,1.4-3,2.4-3.9,4.4-3.9,9-7.5,13.5-11.2Z"/><path class="cls-6" d="M457.2,167.8v0H456v-.2c-2.1-8.6-5-17.1-7.7-25.4-1.4-4.1-2.8-8.4-4.2-12.6a24.9,24.9,0,0,0-1-2.5c-1.1-2.4-2.1-4.9-.9-7.7l.2-.4,2,2.3,3.8,4.3,20.8,24,7.7,8.8-.2.2c-4.2,2.9-8.9,4.9-13.5,6.8l-5.6,2.4h-.1Z"/><path class="cls-6" d="M456.2,167.5h1c6.4-3,13.2-5.2,19.1-9.2L448,125.6l-5.6-6.2c-1.6,3.8.9,6.8,1.9,10C448.2,142.1,453.1,154.5,456.2,167.5Z"/><path class="cls-1" d="M441,182.7c-.8-2,.5-2.9,1.6-3.6l.9-.6c3.2-2.8,6.6-5.6,9.8-8.2l3.7-3,5.7-2.5c4.6-1.9,9.3-3.9,13.4-6.8h.2l1,.2a5.6,5.6,0,0,0,2.7-1l1.2-.6,18.4-8.1,6.7-3v.4c0,1.5-1.1,2.1-2.1,2.7L441.1,183Z"/><path class="cls-1" d="M476.3,158.3c-5.9,4.1-12.6,6.3-19.1,9.2-4.5,3.7-9.1,7.3-13.5,11.2-1.1,1-3.4,1.5-2.4,3.9l62.8-34.2c1-.6,2.1-1.1,2.1-2.5l-24.8,11C479.7,157.6,478.3,159,476.3,158.3Z"/><path class="cls-8" d="M810.1,246.8a10,10,0,0,1-7.5-5.5,9.8,9.8,0,0,1,1-9.1,3,3,0,0,0,.3-1.4c0-.3,0-.5,0-.8v-.2h.9c1.6,0,3.4.4,3.7,3.2s.8,6.5,1.3,9.6l.6,4.1v.3Z"/><path class="cls-8" d="M804.1,229.9a6.3,6.3,0,0,1-.3,2.3c-3.8,6.2-.8,12.8,6.4,14.3-.6-4.6-1.4-9.1-1.9-13.7C808,230.1,806.3,229.8,804.1,229.9Z"/><path class="cls-9" d="M453.2,680.7l-9.7-.2c-10-.2-20.3-.5-30.4-1.4h-.2v-1.8h.3c10.8.9,21.4,1,29.4,1h7.9c1.3,0,2.7.2,2.9,2.2v.3Z"/><path class="cls-9" d="M453.2,680.5c-.3-2.1-1.9-2-3.4-1.9-12.2.1-24.4,0-36.6-1v1.3C426.5,680,439.8,680.1,453.2,680.5Z"/><path class="cls-10" d="M503,650.5c1.5-3.8,4.4-6.4,7.2-8.9a45.9,45.9,0,0,0,4.2-4l.8-.9c1.2-1.5,2.7-3.3,5.2-3.3h.7l-.4.4a204.1,204.1,0,0,1-17.3,17l-.8.7Z"/><path class="cls-10" d="M520.5,633.6c-3-.1-4.3,2.4-5.9,4.2-3.8,4.3-9.2,7.2-11.4,12.9A202.7,202.7,0,0,0,520.5,633.6Z"/><path class="cls-9" d="M471,681.5h-1.4l-9.7-.5-5-.3,1.2-.4a22.8,22.8,0,0,1,7.7-1.2l5.2.2,4.5.2h.4l-.2.4a2.7,2.7,0,0,1-2.7,1.6Z"/><path class="cls-9" d="M473.5,679.8c-5.8-.1-11.6-1.3-17.3.7l13.4.7C471.1,681.2,472.7,681.6,473.5,679.8Z"/><path d="M226.1,210.1l-2-.2-1.5-.2h-1.8l-5.2.2-5.3.2h0a31.5,31.5,0,0,1-9.1-1.1l-1.5-.4,29.9-.8-.2.4A3.4,3.4,0,0,1,226.1,210.1Z"/><path d="M201.2,208.6c7.1,2.1,14.3.6,21.4.8,2.1.1,5,1.6,6.5-1.6Z"/><path class="cls-5" d="M369.8,677.7l1.3-.4a24.5,24.5,0,0,1,8.2-1.2c2.2,0,4.5.2,6.7.4l3.5.3c.3,0,.5.4.7.9l.2.5.2.4Z"/><path class="cls-5" d="M390.2,678.2c-.2-.4-.4-1.2-.7-1.2-6.1-.4-12.3-1.5-18.3.5Z"/><path d="M245.5,209.1a67.5,67.5,0,0,1-11.1-1.3l-2.7-.5,24.8-.7-1.2.5a23.9,23.9,0,0,1-9.8,1.9Z"/><path d="M234.2,207.6c7,1.2,14.1,2.4,21-.6Z"/><path class="cls-2" d="M343.7,676.7l1.4-.4A23.4,23.4,0,0,1,352,675a11.2,11.2,0,0,1,6.3,1.8l.8.5Z"/><path class="cls-2" d="M358.1,677.1c-4.2-2.7-8.6-1.9-13-.5Z"/><path class="cls-2" d="M400.3,678.7l.8-.4a10.3,10.3,0,0,1,5.1-1.1h7.2v1.9Z"/><path class="cls-2" d="M413.2,678.8v-1.3c-4,.5-8.1-1.1-12,1Z"/><path class="cls-5" d="M824,335.7h-.1c-.2-.1-.4-.2-.4-.4l.2-.6.5-1.1.3,2.5Z"/><path class="cls-5" d="M824.1,334.5a4.3,4.3,0,0,0-.3.7l.4.2Z"/><polygon class="cls-8" points="611.1 543.6 612.4 542.4 612.7 542.8 611.5 544 611.1 543.6"/><path class="cls-8" d="M612.6,542.6l-1.3,1.2Z"/><path class="cls-10" d="M475,678a1.8,1.8,0,0,1,1.7-1.5h.8l-2.7,2.3Z"/><path class="cls-10" d="M476.8,676.8a1.6,1.6,0,0,0-1.5,1.3Z"/><path class="cls-5" d="M365.8,677.7l.2-.4c.2-.4.4-.5.7-.5s.5.2.7.6l.2.4Z"/><path class="cls-5" d="M367.2,677.5c-.3-.6-.6-.6-1,0Z"/><path class="cls-9" d="M368.5,127v.9a1.8,1.8,0,0,1-1.3,1.7l-.7.2Z"/><path class="cls-9" d="M367,129.4a1.5,1.5,0,0,0,1.1-1.5Z"/><path class="cls-9" d="M473.3,677.4h.3c.8.3,1.2.6,1.2,1s-.5,1-1.1,1.4l-.6.4Z"/><path class="cls-9" d="M473.5,677.7v2.1C474.4,679.2,475.5,678.5,473.5,677.7Z"/><path class="cls-10" d="M417.1,427.7h-.1l-4.7-3c-3.3-2.3-6.8-4.6-10.8-5.9h0l-5.6-3.9h-.3l.6.9-1.2-1.1c-5.9-5.1-12.7-9.3-19.2-13.3l-8.4-5.3c-17.9-11.7-36.1-23.4-53.8-34.8l-19.6-12.6-24-15.4-57-36.7-1.4-.8a7.9,7.9,0,0,1-3.7-3.2l-.2-.4h.4l4.8.4a75.4,75.4,0,0,0,7.6.5h2.9l3.5-.2a22.8,22.8,0,0,1,19,9.3,44.5,44.5,0,0,0,8.8,7.9,65.2,65.2,0,0,1,7.2,6.4c3.3,3.3,6.7,6.6,11,8.8h.1a7.4,7.4,0,0,0,6.5,3.2,20.6,20.6,0,0,0,4.5-.6,104.1,104.1,0,0,1,12.2-2.3c7.3-.8,12.6-4.9,18.2-9.2l2.3-1.7,3.1-2.5c3.5-2.9,7.1-5.8,11.8-7l.9-.6,5.4-3.6-3.8,3.1c5.4-.9,10.5-3,15.5-5,3.2-1.3,6.5-2.7,9.9-3.7a76.9,76.9,0,0,0,7.3-2.8l3.3-1.4.4-.2v.4a3.7,3.7,0,0,0,.5,3,2.9,2.9,0,0,0,2.3.8h.8c3.4-.4,7.3-.7,11.4-.9l13.7-.2H413c8.3,0,17.3-.1,26.3-.8s15.5-.6,23.1-.7l14.3-.2,32.8-.9c14-.3,28.6-.7,42.8-1.2,5.1-.2,10.4-.3,17.5-.3h21.8v1.5h-.1c-4.6,2.1-8.5,5.4-12.2,8.6l-4.8,4c-12.4,9.7-25.9,20.4-42.4,33.6l-17,13.9-17.6,14.3L477,382.3l-14.3,11.3L440.7,411l-16.1,12.9-1,.9c-1.7,1.5-3.5,3-6.1,3ZM396.6,415l2.5,1.5A6.3,6.3,0,0,0,396.6,415Z"/><path class="cls-10" d="M591.2,291.5v-1.1c-13,0-26-.3-38.9.2-25.2,1-50.5,1.3-75.7,2.1-12.5.4-24.9-.1-37.3.9-17.9,1.4-35.9.4-53.8.9-3.8.1-7.6.4-11.4.9s-4.3-1-3.9-4c-3.6,1.4-7,3.1-10.7,4.2-8.9,2.7-17.1,7.5-26.4,8.9h.1l-1.6,1.1c-6,1.4-10.2,5.9-14.9,9.4-6.3,4.8-12.2,10.1-20.6,11a103.9,103.9,0,0,0-12.2,2.3c-3.9.9-8.3,1.5-11.2-2.7-7.3-3.6-11.8-10.5-18.2-15.2a44.5,44.5,0,0,1-8.9-8c-5.8-7.4-13-9.9-22.2-9-5,.5-10.2-.5-15.3-.8,1,2.1,3.2,2.8,5,3.9l81,52.1c24.5,15.7,49,31.4,73.4,47.3,9.3,6.1,19.2,11.3,27.6,18.6h0a6.9,6.9,0,0,1,5,3h-.1l1.5,1c5.8,1.9,10.4,5.9,15.5,9,3.2.1,5.1-2.1,7.3-3.8l38-30.3c11.5-9.2,23.2-18.2,34.7-27.4s23-18.9,34.6-28.2q21.1-16.9,42.4-33.6C579.7,299.8,584.6,294.5,591.2,291.5Z"/><path class="cls-12" d="M352,293.7a26.6,26.6,0,0,0-13.1-3h-1a270.7,270.7,0,0,1-55.9-5.7,23,23,0,0,0-4.7-.5,18.3,18.3,0,0,0-4.6.6,57.6,57.6,0,0,1-14.5,1.7h-1.3v-.2l-2.2-5.3c-1.7-4.3-3.5-8.7-5.6-12.8s-1.4-4.9-.1-7.2,2.1-3.2,4.4-3.2h1.8c1.3,0,2.2-.7,3.1-2.2s4-2.9,6.6-3.4l1.7-.4h.4c2.9-.7,5.7-1.4,7.3-4.5a3.1,3.1,0,0,1,3-1.7l1.9.2,1.7.2a16.3,16.3,0,0,0,6.2-1.3l1.9-.7c5.5-2.1,11.2-4.3,17.2-4.3a23.4,23.4,0,0,1,5.2.6,44.6,44.6,0,0,0,10,1c3.2,0,6.4-.3,8.8-.5,5.5-.5,11.2-.8,16.7-.8a189.8,189.8,0,0,1,24.4,1.6,72.5,72.5,0,0,0,9.4.7,41.9,41.9,0,0,0,10.8-1.3,20.5,20.5,0,0,1,5.3-.8,12,12,0,0,1,5.1,1.1,9.3,9.3,0,0,0,3.9.7h4.4c3,.4,5.5,2,8,3.5a21.9,21.9,0,0,0,7,3.4l.7.2a26.1,26.1,0,0,0,5.7.8h.6a23.3,23.3,0,0,1,3.6,1.6,18.6,18.6,0,0,0,5.1,2,3.9,3.9,0,0,1,2.6,1.7,6.8,6.8,0,0,1,.8,5.1c-.8,3.6.2,6.4,3.1,8.8l.2.2v.2a3.1,3.1,0,0,1-2.7,1.1h-1.1a154.4,154.4,0,0,1-17.8,1.9,164.5,164.5,0,0,0-16.7,1.7c-3.7.6-7.5,1.5-11.2,2.3s-8.3,1.8-12.5,2.5a37.6,37.6,0,0,0-15.1,5.5,96.7,96.7,0,0,0-14,6.8l-4.1,2.3H352Z"/><path class="cls-12" d="M249.2,261.4c-1.3,2.4-1.1,4.4.1,7,2.9,5.9,5.2,12.1,7.7,18.1a58.6,58.6,0,0,0,15.6-1.7,20.6,20.6,0,0,1,9.4,0,269.4,269.4,0,0,0,56.7,5.6,27,27,0,0,1,13.4,3c5.9-3.2,11.7-6.7,18.1-9a38.1,38.1,0,0,1,15.2-5.5c8-1.3,15.7-3.4,23.6-4.8,11.5-2,23.1-1.5,34.5-3.6,1.3-.2,2.7.3,3.7-1-2.9-2.4-4.1-5.2-3.2-9.1s-.4-6-3.1-6.5-5.7-2.6-8.6-3.5a27.1,27.1,0,0,1-7.1-1c-5.6-1.2-9.3-6.2-14.9-6.9-2.8-.1-5.7.6-8.4-.6s-6.7-1.2-10.2-.3c-6.7,1.8-13.6,1.5-20.3.6a184.2,184.2,0,0,0-41.1-.8c-6.2.6-12.6.9-18.9-.5-8.6-2-16.5,1.6-24.2,4.5a16.5,16.5,0,0,1-6.3,1.3c-2.2,0-5-1.4-6.4,1.2s-4.7,4-7.9,4.7-6.7.9-8.2,3.6-2.5,2.5-4.3,2.3S250.3,259.5,249.2,261.4Z"/><path class="cls-10" d="M397.8,231.8c-5.2,0-10.5-.3-15.5-.6s-10.3-.6-15.5-.6h-5.6a2.5,2.5,0,0,1-2.2-1.2v-.2h.2c4.1-3.5,8.9-6,13.5-8.4l6.1-3.3c12.1-7,24.5-13.9,36.5-20.6l13.4-7.5.4-.2a4.2,4.2,0,0,0,1.7-1.3l-2.1,1,2.4-1.6h0l.6-.4v.3h1.3c.1-.1.2-.3.1-.8h0l1.2-1.2h3.1l.7.4a4.8,4.8,0,0,0,1.4.6l28.4,5.4,35.9,6.9,8,1.5c22.1,4.3,45,8.7,67.5,13.3l8,1.4a109.4,109.4,0,0,1,16.2,3.5h.4l-.3.3a4.4,4.4,0,0,1-3.2,1.1h-2.9a3.8,3.8,0,0,0-2.9,1.1H502c-10.4,0-24.2,0-38.1-.3l-9.9-.3c-4.6-.2-9.4-.3-14.1-.3l-8.8.2h-2.7l-3.2-.3c-7.2,0-12.6,4.5-17.9,8.8l-1.1.9a8.4,8.4,0,0,1-5.5,2.3Z"/><path class="cls-10" d="M437.1,185.5h-2.9l-1.1,1c.1,1.9-1.3.7-2,1.1h.1c-.4,1.3-1.5,1.7-2.5,2.3-16.7,9.3-33.4,18.5-50,28-6.6,3.8-13.7,6.7-19.6,11.6a2.3,2.3,0,0,0,2.1,1.1c13.1-.6,26.2,1.4,39.4,1.1a8.2,8.2,0,0,0,5.3-2.2c6.5-5.3,12.9-11.2,22.4-9.5h2.7c11-.6,21.9.2,32.8.4,25.3.5,50.6.2,75.9.2h54.4c2.6-2.6,6.4.4,9-2-7.9-2.6-16.1-3.3-24.1-4.9-25.1-5.1-50.3-9.9-75.4-14.8l-64.3-12.3A9.6,9.6,0,0,1,437.1,185.5Z"/><path d="M455,271.8a15.1,15.1,0,0,1-8-2.1c-3.1-2.6-4.2-5.6-3.3-9.4a6.3,6.3,0,0,0-.7-4.7,3.4,3.4,0,0,0-2.2-1.5,19,19,0,0,1-5.2-2,24.3,24.3,0,0,0-3.5-1.5H432v-.2a152.7,152.7,0,0,0-6-24.8h0l.7-1.5a10.5,10.5,0,0,0,1.5-4.2v-.2h3.2v.3c-.1,2.1,1.5,3,3,3.8l.5.3,13.9,7.4,6.6,3.5h.1c3.2,1.7,6.5,3.4,4.2,8.2-.5,1.1,0,1.6,1,2.3l.6.5a55.3,55.3,0,0,1,5.2,6.1l2.9,3.7c2.2,2.5,3.1,4.5,2.9,6.2s-2.7,4-5.6,6.1a20.9,20.9,0,0,1-11.7,3.7Z"/><path d="M431.1,219.9h-2.7c-.1,2.1-1.4,3.8-2.2,5.7a152.2,152.2,0,0,1,6.1,24.9c2.9,1,5.4,2.9,8.6,3.5s3.7,3.8,3.1,6.5.3,6.7,3.2,9.1c5.7,3.5,14,2.2,19.3-1.5s8.2-5.7,2.8-12c-2.7-3.1-5.1-6.8-8.1-9.8-1-.9-2.4-1.6-1.7-3.2,2.2-4.6-1.1-6.3-4.2-7.9-6.9-3.6-13.8-7.2-20.6-10.9C433.1,223.3,430.9,222.4,431.1,219.9Z"/><path d="M333,304.3a111.2,111.2,0,0,1,12.4-7.4l6.6-3.7,4.1-2.3a96.2,96.2,0,0,1,14-6.8h.3v7.5h-.2l-3.3,1.4a77.2,77.2,0,0,1-7.4,2.8c-3.4,1-6.7,2.4-9.9,3.7-5.3,2.1-10.7,4.3-16.5,5.2l-1,.2Z"/><path d="M370.2,284.4c-6.4,2.3-12.1,5.8-18.1,9s-13,6.8-19,11.1c9.3-1.4,17.5-6.2,26.4-8.9,3.6-1.1,7.1-2.8,10.7-4.2Z"/><path class="cls-1" d="M608.2,289.1a6.2,6.2,0,0,1-4.1-1.4l-.5-.4h.6l9.1-1.3a110.7,110.7,0,0,1,17.4-1.8h2.5l-.8.4c-4.1,2.4-8.7,2.7-13.1,3.1a53.3,53.3,0,0,0-7.3.9,17.3,17.3,0,0,1-3.7.5Z"/><path class="cls-1" d="M604.2,287.5c2.3,1.9,5.2,1.3,7.6.8,6.8-1.5,14.1-.3,20.4-3.9C622.7,284.1,613.5,286.5,604.2,287.5Z"/><path class="cls-1" d="M601.3,289.5a2.2,2.2,0,0,1-1.4-.8l-.3-.3,2.6-1.2v.4c0,.5-.1,1.8-1,1.8Z"/><path class="cls-1" d="M600.1,288.5c1.4,1.4,1.8.6,1.9-.9Z"/><path class="cls-9" d="M476.7,603.6a3.7,3.7,0,0,1-1.8-.7l-.6-.4-15-7.8-15.4-8c-9.2-4.8-18.7-9.8-28.3-14.3-5.1-2.4-10-5.2-14.9-7.8l-9.7-5.3c-16.2-8.4-29.8-15.4-43.6-22.3l-5.1-2.8c-3.8-2.2-7.8-4.4-12.2-5.5h-.2v-.2c0-1-.3-1.5-.9-1.8h-.1a1.8,1.8,0,0,0-1.8-.9H327l-1.1-1.1h0c.2-1.7-.7-2.8-1.7-4.2h-.1l-29.5-39.9-18.9-25.7L249,418.2l-11.4-15.3L224,384.7l-8.8-11.8c-4.8-6.5-9.8-13.1-14.6-19.8-9.2-12.8-18.8-25.5-28.1-37.8l-11.1-14.8-9.3-12.3-4.2-5.6s0-.7,0-1l-1.1-2.3h2.5l12.7,7.1,28.1,15.7,85,47,34,18.7,37.6,20.7,22.2,12.4,20,11.1,1,.6a9.1,9.1,0,0,0,4.5,1.7h.5v-.2l-.7-.5.7.4-.2-.8.6,1h.1l5.7,3.4H401l.8.5c4,1.3,7.5,3.7,10.9,6l4.6,3h.1c2.9,5,4.7,10.6,6.4,16,.7,2.1,1.3,4.2,2.1,6.3,9.1,25.6,17.8,50.9,24.4,70,4.5,13.1,9,26.5,13.4,39.5l11,32.6a35,35,0,0,0,1.5,3.5,18.5,18.5,0,0,1,2.2,7.3h-.1a2.2,2.2,0,0,1-1.7,1ZM395.5,414.7c.5,2.1,2.1,2.4,3.9,2.5l-3.8-2.6h0Z"/><path class="cls-9" d="M417.2,427.5c-5.1-3.1-9.7-7.1-15.5-9l-1.5-1h.1c-2.2-.1-4.5-.1-5-3h0c-2.5.4-4.5-1.2-6.5-2.3l-42.2-23.5L275,349.3l-85-47-40.8-22.9h-2l1,2q0,.5,0,1h0l13.5,17.8c13.1,17.5,26.5,34.9,39.3,52.6,7.6,10.6,15.6,21.1,23.3,31.6s16.7,22.3,24.9,33.5L289,472.1q17.7,24,35.4,48c1,1.4,2,2.6,1.8,4.4l.9.9a3.6,3.6,0,0,1,3.1,3c6.4,1.5,11.6,5.4,17.3,8.2,14.6,7.3,29.1,14.8,43.6,22.3,8.2,4.3,16.2,9.1,24.5,13.1,14.8,7,29.1,14.9,43.7,22.3l15,7.8c1.3.7,2.5,1.9,3.8.2-.1-4-2.5-7.2-3.7-10.7-8.2-24-16.2-48.1-24.4-72s-16.1-46.7-24.4-70C423,442.2,421.2,434.4,417.2,427.5Z"/><path class="cls-8" d="M278.7,223.9a3.3,3.3,0,0,1-2.3-1.4c-.6-.6-1.2-1.2-1.9-1.2a2.2,2.2,0,0,0-1.2.5h-9.5a26.4,26.4,0,0,1-9.3-1.4l-.5-.2.4-.3a38.9,38.9,0,0,1,8-3.8c3.3-1.3,6.3-2.4,8.9-4.8h1.2c1.3,0,2.6-.2,3.3-1.5h-.6l.8-.4h.1l.6-.3v.3h.3a2.4,2.4,0,0,0,1.8-.5h-.4l.7-.5h.1l.9-.6-.3.5a1.7,1.7,0,0,0,1-.4h-.4l.7-.5h.1l.8-.5-.3.5a1.7,1.7,0,0,0,1.1-.5h-.4l.7-.5h.1l.9-.9-.4.9h.1a2.8,2.8,0,0,0,1.9-.5h-.4l.8-.5h.1l.9-.6-.3.5a1.8,1.8,0,0,0,1-.4h-.4l.7-.5h.1l.8-.5-.3.5a1.7,1.7,0,0,0,1.4-.9h.6a8.6,8.6,0,0,0,3.2-.9h.1c17.9-7.3,33.6-14.2,48.1-21.1h.1c2.2,0,4.5.2,6.6.4l5.7.4c11.5.3,23.1.9,34.4,1.5l14.3.7,14.4.6,12.4.5a3.9,3.9,0,0,1,1.6.6l.7.3h.3l-.9.9h.2l-.6.5h0l-2,1.4,1.4-1.4h-.1a27,27,0,0,0-7.1,1.3l-2.3.6L282.8,223.4l-2.4.3h-1.7Z"/><path class="cls-8" d="M342.2,181.5c-15.8,7.5-31.9,14.5-48.1,21.1a8.3,8.3,0,0,1-3.8.9,2.1,2.1,0,0,1-2.1,1h0a2.1,2.1,0,0,1-2,1h0c-.7,1.2-1.9,1-3,1h0a2,2,0,0,1-2,1h0a2.1,2.1,0,0,1-2,1h0c-.7,1.2-1.9,1-3,1h0c-.8,1.9-2.4,2.1-4.2,2h-.6c-4.6,4.3-11.2,4.7-16.9,8.6,6.4,2.4,12.6.9,18.6,1.4,3-2.1,3.6,2.9,6.2,2a27.5,27.5,0,0,0,3.4-.4L421,189.4c3.4-.8,6.7-2.1,10.2-1.9h-.1l1-1a7.1,7.1,0,0,0-2.2-.9l-26.8-1.1c-16.2-.8-32.4-1.7-48.6-2.2C350.5,182.2,346.3,181.5,342.2,181.5Z"/><path d="M394.5,414.8a9.5,9.5,0,0,1-4.8-1.8l-1-.6-20-11.1-22.2-12.4-37.6-20.7-34-18.7-85-47-28.1-15.7L149,279.7l-.7-.4h1.5a19.2,19.2,0,0,1,5.4,1,19.7,19.7,0,0,0,5,1c5.3,1.2,10.6,2.5,15.7,3.9,9.2,2.4,18.7,4.9,28.3,6.1h.1l.6.6h-.1l.3.3h3.3a7.5,7.5,0,0,0,3.5,3l1.4.8,56.9,36.7,24,15.5,19.6,12.6c17.7,11.3,36,23.1,53.8,34.8l8.4,5.3c6.5,4,13.3,8.2,19.3,13.3l.4.4h-1.3Z"/><path d="M149.2,279.5,190,302.4l85,47,71.6,39.4,42.2,23.5c2,1.1,3.9,2.6,6.5,2.3-8.5-7.3-18.4-12.5-27.6-18.6-24.3-16-48.9-31.6-73.4-47.3l-81-52.1c-1.8-1.1-4-1.8-5-3.9H205l-.9-.9h0c-15-2-29.3-6.8-44-10C156.4,281.4,153,279.2,149.2,279.5Z"/><path class="cls-5" d="M248.9,261.4a18.5,18.5,0,0,0-2.5-10.8,74.7,74.7,0,0,1-4-9.2l-1.2-3.2c-.9-2.2-1-3.7-.5-4.8s1.8-1.9,4-2.6c4-1.2,8-2.7,11.9-4.2a99.6,99.6,0,0,1,16.4-5.3,2.6,2.6,0,0,1,1.5-.5,3.3,3.3,0,0,1,2.3,1.4c.6.6,1.2,1.2,1.9,1.2h.8v.3c0,1.8,1.3,2.3,2.6,2.7l1,.4c10.5,5,20.3,7.4,30,7.4a60.2,60.2,0,0,0,9.8-.8c6.8-1.1,13.7-1.6,20.5-2.1l10.3-.8a26.5,26.5,0,0,0,3.6-.7l1.7-.4h.3a2.1,2.1,0,0,0,1.8,1h5.6c5.2,0,10.4.3,15.5.6s10.3.6,15.5.6h2.9a8,8,0,0,0,5.1-2.2l1.1-.9c5.3-4.4,10.9-8.9,18.2-8.9l3.3.3h.2v.2a11,11,0,0,1-1.5,4.4l-.7,1.4h-.1a55.1,55.1,0,0,0-9.3,6.8c-1.6,1.4-3.3,2.8-5.1,4.1s-1.5,2.8-1.5,4.6,0,.8,0,1.1v.3h-4.6a9.8,9.8,0,0,1-4.1-.7,11.5,11.5,0,0,0-4.9-1,20,20,0,0,0-5.2.8,42.3,42.3,0,0,1-11,1.3,73,73,0,0,1-9.4-.7,189.1,189.1,0,0,0-24.4-1.6c-5.6,0-11.2.3-16.7.8-2.4.2-5.6.5-8.8.5a45.1,45.1,0,0,1-10.1-1,22.8,22.8,0,0,0-5.1-.6c-5.9,0-11.6,2.2-17,4.3l-1.9.7a16.7,16.7,0,0,1-6.4,1.4l-1.8-.2-1.8-.2a2.6,2.6,0,0,0-2.6,1.4c-1.7,3.3-4.6,4-7.6,4.7h-.4l-1.7.4c-2.5.5-5.1,1-6.3,3.1s-2,2.5-3.5,2.5h-1.8c-2,0-3,1.4-3.9,2.9l-.6.9Z"/><path class="cls-5" d="M279.3,223.5c-2.6.9-3.2-4.1-6.2-2-9.9,2-18.8,6.8-28.4,9.5-4.4,1.2-5,3.2-3.4,7.1s3.1,8.4,5.2,12.3a18.8,18.8,0,0,1,2.5,11c1.1-1.9,2.3-3.4,5-3s3.1-.1,4.3-2.3,5.2-2.9,8.2-3.6,6.1-1.3,7.9-4.7,4.2-1.2,6.4-1.2a16.5,16.5,0,0,0,6.3-1.3c7.6-2.9,15.6-6.4,24.2-4.5,6.3,1.4,12.7,1.1,18.9.5a184.2,184.2,0,0,1,41.1.8c6.7.9,13.6,1.1,20.3-.6,3.5-.9,6.8-1.3,10.2.3s5.6.5,8.4.6c0-2.1-.5-4.4,1.5-5.9,4.9-3.6,9.1-8.1,14.4-11,.8-1.9,2.1-3.6,2.2-5.7-9.5-1.6-15.9,4.2-22.4,9.5a8.2,8.2,0,0,1-5.3,2.2c-13.1.3-26.2-1.7-39.4-1.1a2.3,2.3,0,0,1-2.1-1.1,49.5,49.5,0,0,1-5.3,1.1c-10.2,1-20.6,1.3-30.7,3-14.2,2.4-27.3-.5-40-6.6C281.6,226.2,279.4,226,279.3,223.5Z"/><path class="cls-13" d="M279.5,329.1a7.9,7.9,0,0,1-6.9-3.4l-15.8-39v-.3h1.6a57.1,57.1,0,0,0,14.3-1.7,18.9,18.9,0,0,1,4.7-.6,23.5,23.5,0,0,1,4.8.5,270.2,270.2,0,0,0,55.8,5.6h1a27.1,27.1,0,0,1,13.4,3l.4.2-.4.2-6.6,3.7a110.5,110.5,0,0,0-12.3,7.4h0l-1.5,1c-4.7,1.1-8.2,4.1-11.7,6.9l-3.2,2.5-2.3,1.7c-5.4,4.2-11,8.5-18.4,9.3a103.6,103.6,0,0,0-12.1,2.2A21,21,0,0,1,279.5,329.1Z"/><path class="cls-13" d="M333.1,304.5c6-4.3,12.7-7.4,19-11.1a27,27,0,0,0-13.4-3,269.4,269.4,0,0,1-56.7-5.6,20.6,20.6,0,0,0-9.4,0,58.6,58.6,0,0,1-15.6,1.7l15.8,39c3,4.1,7.4,3.6,11.2,2.7a103.9,103.9,0,0,1,12.2-2.3c8.4-.9,14.2-6.2,20.6-11,4.7-3.5,8.8-8,14.9-9.4l1.6-1.1Z"/><path class="cls-14" d="M204.2,291.8c-9.6-1.3-19.2-3.7-28.4-6.2-5.1-1.3-10.4-2.7-15.7-3.9h-.4l.2-.3a2.8,2.8,0,0,1,2.4-1.1l1.8.3h.2l29,6.6,2.1.4c3.2.6,6.5,1.3,9,3.8l.5.5Z"/><path class="cls-14" d="M160.2,281.5c14.7,3.2,29,8.1,44,10-3-3-7.1-3.3-10.9-4.2l-29-6.6C162.9,280.5,161.3,280,160.2,281.5Z"/><polygon class="cls-14" points="204 291.7 204.3 291.3 205.2 292.2 204.8 292.6 204 291.7"/><path class="cls-14" d="M204.2,291.5l.9.9Z"/><path class="cls-11" d="M481.3,603.2l-1-.3-.8-.2H478v-.2a18.1,18.1,0,0,0-2.2-7.1,35.4,35.4,0,0,1-1.5-3.6l-11-32.6c-4.4-12.9-8.9-26.3-13.4-39.5-6.6-19.1-15.3-44.4-24.4-70-.7-2.1-1.4-4.2-2.1-6.3-1.7-5.3-3.5-10.9-6.4-15.9l-.2-.4h.7c2.4,0,4.1-1.4,5.8-2.9l1.1-.9,16.1-12.9,21.9-17.5,14.3-11.3L497,365.8l17.6-14.3,17-13.9c16.5-13.3,29.9-23.9,42.4-33.6l4.8-4c3.8-3.2,7.6-6.6,12.3-8.7l.5-.2-.2.6-2.1,6.2c-1.5,4.4-3.1,9-4.7,13.5l-6.7,18.1c-3.4,9.2-6.9,18.7-10.3,28.1s-7.5,21.3-11.1,31.8-7.6,22-11.5,32.9c-2.4,6.8-5,13.7-7.5,20.3-3.6,9.5-7.3,19.3-10.5,29.1-5.9,17.7-12.4,35.5-18.6,52.7l-3.3,9.1c-2.3,6.2-4.5,12.6-6.6,18.8-4.7,13.5-9.6,27.5-15.2,41.1l-.5,1.2c-.9,1.9-1.8,3.9-.3,6h0v2.1h-.1A1.4,1.4,0,0,1,481.3,603.2Z"/><path class="cls-11" d="M417.2,427.5c4,6.9,5.8,14.7,8.5,22.2q12.5,34.9,24.4,70c8.2,24,16.2,48,24.4,72,1.2,3.6,3.6,6.8,3.7,10.7h1c1-.3,2,1.2,3,0v-2c-2-2.7-.1-5.2.8-7.4,8.1-19.6,14.6-39.9,21.8-59.8s15-41.1,21.9-61.8c5.6-16.6,12.2-32.9,18-49.5,7.6-21.5,14.9-43.2,22.6-64.7,5.5-15.5,11.3-30.8,16.9-46.2,2.4-6.5,4.6-13.1,6.9-19.7-6.6,3-11.5,8.3-17,12.6q-21.3,16.6-42.4,33.6c-11.6,9.3-23,18.9-34.6,28.2s-23.1,18.2-34.7,27.4l-38,30.3C422.3,425.4,420.3,427.6,417.2,427.5Z"/><path class="cls-1" d="M148.1,282.7c-.2-.1-.7-.3-.7-.7s.5-.6.7-.7l.4-.2v.4c0,.3,0,.7,0,1v.4Z"/><path class="cls-1" d="M148.2,282.5q0-.5,0-1C147.5,281.9,147.5,282.2,148.2,282.5Z"/><path class="cls-1" d="M329.2,526.7a2.4,2.4,0,0,1-2.2-1.1l-.2-.4h.4a2.3,2.3,0,0,1,2.2,1.1l.2.4Z"/><path class="cls-1" d="M329.2,526.5a2,2,0,0,0-2-1A2.2,2.2,0,0,0,329.2,526.5Z"/><path class="cls-15" d="M432.1,186.2h1.3v.2a1.5,1.5,0,0,1-.3,1.1.8.8,0,0,1-.7.2h-1.3l-1.2.6Z"/><path class="cls-15" d="M432.2,186.5l-1,1c.7-.3,2.2.9,2-1.1Z"/><path class="cls-2" d="M271.6,211.8l.2-.4a3.8,3.8,0,0,1,3.7-2.2h1v.3c-.8,1.9-2.5,2.2-4,2.2Z"/><path class="cls-2" d="M272,211.5c1.7.1,3.4-.2,4.2-2C274.4,209.3,272.9,209.8,272,211.5Z"/><path class="cls-2" d="M283,206.4a2.5,2.5,0,0,1,2.4-1.1h1.3l-.3.4a2.8,2.8,0,0,1-2.7,1.1h-1Z"/><path class="cls-2" d="M283.2,206.5c1.1,0,2.3.1,3-1C285.1,205.5,283.9,205.3,283.2,206.5Z"/><path class="cls-2" d="M275.8,209.8l.2-.4a2.4,2.4,0,0,1,2.4-1.2h1.3l-.2.4a2.6,2.6,0,0,1-2.5,1.1Z"/><path class="cls-2" d="M276.2,209.5c1.1,0,2.3.1,3-1C278.1,208.5,276.9,208.3,276.2,209.5Z"/><path class="cls-2" d="M281,207.4a2.2,2.2,0,0,1,2.2-1.2h.4l-.2.4a2.3,2.3,0,0,1-2.2,1.2h-.4Z"/><path class="cls-2" d="M281.2,207.5a2,2,0,0,0,2-1A2,2,0,0,0,281.2,207.5Z"/><path class="cls-2" d="M286,205.4a2.2,2.2,0,0,1,2.3-1.2h.4l-.2.4a2.4,2.4,0,0,1-2.2,1.2h-.4Z"/><path class="cls-2" d="M286.2,205.5a2.1,2.1,0,0,0,2-1A2,2,0,0,0,286.2,205.5Z"/><path class="cls-2" d="M288,204.4a2.3,2.3,0,0,1,2.3-1.2h.4l-.2.4a2.4,2.4,0,0,1-2.3,1.2h-.4Z"/><path class="cls-2" d="M288.2,204.5a2.1,2.1,0,0,0,2.1-1A2.1,2.1,0,0,0,288.2,204.5Z"/><path class="cls-2" d="M279,208.4a2.2,2.2,0,0,1,2.3-1.2h.4l-.2.4a2.4,2.4,0,0,1-2.2,1.2h-.4Z"/><path class="cls-2" d="M279.2,208.5a2.1,2.1,0,0,0,2-1A1.9,1.9,0,0,0,279.2,208.5Z"/><path d="M400.1,417.7c-2.1-.1-4.6-.2-5.2-3.2v-.3h.3a7.1,7.1,0,0,1,5.2,3.1l.3.4Z"/><path d="M395.2,414.5c.6,2.9,2.8,2.9,5,3A6.9,6.9,0,0,0,395.2,414.5Z"/><polygon points="400 417.7 400.3 417.2 401.8 418.3 401.5 418.7 400 417.7"/><path d="M400.2,417.5l1.5,1Z"/><polygon points="331.5 305.3 333.1 304.2 333.4 304.7 333.1 304.3 333.3 304.7 331.8 305.7 331.5 305.3"/><path d="M333.2,304.5l-1.6,1.1Z"/><path class="cls-2" d="M431.6,250.6a26.5,26.5,0,0,1-5.8-.8l-.7-.2a22.2,22.2,0,0,1-7.2-3.5c-2.5-1.6-4.8-3.1-7.7-3.5H410v-.2c0-.4,0-.7,0-1.1s-.1-3.7,1.7-5,3.4-2.7,5.1-4.1a55.6,55.6,0,0,1,9.4-6.9h.3v.3a153.2,153.2,0,0,1,6.1,24.9v.3h-.9Z"/><path class="cls-2" d="M426.2,225.5c-5.4,2.9-9.6,7.4-14.4,11-2.1,1.5-1.5,3.8-1.5,5.9,5.7.7,9.3,5.7,14.9,6.9a27.1,27.1,0,0,0,7.1,1A152.1,152.1,0,0,0,426.2,225.5Z"/><path class="cls-15" d="M313.3,234.5c-9.8,0-19.7-2.4-30.3-7.4l-1-.4c-1.4-.5-2.9-1-2.9-3.2v-.2h1.3l2.3-.3,138.2-33.8,2.3-.6a27.3,27.3,0,0,1,7.3-1.3h1v.3a3.7,3.7,0,0,1-2.2,2.2l-.4.2-13.4,7.5c-12,6.7-24.4,13.6-36.5,20.6l-6.1,3.3c-4.6,2.4-9.4,4.9-13.4,8.3h-.1l-1.7.4a26.9,26.9,0,0,1-3.7.7l-10.3.8c-6.7.5-13.7,1-20.4,2.1a60.8,60.8,0,0,1-9.9.8Z"/><path class="cls-15" d="M279.3,223.5c0,2.5,2.3,2.6,3.8,3.4,12.7,6,25.8,8.9,40,6.6,10.1-1.7,20.5-2,30.7-3a49.5,49.5,0,0,0,5.3-1.1c5.9-4.9,13-7.8,19.6-11.6,16.6-9.5,33.3-18.7,50-28,1-.6,2.1-1,2.5-2.3-3.6-.2-6.9,1.1-10.2,1.9L282.8,223.1A27.5,27.5,0,0,1,279.3,223.5Z"/><path class="cls-16" d="M435,237.1"/><path class="cls-17" d="M435,237.1"/><path class="cls-12" d="M605.1,37.9l.3.3a3.5,3.5,0,0,0,2.5.6h7c1.5,0,2.2.4,2.1,2.1a50.1,50.1,0,0,1-.4,6.6,50.7,50.7,0,0,1-2.5,8.1c-2.7,7.6-5.1,15.3-8,22.9-.9,2.2-.5,4.5-1.1,6.7,0,4.9-.6,9.7-.5,14.6-.2,7.3-.6,14.7-.9,22-.2,4.4,0,8.7-.5,13.1.4,1.1,1.3,1,2.2.9l2.6-.3c1.7-.4,3.4-.2,5.1-.5s1.8.1,2.7-.3,1.2-.3,1.9-.4h3.1l20.5-2a78.2,78.2,0,0,0,9.2-1l.6-.5a48.7,48.7,0,0,0,.8-10.6,35.3,35.3,0,0,1,0-10.6c.4-4,.5-8.1.7-12.1.1-1.7.2-3.5.4-5.2s-.2-1.6-1.4-1.4-3.9-.1-5.8,0c-6.8.5-13.6.7-20.3,1.3-2,.2-2.3-.2-2.3-2.3s.3-2.4-.6-3.5c.9-8.4.5-16.9,1.4-25.4.3-2.9.1-5.8.2-8.7,0-.6-.3-1.4.6-1.7,1-3,1-3,4.4-3a56.2,56.2,0,0,0,6.6-.1,14.3,14.3,0,0,1,4.2-.3c1.5-.1,2-.7,1.7-2.2s-.8-2.2-.3-3.3c1.4-3.8,1.2-4.1-2.9-4.1-6.1,0-12.1-.7-18.1-.4a12.6,12.6,0,0,0-2.8.3C613.2,38,609.1,37.5,605.1,37.9Z"/><path class="cls-18" d="M555.1,184.1c-2.8.1-2.7.1-2.8,2.7-.2,6.3-.3,12.7-.5,19a6.6,6.6,0,0,1-.9,3.3c-1.7,3-3.3,6.2-5.1,9.2a10.6,10.6,0,0,0-1.6,5.9c.1,3.1-.1,6.2-.2,9.3a2,2,0,0,0,.9,2l44.7,29.2h.4a2.1,2.1,0,0,0,.6-1.8,85.3,85.3,0,0,1,.4-8.7,22.6,22.6,0,0,0-1.4-9.5c-2.2-6.4-4.5-12.8-6.6-19.3a6.8,6.8,0,0,1-.2-4.3c.1-6.7.8-13.4.5-20.2a3.1,3.1,0,0,0-1.8-2.9c-9-4.6-18.2-8.9-27-13.2.4,0,1.2.4,1.3-.6S555.4,184,555.1,184.1Z"/><path class="cls-18" d="M597.8,212.6c-.2,3.9-.3,7.8-.5,11.7a1.9,1.9,0,0,0,1.1,2.1l49.4,26.6h.4a4.4,4.4,0,0,0,.8-2.7c0-2.7.2-5.4.5-8a18.4,18.4,0,0,0-1.6-9c-2.4-5.6-4.4-11.3-6.7-16.9a9,9,0,0,1-.4-5.7c.6-5.2.3-5.5-4.9-4.6L600,211.8C599.2,211.9,598.3,211.9,597.8,212.6Z"/><path class="cls-12" d="M597.8,212.6l22.8-3.5,18.4-3c1.1-.2,1.5,0,1.4,1.2s-.1,2.3-.1,3.4c-.6,4.5-.5,4.6,3.8,3.9,1.6-.3,3.6.1,4.7-1.7a39.4,39.4,0,0,0,.8-7.8c-.1-4.7.6-9.3.8-14,0-.7.4-1.7-.7-2-11.6,1.1-23,3.2-34.5,4.8l-29.4,4.3c-1.4.2-2.9.3-3,2.3q-.3,9.3-.5,18.7c0,.7,0,1.5,0,2.2a6,6,0,0,0-.2,2c-.1,1,.5,1.5,1.3,1.4,2.9-.3,5.9-.3,8.6-1.6,0-2.5.1-4.9.2-7.4s.4-2.6,2.3-2.4S596.6,212.4,597.8,212.6Z"/><path class="cls-19" d="M582.8,200.5c.1-1.4,1.2-1.4,2.2-1.6l20.4-3,37.8-5.5c2.2-.3,4.5-.1,6.5-1.3l-30.9-12c-2-.8-3.9-1.3-6-.7s-1.9.6-2.3,2a23.9,23.9,0,0,0-.3,5.4c0,3.8-.6,4.5-4.5,5.3s-6.2.8-9.3.1a21.4,21.4,0,0,1-7.9-2c-1.7-1.3-1.6-3.2-1.5-5s-.2-2.2-1.8-2.3a21.4,21.4,0,0,1-5.2.8c-2.6,0-5.1.6-7.6.9s-5.5.2-8.1,1.2c-1.1.4-2.4.1-3.7.3l-5.6.8c.2.1.7.1.4.3s-1,.1-1.9.2a38.6,38.6,0,0,0,6.4,3.4l21.2,10.3C582.2,198.8,582.9,199.3,582.8,200.5Z"/><path class="cls-19" d="M650.5,131c-10.2.8-20.3,1.7-30.4,2.9-1.1,1.6-.3,2.9.8,4.1s.4,4.8-1.6,6.4c0,.8-.2,1.5.9,1.9l28.2,8.7h.6a5.7,5.7,0,0,0,.8-3.1c.2-6.6,1-13.1,1-19.7A2.2,2.2,0,0,0,650.5,131Z"/><path class="cls-19" d="M576.3,108l6.6,7.5c.4.5,1,1.1,1.7.9s.3-1.2.3-1.7c-.1-2.4.4-4.8-.4-7.2L533.6,53.2l-9.3-9.9a6.7,6.7,0,0,1-1.7-2.3,24.9,24.9,0,0,0-3.2.3c-.5,0-1.3,0-1.3.9l24.2,27.5Z"/><path class="cls-12" d="M650.5,131c-.7,2.5-.4,5.1-.6,7.6-.4,5.4-.6,10.9-.9,16.4,4.7.1,9.2-.8,13.8-1.4a29.2,29.2,0,0,1,4-.2c1.1,0,1.4-.4,1.6-1.5.9-4.7.3-9.6,1-14.3a58,58,0,0,0,.4-8.1,2.3,2.3,0,0,0-2.1-.6c-5.5.5-11,.9-16.4,1.7a2.2,2.2,0,0,0-1,.5Z"/><path class="cls-20" d="M442.9,212q-.3-27.2-.5-54.5-.2-21.5-.4-42.9c-.1-9-.2-18-.3-26.9,0-.7-.4-1.5.4-2.1.2-2.5-1.8-3.8-3-5.5a.7.7,0,0,0-.9-.2c-.6.3-.6.8-.6,1.4,0,3.2-.1,6.3,0,9.5.3,6.7.1,13.5.2,20.2.2,12.8.3,25.6.5,38.4s.3,23.5.4,35.2c0,4.4.1,8.8.2,13.1s.1,8.2.2,12.2a14.2,14.2,0,0,0,.2,3.2,1.8,1.8,0,0,0,.4.6c1.5.5,2.8.6,3.6-1.1A1.3,1.3,0,0,0,442.9,212Z"/><path class="cls-16" d="M592.1,223.1c-2.3-.1-4.6.7-6.9.9s-2.7.3-2.8-2.6a6.7,6.7,0,0,0,.2,4.5c2.1,6.2,4.1,12.4,6.4,18.5a24.6,24.6,0,0,1,1.4,10.7c-.2,3.2-.3,6.5-.4,9.7l8.3-1.3a2,2,0,0,0,1.9-2.3,98.3,98.3,0,0,1,.4-11.9c.2-1.9-.5-3.7-1.2-5.4Z"/><path class="cls-16" d="M648.8,212.9c-2.4,1.3-5.2.9-7.7,1.7-.7.2-.7-.3-.7-.8v-3a9.1,9.1,0,0,0,.3,5.9c2.6,6.5,5.1,13.1,7.7,19.5,1,2.5.5,5.1.4,7.6s-.4,6.2-.6,9.3c2.8.1,5.4-.9,8.1-1.4.8-.2,1-.6,1.2-1.4.4-2.4.1-4.9.5-7.2a24.2,24.2,0,0,0-2.4-13.6C653,224.1,651,218.5,648.8,212.9Z"/><path class="cls-21" d="M617.2,37.4c.5.7,1.2.4,1.9.4,3.3,0,6.6-.4,9.9,0s8.3.2,12.5.4c0,1.5-.9,2.5-1.1,3.8a1.5,1.5,0,0,0,1.5,1.3c3.2.2,6.4.7,9.6.5,1.4-1.4,1.7-3.3,2.3-5a5.9,5.9,0,0,1,3.5-3.9,3.4,3.4,0,0,0,2.2-1.8c-2.9-.4-5.6.1-8.3-.3-8.7-.2-17.5-.7-26.2-.5C621.7,32.1,618.4,33.5,617.2,37.4Z"/><path class="cls-22" d="M651.3,32.6c2.5.7,5.2.1,8,.6-5.6,1.2-6.3,6-7.6,10.3-.5,2.3.8,4.3,1.2,6.4s2.1,1.8,3.4,2.4.4-.1.3.2l-.4.3c1.6.6,2.9.1,4.5-.4,4.6-1.4,5.9-5.3,6.8-9.2.6-2.3-.9-4.7-1.5-7s-1.7-1.2-2.5-1.9C659.7,31.7,655.4,32.7,651.3,32.6Z"/><path class="cls-23" d="M605.9,189.8c1.8.1,3-1.3,4.6-1.8s.3-1.1.3-1.7c.2-2.7-.3-5.3.4-8a2.3,2.3,0,0,1,1.6-1.8c-1.1.1-1.7-.1-1.6-1.5.5-9.4.9-18.8,1.4-28.2-1.6-1.6-3.4-1.1-5.2-.4a2.7,2.7,0,0,0-.5,1.7c-.2,6.3-.6,12.7-.9,19s-.7,13.1-.8,19.6C605.2,187.8,605.1,188.9,605.9,189.8Z"/><path class="cls-24" d="M438.3,78.3a1.1,1.1,0,0,0-1.5,1c.1,2.1.4,5,.4,7.4q.7,60.2,1.3,120.3c0,.5.1.9.1,1.4s-.1,1,.8,1.3a106.9,106.9,0,0,0-.1-11.9q-.2-21.7-.4-43.3-.3-28.7-.5-57.3c0-4.1-.1-10.8-.2-14.9,0-.7,0-1.4,0-2.7,1.9,2,3.5,3.6,4,5.9l1.1.4c-1-2.8-3.2-4.9-4.6-7.5Z"/><path class="cls-25" d="M421.8,225.3a62.2,62.2,0,0,0,5.2,6.9c.4.5,3.7.5,4,.1s0-.8-.3-1.1-2.2-3.4-3.5-5-1.2-2.2-.1-3.3l.2-.3c1.1-2.5,2.7-4.4,5.8-4.3,1.2,1.1,1.1,2.7,1.5,4.1s1.1,2.6,1,4a1.4,1.4,0,0,0,2,.7c.8-.4.3-1.2.3-1.8s-.4-3.2-.6-4.8-.3-2.7,2.4-3.1a3,3,0,0,0-.1-3.6h0a1.9,1.9,0,0,0-1.7-.4l-7.6,1.1a3.5,3.5,0,0,0-1.9,1,41.9,41.9,0,0,0-6.6,8.6A1,1,0,0,0,421.8,225.3Z"/><path class="cls-12" d="M613.2,140.4H597c-1.8,1.9-1.1,4-.6,6.1a3,3,0,0,0,1.8.6H605a3.5,3.5,0,0,0,2.5-.6c1.7,0,3.4-.5,5.1.3l.6-.8A5.9,5.9,0,0,0,613.2,140.4Z"/><path class="cls-18" d="M622.1,86.5c0,1.7,0,3.4-.1,5s.4,1.5,1.5,1.4l22.9-1.5c1.6-.1,3.2.2,4.8-.5l-27.9-4.4Z"/><path class="cls-20" d="M451,229.1c2.2.1,4-.6,5.1-2.8a67.1,67.1,0,0,1,3.7-5.8c.3-.5.8-.9.3-1.6-2.2-2.5-4.2-5.3-7.3-6.8s-4.2,0-6.3.1-1.4.4-2.2.4-1.2,1.1-.5,2,1.6,1.4,2.3,2.2.4.7.9.6-.1-.5,0-.6,5.2-1.4,6.1-.3l1.9,2.6c.8,1,.2,1.9-.4,2.7s-2.1,3.7-3.3,5.5S450.4,228.4,451,229.1Z"/><path class="cls-26" d="M651.3,130.9c3.4,0,6.7-.5,10-.8l8.6-.6c2.4,0,1.8-1.8,2-3.2s-.6-1.6-1.6-1.6c-5.4.3-10.8.8-16.2,1.3C650.9,126.2,650.2,127.7,651.3,130.9Z"/><path class="cls-16" d="M596.5,146.3c.2-2-.3-4,.5-5.9l-11.6-1.8-2.6-.2a1.7,1.7,0,0,0-.5,1.2,23.2,23.2,0,0,0,.2,4.1c1,.9,2.2.6,3.4.8s1.6.1,2.2.7a2.3,2.3,0,0,0,1.6.6c1.6.3,3.3.7,4.9.9S596,147.1,596.5,146.3Z"/><path class="cls-27" d="M656.1,52.9l1.5-.2c-1.3-1.2-3.2-1.3-4.3-2.7-3.2-1-6.6-.6-9.8-.9-5.3-.6-10.6-.5-15.2-.9,3.8-.2,8.4.4,12.9-.3V47a34.8,34.8,0,0,0-5.7.1H627c-2.7,0-3.3.8-2.6,3.6l29.3,2Z"/><path class="cls-28" d="M589.6,145.3H588l-1.3,34.5c-.4.9.2,2-.3,2.9s-.1,3.8,1.6,5.2c1-1.2,1-2.6,1-4,0-9,.8-18,.9-27.1,0-2.9.4-5.8.3-8.7C590.3,147,590.4,146.1,589.6,145.3Z"/><path class="cls-29" d="M651.3,130.9c-.1-3.9-.1-3.9,3.5-4.3l13-1.2c.9-.1,1.9.1,2.6-.7l-18.8-4.3c-.7.2-.6.8-.6,1.3l-.5,9.4Z"/><path class="cls-18" d="M518.3,42.3c.7-.8,1.6-.4,2.4-.4s1.6,0,2-.8L517.2,27c-.3-.9-.7-1-1.4-.4l-2.4,2.1,3.7,11.5C517.3,41,517.4,41.9,518.3,42.3Z"/><path class="cls-30" d="M446.9,217.4l-.5-.9a2.5,2.5,0,0,0-2.8.2c-.9.9-.2,1.9,0,2.8a10.2,10.2,0,0,1,.6,2.1c.5,2.5,1.4,5,1.4,7.6a11.2,11.2,0,0,1-.5,3.5,2.8,2.8,0,0,0,.3,2.5,1.5,1.5,0,0,0,1.9-1.1c.7-1.8,1.5-3.5,2.2-5.2a2.7,2.7,0,0,0,.1-1.8A90.7,90.7,0,0,0,446.9,217.4Z"/><path class="cls-31" d="M421.9,225.3a81.3,81.3,0,0,1,5.3-7.6c1.7-2.3,4-2.9,6.6-3.1s4-.5,6-.7c0-4.6-.1-9.1-.1-13.7a3.5,3.5,0,0,0-.3-2.2c0,3.8,0,7.5,0,11.3-.6.1-.4-.7-.8-.7s-.3.8-.9.8c-2.3-.2-3.6,1.1-4.1,3.2s-.6,1.2-1.4,1.2c-4-.3-5.7,2.7-7.8,5.2s-1.8,2.7-2.8,4S420.8,224.5,421.9,225.3Z"/><path class="cls-16" d="M613.2,140.4V146c2.2,0,4-1.2,6.1-1.6s2.3-.1,2.3-1.1,1-3.7-.3-5.4Z"/><path class="cls-32" d="M444.6,221.4c-.1-.6-.2-1.2-.4-1.8-.8-2.9-.9-2.9,2.2-3.2l-2.4-2.2c-.5-.4-.7-.7-.2-1.3s-.4-.6-.8-.4-2.2.9-3.3,1.2v3.6c1.4,1.4,3.2,2.3,4.1,4.1A.6.6,0,0,0,444.6,221.4Z"/><path class="cls-33" d="M444.6,221.9h-.8a21.7,21.7,0,0,1,.1,11.7c-.3,1.2.6,1.6,1.5,2.1-.3-1.7.8-3.1.9-4.7C446.4,227.8,445.5,224.8,444.6,221.9Z"/><path class="cls-19" d="M582.7,139.5v-1.2l-2.8-2.9a14.4,14.4,0,0,1-.2,2.2,5.1,5.1,0,0,0,2.3,5.6C583.3,142.2,582.1,140.7,582.7,139.5Z"/><path class="cls-33" d="M451,229.1l4.5-7.7c.5-.9,1.2-1.9-.5-2.3l-4.3,8.4C450.4,228.1,449.6,228.8,451,229.1Z"/><path class="cls-17" d="M443,212.5l.8.4c3,0,5.9-1.1,8.9-.8a2.1,2.1,0,0,0-2.5-1.1c-2.4.3-4.8,1.1-7.3,1Z"/><path class="cls-34" d="M588.4,133.1c0,1.6-.1,3.2,1.7,4a2.2,2.2,0,0,0,.6-1.6c-.1-1.6.2-3.3-1.4-4.5s-.1,1.2-.7,1.6Z"/><path class="cls-35" d="M435.6,226.3c.6-.2.4-.6.3-1l-1.6-6c-.2-.6-.5-1.1-1.2-1.1C433.9,220.9,434.4,223.7,435.6,226.3Z"/><path class="cls-16" d="M582.7,139.5c-.8,1.1.2,2.6-.7,3.7l.3.4C583.2,142.3,582.7,140.9,582.7,139.5Z"/><path class="cls-19" d="M586.5,182.6c.5-.9.3-1.9.3-2.9l-1.5.4C586.5,180.5,586.5,181.5,586.5,182.6Z"/><path class="cls-12" d="M584.8,76.4c2.9-9.2,6.4-18.3,9.4-27.5.3-.9.6-1.8,1.6-2.2s3.3.1,4.8-.4,1.5-.2,1.9.6h0c.1,1.2-.2,2.4-.2,3.6a80.4,80.4,0,0,1-.7,14.9,6.7,6.7,0,0,0,0,2.8,7.5,7.5,0,0,1-1,4.1c-1.1,2.4-1.3,5.1-3,7.2a.4.4,0,0,0-.1.3c-.5,1.6.1,3.3-.3,4.9s-.1,1.1-.1,1.6c-.1,3.6.4,3.1-3.3,3.3s-4.6-.1-6.8.8a24.2,24.2,0,0,0-3.2-3.3C584.1,83.6,583.7,79.9,584.8,76.4Z"/><path class="cls-18" d="M584,87.2c1-.8.5-1.9.5-2.8-.1-5,1.3-9.7,3-14.3,2.7-7.3,5.1-14.6,7.6-22a9.4,9.4,0,0,1,.5-1.1c1-.4,2.1-.1,3.2-.2s0-.8-.4-1c-2.8-1.7-5.7-3.3-8.6-4.8-.5-.2-1-.5-1.5,0-1.3,12-7.1,22.7-10.5,34.2a24.6,24.6,0,0,0-.6,4.4c1,2.1,2.9,3.4,4.4,5.1Z"/><path class="cls-18" d="M455,61c-4.6,4.1-8.2,9.1-12.2,13.7,2.2-.9,3.8-2.7,5.6-4.2l49.3-40.3c2.9-2.4,6-4.6,9-6.9.6-.4,1.3-.8.2-1.4l-3.5-.2c-5.8,4-11.3,8.3-16.8,12.7L460.8,55.7C458.8,57.3,456.6,58.7,455,61Z"/><path class="cls-19" d="M588.4,41.1c3,1,5.4,2.9,8.2,4.2l2.4,1.3c.5.5,1,.2,1.5.2h2l1.6-.2-11.6-6.5-53-29.7c-1.9-1.1-2.9-.6-3.9.9L587.3,40C587.7,40.3,588.2,40.5,588.4,41.1Z"/><path class="cls-19" d="M617.2,47.9c.4-2.7.2-5.4.5-8.1s-.4-1.5-1.4-1.5H605.4c.3,3-.2,5.9,0,8.9.9.9,2.1.6,3.2.7s4.6.3,6.8.7A2.2,2.2,0,0,0,617.2,47.9Z"/><path class="cls-18" d="M608.5,47.2c.1,2.2-1,4-1.7,5.9-1.7,5.2-3.6,10.4-5.5,15.6l-3.6,10.9c1.1,1.2,2.6.6,4,1,3.6.9,3.6.8,3.8,4.4,1.7-11,6.7-20.9,9.9-31.4.6-1.9,1.2-3.7,1.8-5.6Z"/><path class="cls-36" d="M635.4,46.9H625c.5,1.7,1.4,1.8,2.1,1.8,3.3,0,6.6.4,9.8.5,4.8.1,9.6.7,14.4,1.1a3.2,3.2,0,0,0,1.9-.3l-1.7-6.5a2.6,2.6,0,0,0-1.9-.4c-2.6.3-5.2-.5-7.8-.4-.7,0-1.1-.4-1.5-.8-.6,1.3.2,2.5.5,3.6s0,1.3-1,1.3S636.9,47,635.4,46.9Z"/><path class="cls-37" d="M598.6,138.7h9.3a2.9,2.9,0,0,0,0-3.6c-1.5-.5-2.9.8-4.4,0a3.1,3.1,0,0,0-1.1-.8c-1.5-.2-2.9-.4-4,.8A3.6,3.6,0,0,0,598.6,138.7Z"/><path class="cls-38" d="M607.9,135.1v3.6l4-.9c1.7-.3,1.3-1.9,1.2-3.2C611.4,134.8,609.6,134.4,607.9,135.1Z"/><path class="cls-19" d="M588.4,133.1c1,1.1.4,3.1,2.2,3.7a41.9,41.9,0,0,0,8.3,1.4h8.6c2.1-.8,5.1-.1,5.6-3.5.8-.6,1.6.2,2.4,0a6.8,6.8,0,0,1,4.1,1.7v-2.4h.3c-.1,1.5,0,2.9,1.2,4s-.6.9-1,1c-2.5.6-4.9,1.6-7.5,2-5.2.1-10.4,0-15.5,0s-9.4-1.4-14-2.2a6.9,6.9,0,0,1-3.3-3.3C582.6,134.1,585.6,133.9,588.4,133.1Z"/><path class="cls-33" d="M607.5,146.5h-9.4c-1,.6-1,1.5-1,2.5,0,8.5-.6,17-.9,25.4-.1,4.2,0,8.5-.6,12.7a3.2,3.2,0,0,0,.5,2.7c3.2.9,6.5.1,9.7,0,.1-5.8.1-11.6.5-17.4s.6-11.5.8-17.3C607.3,152.2,607.5,149.4,607.5,146.5Z"/><path class="cls-39" d="M596.2,189.8c.5-10.4.9-20.8,1.3-31.3.1-3.4.2-6.7.3-10.1a4.3,4.3,0,0,1,.3-2l-1.6-.2-6.9-1c.3,6.5-.4,12.9-.5,19.4-.1,4.4-.4,8.9-.6,13.3a88.3,88.3,0,0,1-.5,9.7A17,17,0,0,0,596.2,189.8Z"/><path class="cls-18" d="M596.5,135l-4.9-13.3c-1.6,0-3.1-.7-4.7-1s-.8-.4-1.1,0-.1.9.1,1.3l3.3,9a10.7,10.7,0,0,1,.9,4.5c1.1-1.4,2.5-1.3,4-.6s1.5.9,2.4.5V135Z"/><path class="cls-19" d="M601.9,80l-4-.5a1.1,1.1,0,0,0-.5.5c-.5,1.6.1,3.3-.5,4.9-.5,4.1-.5,4.1-4.6,4.2a37.4,37.4,0,0,0-3.8.5c-.6.1-1.3.1-1.3.9L593,96l-.3.6c-2.1.1-4.2.4-6.3.4s-1.6.5-1.6,1.7,0,4.7,0,7c0,.6.4,1.3-.3,1.9-.4,2.6,0,5.3-.2,8.1a4.9,4.9,0,0,1-2.3-1.9c-1.3-1.6-2.8-3.1-4.1-4.7s-.7-1.2-1.5-1c-.2,5.7-.3,11.5-.5,17.2-.1,1.5.4,2.1,1.8,2.4,3.1.8,6.1,1.8,9.1,2.6,1.4.3,1.9,1,1.8,2.3s.8-1.1,1-1.7c-.4-2.6-1.8-4.9-2.5-7.4a6.1,6.1,0,0,1-.5-2c1.2-.2,2.1.3,3.2.5s1.8.4,2.3-.6a39.5,39.5,0,0,0,.1-9.7c-.4-3.6-.2-7.1-.2-10.7,0-1.4.5-2.2,2-2.1s3.9-.4,5.8-.5,2.7-.7,4.1,0,.3,1.1.7,1.5a.4.4,0,0,0,.5,0l.5-14.9C606,80.8,605.9,80.6,601.9,80Z"/><path class="cls-12" d="M605,99.8h-.4V97.9h0c-1.4-1-2.9-.6-4.4-.1h0c-2.3.2-4.7.4-7,.4s-1.7.7-1.8,1.9c-.2,6.4.4,12.8.4,19.2,0,.8,0,1.6,0,2.4a2.7,2.7,0,0,0,.2,2.1c1.1,3.2,2.4,6.4,3.5,9.7a3.4,3.4,0,0,0,1.2,1.8,1.8,1.8,0,0,0,1.9-.2,12.3,12.3,0,0,1,4-.5.8.8,0,0,0,.9.5c.4-9.9.8-19.8,1.3-29.7A36.9,36.9,0,0,0,605,99.8Z"/><path class="cls-12" d="M457.2,53.4,495.7,2.1l.8-1.2h.8c1.4.8,2.7,2,4.3,2.6s1.8,1.6.1,2.8a13.6,13.6,0,0,0-3.2,2.7c-.2,1.5-1.5,2.3-2.2,3.5l-.3-.4a101.8,101.8,0,0,0-8.4,9.6l-14,16.5-8.7,10.3c-3,3.6-5.9,7.2-9.1,10.6A2.3,2.3,0,0,0,455,61l.5-.4v.3a2,2,0,0,1-.6,1c-2.6,2-4.4,4.7-6.6,7.1a39.7,39.7,0,0,1-5.4,5.7c-1,0-1.4,1.3-2.4,1.2Z"/><path class="cls-40" d="M596.5,135l-3.5-1.1c-1.6-.6-2.8-.7-2.9,1.5v1.6c.4.2.6.9,1.1.8,2.6-.5,4.9,1.2,7.4.8q0-1.8,0-3.6Z"/><path class="cls-12" d="M605.9,38.7a1.2,1.2,0,0,0-.8-.8l-12.9-7.1L569.1,17.6,539.2.6a2.5,2.5,0,0,0-1.7-.5h0c-1.8,0-3.7-.4-5.4.5h0a5.1,5.1,0,0,1-2.6.3H497.3c.5,1.5,1.9,1.9,3.1,2.6s2.3,1.2.2,3-2,1.2-2.3,2.4a57.3,57.3,0,0,0,4.6,7.6c1.2,1.9,2.5,3.7,3.6,5.6s-.5,1.2-1,1.5c-16.3,12.3-31.7,25.7-47.6,38.5L444.3,73.2a3.7,3.7,0,0,1-1.5.9c-1,.2-1.6,1-2.5,1.4s-.6.4-.5.5-.4,1-.7,1.3a1.7,1.7,0,0,0-.4.9c1,2.9,2.9,5.2,4.6,7.7,2.1-.4,3.5-2.1,5-3.3,6.6-5.4,13-11,19.6-16.4,4.5-3.7,8.7-7.8,13.3-11.5,7.5-6.1,14.5-12.7,22.3-18.4,3.1-2.2,6-4.7,8.9-7.1.3-.2.5-.7,1-.5a1.6,1.6,0,0,0,1.1-.4c2.1-1.4,2.1-1.4,3,.9,1.6,4,3.3,7.9,4.7,12a15.4,15.4,0,0,0,3.5,4.4c5.5,5.5,10.6,11.3,15.9,16.9,6.8,7.3,13.7,14.5,20.4,21.9,4,4.4,8,8.7,12.2,13s5.6,6.2,8.6,9.1c.5.5,1,1.4,2,1,1-1.9.4-4,.5-6,.1-3.7,0-3.6,3.5-4.1l2.8-.3c1.4-.2,1.6-.9.8-1.9a32.3,32.3,0,0,0-4.6-4.9c-1.3-1-2.2-2.4-3.5-3.4a91.6,91.6,0,0,1-6.7-7.5l-.3.2a3.3,3.3,0,0,1-.9-.5c-8.2-8.5-16.7-16.8-24.7-25.5s-14.2-14-20.7-21.6c-2.6-3-5.6-5.7-8.5-8.5-.9-.9-1-1.5.1-2.3,3.2-2.6,6.4-5.2,9.7-7.7,1-.8,1.9-1.9,3.3-2.1h.5c1.2-1.2,2.4-.9,3.9,0,20.3,11.6,40.8,22.9,61.2,34.3l1.4.7c.9.4-.6.3-.2.6a.8.8,0,0,0,.4.5,2.7,2.7,0,0,0,2.7-.3C606.5,44.3,606.1,41.5,605.9,38.7ZM503.8,5c7.4,0,14.6-.1,21.8-.8a.8.8,0,0,1,.9.6h0L509.7,17.5h0C507.4,13.5,505.8,9.3,503.8,5Z"/></g></g></svg>