<svg xmlns="http://www.w3.org/2000/svg" width="21" height="16" viewBox="0 0 21 16">
    <path fill="#BEC9D0" fill-rule="evenodd" d="M20.5 2.263a8.963 8.963 0 0 1-2.385.591c.858-.464 1.516-1.201 1.826-2.079a8.855 8.855 0 0 1-2.64.911C16.547.956 15.466.5 14.27.5c-2.292 0-4.153 1.683-4.153 3.759 0 .294.036.58.107.856C6.771 4.958 3.71 3.463 1.66 1.186a3.485 3.485 0 0 0-.563 1.892c0 1.303.734 2.454 1.849 3.128a4.496 4.496 0 0 1-1.883-.469v.047c0 1.822 1.432 3.341 3.334 3.685a4.457 4.457 0 0 1-1.095.133c-.267 0-.529-.023-.782-.067.53 1.493 2.062 2.58 3.881 2.609-1.422 1.009-3.214 1.61-5.16 1.61a9.41 9.41 0 0 1-.991-.052 12.695 12.695 0 0 0 6.368 1.688c7.643 0 11.821-5.727 11.821-10.695 0-.163-.004-.327-.01-.487A8.01 8.01 0 0 0 20.5 2.263"/>
</svg>
