<?xml version="1.0" encoding="UTF-8"?>
<svg width="21px" height="16px" viewBox="0 0 21 16" version="1.1" xmlns="http://www.w3.org/2000/svg" xmlns:xlink="http://www.w3.org/1999/xlink">
    <!-- Generator: Sketch 47.1 (45422) - http://www.bohemiancoding.com/sketch -->
    <title>twitter-hover</title>
    <desc>Created with Sketch.</desc>
    <defs></defs>
    <g id="Symbols" stroke="none" stroke-width="1" fill="none" fill-rule="evenodd">
        <g id="twitter-hover" transform="translate(-8.000000, -10.000000)">
            <g id="Group-11">
                <g id="Group">
                    <g id="Group-3-Copy">
                        <rect id="Rectangle-10-Copy-9" x="0" y="0" width="36" height="36" rx="2"></rect>
                    </g>
                    <path d="M28.5,12.2626745 C27.7559429,12.5616516 26.9548336,12.7638376 26.1145008,12.854176 C26.9726624,12.3895784 27.631141,11.6528902 27.9413629,10.7753171 C27.1378764,11.2055 26.25,11.518458 25.3015055,11.6862294 C24.5455626,10.9559939 23.4651347,10.5 22.2694136,10.5 C19.9766244,10.5 18.1164818,12.1830906 18.1164818,14.2587232 C18.1164818,14.5533984 18.1521395,14.8394701 18.2234548,15.1147871 C14.7706022,14.9577704 11.7099842,13.4628848 9.65966719,11.1861417 C9.30190174,11.7432286 9.09746434,12.3895784 9.09746434,13.0778711 C9.09746434,14.3813253 9.83082409,15.5320646 10.9457211,16.2063763 C10.2658479,16.1880935 9.62400951,16.0170958 9.06299525,15.7374769 L9.06299525,15.7837216 C9.06299525,17.6055462 10.4952456,19.1251673 12.3969889,19.4693136 C12.0487322,19.5575011 11.681458,19.6015949 11.3022979,19.6015949 C11.0348653,19.6015949 10.7733756,19.5790103 10.520206,19.5349165 C11.0491284,21.0276512 12.5824089,22.1149385 14.4009509,22.1439758 C12.9793978,23.1527548 11.1870048,23.7539354 9.24128368,23.7539354 C8.90610143,23.7539354 8.57448494,23.7367281 8.25,23.7023134 C10.088748,24.7670161 12.2733756,25.3897059 14.6184628,25.3897059 C22.2610935,25.3897059 26.4389857,19.6628959 26.4389857,14.6953588 C26.4389857,14.5318893 26.43542,14.3684198 26.4282884,14.2081767 C27.2400951,13.6779762 27.9449287,13.01657 28.5,12.2626745" id="Twitter-Copy" fill="#008EDA"></path>
                </g>
            </g>
        </g>
    </g>
</svg>