<?xml version="1.0" encoding="UTF-8"?>
<svg width="48px" height="48px" viewBox="0 0 48 48" version="1.1" xmlns="http://www.w3.org/2000/svg" xmlns:xlink="http://www.w3.org/1999/xlink">
    <!-- Generator: Sketch 48.1 (47250) - http://www.bohemiancoding.com/sketch -->
    <title>Group 10</title>
    <desc>Created with Sketch.</desc>
    <defs></defs>
    <g id="Job-spec/Desktop" stroke="none" stroke-width="1" fill="none" fill-rule="evenodd" transform="translate(-983.000000, -2538.000000)">
        <g id="Group-10" transform="translate(983.000000, 2538.000000)">
            <g id="Group-3-Copy-2">
                <rect id="Rectangle-10-Copy-9" fill="#FFFFFF" x="0" y="0" width="48" height="48" rx="2"></rect>
                <polygon id="Shape" fill="#414141" fill-rule="nonzero" points="29.0526316 33.4736842 32.3684211 33.4736842 32.3684211 37.2631579 34.5789474 37.2631579 34.5789474 33.4736842 37.8947368 33.4736842 33.4736842 27.1578947"></polygon>
                <path d="M33.645933,24.5368421 C34.9529569,24.5368421 36.1804019,24.8596421 37.2631579,25.4212421 L37.2631579,16.7368421 C37.2631579,16.0768421 36.7205742,15.5368421 36.0574163,15.5368421 L34.8516746,15.5368421 L26.4114833,15.5368421 C25.7483254,15.5368421 24.8801914,15.1048421 24.4822967,14.5768421 L22.492823,11.9368421 L22.3119617,11.6968421 C21.9128612,11.1688421 21.045933,10.7368421 20.3827751,10.7368421 L11.9425837,10.7368421 C11.2794258,10.7368421 10.7368421,11.2768421 10.7368421,11.9368421 L10.7368421,33.5368421 C10.7368421,34.1968421 11.2794258,34.7368421 11.9425837,34.7368421 L26.1896268,34.7368421 C25.9448612,33.9796421 25.8086124,33.1744421 25.8086124,32.3368421 C25.8086124,28.0288421 29.3173206,24.5368421 33.645933,24.5368421 Z" id="Shape" fill="#49C1FB" fill-rule="nonzero"></path>
            </g>
        </g>
    </g>
</svg>